/* XPM */
static char *discord[] = {
/* columns rows colors chars-per-pixel */
"48 48 178 2 ",
"   c None",
".  c #65AEDC",
"X  c #65AFDC",
"o  c #66AFDC",
"O  c #66AFDD",
"+  c #67AFDD",
"@  c #67B0DD",
"#  c #68B0DD",
"$  c #69B1DD",
"%  c #6AB1DD",
"&  c #6AB1DE",
"*  c #6BB1DE",
"=  c #6BB2DE",
"-  c #6CB2DE",
";  c #6EB3DE",
":  c #6FB3DF",
">  c #6FB4DF",
",  c #71B5DF",
"<  c #72B5DF",
"1  c #73B6E0",
"2  c #74B6E0",
"3  c #75B7E0",
"4  c #76B7E0",
"5  c #77B8E0",
"6  c #78B8E1",
"7  c #79B9E1",
"8  c #7BBAE2",
"9  c #7DBBE2",
"0  c #7EBCE2",
"q  c #7EBCE3",
"w  c #7FBCE3",
"e  c #80BDE2",
"r  c #81BDE2",
"t  c #81BDE3",
"y  c #84BEE3",
"u  c #83BEE4",
"i  c #85BFE4",
"p  c #86BFE4",
"a  c #86C0E4",
"s  c #87C0E4",
"d  c #88C1E4",
"f  c #88C1E5",
"g  c #89C2E4",
"h  c #8BC2E5",
"j  c #8AC2E6",
"k  c #8CC3E5",
"l  c #8CC3E6",
"z  c #8EC4E6",
"x  c #8FC4E7",
"c  c #90C5E7",
"v  c #91C5E7",
"b  c #91C6E7",
"n  c #92C6E7",
"m  c #93C6E7",
"M  c #93C7E7",
"N  c #92C6E8",
"B  c #93C6E8",
"V  c #93C7E8",
"C  c #94C7E8",
"Z  c #95C7E8",
"A  c #96C8E8",
"S  c #96C8E9",
"D  c #97C8E9",
"F  c #97C9E9",
"G  c #99C9E9",
"H  c #9BCBE8",
"J  c #9ACAE9",
"K  c #9BCAE9",
"L  c #9BCBE9",
"P  c #9BCAEA",
"I  c #9BCBEA",
"U  c #9CCBE9",
"Y  c #9CCBEA",
"T  c #9DCCE9",
"R  c #9DCCEA",
"E  c #9ECCEA",
"W  c #9FCDEA",
"Q  c #A0CDEB",
"!  c #A1CEEA",
"~  c #A1CEEB",
"^  c #A2CEEA",
"/  c #A2CEEB",
"(  c #A3CFEB",
")  c #A4CFEB",
"_  c #A5D0EB",
"`  c #A6D0EC",
"'  c #A6D1EC",
"]  c #A7D1EC",
"[  c #A9D2EC",
"{  c #AAD3ED",
"}  c #ABD3ED",
"|  c #ADD4ED",
" . c #AED5ED",
".. c #B0D6ED",
"X. c #B0D5EE",
"o. c #B2D7EE",
"O. c #B4D8EF",
"+. c #B5D8EF",
"@. c #B7D9EF",
"#. c #BADBEF",
"$. c #B9DAF0",
"%. c #BCDCF0",
"&. c #BDDCF0",
"*. c #BCDCF1",
"=. c #BDDCF1",
"-. c #BEDDF0",
";. c #BFDDF0",
":. c #BEDDF1",
">. c #BFDEF1",
",. c #C1DEF2",
"<. c #C3E0F2",
"1. c #C4E0F2",
"2. c #C5E1F2",
"3. c #C7E2F3",
"4. c #C8E2F3",
"5. c #C9E2F3",
"6. c #C9E3F3",
"7. c #CBE4F4",
"8. c #CCE4F4",
"9. c #CDE5F4",
"0. c #CEE5F4",
"q. c #CEE6F4",
"w. c #CFE6F5",
"e. c #D0E6F4",
"r. c #D0E6F5",
"t. c #D1E7F5",
"y. c #D2E8F5",
"u. c #D3E8F5",
"i. c #D5E9F6",
"p. c #D6EAF6",
"a. c #D7EAF6",
"s. c #D9EBF7",
"d. c #DAEBF7",
"f. c #DBECF7",
"g. c #DCECF7",
"h. c #DCEDF7",
"j. c #DDEEF8",
"k. c #DFEEF8",
"l. c #E0EFF8",
"z. c #E2F0F9",
"x. c #E3F0F9",
"c. c #E4F1F9",
"v. c #E5F1F9",
"b. c #E5F2F9",
"n. c #E7F3FA",
"m. c #E8F3FA",
"M. c #E9F3FA",
"N. c #E9F4FA",
"B. c #EAF4FA",
"V. c #EBF4FA",
"C. c #EAF4FB",
"Z. c #EBF5FB",
"A. c #ECF5FB",
"S. c #EDF5FB",
"D. c #EDF6FB",
"F. c #EEF6FB",
"G. c #F0F7FC",
"H. c #F1F8FC",
"J. c #F2F8FC",
"K. c #F3F9FC",
"L. c #F3F9FD",
"P. c #F4F9FC",
"I. c #F4F9FD",
"U. c #F4FAFD",
"Y. c #F5FAFD",
"T. c #F6FAFD",
"R. c #F7FBFD",
"E. c #F8FBFD",
"W. c #F8FBFE",
"Q. c #F9FCFE",
"!. c #FAFCFE",
"~. c #FAFDFE",
"^. c #FBFDFE",
"/. c #FCFDFE",
"(. c #FDFEFF",
"). c #FEFEFF",
"_. c #FEFFFF",
"`. c white",
/* pixels */
"                                                                                                ",
"                                                                                                ",
"                                                                                                ",
"                                                                                                ",
"                                                                                                ",
"  c C C C C C C C C C C C C C C C C C C C C C C C C C C C C C C C C C C C C C C C C C C C c 7   ",
"  C C C C C C C C C C C C C C C C C C C C C C C C C C C C C C C C C C C C C C C C C C C c 7 *   ",
"  C C C C C C C C C C C C C C C C C C C C C C C C C C C C C C C C C C C C C C C C C C l 7 * *   ",
"  C C C C C C C C C C C C C C C C C C C C C C C C C C C C C C C C C C C C C C C V V l 3 * * *   ",
"  C C C C C C C C C C C C C C C C C C C C C C C C C C C C C C C C C C C C C C C V g 1 @ * * *   ",
"  C C C C C C C C C C C C C C C C C C C C C C C C C C C C C C C C C C C C C C C g , * @ * * @   ",
"  C C C C C C C C C C C C C C C C C C C C C C C C C C C C C C C C C C C C C C g > @ * * * * @   ",
"  C C C C C C C C C C C C C C C C C C V C C C C C C C C V C C C C C C C V V i : @ * * * @ @ @   ",
"  C C C C C C C C C C C C C C C V V D R J V V V V V C J R D V V C C C C V u * @ * * * * @ @ *   ",
"  C C C C C C C C C C C C C C C Q >.5.>.] Y Q ) Q R Y X.7.r.>.Q C V C V e * @ @ @ @ * * * @ *   ",
"  C C C C C C C C C C C C C J >.k.i.3.w.g.C.J.I.I.J.v.s.w.r.z.v.,.J c 0 * * @ @ @ * * * * * *   ",
"  C C C C C C C C C C C C D w.J.v.S.Q._._._._._._._._._._.I.C.S.Q.w.0 * * * @ @ @ @ @ @ * * *   ",
"  C C C C C C C C C C C V [ I._._._._._._._._._._._._._._._._._._.J.g . * * * * @ @ @ @ * @ *   ",
"  C C C C C C C C C C C C w._._._._._._._._._._._._._._._._._._._._.>.* * * * * * * @ @ @ @ *   ",
"  C C C C C C C C C C V R S._._._._._._._._._._._._._._._._._._._._.v.7 . * * * * * * @ @ @ @   ",
"  C C C C C C C C C C V O.Q._._._._._._._._._._._._._._._._._._._._.Q.J . @ @ @ * * @ @ @ @ *   ",
"  C C C C C C C C C C C r._._._._._._.Q.Q._._._._._._.Q.Q._._._._._._.>.* @ @ @ * * @ @ @ @ *   ",
"  C C C C C C C C C V J v._._._._._.g.X.O.l._._._._.s.) J f._._._._._.k.1 @ @ @ * * @ @ @ * *   ",
"  C C C C C C C C C V ] I._._._._.S.Q V V ] J._._.C.c * . k J._._._._.J.y . * * * * @ @ * * *   ",
"  C C C C C C C C C V O.Q._._._._.g.D C V J v._._.w.> @ . 3 v._._._._.Q.J . * * @ @ * * @ @ @   ",
"  C C C C C C C C C V 3._._._._._.C.R V V ] J._._.g.3 . . a G._._._._._. .. * * @ * * * @ @ @   ",
"  C C C C C C C C C V w._._._._._._.y.] [ g._._._.Q.>.e g r._._._._._._.>.* * * @ @ * * * * @   ",
"  C C C C C C C C C D i._._._._._._._.I.I._._._._._._.J.I._._._._._._._.3.* * * @ @ * * * * @   ",
"  C C C C C C C C C D i._._._.E.k.C._._._._._._._._._._._._.M.r.G._._._.5.* @ @ @ @ @ @ * * *   ",
"  C C C C C C C C C V $.E._._._.S.5.<.i.M.I.Q._._._.I.S.y.X. .l._._._.I.R @ @ @ @ @ * * * * *   ",
"  C C C C C C C C C C D >.G._._._._.f.a 5 k Y _ [ Q c 9 e 5.I._._._.C.Q * @ * @ * * * * * * *   ",
"  C C C C C C C C C C C C ] w.C.E.Q.>.: . . . . . . . . : >.E.I.z.#.i @ @ @ * * * * * * * * *   ",
"  C C C C C C C C C C C C V C R Q D , @ @ @ * * * @ @ @ @ 1 c a 3 * . @ * * * @ @ @ * * * * *   ",
"  C C C C C C C C C C C C C C i * . @ @ @ @ * * @ @ @ @ @ @ . . @ @ * * * * * @ @ @ * * * * *   ",
"  C C C C C C C C C C C C V u : @ @ * * * * * * @ @ @ @ * * @ * * * * * * * * * @ @ @ * @ @ @   ",
"  C C C C C C C C C C C V e * * * * * * * * * * * @ @ @ * * * * * * * * * * * @ @ @ @ @ @ @ @   ",
"  C C C C C C C C C C c 0 * * * * * * * * * * * * * @ @ @ @ * * * @ * * * * @ @ * * * * @ * *   ",
"  C C C C C C C C C V 0 * * * * * @ * * * * * * * * * * * * * * @ @ @ @ * * @ @ * * * * @ @ *   ",
"  C C C C C C C C C                                                                             ",
"  C C C C C C C C                                                                               ",
"  C C C C C C C                                                                                 ",
"  C C C C C C                                                                                   ",
"  C C C C C                                                                                     ",
"  C C C C                                                                                       ",
"  C C C                                                                                         ",
"  C C                                                                                           ",
"                                                                                                ",
"                                                                                                "
};
