/* XPM */
static char *file_manager[] = {
/* columns rows colors chars-per-pixel */
"48 48 34 1 ",
"  c None",
". c #5A9BE4",
"X c #5B9BE4",
"o c #5B9CE4",
"O c #5C9CE4",
"+ c #5D9CE4",
"@ c #5D9DE4",
"# c #5F9DE4",
"$ c #619FE4",
"% c #63A0E4",
"& c #66A1E4",
"* c #66A2E4",
"= c #67A2E4",
"- c #6AA3E4",
"; c #6AA4E4",
": c #6BA4E4",
"> c #6AA4E5",
", c #79ACE4",
"< c #80AFE4",
"1 c #81B0E4",
"2 c #8AB5E4",
"3 c #93B9E4",
"4 c #A0C1E5",
"5 c #B5CBE5",
"6 c #C7D5E5",
"7 c #D3DBE5",
"8 c #D6DDE5",
"9 c #DCE0E5",
"0 c #DFE2E5",
"q c #E4E5E5",
"w c gray90",
"e c #E6E5E5",
"r c #E6E6E5",
"t c #E7E6E5",
/* pixels */
"                                                ",
"                                                ",
"                                                ",
"                                                ",
"                                                ",
"                                                ",
" wwwwwwwwwwwwwwww                               ",
" wwwwwwwwwwwwwwww                               ",
" wwwwwwwwwwwwwwwww                              ",
" wwwwwwwwwwwwwwwwww                             ",
" wwwwwwwwwwwwwwwwwwwwwwwwwwwwwwwwwwwwwwwwwwww   ",
" wwwwwwwwwwwwwwwwww08888888888888888888888880   ",
" wwwwwwwwwwwwwwwww03::::::::::::::::::::::::1   ",
" wwwwwwwwwwwwwwwww5$XXXXXXXXXXXXXXXXXXXXXXXXO   ",
" wwwwwwwwwwwwwwww8,XOOOOOOOOOOOOOOOOOOOOOOOOO   ",
" wwwwwwwwwwwwwwww4OOOOOOOOOOOOOOOOOOOOOOOOOOO   ",
" wwwwwwwwwwwwwww6:XOOOOOOOOOOOOOOOOOOOOOOOOOO   ",
" 0888888888888872XOOOOOOOOOOOOOOOOOOOOOOOOOOO   ",
" <:::::::::::::-OOOOOOOOOOOOOOOOOOOOOOOOOOOOO   ",
" oXXXXXXXXXXXXXXOOOOOOOOOOOOOOOOOOOOOOOOOOOOO   ",
" OOOOOOOOOOOOOOOOOOOOOOOOOOOOOOOOOOOOOOOOOOOO   ",
" OOOOOOOOOOOOOOOOOOOOOOOOOOOOOOOOOOOOOOOOOOOO   ",
" OOOOOOOOOOOOOOOOOOOOOOOOOOOOOOOOOOOOOOOOOOOO   ",
" OOOOOOOOOOOOOOOOOOOOOOOOOOOOOOOOOOOOOOOOOOOO   ",
" OOOOOOOOOOOOOOOOOOOOOOOOOOOOOOOOOOOOOOOOOOOO   ",
" OOOOOOOOOOOOOOOOOOOOOOOOOOOOOOOOOOOOOOOOOOOO   ",
" OOOOOOOOOOOOOOOOOOOOOOOOOOOOOOOOOOOOOOOOOOOO   ",
" OOOOOOOOOOOOOOOOOOOOOOOOOOOOOOOOOOOOOOOOOOOO   ",
" OOOOOOOOOOOOOOOOOOOOOOOOOOOOOOOOOOOOOOOOOOOO   ",
" OOOOOOOOOOOOOOOOOOOOOOOOOOOOOOOOOOOOOOOOOOOO   ",
" OOOOOOOOOOOOOOOOOOOOOOOOOOOOOOOOOOOOOOOOOOOO   ",
" OOOOOOOOOOOOOOOOOOOOOOOOOOOOOOOOOOOOOOOOOOOO   ",
" OOOOOOOOOOOOOOOOOOOOOOOOOOOOOOOOOOOOOOOOOOOO   ",
" OOOOOOOOOOOOOOOOOOOOOOOOOOOOOOOOOOOOOOOOOOOO   ",
" OOOOOOOOOOOOOOOOOOOOOOOOOOOOOOOOOOOOOOOOOOOO   ",
" OOOOOOOOOOOOOOOOOOOOOOOOOOOOOOOOOOOOOOOOOOOO   ",
" OOOOOOOOOOOOOOOOOOOOOOOOOOOOOOOOOOOOOOOOOOOO   ",
" OOOOOOOOOOOOOOOOOOOOOOOOOOOOOOOOOOOOOOOOOOOO   ",
" OOOOOOOOOOOOOOOOOOOOOOOOOOOOOOOOOOOOOOOOOOOO   ",
" OOOOOOOOOOOOOOOOOOOOOOOOOOOOOOOOOOOOOOOOOOOO   ",
" OOOOOOOOOOOOOOOOOOOOOOOOOOOOOOOOOOOOOOOOOOOO   ",
" OOOOOOOOOOOOOOOOOOOOOOOOOOOOOOOOOOOOOOOOOOOO   ",
" OOOOOOOOOOOOOOOOOOOOOOOOOOOOOOOOOOOOOOOOOOOO   ",
" :******************************************%   ",
"                                                ",
"                                                ",
"                                                ",
"                                                "
};
