/* XPM */
static char *nixos[] = {
/* columns rows colors chars-per-pixel */
"48 48 129 2 ",
"   c None",
".  c #4E3636",
"X  c #553635",
"o  c #5C3534",
"O  c #523D35",
"+  c #77322F",
"@  c #7A322F",
"#  c #633533",
"$  c #6D3331",
"%  c #663832",
"&  c #723330",
"*  c #5E5B2F",
"=  c #444237",
"-  c #494635",
";  c #4D4A34",
":  c #544135",
">  c #5A4433",
",  c #514E33",
"<  c #5A4C32",
"1  c #555232",
"2  c #595631",
"3  c #5C5930",
"4  c #615E2F",
"5  c #64622D",
"6  c #69672B",
"7  c #6D6B2A",
"8  c #716E29",
"9  c #757327",
"0  c #787627",
"q  c #7D7B25",
"w  c #747228",
"e  c #832F2C",
"r  c #8B2F2C",
"t  c #932E2A",
"y  c #9C2C28",
"u  c #83302D",
"i  c #A42B27",
"p  c #AD2A25",
"a  c #BE2721",
"s  c #BF2621",
"d  c #BD2721",
"f  c #BD2721",
"g  c #B32923",
"h  c #B52823",
"j  c #B42923",
"k  c #B62823",
"l  c #B02824",
"z  c #B12924",
"x  c #B22824",
"c  c #B22924",
"v  c #B02A25",
"b  c #B52823",
"n  c #BA2822",
"m  c #C2261F",
"M  c #C3261F",
"N  c #C5251F",
"B  c #C7251E",
"V  c #C4261F",
"C  c #C5261F",
"Z  c #C5261F",
"A  c #CB241D",
"S  c #C8251E",
"D  c #C9251E",
"F  c #C8251F",
"G  c #CA241E",
"H  c #CB241E",
"J  c #CA251E",
"K  c #CC241D",
"L  c #CD241D",
"P  c #CE241D",
"I  c #CF241D",
"U  c #CC241D",
"Y  c #C02620",
"T  c #C12620",
"R  c #C22620",
"E  c #C32620",
"W  c #C22620",
"Q  c #807E24",
"!  c #807F24",
"~  c #817F24",
"^  c #8B8A1F",
"/  c #8C8A1F",
"(  c #8C8B1F",
")  c #8F8F1D",
"_  c #8C8C1F",
"`  c #8D8D1F",
"'  c #8E8D1F",
"]  c #8F8E1E",
"[  c #8D8C1F",
"{  c #908F1E",
"}  c #96951B",
"|  c #97961A",
" . c #97961B",
".. c #97971B",
"X. c #91901D",
"o. c #92901D",
"O. c #92911D",
"+. c #93921C",
"@. c #94921C",
"#. c #94931C",
"$. c #95941C",
"%. c #96941B",
"&. c #98971A",
"*. c #98971B",
"=. c #98971A",
"-. c #98981A",
";. c #99981A",
":. c #9A991A",
">. c #99981A",
",. c #818023",
"<. c #818123",
"1. c #828123",
"2. c #838123",
"3. c #838223",
"4. c #848322",
"5. c #858322",
"6. c #878521",
"7. c #868621",
"8. c #858422",
"9. c #868522",
"0. c #818024",
"q. c #848322",
"w. c #888721",
"e. c #888721",
"r. c #898820",
"t. c #8A8920",
"y. c #8B8920",
"u. c #8B8A20",
"i. c #898821",
/* pixels */
"                                                                                                ",
"                                                                                                ",
"                                                                                                ",
"                                                                                                ",
"                        @ t r o             * 9 9 9 6           , 8 9 *                         ",
"                      $ n L S r             4 O.;.;.O.5         w &.;.2.,                       ",
"                      u S L L k #             0 &.&.;.2.;     3 ) ;.&.O.3                       ",
"                      # v L L S t             2 ( ;.&.} 7     q ;.&.;.q                         ",
"                        u V L L s &             8 } &.;.t., 5 @.&.&.O.4                         ",
"                          i L L L i             , 9.;.&.} q 9.;.&.&.9                           ",
"                          & T L L V @             5 $.&.&.&.&.&.;.^ 2                           ",
"                $ $ $ $ $ $ p L L L p & $ $ $ $ $ : q ;.&.&.&.&.} 7                             ",
"              $ k T T T T T S L L L S m T T T T T r 2 O.;.&.&.;.5.,             .               ",
"              y L L L L L L L L L L L L L L L L L s % 9 &.&.&.} 6             @ u               ",
"            @ V L L L L L L L L L L L L L L L L L L y < ( ;.&.} 7           o v n $             ",
"            r v p p p p p p p p p p p p p p p p p p i # 6 } &.;.t.2         r S L y             ",
"                          O > > > > O X                 ; 9.;.&.&.9       $ n L L s $           ",
"                          5 ) ) ) 9.2                     5 @.&.;.{ *     y L L L p o           ",
"                        , 5.;.;.&.9                         q ;.&.;.q = & T L L V @             ",
"                        7 } &.;.t.1                         * { ;.;.9.: i L L L i               ",
"                      2 ( ;.&.} 7                             9 &.} 5 @ S L L s &               ",
"                    - 0 &.&.;.2.;                             1 t.2.> v L L L y X               ",
"    9 2.0.Q Q Q Q Q 0.O.&.&.O.5                                 6 3 r S L L L s p p p p p t     ",
"  5 $.;.;.;.;.;.;.;.;.&.&.;.q                                   = # s L L L L L L L L L L T +   ",
"  w &.&.&.&.&.&.&.&.&.&.;.) 1                                     y L L L L L L L L L L L S u   ",
"  2 w.O.O.O.O.O.} &.&.&.&.8 # #                                 @ T L L S m T T m m m m V i o   ",
"    2 5 5 5 5 4 2.;.&.;.t.< i y                               o i L L L i & & & @ @ @ @ @ #     ",
"              1 ( ;.&.} 5 @ S T @                             u S L L s $                       ",
"              0 &.&.;.2.> v L L i o                         # g L L S t                         ",
"            4 O.&.&.O.* # s L L S u                         t S L L k #                         ",
"          ; Q ;.&.&.0     t S L L g #                     $ s L L S u                           ",
"          5 @.&.;.) 3     # k L L S t                     # e e e @ .                           ",
"          2 t.;.} w         r S L L s # 1 7 7 7 7 7 7 7 7 6 6 6 6 6 7 7 7 7 7 7 7 3             ",
"            7 } w.1         o i L L L y < ) &.&.&.&.&.&.&.&.&.&.&.&.&.&.&.&.&.&.O.4             ",
"            , Q 6             r S L L V & 7 } &.&.&.&.&.&.&.&.&.&.&.&.&.&.&.&.;.0               ",
"              1 -           o i L L L L i > 9.;.&.&.&.&.&.&.&.&.&.&.&.&.&.&.;.) 3               ",
"                            u S L L L L S u 2 7 7 7 7 7 9 O.&.&.;.2.7 7 7 7 7 5                 ",
"                          # k L L L L L L k o             0 &.&.;.2.-                           ",
"                          t S L L T s L L S t             2 ) ;.&.} 6                           ",
"                        & s L L S u u S L L s &             8 } &.;.w.1                         ",
"                        i L L L i X X i L L L i             1 w.;.&.} w                         ",
"                      @ V L L T @     @ T L L V @             6 $.&.;.) 2                       ",
"                      + T L L y         y L L L p o           ; Q ;.;.( 2                       ",
"                        t k i $         $ p k k v &             4 9.t.7                         ",
"                          o o             o o o o X               ; ,                           ",
"                                                                                                ",
"                                                                                                ",
"                                                                                                "
};
