/* XPM */
static char *nixos[] = {
/* columns rows colors chars-per-pixel */
"24 24 146 2 ",
"   c None",
".  c #77322F",
"X  c #70372F",
"o  c #7F312D",
"O  c #653831",
"+  c #674D2F",
"@  c #694B2F",
"#  c #6A4E2E",
"$  c #6A532D",
"%  c #7C5B29",
"&  c #624431",
"*  c #644630",
"=  c #65622C",
"-  c #67642C",
";  c #6D632B",
":  c #68662C",
">  c #69692B",
",  c #6A682A",
"<  c #6B682A",
"1  c #6B692A",
"2  c #6C6929",
"3  c #6E6B29",
"4  c #6C692A",
"5  c #6D6A2A",
"6  c #6D6B2A",
"7  c #6D6D28",
"8  c #7A6727",
"9  c #71642A",
"0  c #776428",
"q  c #7B6428",
"w  c #716F28",
"e  c #716E29",
"r  c #747227",
"t  c #797725",
"y  c #787626",
"u  c #797825",
"i  c #7C7B24",
"p  c #7D7D24",
"a  c #7E7C24",
"s  c #7E7D24",
"d  c #727028",
"f  c #822D2D",
"g  c #862E2C",
"h  c #882F2B",
"j  c #892F2B",
"k  c #8A2F2B",
"l  c #8F2E2A",
"z  c #9F2C27",
"x  c #9C2E27",
"c  c #9F2E26",
"v  c #932D29",
"b  c #912E2A",
"n  c #982B28",
"m  c #982C28",
"M  c #9A2C28",
"N  c #9B2C28",
"B  c #81302D",
"V  c #8D352A",
"C  c #813B2C",
"Z  c #A12B26",
"A  c #A02B27",
"S  c #A22B26",
"D  c #A72A25",
"F  c #A52926",
"G  c #A42B26",
"H  c #AA2825",
"J  c #A82A25",
"K  c #A92A25",
"L  c #AB2A24",
"P  c #AD2924",
"I  c #AE2924",
"U  c #AD2A24",
"Y  c #B52722",
"T  c #BA2721",
"R  c #BB2721",
"E  c #B92722",
"W  c #BA2722",
"Q  c #BC2721",
"!  c #BE2620",
"~  c #BF2620",
"^  c #B02923",
"/  c #B22823",
"(  c #B12A23",
")  c #B52822",
"_  c #B72822",
"`  c #C1261F",
"'  c #C2261F",
"]  c #C3261F",
"[  c #C4251F",
"{  c #C5251F",
"}  c #C6251E",
"|  c #C7251E",
" . c #C6241F",
".. c #CA241D",
"X. c #CB241D",
"o. c #C8241E",
"O. c #C9251E",
"+. c #CA241E",
"@. c #CC241D",
"#. c #CD241D",
"$. c #CE241D",
"%. c #C12620",
"&. c #85452A",
"*. c #83492A",
"=. c #817B23",
"-. c #807C23",
";. c #817D23",
":. c #807E23",
">. c #807F23",
",. c #8A881F",
"<. c #8A891F",
"1. c #8B8A1F",
"2. c #8D8B1E",
"3. c #8C8A1F",
"4. c #8C8B1F",
"5. c #8F8E1D",
"6. c #8D8C1E",
"7. c #8D8D1E",
"8. c #8D8C1F",
"9. c #8E8C1E",
"0. c #8E8D1E",
"q. c #908E1D",
"w. c #908F1D",
"e. c #95941B",
"r. c #96951B",
"t. c #95961B",
"y. c #97961A",
"u. c #97971A",
"i. c #97961B",
"p. c #92911C",
"a. c #93921C",
"s. c #98971A",
"d. c #999919",
"f. c #98981A",
"g. c #99991A",
"h. c #818122",
"j. c #818023",
"k. c #838222",
"l. c #848222",
"z. c #858421",
"x. c #858521",
"c. c #868421",
"v. c #868521",
"b. c #888520",
"n. c #888620",
"m. c #898720",
/* pixels */
"                                                ",
"                                                ",
"            D N       d n.r     y s             ",
"            ~ '       5 a.5.  1 a.5.            ",
"            A ..L       s s.:.c.u.y             ",
"            B ~ | v     # 4.s.s.n.              ",
"      k R ' ' ..$.| ' ' P q u.u.w               ",
"      N R R R Y Y _ R R R C c.u.r     D L       ",
"            @ 8 0 &         5 u.<.  g ' R       ",
"            s d.j.            j.u.9 L ..x       ",
"          5 a.5.              1 c.&...R .       ",
"  c.4.<.<.q.u.u                 + / $.| R R P   ",
"- 5.a.a.u.d.n.*                 n ..| ' ' | _   ",
"      : 5.u.% D                 ~ | l           ",
"      y u.j.V $.A             L $.D             ",
"      5.a.1 f ' %.o         O x x X             ",
"      n.:.    A ..A ; c.c.c.:.=.:.j.c.c.w       ",
"      =       v ..| *.5.u.u.s.d.d.u.u.q.5       ",
"              / $.$.P $ 7 5 i u.4.1 5           ",
"            N .._ _ ..n       <.u.w             ",
"            R | k k | ~       d u.<.            ",
"            / D     D ~ v       :.l.            ",
"                                                ",
"                                                "
};
