/* XPM */
static char *obs[] = {
/* columns rows colors chars-per-pixel */
"24 24 43 1 ",
"  c None",
". c #323232",
"X c gray20",
"o c #343434",
"O c #353535",
"+ c #373737",
"@ c gray22",
"# c gray25",
"$ c #414141",
"% c gray26",
"& c #494949",
"* c #4B4B4B",
"= c gray33",
"- c gray36",
"; c gray37",
": c #606060",
"> c #626262",
", c #646464",
"< c #656565",
"1 c gray42",
"2 c #6C6C6C",
"3 c gray45",
"4 c #777777",
"5 c gray47",
"6 c #7E7E7E",
"7 c #838383",
"8 c #8D8D8D",
"9 c #8E8E8E",
"0 c #929292",
"q c #939393",
"w c #989898",
"e c #9B9B9B",
"r c gray63",
"t c gray68",
"y c gray71",
"u c #B7B7B7",
"i c gray",
"p c #C1C1C1",
"a c #CACACA",
"s c #CECECE",
"d c gray83",
"f c gray88",
"g c #E4E4E4",
/* pixels */
"                        ",
"                        ",
"         XXXXXX         ",
"       XXXXXXXXXX       ",
"     XXXXXXXXXXXXXO     ",
"    XXXXX:OXXXXXXXXX    ",
"    XXXX6#XXXXXXXXXX    ",
"   XXXXXtXXXXXXXXXXXX   ",
"   XXXXOdXXXXXXXXXXXX   ",
"  XXXXXXg1XXXX&8=XXXXX  ",
"  XXXXXX4y4@X-pyarOXXX  ",
"  XXXXXXXX:gf7OXX,3XXX  ",
"  XXXXXXXXXeeXXXXX,XXX  ",
"  XXXXXXXXX1-XXXXX#XXX  ",
"  XXXXXXXXX5,XXXXXXXXX  ",
"   XXXXXXXXi0XXXXXXXX   ",
"   XXXXOXO0s#XXXXXXXX   ",
"    XXX&285OXXXXXXXX    ",
"    XXXXXXXXXXXXXXXX    ",
"     OXXXXXXXXXXXXX     ",
"       XXXXXXXXXX       ",
"         XXXXXX         ",
"                        ",
"                        "
};
