/* XPM */
static char *restart[] = {
/* columns rows colors chars-per-pixel */
"24 24 181 2 ",
"   c None",
".  c #002400",
"X  c #002A00",
"o  c #003700",
"O  c #003C00",
"+  c #004300",
"@  c #004800",
"#  c #005300",
"$  c #015C01",
"%  c #026502",
"&  c #026D02",
"*  c #017301",
"=  c #017C01",
"-  c #0D770D",
";  c #0D7C0D",
":  c #137F13",
">  c #247A24",
",  c #028302",
"<  c #0F8A0F",
"1  c #038A03",
"2  c #029502",
"3  c #039B03",
"4  c #099A09",
"5  c #168516",
"6  c #118C11",
"7  c #1D8B1D",
"8  c #119F11",
"9  c #1C9B1C",
"0  c #00A600",
"q  c #0CA20C",
"w  c #11A011",
"e  c #13A813",
"r  c #1BA41B",
"t  c #1EAD1E",
"y  c #1EB21E",
"u  c #14B114",
"i  c #258925",
"p  c #2C842C",
"a  c #298F29",
"s  c #279B27",
"d  c #2E912E",
"f  c #328432",
"g  c #338A33",
"h  c #3C8D3C",
"j  c #379737",
"k  c #319D31",
"l  c #3F9C3F",
"z  c #2AA32A",
"x  c #2DAC2D",
"c  c #23B223",
"v  c #27B927",
"b  c #2CBA2C",
"n  c #2CB12C",
"m  c #35A535",
"M  c #33AC33",
"N  c #33B233",
"B  c #39B339",
"V  c #3DBB3D",
"C  c #30C230",
"Z  c #4A8A4A",
"A  c #4C9E4C",
"S  c #518651",
"D  c #508F50",
"F  c #5F845F",
"G  c #598B59",
"H  c #509D50",
"J  c #42A342",
"K  c #4DA64D",
"L  c #47B147",
"P  c #46BF46",
"I  c #4EB34E",
"U  c #4EB84E",
"Y  c #53A553",
"T  c #5BB85B",
"R  c #55B955",
"E  c #608360",
"W  c #6C9A6C",
"Q  c #758775",
"!  c #768A76",
"~  c #788E78",
"^  c #7A827A",
"/  c #7F9F7F",
"(  c #65B665",
")  c #62BD62",
"_  c #77A677",
"`  c #71BE71",
"'  c #7CBE7C",
"]  c #40C340",
"[  c #41CF41",
"{  c #4DC74D",
"}  c #4CC94C",
"|  c #53CE53",
" . c #5AC45A",
".. c #5ACC5A",
"X. c #55D255",
"o. c #5ED25E",
"O. c #5CDB5C",
"+. c #63CC63",
"@. c #62D362",
"#. c #63DC63",
"$. c #6DD56D",
"%. c #6EDC6E",
"&. c #79CE79",
"*. c #72C672",
"=. c #70DC70",
"-. c #7DDE7D",
";. c #7BD47B",
":. c #64E264",
">. c #6BE56B",
",. c #69EC69",
"<. c #64E864",
"1. c #75E375",
"2. c #74EA74",
"3. c #79E579",
"4. c #7BEB7B",
"5. c #79F079",
"6. c #8D978D",
"7. c #8B9A8B",
"8. c #8CAB8C",
"9. c #85B285",
"0. c #86BF86",
"q. c #93B093",
"w. c #99B799",
"e. c #A0BCA0",
"r. c #8BC28B",
"t. c #85C485",
"y. c #80D480",
"u. c #83DF83",
"i. c #8FD48F",
"p. c #8BD88B",
"a. c #96C596",
"s. c #9EC49E",
"d. c #99D699",
"f. c #86E186",
"g. c #81EC81",
"h. c #8EE28E",
"j. c #85F085",
"k. c #8BF28B",
"l. c #91F391",
"z. c #A7C3A7",
"x. c #ACC3AC",
"c. c #A4D0A4",
"v. c #A7DEA7",
"b. c #AFD9AF",
"n. c #BCCABC",
"m. c #B5C9B5",
"M. c #BAD7BA",
"N. c #BCDBBC",
"B. c #AAE6AA",
"V. c #ABEAAB",
"C. c #ACFDAC",
"Z. c #BCE5BC",
"A. c #B5F2B5",
"S. c #C6B9C6",
"D. c #CABBCA",
"F. c #C9CFC9",
"G. c #C5D2C5",
"H. c #CCD6CC",
"J. c #D8C6D8",
"K. c #DDCCDD",
"L. c #DAD1DA",
"P. c #C5E1C5",
"I. c #C9E6C9",
"U. c #C5EAC5",
"Y. c #C1FFC1",
"T. c #C9F5C9",
"R. c #C8FFC8",
"E. c #DDE7DD",
"W. c #DEF3DE",
"Q. c #DBFFDB",
"!. c #E2DFE2",
"~. c #E1E5E1",
"^. c #E7E8E7",
"/. c #EEEEEE",
"(. c #E2FFE2",
"). c #E9FFE9",
"_. c #E6F4E6",
"`. c #F2ECF2",
"'. c #F3F4F3",
"]. c #FDF6FD",
"[. c #FFFEFF",
/* pixels */
"                      $ #                       ",
"              = e v | { b u 3 , +               ",
"          * C O.| ] i.].[.W.i.x 0 ,             ",
"        4 4.C.k.h.B.Z.'.[.[.[._.T q 2 o         ",
"      4 C.).Y.).[.[.[.'.[.[.[.[.[.( w 2 X       ",
"    * l.[.Q.[.[.H.9.A r.[.`.H.G./.].K 8 ,       ",
"    [ (.(.[.`.W k V O.U.9.K I U I r.s.m 4 #     ",
"  = j.R.[.^.Z B O.<.>. .{ ,.2.2.%...) ' 9 =     ",
"  t g.Q.].Z B #.:.%.v.P.M.0.=.5.3.%...d.Y 1 o   ",
"  b =.[.q.z O.#.%.E.[.[.[.K.7.$.4.1.@.d.9.1 #   ",
"  v ;.].h } O.O.c.].[.[.[.[.S.W 2.3.@.B.z.; %   ",
"% c p.G.k X.#.#.w.`.[.[.[.'.L.Q $.4.o.T.x.- &   ",
"$ y y.z.M X.@.:._ J.'.'./.!.S.E %.3.$.[.8.; %   ",
"  y  .s.M | o.:.+.6.D.L.L.S.^ Y 4.#.B.[.S 5 $   ",
"  r B r.L } o.#.>.+.W ~ ! F Y 1.>.u.[.F.> 5 +   ",
"  6 n R ` P } o.#.:.O.$.*.@.2.>.f.[.[.S i - .   ",
"  @ c x *.I.&...@.-.A._.) #.1.V.[.[./ p 7 $     ",
"    < N x b.[.[.[.[.[.n.t.T.[.[.[./ f d - .     ",
"      r M m N.[.[.[.[.[.[.[.].n.G g j : @       ",
"      O 9 x k a.].[.[.[.e._ D h l j : #         ",
"          6 z s A w.H.~.m.H J J a - @           ",
"            $ 6 9 7 i p f g 7 ; $ X             ",
"                O $ & * & $ + .                 ",
"                                                "
};
