/* XPM */
static char *steam[] = {
/* columns rows colors chars-per-pixel */
"24 24 98 2 ",
"   c None",
".  c #5593B4",
"X  c #5693B5",
"o  c #5793B5",
"O  c #5794B5",
"+  c #5894B5",
"@  c #5894B6",
"#  c #5895B6",
"$  c #5995B6",
"%  c #5A96B6",
"&  c #5B96B7",
"*  c #5C97B7",
"=  c #5E98B8",
"-  c #5F99B9",
";  c #629BBA",
":  c #679EBC",
">  c #689EBD",
",  c #6CA1BE",
"<  c #70A4C0",
"1  c #72A5C1",
"2  c #76A8C3",
"3  c #78A9C4",
"4  c #7EADC6",
"5  c #80AEC7",
"6  c #84B0C9",
"7  c #84B1C9",
"8  c #87B3CA",
"9  c #88B3CB",
"0  c #89B4CB",
"q  c #8AB4CC",
"w  c #8FB8CE",
"e  c #96BCD1",
"r  c #9ABED3",
"t  c #9CC0D3",
"y  c #9CC0D4",
"u  c #9EC1D5",
"i  c #A4C5D7",
"p  c #A5C6D8",
"a  c #A7C7D8",
"s  c #A8C7D9",
"d  c #A9C8D9",
"f  c #B1CDDD",
"g  c #B2CEDD",
"h  c #B4CFDE",
"j  c #B7D1E0",
"k  c #B8D2E0",
"l  c #B9D2E0",
"z  c #BAD3E1",
"x  c #BBD3E1",
"c  c #BBD4E1",
"v  c #BDD5E2",
"b  c #BFD6E3",
"n  c #C3D9E5",
"m  c #C4DAE5",
"M  c #C5DAE5",
"N  c #C5DAE6",
"B  c #C6DAE6",
"V  c #C8DCE7",
"C  c #C9DCE7",
"Z  c #C9DDE7",
"A  c #CADDE8",
"S  c #CBDEE8",
"D  c #CCDFE9",
"F  c #CDDFE9",
"G  c #CEDFE9",
"H  c #CEE0EA",
"J  c #CFE1EA",
"K  c #D1E1EB",
"L  c #D1E2EB",
"P  c #D2E3EB",
"I  c #D3E3EC",
"U  c #D4E3EC",
"Y  c #D4E4EC",
"T  c #D5E4ED",
"R  c #D7E5EE",
"E  c #D7E6EE",
"W  c #D8E6EE",
"Q  c #DBE8EF",
"!  c #DCE8EF",
"~  c #DEEAF0",
"^  c #DEEAF1",
"/  c #DFEBF1",
"(  c #E3EDF3",
")  c #E4EEF3",
"_  c #EAF1F6",
"`  c #ECF3F7",
"'  c #EEF4F8",
"]  c #F0F5F8",
"[  c #F2F7F9",
"{  c #F4F8FA",
"}  c #F5F8FB",
"|  c #F6F9FB",
" . c #F7FAFB",
".. c #F7FAFC",
"X. c #F8FAFC",
"o. c #FDFEFE",
"O. c #FEFFFF",
"+. c white",
/* pixels */
"                                                ",
"                $ $ $ $ $ $ $ $                 ",
"            $ $ $ $ $ $ $ $ $ $ $ $             ",
"        $ $ $ $ $ $ $ $ $ $ $ $ $ $ $           ",
"      $ $ $ $ $ $ $ $ $ $ $ $ X X O $ $         ",
"      $ $ $ $ $ $ $ $ $ $ $ 1 u d q = $ $       ",
"    $ $ $ $ $ $ $ $ $ $ $ 8 W S B T x ; $ $     ",
"    $ $ $ $ $ $ $ $ $ $ : P x T ) b T u O $     ",
"  $ $ $ $ $ $ $ $ $ $ X 8 U Z +.+.[ c n $ $ $   ",
"  $ $ $ $ $ $ $ $ $ $ $ j ! Z +.+.[ c n $ $ $   ",
"  $ $ O O $ $ $ $ $ O 9  . .x T ) b T u O $ $   ",
"  $ $ w 5 = O O O X > W +.+.[ D B T x ; $ $ $   ",
"  $ * D  .J r 1 8 p Z +.+.+.+.' h 0 = $ $ $ $   ",
"  $ $ b +.+.+.`  ./ P X.+.+.I 4 $ X $ $ $ $ $   ",
"  $ O e [ +.+.+.+. .S B ..f : O $ $ $ $ $ $ $   ",
"  $ $ * 2 p / +.+.+...x D = $ $ $ $ $ $ $ $ $   ",
"    $ $ O X 3 _ / ( S Z f $ $ $ $ $ $ $ $ $     ",
"    $ $ $ $ $ i Q B J P 1 $ $ $ $ $ $ $ $ $     ",
"      $ $ $ $ * 8 s t , $ $ $ $ $ $ $ $ $       ",
"      $ $ $ $ $ O X X $ $ $ $ $ $ $ $ $         ",
"        $ $ $ $ $ $ $ $ $ $ $ $ $ $ $           ",
"            $ $ $ $ $ $ $ $ $ $ $ $             ",
"                $ $ $ $ $ $ $ $                 ",
"                                                "
};
