/* XPM */
static char *vim[] = {
/* columns rows colors chars-per-pixel */
"24 24 61 1 ",
"  c None",
". c #79BB7C",
"X c #79BB7D",
"o c #7ABB7D",
"O c #7ABB7E",
"+ c #7BBB7E",
"@ c #7BBC7E",
"# c #7CBC7F",
"$ c #7DBC80",
"% c #7DBD80",
"& c #7EBD81",
"* c #80BE83",
"= c #81BF84",
"- c #82BF85",
"; c #83C086",
": c #85C188",
"> c #87C28A",
", c #8BC48E",
"< c #8CC48E",
"1 c #8FC692",
"2 c #91C794",
"3 c #95C997",
"4 c #99CB9C",
"5 c #A7D2A9",
"6 c #A8D2AA",
"7 c #A9D3AB",
"8 c #AFD6B1",
"9 c #B0D7B2",
"0 c #B2D7B3",
"q c #B3D8B5",
"w c #BBDCBD",
"e c #BCDDBE",
"r c #BDDDBF",
"t c #BEDEC0",
"y c #C4E1C6",
"u c #C6E2C7",
"i c #CCE5CE",
"p c #CDE5CE",
"a c #D0E7D2",
"s c #D2E8D3",
"d c #D3E8D4",
"f c #D3E9D4",
"g c #D5EAD6",
"h c #D9ECDA",
"j c #DDEEDE",
"k c #DEEEDE",
"l c #E5F2E6",
"z c #EEF6EF",
"x c #EFF7F0",
"c c #F0F7F0",
"v c #F0F8F1",
"b c #F3F9F3",
"n c #F5FAF5",
"m c #F9FCF9",
"M c #FAFCFA",
"N c #FBFDFB",
"B c #FCFDFC",
"V c #FCFEFC",
"C c #FDFEFD",
"Z c #FEFEFE",
"A c white",
/* pixels */
"                        ",
"        ########        ",
"      ############      ",
"     ##############     ",
"    ################    ",
"   ##################   ",
"  ####################  ",
"  ######%%%####%%%%###  ",
" #####%qfsfw*.4affp1.## ",
" #####%pAAAh=.5mAAz3.## ",
" #####.0AAAt.*umAv7#### ",
" #####.8AAAr#rAAmq%#### ",
" #####.8AAAt0mAAw%##### ",
" #####.8AAAlnAAu*@##### ",
" #####.8AAAAAAp;@###### ",
" #####.8AAAAAg>.####### ",
"  ####.8AAAAk<.#######  ",
"  ####.7xcvk2.########  ",
"   ####=,,<>@########   ",
"   #####...@#########   ",
"    ################    ",
"      ############      ",
"       ##########       ",
"           ##           "
};
