/* XPM */
static char *window_identify_xpm[] = {
/* columns rows colors chars-per-pixel */
"24 24 74 1 ",
"  c None",
". c black",
"X c #160000",
"o c #180000",
"O c #220000",
"+ c #270000",
"@ c #2A0000",
"# c #2D0505",
"$ c #381616",
"% c #3C1A1A",
"& c #450000",
"* c #4B0000",
"= c #4E0000",
"- c #6E0000",
"; c #710000",
": c #760000",
"> c #7B0000",
", c #512121",
"< c #572020",
"1 c #334545",
"2 c gray25",
"3 c #404848",
"4 c #6B6F6F",
"5 c #706B6B",
"6 c #870000",
"7 c #8A0000",
"8 c #8D0000",
"9 c #830909",
"0 c #920000",
"q c #B30000",
"w c #BC0000",
"e c #B03131",
"r c #C10000",
"t c #D20000",
"y c #D70000",
"u c #D80000",
"i c #DB0000",
"p c #C41616",
"a c #C91313",
"s c #E70000",
"d c #E80000",
"f c #ED0000",
"g c #F00000",
"h c #FA0000",
"j c red",
"k c #F40B0B",
"l c #FF0808",
"z c #FE0C0C",
"x c #E91616",
"c c #FF1717",
"v c #D72929",
"b c #C83737",
"n c #CD3838",
"m c #FF2727",
"M c #BF4040",
"N c #A75858",
"B c #A95B5B",
"V c #8D6B6B",
"C c #926868",
"Z c #946B6B",
"A c #837F7F",
"S c #DF6464",
"D c #FF6E6E",
"F c #FF7272",
"G c #FF7878",
"H c #7E8080",
"J c #7A8989",
"K c gray51",
"L c #868989",
"P c #979E9E",
"I c #FF8D8D",
"U c #FFB2B2",
"Y c #B8C3C3",
"T c #E6C5C5",
/* pixels */
"           jjjj         ",
"          jjjjjj        ",
"       mmljjjjjjj       ",
"      jGUmjjjjjjjj      ",
"     mGIFcr>>wjjjs*     ",
"    jmUFhu;..7jjjt@.    ",
"    jlmcu=X  ujjjt@.    ",
"     u6>-o    jjju@.    ",
"      ...    jjjgq@     ",
"            jjjj0+      ",
"           jjjg0&       ",
"          jhuyq+        ",
"         jju=O+         ",
"         jjd8:-O        ",
"         xkjjza#        ",
"         ZbjjnC         ",
"          Ne9,1         ",
"          PA%+@         ",
"         HYTvtt         ",
"         MSDcjzB        ",
"         jjjjfpVJ       ",
"          jjj0$5L       ",
"           u7<34        ",
"            .2K         "
};
