/* XPM */
static char *Thunar[] = {
/* columns rows colors chars-per-pixel */
"96 96 29 1 ",
"  c None",
". c #5C9CE4",
"X c #5D9DE4",
"o c #5E9DE4",
"O c #609EE4",
"+ c #63A0E5",
"@ c #65A1E4",
"# c #6AA3E4",
"$ c #6BA4E4",
"% c #6DA5E4",
"& c #6EA5E5",
"* c #6EA6E4",
"= c #6FA6E5",
"- c #70A7E4",
"; c #74A9E4",
": c #80AFE5",
"> c #84B1E5",
", c #85B2E4",
"< c #A0C0E4",
"1 c #BACEE5",
"2 c #BBCFE5",
"3 c #BCCFE5",
"4 c #BED0E4",
"5 c #D2DBE4",
"6 c #D3DBE5",
"7 c #E0E3E5",
"8 c #E4E4E4",
"9 c gray90",
"0 c #E6E6E6",
/* pixels */
"                                                                                                ",
"                                                                                                ",
"                                                                                                ",
"                                                                                                ",
"                                                                                                ",
"                                                                                                ",
"                                                                                                ",
"                                                                                                ",
"                                                                                                ",
"                                                                                                ",
"                                                                                                ",
"                                                                                                ",
"   999999999999999999999999999999                                                               ",
"  99999999999999999999999999999999                                                              ",
"  99999999999999999999999999999999                                                              ",
"  999999999999999999999999999999999                                                             ",
"  9999999999999999999999999999999999                                                            ",
"  9999999999999999999999999999999999                                                            ",
"  99999999999999999999999999999999999                                                           ",
"  999999999999999999999999999999999999                                                          ",
"  999999999999999999999999999999999999999999999999999999999999999999999999999999999999999       ",
"  9999999999999999999999999999999999999999999999999999999999999999999999999999999999999999      ",
"  9999999999999999999999999999999999999999999999999999999999999999999999999999999999999999      ",
"  9999999999999999999999999999999999999999999999999999999999999999999999999999999999999999      ",
"  9999999999999999999999999999999999995-................................................$4      ",
"  999999999999999999999999999999999999>..................................................*      ",
"  999999999999999999999999999999999991....................................................      ",
"  99999999999999999999999999999999997*....................................................      ",
"  9999999999999999999999999999999999<.....................................................      ",
"  9999999999999999999999999999999995O.....................................................      ",
"  999999999999999999999999999999999>......................................................      ",
"  999999999999999999999999999999991.......................................................      ",
"  99999999999999999999999999999997*.......................................................      ",
"  9999999999999999999999999999999<........................................................      ",
"  9999999999999999999999999999995O........................................................      ",
"  999999999999999999999999999999>.........................................................      ",
"  3#......................................................................................      ",
"  #.......................................................................................      ",
"  ........................................................................................      ",
"  ........................................................................................      ",
"  ........................................................................................      ",
"  ........................................................................................      ",
"  ........................................................................................      ",
"  ........................................................................................      ",
"  ........................................................................................      ",
"  ........................................................................................      ",
"  ........................................................................................      ",
"  ........................................................................................      ",
"  ........................................................................................      ",
"  ........................................................................................      ",
"  ........................................................................................      ",
"  ........................................................................................      ",
"  ........................................................................................      ",
"  ........................................................................................      ",
"  ........................................................................................      ",
"  ........................................................................................      ",
"  ........................................................................................      ",
"  ........................................................................................      ",
"  ........................................................................................      ",
"  ........................................................................................      ",
"  ........................................................................................      ",
"  ........................................................................................      ",
"  ........................................................................................      ",
"  ........................................................................................      ",
"  ........................................................................................      ",
"  ........................................................................................      ",
"  ........................................................................................      ",
"  ........................................................................................      ",
"  ........................................................................................      ",
"  ........................................................................................      ",
"  ........................................................................................      ",
"  ........................................................................................      ",
"  ........................................................................................      ",
"  ........................................................................................      ",
"  ........................................................................................      ",
"  ........................................................................................      ",
"  ........................................................................................      ",
"  ........................................................................................      ",
"  ........................................................................................      ",
"  ........................................................................................      ",
"  ........................................................................................      ",
"  ........................................................................................      ",
"  ........................................................................................      ",
"  ........................................................................................      ",
"  ........................................................................................      ",
"  ........................................................................................      ",
"  +......................................................................................@      ",
"   :;;;;;;;;;;;;;;;;;;;;;;;;;;;;;;;;;;;;;;;;;;;;;;;;;;;;;;;;;;;;;;;;;;;;;;;;;;;;;;;;;;;;*       ",
"                                                                                                ",
"                                                                                                ",
"                                                                                                ",
"                                                                                                ",
"                                                                                                ",
"                                                                                                ",
"                                                                                                ",
"                                                                                                "
};
