/* XPM */
static char *vim[] = {
/* columns rows colors chars-per-pixel */
"48 48 95 2 ",
"   c None",
".  c #7ABB7D",
"X  c #7BBB7E",
"o  c #7BBC7E",
"O  c #7CBC7F",
"+  c #7DBC80",
"@  c #7DBD80",
"#  c #7EBD81",
"$  c #7FBD82",
"%  c #7FBE82",
"&  c #80BE83",
"*  c #81BF84",
"=  c #82BF84",
"-  c #82BF85",
";  c #83BF85",
":  c #83BF86",
">  c #84C087",
",  c #85C188",
"<  c #86C189",
"1  c #89C38C",
"2  c #8AC38C",
"3  c #8AC38D",
"4  c #8DC590",
"5  c #8EC591",
"6  c #8FC691",
"7  c #93C895",
"8  c #94C897",
"9  c #97CA99",
"0  c #9BCC9D",
"q  c #9ECEA1",
"w  c #A2CFA4",
"e  c #A6D1A8",
"r  c #A6D2A8",
"t  c #A7D2A9",
"y  c #AAD3AB",
"u  c #AAD3AC",
"i  c #ACD5AE",
"p  c #ADD5AF",
"a  c #AED5B0",
"s  c #AFD6B0",
"d  c #AFD6B1",
"f  c #B0D6B2",
"g  c #B0D7B2",
"h  c #B1D7B3",
"j  c #B2D7B3",
"k  c #B2D8B4",
"l  c #B5D9B7",
"z  c #B7DAB8",
"x  c #B8DBBA",
"c  c #B9DBBA",
"v  c #BCDDBE",
"b  c #BDDDBF",
"n  c #C0DFC1",
"m  c #C7E2C8",
"M  c #C8E3C9",
"N  c #CBE4CC",
"B  c #CEE6CF",
"V  c #CEE6D0",
"C  c #CFE6D0",
"Z  c #CFE7D0",
"A  c #D6EAD7",
"S  c #D7EAD7",
"D  c #D7EAD8",
"F  c #D7EBD8",
"G  c #DAECDB",
"H  c #DEEEDF",
"J  c #E3F1E4",
"K  c #E4F1E5",
"L  c #EBF5EB",
"P  c #ECF5EC",
"I  c #EDF6ED",
"U  c #EDF6EE",
"Y  c #EFF7EF",
"T  c #F0F7F0",
"R  c #F0F7F1",
"E  c #F0F8F1",
"W  c #F1F8F1",
"Q  c #F1F8F2",
"!  c #F2F8F2",
"~  c #F2F8F3",
"^  c #F3F9F3",
"/  c #F4F9F4",
"(  c #F6FAF6",
")  c #F7FBF7",
"_  c #F8FBF8",
"`  c #F9FCF9",
"'  c #F9FCFA",
"]  c #FAFCFA",
"[  c #FAFDFB",
"{  c #FBFDFB",
"}  c #FCFDFC",
"|  c #FCFEFC",
" . c #FDFEFD",
".. c #FEFEFE",
"X. c white",
/* pixels */
"                                                                                                ",
"                                              O O                                               ",
"                                  O O O O O O O O O O O O O O                                   ",
"                              O O O O O O O O O O O O O O O O O O                               ",
"                          O O O O O O O O O O O O O O O O O O O O O O                           ",
"                      O O O O O O O O O O O O O O O O O O O O O O O O O O                       ",
"                    O O O O O O O O O O O O O O O O O O O O O O O O O O O O                     ",
"                  O O O O O O O O O O O O O O O O O O O O O O O O O O O O O O                   ",
"                O O O O O O O O O O O O O O O O O O O O O O O O O O O O O O O O                 ",
"              O O O O O O O O O O O O O O O O O O O O O O O O O O O O O O O O O O               ",
"            O O O O O O O O O O O O O O O O O O O O O O O O O O O O O O O O O O O O             ",
"          O O O O O O O O O O O O O O O O O O O O O O O O O O O O O O O O O O O O O O           ",
"        O O O O O O O O O O O O O O O O O O O O O O O O O O O O O O O O O O O O O O O           ",
"        O O O O O O O O O O O O O O O O O O O O O O O O O O O O O O O O O O O O O O O O         ",
"      O O O O O O O O O O O O O O O O O O O O O O O O O O O O O O O O O O O O O O O O O O       ",
"      O O O O O O O O O O O O . . . . . . . . o O O O O O o . . . . . . . . O O O O O O O       ",
"      O O O O O O O O O O O < e g g g g g g i 4 O O O O O 4 i g g g g g g e > O O O O O O       ",
"    O O O O O O O O O O O . k `  . . . . . . .N % O O O & V  . . . . . . .` d . O O O O O O     ",
"    O O O O O O O O O O O . v  . . . . . . . .D * O O o * G  . . . . . . . .c . O O O O O O     ",
"    O O O O O O O O O O O . 9 I  . . . . . .` u O O O O O g R ! ! ! ! ! ! G 7 . O O O O O O     ",
"    O O O O O O O O O O O O * S  . . . . . .! 3 . O % O < V ` ` ` ` `  .J 8 . O O O O O O O     ",
"  O O O O O O O O O O O O O * S  . . . . . .! 3 o % O : M  . . . . . .I q . O O O O O O O O O   ",
"  O O O O O O O O O O O O O * S  . . . . . .! 3 o o * n  . . . . . .! e o O O O O O O O O O O   ",
"  O O O O O O O O O O O O O * S  . . . . . .! 3 . % z `  . . . . .) i O O O O O O O O O O O O   ",
"  O O O O O O O O O O O O O * S  . . . . . .! 3 O d )  . . . . .` l % O O O O O O O O O O O O   ",
"  O O O O O O O O O O O O O * S  . . . . . .! 3 e !  . . . . . .v & o O O O O O O O O O O O O   ",
"  O O O O O O O O O O O O O * S  . . . . . .! d I  . . . . . .M * o O O O O O O O O O O O O O   ",
"  O O O O O O O O O O O O O * S  . . . . . . .!  . . . . . .C < o O O O O O O O O O O O O O     ",
"    O O O O O O O O O O O % * D  . . . . . . . . . . . . .S 3 . O O O O O O O O O O O O O O     ",
"    O O O O O O O O O O O % * D  . . . . . . . . . . . .H 4 . O O O O O O O O O O O O O O O     ",
"    O O O O O O O O O O O O * D  . . . . . . . . . . .K 8 . O O O O O O O O O O O O O O O O     ",
"    O O O O O O O O O O O O * D  . . . . . . . . . .L 0 . % O O O O O O O O O O O O O O O O     ",
"      O O O O O O O O O O O * S  . . . . . . . . .R w o O O O O O O O O O O O O O O O O O       ",
"      O O O O O O O O O O O * S  . . . . . . . .) y O O O O O O O O O O O O O O O O O O O       ",
"        O O O O O O O O O O * F  . . . . . . ._ g % O O O O O O O O O O O O O O O O O O         ",
"        O O O O O O O O O O * B ! ! ! ! ! ! R c % O O O O O O O O O O O O O O O O O O O         ",
"          O O O O O O O O O % < 3 3 3 3 3 3 3 % O O O O O O O O O O O O O O O O O O O           ",
"            O O O O O O O O O o . o o o o o o O O O O O O O O O O O O O O O O O O O             ",
"            O O O O O O O O O O O O O O O O O O O O O O O O O O O O O O O O O O O O             ",
"              O O O O O O O O O O O O O O O O O O O O O O O O O O O O O O O O O O               ",
"                O O O O O O O O O O O O O O O O O O O O O O O O O O O O O O O O                 ",
"                  O O O O O O O O O O O O O O O O O O O O O O O O O O O O O O                   ",
"                    O O O O O O O O O O O O O O O O O O O O O O O O O O O O                     ",
"                        O O O O O O O O O O O O O O O O O O O O O O O O                         ",
"                            O O O O O O O O O O O O O O O O O O O O                             ",
"                                O O O O O O O O O O O O O O O O                                 ",
"                                      O O O O O O O O O O                                       ",
"                                                                                                "
};
