/* XPM */
static char *firefox[] = {
/* columns rows colors chars-per-pixel */
"48 48 171 2 ",
"   c None",
".  c #E1876D",
"X  c #E2876E",
"o  c #E2886E",
"O  c #E2886F",
"+  c #E2896F",
"@  c #E18970",
"#  c #E28970",
"$  c #E28A71",
"%  c #E28A72",
"&  c #E28B72",
"*  c #E38B72",
"=  c #E28B73",
"-  c #E38B73",
";  c #E38C73",
":  c #E38C74",
">  c #E38D75",
",  c #E38E76",
"<  c #E38E77",
"1  c #E38F77",
"2  c #E48F77",
"3  c #E38F78",
"4  c #E49078",
"5  c #E49079",
"6  c #E49179",
"7  c #E4917A",
"8  c #E4927A",
"9  c #E4927B",
"0  c #E4937C",
"q  c #E5937D",
"w  c #E5947D",
"e  c #E5947E",
"r  c #E5957E",
"t  c #E5967F",
"y  c #E59680",
"u  c #E59780",
"i  c #E59781",
"p  c #E69781",
"a  c #E69882",
"s  c #E69883",
"d  c #E69983",
"f  c #E69A84",
"g  c #E69B86",
"h  c #E79C87",
"j  c #E79D88",
"k  c #E79E89",
"l  c #E89F8B",
"z  c #E8A08C",
"x  c #E8A18D",
"c  c #E8A28E",
"v  c #E8A490",
"b  c #E9A592",
"n  c #E9A693",
"m  c #E9A694",
"M  c #E9A794",
"N  c #EAA794",
"B  c #E9A895",
"V  c #EAA896",
"C  c #EAA997",
"Z  c #EAAA98",
"A  c #EAAA99",
"S  c #EBAC9A",
"D  c #EBAD9B",
"F  c #EBAD9C",
"G  c #EBAE9C",
"H  c #ECB0A0",
"J  c #ECB2A2",
"K  c #ECB3A3",
"L  c #ECB4A4",
"P  c #EDB4A4",
"I  c #EDB5A5",
"U  c #EDB5A6",
"Y  c #EDB6A6",
"T  c #EDB6A7",
"R  c #EDB7A7",
"E  c #EDB6A8",
"W  c #EDB7A8",
"Q  c #EEB8A9",
"!  c #EEB9AA",
"~  c #EEB9AB",
"^  c #EEBAAB",
"/  c #EEBBAD",
"(  c #EFBBAD",
")  c #EEBCAD",
"_  c #EFBDAE",
"`  c #EFBDAF",
"'  c #EFBEB0",
"]  c #EFBFB1",
"[  c #EFBFB2",
"{  c #F0C0B3",
"}  c #F0C2B5",
"|  c #F0C3B6",
" . c #F1C6BA",
".. c #F1C7BB",
"X. c #F2CABE",
"o. c #F2CBC0",
"O. c #F2CCC1",
"+. c #F3CEC4",
"@. c #F3CFC5",
"#. c #F3D0C6",
"$. c #F4D0C6",
"%. c #F4D1C7",
"&. c #F4D2C8",
"*. c #F4D3C9",
"=. c #F4D3CA",
"-. c #F5D5CD",
";. c #F5D6CD",
":. c #F6D9D1",
">. c #F6DBD3",
",. c #F6DBD4",
"<. c #F6DCD4",
"1. c #F7DCD5",
"2. c #F7DED7",
"3. c #F7DFD8",
"4. c #F8E0DA",
"5. c #F8E2DC",
"6. c #F8E3DD",
"7. c #F8E4DE",
"8. c #F8E4DF",
"9. c #F8E5DF",
"0. c #F9E5DF",
"q. c #F9E5E0",
"w. c #F9E6E1",
"e. c #F9E7E2",
"r. c #F9E7E3",
"t. c #F9E8E3",
"y. c #F9E9E4",
"u. c #FAEAE5",
"i. c #FAEAE6",
"p. c #FAEBE6",
"a. c #FAEBE7",
"s. c #FAECE8",
"d. c #FBEDE9",
"f. c #FBEDEA",
"g. c #FBEEEA",
"h. c #FBEEEB",
"j. c #FBEFEB",
"k. c #FBEFEC",
"l. c #FBF0EC",
"z. c #FBF0ED",
"x. c #FCF1EE",
"c. c #FCF2EF",
"v. c #FCF2F0",
"b. c #FCF3F0",
"n. c #FCF3F1",
"m. c #FCF4F1",
"M. c #FCF4F2",
"N. c #FCF5F2",
"B. c #FDF5F3",
"V. c #FDF6F3",
"C. c #FDF5F4",
"Z. c #FDF6F4",
"A. c #FDF7F5",
"S. c #FDF7F6",
"D. c #FDF8F6",
"F. c #FDF8F7",
"G. c #FDF9F7",
"H. c #FEF9F8",
"J. c #FEFAF9",
"K. c #FEFBF9",
"L. c #FEFBFA",
"P. c #FEFBFB",
"I. c #FEFCFB",
"U. c #FEFCFC",
"Y. c #FEFDFC",
"T. c #FEFDFD",
"R. c #FFFDFD",
"E. c #FFFEFD",
"W. c #FFFEFE",
"Q. c #FFFFFE",
"!. c white",
/* pixels */
"                                                                                                ",
"                                              # #                                               ",
"                                  # # # # # # # # # # # # # #                                   ",
"                              # # # # # # # # # # # # # # # # # #                               ",
"                          # # # # # # # # # # # # # # # # # # # # # #                           ",
"                      # # # # # # # # # # # # # # # # # # # # # # # # # #                       ",
"                    # # # # # # # # # # # # # # # # # # # # # # # # # # # #                     ",
"                  # # # # # # # # # # # # # # # # # # # # # # # # # # # # # #                   ",
"                # # O O O # # # # # # # # # # # # # # # # # # # # # # O O # # #                 ",
"              # # # q r 9 # X O # # # # # # # # # # # # # # # # # O O < 2 # # # #               ",
"            # # O y 0.l.w.%.R a # O # # # # # # # # # # # # # O # k ) <.X.; # # # #             ",
"          # # # X S J.!.!.!.!.h.} r O # # # # # # # # # # O ; n %.c.!.!.a.9 O # # # #           ",
"        # # # # X ) J.h.!.!.!.!.!.0.V # # # # # # # # # O k @.B.!.!.J.c.b.h O # # # #           ",
"        # # # # X } S.Q a.!.!.!.!.!.c.H # # O O O O O # R h.!.!.!.!.<...F.S X # # # # #         ",
"      # # # # # X } B.f { !.!.!.!.!.!.c.n # 9 q 9 < # / F.!.!.!.!.J.S R J.R X # # # # # #       ",
"      # # # # # X [ b.y h B.!.!.!.!.!.!.0.*.0.a.w.<.O.B.!.!.!.!.!.w.9 R J.Q X # # # # # #       ",
"      # # # # # X H B.n r l.!.!.!.!.!.!.!.!.!.!.!.!.!.!.!.!.!.!.!.<.< / I.R X # # # # # #       ",
"    # # # # # # O f c.} c S.!.!.!.!.!.!.!.!.!.!.!.!.!.!.!.!.!.!.!.t.r ;.J.m O # # # # # # #     ",
"    # # # # # # # < :.t...!.!.!.!.!.!.!.!.!.!.!.!.!.!.!.!.!.!.!.!.B./ B.h.r O # # # # # # #     ",
"    # # # # # # # O H F.S.!.!.!.!.!.!.!.!.!.!.!.!.!.!.!.!.!.!.!.!.!.B.!.@.# # # # # # # # #     ",
"    # # # # # # # O 9 ,.!.!.!.!.!.!.!.!.!.!.!.!.!.!.!.!.!.!.!.!.!.!.!.F.V X # # # # # # # #     ",
"  # # # # # # # # # X H J.!.!.!.!.!.!.!.!.!.!.!.!.!.!.!.!.!.!.!.!.!.!.a.r O # # # # # # # # #   ",
"  # # # # # # # # # O { !.!.!.!.!.!.!.!.!.!.!.!.!.!.!.!.!.!.!.!.!.!.!.h.r O # # # # # # # # #   ",
"  # # # # # # # # O q 0.!.!.J.h.!.!.!.!.!.!.!.!.!.!.!.!.!.!.S.S.!.!.!.S.c O # # # # # # # # #   ",
"  # # # # # # # # O R I.!.!.S.) w.!.!.!.!.!.!.!.!.!.!.!.!.B./ a.!.!.!.!.R X # # # # # # # # #   ",
"  # # # # # # # O r 0.!.!.!.I.Q m a.!.!.!.!.!.!.!.!.!.!.B.R l b.!.!.!.!.o.# # # # # # # # # #   ",
"  # # # # # # # # [ !.!.!.!.!.b.;.:.J.!.!.!.!.!.!.!.!.!.6.%.a.!.!.!.!.!.a.y O # # # # # # # #   ",
"  # # # # # # # ; [ a.I.!.!.!.!.!.!.!.!.!.!.!.!.!.!.!.!.!.!.!.!.!.!.!.!.6.c O # # # # # # #     ",
"    # # # # # # # < E 4.h.J.!.!.!.!.!.!.!.!.!.!.!.!.!.!.!.!.!.!.!.!.c.3.n # # # # # # # # #     ",
"    # # # # # # # # h A E o.w.I.!.!.!.!.!.!.!.!.!.!.!.!.!.!.!.!.k.@.R A y O # # # # # # # #     ",
"    # # # # # # # # O O # < a Q h.!.!.!.!.!.!.!.!.!.!.!.!.!.!.*.k < # O O # # # # # # # # #     ",
"    # # # # # # # # # # # # O O m h.!.!.!.!.!.!.!.!.!.!.!.!.O.3 X # # # # # # # # # # # # #     ",
"      # # # # # # # # # # # # # O F S.!.!.!.!.!.!.!.!.!.!.*.9 O # # # # # # # # # # # # #       ",
"      # # # # # # # # # # # # # # # ..!.!.!.!.!.!.!.!.!.w.a O # # # # # # # # # # # # # #       ",
"        # # # # # # # # # # # # # O y w.!.!.!.!.!.!.!.F.F O # # # # # # # # # # # # # #         ",
"        # # # # # # # # # # # # # # O Q !.!.!.!.!.!.!.*.< # # # # # # # # # # # # # # #         ",
"          # # # # # # # # # # # # # O r w.!.!.!.!.!.b.c O # # # # # # # # # # # # # #           ",
"            # # # # # # # # # # # # # O / S...R Q a.#.# # # # # # # # # # # # # # #             ",
"            # # # # # # # # # # # # # O y t.o.# S h.n O # # # # # # # # # # # # # #             ",
"              # # # # # # # # # # # # # O [ S.[ t.;.< # # # # # # # # # # # # # #               ",
"                # # # # # # # # # # # # O r :.B.w.n O # # # # # # # # # # # # #                 ",
"                  # # # # # # # # # # # # O 9 V a # # # # # # # # # # # # # #                   ",
"                    # # # # # # # # # # # # O O O # # # # # # # # # # # # #                     ",
"                        # # # # # # # # # # # # # # # # # # # # # # # #                         ",
"                            # # # # # # # # # # # # # # # # # # # #                             ",
"                                # # # # # # # # # # # # # # # #                                 ",
"                                      # # # # # # # # # #                                       ",
"                                                                                                "
};
