/* XPM */
static char *aef0560b944c4c46b2e42047a2421507GjnOELr6BYybtOPo[] = {
/* columns rows colors chars-per-pixel */
"48 34 240 2 ",
"   c #BC3D14",
".  c #E03C00",
"X  c #B0481C",
"o  c #9E5333",
"O  c #BA592E",
"+  c #A25231",
"@  c #BB4E2E",
"#  c #B3693C",
"$  c #C9460A",
"%  c #DA4F02",
"&  c #D84A04",
"*  c #DA5405",
"=  c #CA4A16",
"-  c #DC4B11",
";  c #D84614",
":  c #C55B14",
">  c #C95516",
",  c #DB5219",
"<  c #D55919",
"1  c #CF5508",
"2  c #E24D03",
"3  c #EA4A03",
"4  c #E3490C",
"5  c #EF4706",
"6  c #F44C02",
"7  c #F24E0E",
"8  c #FA4B08",
"9  c #EF5406",
"0  c #EE530F",
"q  c #EA5A04",
"w  c #F35404",
"e  c #FF5501",
"r  c #F45B0C",
"t  c #FD5E0F",
"y  c #F4570A",
"u  c #E64C18",
"i  c #FB4E17",
"p  c #E7571A",
"a  c #FD551A",
"s  c #F25B19",
"d  c #FF5E1B",
"f  c #F45717",
"g  c #CD631C",
"h  c #D6611B",
"j  c #F26901",
"k  c #FB660B",
"l  c #FF7B0F",
"z  c #EB6918",
"x  c #FF6514",
"c  c #FC641B",
"v  c #FD6B1E",
"b  c #F2641A",
"n  c #F6700D",
"m  c #CA4B26",
"M  c #D04A29",
"N  c #CC5720",
"B  c #D45423",
"V  c #DB5B29",
"C  c #CC5D33",
"Z  c #CB5C39",
"A  c #C95432",
"S  c #D55434",
"D  c #D55F32",
"F  c #DD5B37",
"G  c #E45325",
"H  c #E35129",
"J  c #E65825",
"K  c #FE5C2B",
"L  c #F55623",
"P  c #E35C34",
"I  c #EC5C34",
"U  c #E35F3D",
"Y  c #E34E26",
"T  c #D76628",
"R  c #CA613D",
"E  c #DB6431",
"W  c #DC6339",
"Q  c #D56B3D",
"!  c #D56537",
"~  c #CF7B3F",
"^  c #CF6826",
"/  c #E56026",
"(  c #E8642C",
")  c #F36325",
"_  c #FF6424",
"`  c #FD6B24",
"'  c #FB662B",
"]  c #FC6C2B",
"[  c #F46827",
"{  c #E86738",
"}  c #FE6434",
"|  c #F46933",
" . c #F4633B",
".. c #FA6A37",
"X. c #E57B35",
"o. c #FC7134",
"O. c #F8723A",
"+. c #E9752A",
"@. c #8C5F4A",
"#. c #BB6C48",
"$. c #BF754B",
"%. c #B7734E",
"&. c #C95F47",
"*. c #CB6542",
"=. c #D86845",
"-. c #C07E44",
";. c #DD7545",
":. c #D6714B",
">. c #C77956",
",. c #DC7C54",
"<. c #E47743",
"1. c #E57B57",
"2. c #F57853",
"3. c #F16E47",
"4. c #E3796C",
"5. c #D1803E",
"6. c #F28135",
"7. c #BF804A",
"8. c #BB8257",
"9. c #9A806F",
"0. c #B28570",
"q. c #C78459",
"w. c #D48A54",
"e. c #DC8A51",
"r. c #D6805B",
"t. c #D3905B",
"y. c #D88247",
"u. c #E68446",
"i. c #E88856",
"p. c #F9895C",
"a. c #E29551",
"s. c #CD8161",
"d. c #DC886B",
"f. c #D6956B",
"g. c #D98C72",
"h. c #DC9778",
"j. c #ED8964",
"k. c #F79768",
"l. c #E78A77",
"z. c #E89776",
"x. c #F49474",
"c. c #FA9677",
"v. c #EE946C",
"b. c #FFA268",
"n. c #FEAD7C",
"m. c #F8A778",
"M. c #AE9483",
"N. c #B6A88E",
"B. c #E89C83",
"V. c #FC9D87",
"C. c #CFA889",
"Z. c #FFA484",
"A. c #FDAC87",
"S. c #FFAC8B",
"D. c #F7A98D",
"F. c #E9B383",
"G. c #FDB28B",
"H. c #FFB887",
"J. c #E8A996",
"K. c #EBBD9A",
"L. c #FFB593",
"P. c #FCB79C",
"I. c #EBA58C",
"U. c #DCB5A6",
"Y. c #EEAFA8",
"T. c #E6B9A7",
"R. c #FFBAA6",
"E. c #FFBEB2",
"W. c #EEC08F",
"Q. c #FFC49A",
"!. c #FDC698",
"~. c #CFC1A7",
"^. c #FFCCA1",
"/. c #FFC5AD",
"(. c #FFCBAD",
"). c #FFC3A6",
"_. c #FFD2AE",
"`. c #FFC2B3",
"'. c #FECEBC",
"]. c #FAC8B9",
"[. c #FFD6B2",
"{. c #FFD9B5",
"}. c #FFDBBC",
"|. c #FFD4BF",
" X c #ECC8A8",
".X c #FFE4BE",
"XX c #FFECBB",
"oX c #FFE3B2",
"OX c #EFCAC2",
"+X c #FBCFC4",
"@X c #FFD3C3",
"#X c #FFDBC5",
"$X c #FFDBCC",
"%X c #FCCED0",
"&X c #FFDBD3",
"*X c #FFDDDC",
"=X c #F4DED3",
"-X c #FFE5C5",
";X c #FFE3CB",
":X c #FFEBCC",
">X c #FFECC2",
",X c #FFF3CC",
"<X c #FFF1C5",
"1X c #FFE4D4",
"2X c #FEECD3",
"3X c #FFE5DA",
"4X c #FFECDB",
"5X c #F6ECDA",
"6X c #FFF3D4",
"7X c #FFF4DC",
"8X c #FFF9DC",
"9X c #FFF8D7",
"0X c #FFEDE3",
"qX c #FFEDEA",
"wX c #FFE7E6",
"eX c #FFF4E3",
"rX c #FFFBE4",
"tX c #FEF4EC",
"yX c #FFFCED",
"uX c #F4F8EA",
"iX c #FFEFF3",
"pX c #FFEFFC",
"aX c #ECFFF5",
"sX c #E6FEFE",
"dX c #EDFFFE",
"fX c #F5F6F6",
"gX c #FEF5F4",
"hX c #F5FEF4",
"jX c #FEFDF4",
"kX c #FEF5FC",
"lX c #F4FFFE",
"zX c #FFFEF9",
"xX c #FEFAFF",
"cX c #F9FFFF",
"vX c #FBFFFF",
"bX c #FAFDFE",
"nX c #FCFFFF",
"mX c #FEFDFE",
"MX c #FDFEFD",
"NX c #F5F6FA",
/* pixels */
"tXgXlXsXsXlXzXzXxXfXlXdXaXdXlXdXlXrX{.A.Z.Z.Z.Z.Z.c.Z.S.Z.[.rXhXdXlXlXaXdXlXfXzXjXjXlXsXsXlXkXqX",
"tXjXlXdXdXlXjXzXMXcXlXaXuXyXkXgXyX:Xm.Z M U U A S S S S =.g.}.jXzXkXfXuXhXlXcXzXjXjXlXdXdXlXzXtX",
"gXjXlXdXlXMXzXkXxXcXfXgXrX7X4X6X3Xg.A U  .G P 3.U 3.I Y I Z g.1X0X4X7XrXjXcXcXxXjXjXcXlXdXlXxXjX",
"jXzXcXlXcXzXzXxXxXlXkXgX-XA.c.A.c.=.H K K K | E B  .K K } H Z x.A.v.Z.|.tXMXxXcXzXjXzXMXlXcXMXzX",
"zXMXcXMXzXjXjXMXcXxXkX&Xv./ J ( P G L a 6 5 p < < < 7 8 i i Y H < , < j.%XkXxXxXMXjXjXjXMXcXMXMX",
"lXlXMXMXjXjXjXMXlXkX*XB.P ' ] p 3.W  .} L J i.m.n.i.| u u 3.2.{ ; s u m l.%XNXlXzXjXjXzXxXcXlXlX",
"lXlXMXMXkXjXzXMXcXxXY.&.J ' ) E ].qXwXE.R.;XrXjXjXeX@X/.E.&XqX$XE u u ; @ J.gXcXMXjXjXgXMXMXlXdX",
"dXlXMXxXzXzXzXMXNXgXP.=.O.' E A.4XkXgXqXrXtXhXdXsXzXrXeXgXgXkX0XP.V ; J Z J.jXhXjXzXjXzXxXMXlXlX",
"lXcXMXxXxXMXzXbXjXrX_.<.O.T z.2X3XrX3X$X6X6XyXjXjX5X5X6X1X4X4X4X7Xl.N J > {.eXuXjXzXxXxXxXMXcXlX",
"bXcXMXMXxXMXMXzXyX9X!.B ( ;.;XyXrX~.M.0.%.h.1XjXjX4XB.%.@.9.N.5XeX7XQ > = m.9XyXjXzXMXMXMXMXMXcX",
"zXMXMXMXMXMXcXzXyX,Xk.T T H.tXuXyX5X=X'.f.%.U.gXeX].o >.T.0X7XyXgXtX!.: : y.<XrXbXlXMXMXMXMXMXMX",
"zXMXMXMXMXMXcXMXjX9Xe.X.+.!.tXgXjXjXzXtX1Xz.U.gXgX+X%.:XqXzXyXuXMX3XoX< g ~ 9XeXzXcXMXMXMXMXMXMX",
"MXMXMXcXMXMXcXMXzXeXn.g 6.u.#XgXjXzXkXwX2Xz.].kXkX&Xg.2XgXkXMXMXgX1X<.g g w.eXzXMXcXMXzXbXMXMXMX",
"MXzXjXbXjXMXcXMXxXtX!.^ +.h x.1XjXxXxXgX).q.5XzXjXtXq.z.iXxXfX0X3Xx.> 1 X m.tXxXMXcXMXjXbXzXMXMX",
"MXzXjXjXjXMXMXMXxXkX_.u.z ` E l.eXtXiX3Xh.t.9XrXrX9Xw.$.&XzXjXeXV.  [ % ^ oXkXkXMXcXzXjXjXbXMXMX",
"MXMXjXjXyXjXMXMXMXpX6Xi.b ` ' W B.eXjXtXf.$.!.}.:XW.q.8.0XgXeXI.X ) % & ;.,XiXMXMXMXjXyXjXzXMXMX",
"dXlXjXjXyXjXMXcXlXkXiXD.W o.r ] R Y.tXjX7XK.>.*.#.+ C.rXyX0X'.O , b - = x.qXqXMXlXhXyXyXjXMXMXcX",
"dXlXzXjXyXjXMXlXlXxXkXE.:.o.r v { `.yXzXuXrX-X2.F {.rXuXlXyX(.C % j , m R.iXgXcXlXhXyXyXzXMXcXlX",
"dXlXzXjXjXjXzXlXlXMXgX3X1.| k ` :.1XtXyXjX2XoXA.p.-X8XhXuX7X7Xv.% q ; &.&XwXxXlXcXhXjXjXjXMXcXcX",
"cXcXzXjXjXjXzXcXlXMXgXrXx.E c c 2.;X7X9XrX9XA.O X f.:XuX2X7X2XQ 2 y = ,.4XqXMXlXcXjXjXjXzXMXMXcX",
"MXMXMXzXjXjXcXcXcXxXzXeXL.T ] d } p.XX,XH.q.>.L.A.#.# F.,X<Xk.- 6 y $ m.7XgXMXMXMXMXzXjXzXMXMXMX",
"xXMXMXMXjXbXcXcXcXxXjXeX[.Q ] L a ..b.q.w.!./.1X1X#X!.7.7.u.p a 8 7 > ^.rXjXcXMXMXMXzXzXzXzXMXMX",
"xXxXMXlXlXhXcXMXMXcXbXrX-Xi.( _ ' ) h y.XXrXtXgXgXjXrXXXa.1 $ & 7 4 Q .XrXxXcXcXxXxXxXMXMXzXMXMX",
"kXxXMXlXlXlXcXcXcXcXjXyX:Xm.E | ) b z 6.F.6XzXpXpXgX2XW.X.% p 0 i ; y.6XyXlXlXNXxXxXxXMXMXzXMXMX",
"kXxXMXlXlXlXlXMXcXcXzXeX9XQ.Q { f c _ J P c.&XkXkX*Xx.B & 7 7 3 f m A.9XyXaXlXMXxXxXMXMXMXMXzXzX",
"kXxXMXlXlXlXcXMXxXMXbXrX8X}.r.E _ x x ` c G d.+X@Xd.; y y 8 6 7 = *./.rXjXdXlXxXxXxXMXMXMXzXMXMX",
"xXxXMXMXcXlXcXcXcXcXzXtXtX9XJ.:.O.7 j l k y ` ] ) s & 2 j q . L A B.2XtXjXlXcXcXxXMXMXMXMXzXMXzX",
"xXMXMXMXMXMXcXMXcXcXMXjXyXrX:XD.C O.z j l k e x e 5 6 w % * p @ B.;XtXyXzXcXcXcXMXMXMXMXMXzXzXzX",
"MXMXzXxXMXMXMXcXcXcXzXzXtXyXrX2X Xq.F } b x v t 6 t w 2 u M $.T.1XyXjXiXxXMXMXcXcXcXcXMXMXMXMXMX",
"zXMXzXxXxXMXMXcXcXlXMXxXgXrXjXyXyX;Xl.F | c r v y 3 0 p M 4.#XyXjXcXkXgXxXxXMXcXlXlXcXMXMXMXMXMX",
"bXzXzXkXxXxXMXcXlXcXMXxXzXuXhXhXyXyXeXQ.;., ` ` d p = S L.6XtXzXdXdXNXkXkXkXMXhXdXhXbXjXMXMXMXMX",
"bXzXzXzXxXMXMXcXlXcXkXxXxXgXlXaXzXtXeXeX}.v.E E B > i.(.7XtXgXMXdXdXMXxXkXgXzXhXlXlXcXzXMXMXMXMX",
"zXMXMXMXMXMXMXMXMXMXMXMXMXMXMXMXjXzXzXzXjX4XR.g.q.P.3XyXzXxXzXbXcXcXMXMXMXMXMXMXMXcXMXMXMXMXMXMX",
"MXMXMXMXMXMXMXMXMXMXMXMXMXMXMXMXMXMXkXkXcXjXeX#X@XeXjXhXkXxXMXzXzXMXMXMXMXMXMXMXMXMXMXMXMXMXMXMX"
};
