/* XPM */
static char *_bcd8a51e9564087a1a8ee322d961a90Y6EKpuq5tbK1jmKh[] = {
/* columns rows colors chars-per-pixel */
"48 48 222 2 ",
"   c None",
".  c black",
"X  c #020202",
"o  c gray1",
"O  c #070402",
"+  c #040404",
"@  c #0A0707",
"#  c #090807",
"$  c #0D0907",
"%  c gray3",
"&  c #090808",
"*  c #090909",
"=  c #090A0A",
"-  c #0E0E0E",
";  c gray6",
":  c #111111",
">  c #151010",
",  c #161616",
"<  c #1B1515",
"1  c #181818",
"2  c #1B1B1B",
"3  c #2A1000",
"4  c #2B1000",
"5  c #2B1100",
"6  c #2B1101",
"7  c #2C1302",
"8  c #2F1402",
"9  c #2D1405",
"0  c #311503",
"q  c #291F1F",
"w  c #341D11",
"e  c gray13",
"r  c gray14",
"t  c gray15",
"y  c #272727",
"u  c #282828",
"i  c #3F2A22",
"p  c #3D2F2E",
"a  c #3D2F2F",
"s  c #373737",
"d  c #3F3030",
"f  c gray22",
"g  c #3A3A3A",
"h  c #43210A",
"j  c #44220B",
"k  c #48240C",
"l  c #4B260E",
"z  c #4C270E",
"x  c #4D270E",
"c  c #4D280E",
"v  c #572E13",
"b  c #522F1A",
"n  c #532F1A",
"m  c #5B3114",
"M  c #5E3417",
"N  c #55321D",
"B  c #55321E",
"V  c #5E3518",
"C  c #5F3518",
"Z  c #5F3519",
"A  c #5F371D",
"S  c #60371B",
"D  c #60371D",
"F  c #6E3D1C",
"G  c #402A22",
"H  c #402C28",
"J  c #43312E",
"K  c #44312E",
"L  c #453230",
"P  c #473636",
"I  c #493635",
"U  c #483737",
"Y  c #4E3833",
"T  c #473738",
"R  c #483738",
"E  c #483838",
"W  c #493838",
"Q  c #513931",
"!  c #513932",
"~  c #563A30",
"^  c #71401F",
"/  c #76411E",
"(  c #74421F",
")  c #76421E",
"_  c #76421F",
"`  c #77421F",
"'  c #77431F",
"]  c #78431F",
"[  c #6F4225",
"{  c #694028",
"}  c #704020",
"|  c #754220",
" . c #774320",
".. c #784320",
"X. c #794420",
"o. c #784421",
"O. c #784422",
"+. c #794523",
"@. c #7A4522",
"#. c #7A4622",
"$. c #7A4624",
"%. c #7A4724",
"&. c #7A4725",
"*. c #7B4826",
"=. c #7C4927",
"-. c #7D4A28",
";. c #7C4A29",
":. c #7E4E2D",
">. c #7F4F2E",
",. c gray29",
"<. c gray33",
"1. c #555555",
"2. c #565656",
"3. c #585858",
"4. c #7A6150",
"5. c #7E695A",
"6. c gray38",
"7. c gray39",
"8. c gray43",
"9. c #6F6F6F",
"0. c #815131",
"q. c #825231",
"w. c #825434",
"e. c #835434",
"r. c #825435",
"t. c #845434",
"y. c #845738",
"u. c #855739",
"i. c #86593A",
"p. c #875B3D",
"a. c #885C3E",
"s. c #885C3F",
"d. c #895E41",
"f. c #8B6042",
"g. c #8B6144",
"h. c #8B6145",
"j. c #8C6245",
"k. c #8C6246",
"l. c #8C6347",
"z. c #8F674B",
"x. c #926B51",
"c. c #946F56",
"v. c #99755C",
"b. c #9A765E",
"n. c #9F7D67",
"m. c #9F7E68",
"M. c #9E7E69",
"N. c #C4CB39",
"B. c #A1826D",
"V. c #A2836F",
"C. c #A28470",
"Z. c #A48672",
"A. c #A68976",
"S. c #C5CC41",
"D. c #C9CF5D",
"F. c #CACF61",
"G. c #CAD063",
"H. c #CBD067",
"J. c gray54",
"K. c gray55",
"L. c gray56",
"P. c #968D88",
"I. c #B0998A",
"U. c #B39E90",
"Y. c #B49F91",
"T. c #B6A294",
"R. c #BBA99E",
"E. c #BFB0A5",
"W. c #B1B1B1",
"Q. c #B2B2B2",
"!. c #B7B7B7",
"~. c gray73",
"^. c #C4B8AF",
"/. c #C5B9B1",
"(. c #C7BBB3",
"). c #C7BCB5",
"_. c #D0D385",
"`. c #D2D592",
"'. c #D4D69E",
"]. c #D4D6A1",
"[. c #D5D7A9",
"{. c #D5D7AB",
"}. c #CDC4BF",
"|. c #CFC7C2",
" X c #CFC8C3",
".X c #D1CBC7",
"XX c #D3CECA",
"oX c #D3CECB",
"OX c #D4CFCC",
"+X c #D4D0CD",
"@X c #DADBCA",
"#X c #DADBCB",
"$X c #DADBCC",
"%X c #DBDCCF",
"&X c #D6D2D0",
"*X c #D6D3D2",
"=X c #D7D3D2",
"-X c gray83",
";X c #D7D7D7",
":X c #DADAD3",
">X c #DBDCD1",
",X c #DBDBD5",
"<X c #DCDCD5",
"1X c #DDDED6",
"2X c #D8D8D8",
"3X c #DADADA",
"4X c #DCDDD8",
"5X c #DDDDD8",
"6X c #DDDEDA",
"7X c gainsboro",
"8X c #DDDDDD",
"9X c #DDDDDE",
"0X c gray87",
"qX c #DEDEDF",
"wX c #DEDFE0",
"eX c #DFDFE0",
"rX c #DEDFE1",
"tX c #DEDEE2",
"yX c #DEDFE2",
"uX c #DFE0E1",
"iX c gray88",
"pX c #E0E1E4",
/* pixels */
"                                                                                                ",
"                                                                                                ",
"                                                                                                ",
"                                                                                                ",
"                                                                                                ",
"                  o.o.o.o.o.o.          o.o.o.o.o.o.o.o.          o.o.o.o.o.o.                  ",
"                  o.o.o.o.o.o.o.o.o.o.o.o.o.o.o.o.o.o.o.o.o.o.o.o.o.o.o.o.o.o.                  ",
"                  o.o.o.o.o.o.o.o.o.o.o.o.o.o.o.o.o.o.o.o.o.o.o.o.o.o.o.o.o.o.                  ",
"                    o.o.o.o.o.o.o.o.o.o.o.o.o.o.o.o.o.o.o.o.o.o.o.o.o.o.o.o.                    ",
"                    o.o.o.o.o.o.o.o.o.o.o.o.o.o.o.o.o.o.o.o.o.o.o.o.o.o.o.o.                    ",
"                      o.o.o.o.o.o.o.' _ o.o.o.o.o.o.o...] _ o.o.o.o.o.o.o.                      ",
"                      o.o.o.o.o._ *.p.g.>.' o.o.o.o.o.:.g.a.&...o.o.o.o.o.                      ",
"            5 5 5 5     o.o.o.| q.U.oX=X(.c.] o.o._ x./.*XOXT.r...o.o.o.    5 5 5 5             ",
"                  5 5 h | o.o.o.I.qX6X%XuX Xa. ._ i.}.uX%X6XqXY.$.o.o.| k 5 5                   ",
"      5 5 5 5 5 5     8 z | ..r.|.uX].H.<XtXV._ _ m.qX<XF.{.uX.Xy...| c 0     5 5 5 5 5 5       ",
"                5 5 5 j z v _ y..XtX_.S.>XqXA._ _ V.qX#XN.`.tXoXa.| v c k 5 5 5                 ",
"            5 5   K H i n m F &.R.pX'.G.6X+Xz.] _ j.+X<XD.[.pX^.-.F m n i H K   5 5             ",
"      5 5 5 9 w J R E E L B } _ d.^.:X#X+XZ.&.o...o.V.XX@X<X/.d.] ^ B L R E E J w 5 5 5 5       ",
"            I T I T T E R I ! { o.q.v.m.j.o.=.t.t.-.o.d.n.v.t.] [ ~ I I I I T T I R             ",
"          R E T I E I R E I T Y A Z M M Z Z 4.P.P.5.D S M M S S ! T T R T R E I T R E           ",
"          R I I T T E I I R R a $ O O O O O # = = = O O O O O $ a R T T T I I R E I R           ",
"          E T E E I E T I I L < . . . . . . . . . . . . . . . . < J P I E E T E E T E           ",
"              I R E I P r > @ . . . . . . . . . . . . . . . . . . $ > r P I E I I               ",
"                        . . . . . . . . . . . . . . . . . . . . . . X .                         ",
"                        . . . . . . . . . . . . . . . . . . . . . . . .                         ",
"                        . . . g L.u . . . . . . . . . . . . . . . . . .                         ",
"                        . . . ,.2XQ.u . . . . . . . . . . . . . . . . .                         ",
"                        . . . + 7.;XQ.r . . . . . . . . . . . . . . . .                         ",
"                        . . . . . 7.2XQ.u . . . . . . . . . . . . . . .                         ",
"                        . . . . . . 7.2XQ.y . . . . . . . . . . . . . .                         ",
"                        . . . . . . . 7.*XQ.r . . . . . . . . . . . . .                         ",
"                        . . . . . . . , Q.pX1.. . . . . . . . . . . . .                         ",
"                        . . . . . . : L.6XJ.: . . . . . . . . . . . . .                         ",
"                        . . . . . : L.qXJ.; . . . . . . . . . . . . . .                         ",
"                        . . . . ; L.qXJ.; . . . . . . . . . . . . . . .                         ",
"                        . . . : L.qXJ.; . . . . r g s s s s s g r . . .                         ",
"                        . . . 3.qXJ.; . . . . 2 ~.2X2X2X2X2X;X2X~.2 . .                         ",
"                        . . . e 1.; . . . . . = 3.9.9.9.9.9.9.9.1.+ . .                         ",
"                        . . . . . . . . . . . . . . . . . . . . . . . .                         ",
"                        . . . . . . . . . . . . . . . . . . . . . . . .                         ",
"                        . . . . . . . . . . . . . . . . . . . . . . . .                         ",
"                        . . . . . . . . . . . . . . . . . . . . . . . .                         ",
"                        . . . . . . . . . . . . . . . . . . . . . . . .                         ",
"                                                                                                ",
"                                                                                                ",
"                                                                                                ",
"                                                                                                ",
"                                                                                                "
};
