/* XPM */
static char *applications[] = {
/* columns rows colors chars-per-pixel */
"24 24 22 1 ",
"  c None",
". c #528EFF",
"X c #528FFF",
"o c #5290FF",
"O c #6A9EFF",
"+ c #6A9FFF",
"@ c #74A5FF",
"# c #75A5FF",
"$ c #76A6FF",
"% c #7DABFF",
"& c #80ADFF",
"* c #A3C3FF",
"= c #A9C7FF",
"- c #AECBFF",
"; c #D1E1FF",
": c #D4E3FF",
"> c #D7E5FF",
", c #DFEAFF",
"< c #E2ECFF",
"1 c #E3EDFF",
"2 c #F6F9FF",
"3 c white",
/* pixels */
"                        ",
"                        ",
"        XXXXXXXX        ",
"      XXXXXXXXXXXX      ",
"     XXXXXXXXXXXXXo     ",
"    XXXXXXXXXXXXXXXo    ",
"   XXX13332OO,;;;>XXX   ",
"   XXX33333%%=XXX:XXX   ",
"  XXXX33333%%=XXX:XXXX  ",
"  XXXX33333%%=XXX:XXXX  ",
"  XXXX23333$$;***,XXXX  ",
"  XXXXO&&&$XX$&&&OXXXX  ",
"  XXXXO&&&$XX$&&&OXXXX  ",
"  XXXX1--->$$>---1XXXX  ",
"  XXXX:XXX=%%=XXX:XXXX  ",
"  XXXX:XXX=%%=XXX:XXXX  ",
"   XXX:XXX=%%=XXX:XXX   ",
"   XXX>;;;,OO,;;;>XXX   ",
"    XXXXXXXXXXXXXXXo    ",
"     oXXXXXXXXXXXXo     ",
"      XXXXXXXXXXXX      ",
"        XXXXXXXX        ",
"                        ",
"                        "
};
