/* XPM */
static char *display[] = {
/* columns rows colors chars-per-pixel */
"24 24 159 2 ",
"   c None",
".  c #585E91",
"X  c #595E91",
"o  c #546396",
"O  c #5B6399",
"+  c #5E6299",
"@  c #5E639A",
"#  c #5F639A",
"$  c #5C699F",
"%  c #66629D",
"&  c #67629D",
"*  c #5B6CA3",
"=  c #5D6CA3",
"-  c #5F6FA9",
";  c #6266A0",
":  c #6566A0",
">  c #6B65A4",
",  c #6C65A4",
"<  c #6270A9",
"1  c #6372AD",
"2  c #6672AF",
"3  c #726FB1",
"4  c #746EB1",
"5  c #766EB2",
"6  c #786CB1",
"7  c #6176B0",
"8  c #6477B0",
"9  c #6775B2",
"0  c #6A72B1",
"q  c #6B72B1",
"w  c #6E72B2",
"e  c #6874B1",
"r  c #6A74B1",
"t  c #6974B2",
"y  c #6875B2",
"u  c #6A74B2",
"i  c #7171B1",
"p  c #7271B1",
"a  c #7170B2",
"s  c #7071B2",
"d  c #7270B2",
"f  c #7370B2",
"g  c #69BBFF",
"h  c #6BBBFF",
"j  c #6CB9FF",
"k  c #6DB9FF",
"l  c #6EB8FF",
"z  c #6FB8FF",
"x  c #6EB9FF",
"c  c #6CBAFF",
"v  c #70B7FF",
"b  c #71B7FF",
"n  c #73B6FF",
"m  c #72B7FF",
"M  c #75B5FF",
"N  c #77B4FF",
"B  c #76B5FF",
"V  c #77B5FF",
"C  c #74B6FF",
"Z  c #79B3FF",
"A  c #7AB3FF",
"S  c #7BB3FF",
"D  c #7EB1FF",
"F  c #7FB1FF",
"G  c #7CB2FF",
"H  c #7DB2FF",
"J  c #78B4FF",
"K  c #79B4FF",
"L  c #70B8FF",
"P  c #72B9FF",
"I  c #72BCFF",
"U  c #A79FFF",
"Y  c #82AFFF",
"T  c #83AFFF",
"R  c #84ADFF",
"E  c #85ADFF",
"W  c #87ADFF",
"Q  c #84AEFF",
"!  c #85AEFF",
"~  c #84AFFF",
"^  c #86AEFF",
"/  c #8BABFF",
"(  c #8FA9FF",
")  c #8DAAFF",
"_  c #8CABFF",
"`  c #8DABFF",
"'  c #8EAAFF",
"]  c #8FAAFF",
"[  c #89ACFF",
"{  c #88ADFF",
"}  c #89ADFF",
"|  c #8AACFF",
" . c #8BACFF",
".. c #94A7FF",
"X. c #95A7FF",
"o. c #96A6FF",
"O. c #97A6FF",
"+. c #96A7FF",
"@. c #9DA3FF",
"#. c #9FA2FF",
"$. c #9EA3FF",
"%. c #9FA3FF",
"&. c #98A5FF",
"*. c #99A5FF",
"=. c #9BA4FF",
"-. c #9AA5FF",
";. c #98A6FF",
":. c #9CA4FF",
">. c #9DA4FF",
",. c #90A9FF",
"<. c #91A9FF",
"1. c #92A8FF",
"2. c #93A8FF",
"3. c #92A9FF",
"4. c #94A8FF",
"5. c #80B0FF",
"6. c #81B0FF",
"7. c #80B1FF",
"8. c #82B0FF",
"9. c #85B0FF",
"0. c #88B4FF",
"q. c #8ABEFF",
"w. c #92BBFF",
"e. c #A2A1FF",
"r. c #A3A1FF",
"t. c #A0A2FF",
"y. c #A1A2FF",
"u. c #A4A0FF",
"i. c #A5A0FF",
"p. c #A6A0FF",
"a. c #98C2FF",
"s. c #99C2FF",
"d. c #97CAFF",
"f. c #9ECFFF",
"g. c #A5C5FF",
"h. c #A1C9FF",
"j. c #A4C8FF",
"k. c #A6CBFF",
"l. c #A7CBFF",
"z. c #A1CEFF",
"x. c #A0CFFF",
"c. c #A3CEFF",
"v. c #A4CDFF",
"b. c #A4CEFF",
"n. c #A9CAFF",
"m. c #AACAFF",
"M. c #A8CFFF",
"N. c #AACFFF",
"B. c #AFCDFF",
"V. c #AECEFF",
"C. c #AED0FF",
"Z. c #AFD0FF",
"A. c #B5D3FF",
"S. c #B2D4FF",
"D. c #B5D6FF",
"F. c #BAD4FF",
"G. c #C6DCFF",
"H. c #C7DCFF",
"J. c #CCDFFF",
/* pixels */
"                                                ",
"                                                ",
"                                                ",
"  6 , > 5 5 3 f f f : # # ; 0 0 u 9 2 < $ - 9   ",
"  5 & & f f f f w w # . . O u u u 9 1 = o * 7   ",
"  U i.i.r.r.r.$.$.:.-.-.-.O.O.O.2.2.2.] ] ] [   ",
"  i.r.r.r.$.$.:.-.-.-.O.O.O.2.2.2.] ] ] / [ [   ",
"  r.r.r.$.$.:.-.-.-.O.O.4.2.2.2.] ] ] [ [ W W   ",
"  r.$.$.:.-.-.O.O.O...2.2.] ] ] ] [ [ [ W W W   ",
"  $.$.-.-.-.O.O.O.2.2.2.] ] ] / [ [ W W W Y 6.  ",
"  :.-.-.-.O.O.4.2.2.2.] ] ] [ [ [ W W W Y 6.D   ",
"  -.-.O.O.O.2.2.2.] ] ] [ [ [ W W W Y 6.6.D D   ",
"  O.O.O.2.2.2.] ] ] / [ [ W W W Y 6.6.D D D Z   ",
"  O.O.2.2.2.] ] ] [ [ [ W W W Y 6.6.D D D Z K   ",
"  2.2.2.] ] ] / [ [ W W W Y 6.6.D D D Z Z K V   ",
"  2.] ] ] / [ [ W W W Y 6.6.D D D Z Z K V V V   ",
"  ] ] ] [ [ [ W W W Y 6.6.D D D Z K K V V V n   ",
"  ] / [ [ W W W Y 6.6.D D D Z Z K V V V n n P   ",
"  [ [ [ W W B.J.w.l.J.s.s.J.h.q.J.M.n n n x x   ",
"  [ W W 9.g.F.H.B.A.H.Z.Z.H.S.M.H.D.d.P x x h   ",
"  W W W 0.m.m.m.l.l.l.b.b.b.z.z.z.f.f.I x h h   ",
"                                                ",
"                                                ",
"                                                "
};
