/* XPM */
static char *firefox_developer_icon[] = {
/* columns rows colors chars-per-pixel */
"24 24 120 2 ",
"   c None",
".  c #2A55C4",
"X  c #2A57C4",
"o  c #2857C6",
"O  c #2A57C6",
"+  c #2A58C5",
"@  c #295BC9",
"#  c #295CC9",
"$  c #1F71DE",
"%  c #2764CF",
"&  c #2B62CD",
"*  c #2961CE",
"=  c #266AD4",
"-  c #266BD6",
";  c #256FD7",
":  c #266ED7",
">  c #2C7ADB",
",  c #097CF4",
"<  c #097DF4",
"1  c #0A7DF4",
"2  c #0B7FF4",
"3  c #0A7EF5",
"4  c #0B7FF5",
"5  c #0C7FF5",
"6  c #247AE1",
"7  c #247AE2",
"8  c #247BE2",
"9  c #0C80F4",
"0  c #0C80F5",
"q  c #0E82F5",
"w  c #0F85F6",
"e  c #1186F5",
"r  c #1387F7",
"t  c #158BF7",
"y  c #168CF7",
"u  c #168EF7",
"i  c #178EF8",
"p  c #1A91F6",
"a  c #1A92F6",
"s  c #1A92F7",
"d  c #1F92F4",
"f  c #1E94F6",
"g  c #1D97F7",
"h  c #1E96F7",
"j  c #1F98F7",
"k  c #1A92F8",
"l  c #1D97F8",
"z  c #1E97F8",
"x  c #1F97F9",
"c  c #1D98F8",
"v  c #1F9AF9",
"b  c #2781E3",
"n  c #2880E2",
"m  c #2A85E3",
"M  c #238FEF",
"N  c #2490EF",
"B  c #2392F1",
"V  c #2D99F0",
"C  c #2F9DF1",
"Z  c #209AF9",
"A  c #219AF9",
"S  c #209BF9",
"D  c #219BF9",
"F  c #209AFA",
"G  c #219CF9",
"H  c #239FF9",
"J  c #229EFA",
"K  c #249FF9",
"L  c #319DF0",
"P  c #24A0FA",
"I  c #25A1FA",
"U  c #26A1FA",
"Y  c #26A3FA",
"T  c #27A3FB",
"R  c #29A8FA",
"E  c #2AA8FB",
"W  c #2AA9FB",
"Q  c #2AA8FC",
"!  c #2AA9FC",
"~  c #2CAAFC",
"^  c #2DABFC",
"/  c #2DACFC",
"(  c #2EADFC",
")  c #2FAEFC",
"_  c #31ACF9",
"`  c #30AEFC",
"'  c #38AFF8",
"]  c #2FB0FC",
"[  c #30B0FD",
"{  c #31B0FD",
"}  c #31B1FD",
"|  c #31B2FD",
" . c #32B2FD",
".. c #33B3FD",
"X. c #33B4FD",
"o. c #32B4FE",
"O. c #37B5FC",
"+. c #35B6FD",
"@. c #35B7FD",
"#. c #34B6FE",
"$. c #34B7FE",
"%. c #36B7FE",
"&. c #35B8FE",
"*. c #36B8FE",
"=. c #37B9FE",
"-. c #37BAFE",
";. c #38BAFE",
":. c #38BBFE",
">. c #38BBFF",
",. c #39BBFF",
"<. c #39BCFE",
"1. c #38BCFF",
"2. c #3ABDFE",
"3. c #3ABCFF",
"4. c #3ABDFF",
"5. c #39BEFF",
"6. c #3ABEFF",
"7. c #3BBEFF",
"8. c #3ABFFF",
"9. c #3BBFFF",
/* pixels */
"                                                ",
"                            K                   ",
"                          [ y 0                 ",
"                          8., , w               ",
"                        #.8., , , e             ",
"        [ *.    j       8.8., , , , e           ",
"        8.8.  z z     V ' 8.i , , , , p         ",
"      :.8.8.:.X.E : # . . @ n , , , , 0 D       ",
"    [ 8.8.8.8.8.8.L + . . . % $ , , , , p       ",
"    *.8.:.Q P Q :.8.#.> . . : f p , , , k D     ",
"    8.8.[ v z z z v D B . . . 7 z y , , D D     ",
"    8.8.8.[ P z f 7 - . . . . . z z , , [ D     ",
"    8.8.8.8.:.d . . . . . . . . f z 5 t *.D     ",
"    X.8.8.8.8.M . . . . . . . . f z 0 #.X.D     ",
"    E 8.8.8.8.` * . . . . . . 7 z v ( 8.~ D     ",
"      #.8.8.8.8._ * . . . . - z D #.8.8.G       ",
"      P 8.8.8.8.8.8.C m b N G ] 8.8.8.( D       ",
"        P 8.8.8.8.8.8.8.8.8.8.8.8.8.#.D         ",
"        D P *.8.8.8.8.8.8.8.8.8.8.X.G D         ",
"          D G ~ :.8.8.8.8.8.8.*.E D D           ",
"              v D P E ( ~ E P D D               ",
"                  D D D D D D                   ",
"                                                ",
"                                                "
};
