/* XPM */
static char *firefox[] = {
/* columns rows colors chars-per-pixel */
"24 24 90 1 ",
"  c None",
". c #E1876D",
"X c #E2876E",
"o c #E2886E",
"O c #E2886F",
"+ c #E2896F",
"@ c #E28970",
"# c #E28971",
"$ c #E28A72",
"% c #E28B72",
"& c #E38D75",
"* c #E38E76",
"= c #E49078",
"- c #E49079",
"; c #E4917A",
": c #E5947E",
"> c #E5957F",
", c #E59780",
"< c #E69882",
"1 c #E69983",
"2 c #E69984",
"3 c #E69B85",
"4 c #E69B86",
"5 c #E8A08B",
"6 c #E8A08C",
"7 c #E8A18D",
"8 c #E9A591",
"9 c #EAA996",
"0 c #EAAB99",
"q c #EBAD9B",
"w c #ECB09F",
"e c #ECB3A3",
"r c #ECB4A4",
"t c #EDB4A4",
"y c #EDB5A5",
"u c #EDB7A7",
"i c #EDB7A8",
"p c #EEB9AA",
"a c #EEB9AB",
"s c #EEBBAC",
"d c #EFBCAE",
"f c #EFBDAF",
"g c #EFBEB0",
"h c #F0C0B3",
"j c #F1C4B8",
"k c #F1C5B9",
"l c #F2C9BD",
"z c #F2C9BE",
"x c #F2CABF",
"c c #F2CBC0",
"v c #F2CCC1",
"b c #F3CEC4",
"n c #F3D0C5",
"m c #F4D1C7",
"M c #F4D2C8",
"N c #F5D7CF",
"B c #F6DDD5",
"V c #F7DED7",
"C c #F7DFD8",
"Z c #F8E1DA",
"A c #F8E4DE",
"S c #F9E5E0",
"D c #F9E6E0",
"F c #F9E7E2",
"G c #F9E8E3",
"H c #FAE9E4",
"J c #FAE9E5",
"K c #FAEAE6",
"L c #FAEBE7",
"P c #FAECE8",
"I c #FAEDE9",
"U c #FBF0ED",
"Y c #FCF2EF",
"T c #FCF2F0",
"R c #FCF3F0",
"E c #FCF5F3",
"W c #FDF7F5",
"Q c #FDF8F6",
"! c #FDF9F7",
"~ c #FEF9F8",
"^ c #FEFAF9",
"/ c #FEFBFA",
"( c #FEFCFB",
") c #FEFCFC",
"_ c #FEFDFC",
"` c #FFFDFD",
"' c #FFFEFD",
"] c #FFFEFE",
"[ c #FFFFFE",
"{ c white",
/* pixels */
"                        ",
"        @@@@@@@@        ",
"      @@@@@@@@@@@@      ",
"     OO@@@@@@@@@@@@     ",
"    @:;@O@@@@@@OO&&@    ",
"   O3FGv7@@@@@O,fZyX@   ",
"  @X9FW{Ti@XX@yK{Kx@@@  ",
"  @X0jm{{Whfaj^{Uan@@@  ",
" @@O5xx{{{{{{{{{Ksb@@@@ ",
" @@@&MU{{{{{{{{{!KaX@@@ ",
" @@@Xw({{{{{{{{{{T3O@@@ ",
" @@@Xy{^{{{{{{{^{Y1O@@@ ",
" @@O;Z{CV{{{{{AN{^0X@@@ ",
" @@O8T{!K{{{{{IE{{fO@@@ ",
" @@@&yNT{{{{{{{{Kx1O@@@ ",
" @@@@@&7V{{{{{{x:@@@@@@ ",
"  @@@@@X1K{{{{M&O@@@@@  ",
"  @@@@@@Xy{{{I3O@@@@@@  ",
"   @@@@@O;VVFgO@@@@@@   ",
"   @@@@@@Oexc1O@@@@@@   ",
"    @@@@@O;gq@@@@@@@    ",
"      @@@@@OO@@@@@      ",
"       @@@@@@@@@@       ",
"           @@           "
};
