/* XPM */
static char *gimp[] = {
/* columns rows colors chars-per-pixel */
"24 24 113 2 ",
"   c None",
".  c #249278",
"X  c #259278",
"o  c #259378",
"O  c #269379",
"+  c #279379",
"@  c #279479",
"#  c #27947A",
"$  c #28947A",
"%  c #29947A",
"&  c #29947B",
"*  c #29957B",
"=  c #2A957B",
"-  c #2B957C",
";  c #2D967D",
":  c #2E977E",
">  c #2F977E",
",  c #339980",
"<  c #339981",
"1  c #349A81",
"2  c #3A9D85",
"3  c #3B9E86",
"4  c #3D9E86",
"5  c #3E9E87",
"6  c #3F9F88",
"7  c #409F88",
"8  c #41A089",
"9  c #42A18A",
"0  c #43A18A",
"q  c #45A28B",
"w  c #49A48E",
"e  c #4AA48E",
"r  c #51A893",
"t  c #52A893",
"y  c #52A894",
"u  c #53A994",
"i  c #56AA96",
"p  c #57AB96",
"a  c #59AC98",
"s  c #5AAC98",
"d  c #5AAD99",
"f  c #5CAD99",
"g  c #5DAE9A",
"h  c #5EAE9B",
"j  c #5FAE9B",
"k  c #60AF9C",
"l  c #61B09C",
"z  c #61B09D",
"x  c #6BB4A2",
"c  c #73B8A7",
"v  c #75B9A9",
"b  c #75BAA9",
"n  c #77BAAA",
"m  c #7ABCAC",
"M  c #7FBEAE",
"N  c #80BEAF",
"B  c #83C0B1",
"V  c #85C1B2",
"C  c #87C2B3",
"Z  c #87C2B4",
"A  c #8DC5B7",
"S  c #91C7B9",
"D  c #93C8BB",
"F  c #94C8BB",
"G  c #95C9BC",
"H  c #9ECDC1",
"J  c #9FD0C3",
"K  c #A2CFC4",
"L  c #A3CFC4",
"P  c #A5D1C6",
"I  c #AAD2C8",
"U  c #B6D9D0",
"Y  c #BBDBD3",
"T  c #BDDCD4",
"R  c #BFDDD5",
"E  c #BFDFD7",
"W  c #C0DDD6",
"Q  c #C1DED7",
"!  c #C6E0D9",
"~  c #CCE3DD",
"^  c #D0E5DF",
"/  c #D0E5E0",
"(  c #D1E6E0",
")  c #D3E8E2",
"_  c #D5E8E3",
"`  c #D6E8E3",
"'  c #DEECE8",
"]  c #E0EDE9",
"[  c #E1EEEA",
"{  c #E5EFEC",
"}  c #E7F0ED",
"|  c #E7F1EE",
" . c #EBF2F0",
".. c #ECF3F0",
"X. c #ECF3F1",
"o. c #EDF3F1",
"O. c #EFF4F2",
"+. c #F0F5F3",
"@. c #F1F5F4",
"#. c #F2F6F4",
"$. c #F8F8F8",
"%. c #FAFAF9",
"&. c #FBFAFA",
"*. c #FCFAFA",
"=. c #FDFBFA",
"-. c #FDFBFB",
";. c #FEFBFB",
":. c #FEFCFB",
">. c #FFFCFC",
",. c #FFFCFD",
"<. c #FFFDFD",
"1. c #FFFDFE",
"2. c #FFFEFE",
/* pixels */
"                                                ",
"                $ $ $ $ $ $ $ $                 ",
"            $ $ $ $ $ $ $ $ $ $ $ $             ",
"          $ $ $ $ $ $ $ $ $ $ $ $ O $           ",
"        $ $ $ $ $ $ $ $ $ $ $ $ $ q - $         ",
"      $ $ $ $ $ $ $ $ O 3 z $ O z W 7 O O       ",
"    $ $ $ $ $ $ $ $ $ # b J 9 B | @.y e 3 O     ",
"    $ $ $ $ $ $ $ O O d E ) ` *.>. .e c d O     ",
"  $ $ $ $ $ $ $ O 9 G [ %.>.>.>.>.E 5 k i O $   ",
"  $ $ $ $ $ $ O t / >.>.>.>.>.>.o.f $ N F # $   ",
"  $ $ $ $ $ O 5 ~ :.>.>.>.>.>.*.H y b f 3 # $   ",
"  $ $ $ $ $ O C / m | >.>.>.>.*.| +.o.t O $ $   ",
"  $ $ $ $ $ ; E L , ! >.>.>.>.>.>.>.U ; $ $ $   ",
"  $ $ $ $ O d o.@.B ^ >.>.>.>.>.>.o.d O $ $ $   ",
"  $ $ $ $ f / >.>.@.*.*.>.>.>.>.*.D $ $ $ $ $   ",
"  $ $ $ A O.>.>.>.>.{ W *.>.>.*.I 1 O $ $ $ $   ",
"    $ # C %.>.>.@.Y L ' >.>.o.S , O $ $ $ $     ",
"    $ # ; Z [ *.@.` @.%.' P i $ O $ $ $ $ $     ",
"      $ # $ 9 x M B b f 6 $ O $ $ $ $ $ $       ",
"      $ $ $ O O O O O O O $ $ $ $ $ $ $ $       ",
"        $ $ $ $ $ $ $ $ $ $ $ $ $ $ $ $         ",
"            $ $ $ $ $ $ $ $ $ $ $ $             ",
"              $ $ $ $ $ $ $ $ $ $               ",
"                      $ $                       "
};
