/* XPM */
static char *terminal[] = {
/* columns rows colors chars-per-pixel */
"24 24 42 1 ",
"  c None",
". c #50656A",
"X c #51656A",
"o c #51656B",
"O c #51666B",
"+ c #52666B",
"@ c #53676C",
"# c #54686D",
"$ c #55696E",
"% c #596C71",
"& c #5B6E73",
"* c #5E7075",
"= c #64767B",
"- c #68797E",
"; c #687A7E",
": c #6B7C80",
"> c #6D7E82",
", c #728387",
"< c #7A8A8E",
"1 c #7C8B8F",
"2 c #7E8D91",
"3 c #7F8E91",
"4 c #869498",
"5 c #8F9C9F",
"6 c #919EA1",
"7 c #9BA6A9",
"8 c #9CA7AA",
"9 c #9DA9AB",
"0 c #9DA9AC",
"q c #9EAAAC",
"w c #A1ACAF",
"e c #A6B0B3",
"r c #A7B1B3",
"t c #AAB4B6",
"y c #ABB5B7",
"u c #ABB5B8",
"i c #B8C0C2",
"p c #C2C9CB",
"a c #CAD0D2",
"s c #CCD2D4",
"d c #D1D7D8",
"f c #E1E5E6",
/* pixels */
"                        ",
"        @@@@@@@@        ",
"      @@@@@@@@@@@@      ",
"    @@@@@@@@@@@@@@@@    ",
"   @@@@@@@@@@@@@@@@@@   ",
"   @@@@@@@@@@@@@@@@@@   ",
"  @@@@@@@@@@@@@@@@@@@@  ",
" @@@@@@@@@@@@@@@@@@@@@@ ",
" @@@@@@%#+@@@@@@@@@@@@@ ",
" @@@@@#rw%+@@@@@@@@@@@@ ",
"@@@@@@+>pi=+@@@@@@@@@@@@",
"@@@@@@@+*ua,+@@@@@@@@@@@",
"@@@@@@@@+1f6+@@@@@@@@@@@",
"@@@@@@@#5d6#+++++@@@@@@@",
" @@@@@@8s<+:rttt4@@@@@@ ",
" @@@@@#2-++-7q9q2@@@@@@ ",
" @@@@@@++@@++++++@@@@@@ ",
"  @@@@@@@@@@@@@@@@@@@@  ",
"  @@@@@@@@@@@@@@@@@@@@  ",
"   @@@@@@@@@@@@@@@@@@   ",
"    @@@@@@@@@@@@@@@@    ",
"     @@@@@@@@@@@@@@     ",
"       @@@@@@@@@@       ",
"         @@@@@@         "
};
