/* XPM */
static char *window[] = {
/* columns rows colors chars-per-pixel */
"24 24 38 1 ",
"  c None",
". c gray33",
"X c #565656",
"o c gray35",
"O c #5A5A5A",
"+ c gray36",
"@ c gray37",
"# c #606060",
"$ c gray38",
"% c #626262",
"& c gray39",
"* c #646464",
"= c #656565",
"- c gray40",
"; c #747474",
": c gray55",
"> c gray56",
", c gray64",
"< c gray69",
"1 c #B2B2B2",
"2 c gray72",
"3 c gray80",
"4 c #CECECE",
"5 c #E4E4E4",
"6 c #E7E7E7",
"7 c #EFEFEF",
"8 c gray94",
"9 c gray95",
"0 c #F3F3F3",
"q c gray96",
"w c #F6F6F6",
"e c #F8F8F8",
"r c gray98",
"t c #FBFBFB",
"y c gray99",
"u c #FDFDFD",
"i c #FEFEFE",
"p c white",
/* pixels */
"                        ",
"                        ",
"                        ",
" ---------------------- ",
" ---------------$+-o-o- ",
" ---------------++-.-.- ",
" ;;;;;;;;;;;;;;;;;;;;;; ",
" yyyyyyyyyyyyyyyyyyyyyy ",
" yyyyyy4>>>>>>>>>>1yyyy ",
" yyyyyy1----.-o$++>yyyy ",
" yyyyyy1----o-+$$+>yyyy ",
" yyyyyy4,,,,,,,,,,2yyyy ",
" yyyyyywyyyyyyyyyywyyyy ",
" yyyyyywyyyyyyyyyywyyyy ",
" yyyyyywyyyyyyyyyywyyyy ",
" yyyyyywyyyyyyyyyywyyyy ",
" yyyyyywyyyyyyyyyywyyye ",
" yyyyyywyyyyyyyyyywyyy0 ",
" yyyyyyywwwwwwwwwweyyw0 ",
" yyyyyyyyyyyyyyyyyyyww0 ",
" 7000000000000000006666 ",
"                        ",
"                        ",
"                        "
};
