/* XPM */
static char *tab_close[] = {
/* columns rows colors chars-per-pixel */
"22 22 166 2 ",
"   c None",
".  c #420000",
"X  c #510000",
"o  c #5D0203",
"O  c #640102",
"+  c #6E0001",
"@  c #6C0909",
"#  c #6A0509",
"$  c #740101",
"%  c #7B0305",
"&  c #76080A",
"*  c #7B090D",
"=  c #850002",
"-  c #8B0103",
";  c #88070B",
":  c #930000",
">  c #9C0103",
",  c #960508",
"<  c #93090C",
"1  c #9B080C",
"2  c #A50104",
"3  c #AB0102",
"4  c #AE050C",
"5  c #B50104",
"6  c #B90000",
"7  c #BF0508",
"8  c #B50A0D",
"9  c #B3050B",
"0  c #A6141A",
"q  c #BE1014",
"w  c #BE1219",
"e  c #B11C22",
"r  c #BE292D",
"t  c #B63638",
"y  c #BB3133",
"u  c #C20102",
"i  c #CB0001",
"p  c #C4040B",
"a  c #CA040A",
"s  c #CD0D0F",
"d  c #D20001",
"f  c #DB0102",
"g  c #D8060B",
"h  c #D3070C",
"j  c #CB0710",
"k  c #C50B10",
"l  c #D7151D",
"z  c #E40306",
"x  c #EB0001",
"c  c #E4040C",
"v  c #EB0508",
"b  c #F10103",
"n  c #F20309",
"m  c #F7090E",
"M  c #E10B11",
"N  c #EF0A10",
"B  c #F90D13",
"V  c #EA121B",
"C  c #E1181E",
"Z  c #FC1116",
"A  c #FF181D",
"S  c #CA1D24",
"D  c #D61D24",
"F  c #E41F24",
"G  c #F41B22",
"H  c #C82729",
"J  c #C42A30",
"K  c #CA2A31",
"L  c #CE3035",
"P  c #D5373C",
"I  c #D33436",
"U  c #E6282D",
"Y  c #F7272E",
"T  c #FB2229",
"R  c #EE2A30",
"E  c #FF2E32",
"W  c #F42A33",
"Q  c #F23037",
"!  c #FF3036",
"~  c #FF383D",
"^  c #FC353B",
"/  c #C63F42",
"(  c #D73D44",
")  c #F73D43",
"_  c #FA3D43",
"`  c #AE6E73",
"'  c #B7737C",
"]  c #CE4648",
"[  c #CA4C4E",
"{  c #D74346",
"}  c #D94143",
"|  c #CA5759",
" . c #D55859",
".. c #D75458",
"X. c #E04A4E",
"o. c #FE4246",
"O. c #FC4248",
"+. c #FE4A4F",
"@. c #F1434A",
"#. c #E0565A",
"$. c #FB565B",
"%. c #FD5A5F",
"&. c #E65D61",
"*. c #FD5D63",
"=. c #D56669",
"-. c #DD6A6D",
";. c #D97272",
":. c #FF656A",
">. c #FF696E",
",. c #E96E72",
"<. c #EF767A",
"1. c #FF7275",
"2. c #FB7B7F",
"3. c #FB7E81",
"4. c #B48083",
"5. c #B08588",
"6. c #BF8A8F",
"7. c #BCADB0",
"8. c #C2888B",
"9. c #C58C90",
"0. c #C1979B",
"q. c #D5989C",
"w. c #FD8285",
"e. c #F28689",
"r. c #FF878B",
"t. c #FF8C90",
"y. c #FB9A9C",
"u. c #F99294",
"i. c #FF9FA2",
"p. c #C6A4A8",
"a. c #C5ABAD",
"s. c #D7AFB2",
"d. c #CFB2B4",
"f. c #D3B7BA",
"g. c #FEA0A3",
"h. c #F5ACAF",
"j. c #F9ADAF",
"k. c #A6C1C1",
"l. c #B5C2C1",
"z. c #BDE1E0",
"x. c #C1C4C5",
"c. c #C9C5C6",
"v. c #DFC8CA",
"b. c #D3C7C9",
"n. c #C6D5D4",
"m. c #CDDFDE",
"M. c #C0DCDA",
"N. c #D5DCDC",
"B. c #DCDCDC",
"V. c #EBD5D7",
"C. c #E7D7E0",
"Z. c #C5E7E7",
"A. c #CCE3E3",
"S. c #D0E4E4",
"D. c #DBF0EF",
"F. c #DDF5F3",
"G. c #EDE8E9",
"H. c #F2EEEF",
"J. c #E6F5F4",
"K. c #E7FAF9",
"L. c #ECFAFA",
"P. c #F3F0F1",
"I. c #FBF4F4",
"U. c #F4F7F8",
"Y. c #F5FCFC",
"T. c #FFFFFF",
/* pixels */
"                                            ",
"              <.h.j.y.y.u.e.,.              ",
"          &.w.2.g.i.w.r.r.t.3.3...          ",
"        &.1.%.>.$.*.>.>.:.$.>.*.1.#.        ",
"      X.%.) +.R +.O.o.+._ *.@.+.) $.{       ",
"    L _ W _ D ` S T Y G ! l ' K ^ Q ~ r     ",
"    U V D p p.T.b.k n Z d 0.T.b.w C V F     ",
"  q c j u q.T.U.T.f.u i 9.T.Y.T.v.i a z 8   ",
"  8 u > 3 / I.T.H.T.s.9.T.P.T.T.=.6 2 6 9   ",
"  4 > $ - = t I.T.Y.T.T.Y.T.T.| : > = - 3   ",
"  1 = + = , : y V.L.K.J.L.G.| > > : = = 2 + ",
"  < O . + + : - 8.J.K.L.J.d.: > - = + O - o ",
"  < = . O @ $ 4.F.N.N.N.N.D.a.= $ + X O -   ",
"  ; 2 o % $ 5.A.c.n.N.B.n.c.m.7.- = O = -   ",
"  # 5 = = 6.z.x.l.S.[ H N.l.x.M.C.4 $ 3 $   ",
"    > a = ] A.k.A...6 6 K N.k.Z.;.: 3 3     ",
"    o a u > } B. .u i i u I B.-.3 3 i $     ",
"      & M h 3 s i z x x v d s 6 7 c ;       ",
"        * g n f x b m B b b f z z ;         ",
"          # 9 N Z E o.o.~ A B p %           ",
"              $ 0 J ( P K e ;               ",
"                                            "
};
