/* XPM */
static char *tab_new[] = {
/* columns rows colors chars-per-pixel */
"22 22 150 2 ",
"   c None",
".  c #2C2C2C",
"X  c #2D2D2D",
"o  c gray18",
"O  c #2F2F2F",
"+  c #313131",
"@  c #323232",
"#  c #373737",
"$  c DimGray",
"%  c gray49",
"&  c #4A9F06",
"*  c #4E9615",
"=  c #4F9814",
"-  c #4C901A",
";  c #4C951E",
":  c #4BA104",
">  c #4BA304",
",  c #4CA801",
"<  c #50AD03",
"1  c #51B103",
"2  c #52B403",
"3  c #57BA06",
"4  c #57BD04",
"5  c #52A714",
"6  c #57A714",
"7  c #52A21B",
"8  c #54A21E",
"9  c #58AC1C",
"0  c #5BB013",
"q  c #59B317",
"w  c #5FBF16",
"e  c #5EB71B",
"r  c #5DB41F",
"t  c #60BF16",
"y  c #62BC1B",
"u  c #4C8B28",
"i  c #4F8D2A",
"p  c #529727",
"a  c #549624",
"s  c #559C24",
"d  c #54922F",
"f  c #53843C",
"g  c #589932",
"h  c #57A720",
"j  c #5EB125",
"k  c #63AE2C",
"l  c #63B02C",
"z  c #65B32F",
"x  c #66B32F",
"c  c #67B52F",
"v  c #66A53E",
"b  c #57C300",
"n  c #5AC603",
"m  c #59C900",
"M  c #5FC907",
"N  c #5FC20C",
"B  c #5FD006",
"V  c #64D70B",
"C  c #6ACA1B",
"Z  c #6ACA1E",
"A  c #68D413",
"S  c #70C12F",
"D  c #75D728",
"F  c #71C236",
"G  c #79CD34",
"H  c #7CCA3C",
"J  c #7DDD32",
"K  c #7DD338",
"L  c #679C47",
"P  c #6C9A5D",
"I  c #67A543",
"U  c #67A347",
"Y  c #6EAE46",
"T  c #6EA64F",
"R  c #75AC4F",
"E  c #76B04E",
"W  c #77B84C",
"Q  c #77AE52",
"!  c #73AE54",
"~  c #77B154",
"^  c #7AB252",
"/  c #79B255",
"(  c #7DAB65",
")  c #7BC642",
"_  c #7FC444",
"`  c #7EC14F",
"'  c #82D73E",
"]  c #82DC3B",
"[  c #83B962",
"{  c #89BB69",
"}  c #80CE40",
"|  c #85CB4B",
" . c #84D443",
".. c #89D947",
"X. c #85D04B",
"o. c #88D34E",
"O. c #82C751",
"+. c #86C655",
"@. c #8ACB51",
"#. c #838383",
"$. c #888888",
"%. c gray57",
"&. c #929292",
"*. c gray59",
"=. c #979797",
"-. c #9B9B9B",
";. c gray61",
":. c gray63",
">. c #A2A2A2",
",. c #A4A4A4",
"<. c #A5A5A5",
"1. c gray65",
"2. c #A7A7A7",
"3. c gray67",
"4. c #ACACAC",
"5. c #AEAEAE",
"6. c gray69",
"7. c #B1B1B1",
"8. c #B2B2B2",
"9. c #B6B6B6",
"0. c gray72",
"q. c #BBBBBB",
"w. c gray74",
"e. c gray75",
"r. c #CBCBCB",
"t. c gray80",
"y. c #CECECE",
"u. c gray81",
"i. c #D0D0D0",
"p. c gray83",
"a. c gray84",
"s. c #D7D7D7",
"d. c #D8D8D8",
"f. c gray85",
"g. c gray86",
"h. c #DDDDDD",
"j. c gray90",
"k. c #E6E6E6",
"l. c #E7E7E7",
"z. c gray91",
"x. c #E9E9E9",
"c. c #EAEAEA",
"v. c #ECECEC",
"b. c gray97",
"n. c #F8F8F8",
"m. c #F9F9F9",
"M. c gray98",
"N. c #FBFBFB",
"B. c gray99",
"V. c white",
/* pixels */
"                                            ",
"                                            ",
"                                            ",
"                                            ",
"                                            ",
"          -.,.,.,.,.,.,.,.,.,.,.,.&.        ",
"        t.g.a.a.a.a.a.a.a.a.a.a.a.h.$.      ",
"      g.B.M.M.M.M.M.M.M.M.L s = * p B.$     ",
"      b.M.M.M.M.M.M.M.M.M.v 5 > > 7 B.,.    ",
"    # l.l.l.l.l.x.x.x.x.x.Y q 1 < 9 v.;.    ",
"      r.t.i.a.a.g.g.g.g.g.x w 4 3 e t.#.    ",
"  *.% 8.9.q.q.e.e.P ( { [ ` X.} H ) W / T f ",
"  :.5.,.,.3.5.8.8.! ~ +.O.o...' K G F c k d ",
"  &.*.;.:.,.3.5.8.Q ^ @.|  .] J D C y 0 6 a ",
"  o o o o o @ @ @ R E _ S Z A V B b 2 , & - ",
"                  U I l j t M m n N r h 8 u ",
"                          x w 4 3 e         ",
"                          g q 1 < 9         ",
"                          ; 5 > > 7         ",
"                          i s = * p         ",
"                                            ",
"                                            "
};
