/* XPM */
static char *audacious[] = {
/* columns rows colors chars-per-pixel */
"96 96 85 1 ",
"  c None",
". c #5B8EDA",
"X c #5A8FDA",
"o c #5B8FDA",
"O c #5B8EDB",
"+ c #5A8FDB",
"@ c #5B8FDB",
"# c #5C8EDA",
"$ c #5C8FDA",
"% c #5C8FDB",
"& c #5C8FDC",
"* c #5A90DA",
"= c #5B90DA",
"- c #5A90DB",
"; c #5B90DB",
": c #5A91DB",
"> c #5B91DB",
", c #5C90DA",
"< c #5C90DB",
"1 c #5A90DC",
"2 c #5B90DC",
"3 c #5A91DC",
"4 c #5B91DC",
"5 c #5E92DC",
"6 c #6194DC",
"7 c #6B9BDF",
"8 c #6D9CDF",
"9 c #6E9DDF",
"0 c #709EE0",
"q c #77A3E2",
"w c #79A4E2",
"e c #7AA5E2",
"r c #83ABE4",
"t c #84ACE4",
"y c #86ADE4",
"u c #87AEE4",
"i c #88AEE4",
"p c #93B6E7",
"a c #94B7E7",
"s c #97B9E8",
"d c #99BAE8",
"f c #9CBCE9",
"g c #9DBDE9",
"h c #9FBEEA",
"j c #A0BFEA",
"k c #AFC9ED",
"l c #B0CAEE",
"z c #B8D0EF",
"x c #B9D0EF",
"c c #BDD2F1",
"v c #BDD3F1",
"b c #CEDEF4",
"n c #CEDEF5",
"m c #D1E0F5",
"M c #D2E1F5",
"N c #D3E1F6",
"B c #D3E2F6",
"V c #D4E2F6",
"C c #D5E3F6",
"Z c #E4EDF9",
"A c #E5EDF9",
"S c #E7EFF9",
"D c #E8EFF9",
"F c #ECF2FB",
"G c #EDF3FB",
"H c #EEF3FB",
"J c #EEF4FB",
"K c #EFF4FB",
"L c #F1F6FC",
"P c #F2F6FC",
"I c #F7FAFD",
"U c gray98",
"Y c #FBFBFB",
"T c #F8FAFD",
"R c #F9FBFD",
"E c #F9FBFE",
"W c #FAFBFE",
"Q c #FAFCFE",
"! c #FBFCFE",
"~ c gray99",
"^ c #FDFDFD",
"/ c #FCFDFE",
"( c #FEFEFE",
") c #FEFFFF",
"_ c white",
/* pixels */
"                                                                                                ",
"                                                                                                ",
"                                                                                                ",
"                                       o2;;;;;;;;;;;;;2o$                                       ",
"                                   ;;;;;;;;;;;;;;;;;;;;;;;;2o                                   ",
"                                ;;;;;;;;;;;;;;;;;;;;;;;;;;;;;;2                                 ",
"                             o;;;;;;;;;;;;;;;;;;;;;;;;;;;;;;;;;;;;                              ",
"                           $;;;;;;;;;;;;;;;;;;;;;;;;;;;;;;;;;;;;;;;2                            ",
"                         o;;;;;;;;;;;;;;;;;;;;;;;;;;;;;;;;;;;;;;;;;;;2                          ",
"                        ;;;;;;;;;;;;;;;;;;;;;;;;;;;;;;;;;;;;;;;;;;;;;;;&                        ",
"                      2;;;;;;;;;;;;;;;;;;;;;;;;;;;;;;;;;;;;;;;;;;;;;;;;;;                       ",
"                     ;;;;;;;;;;;;;;;;;;;;;;;;;;;;;;;;;;;;;;;;;;;;;;;;;;;;;&                     ",
"                   &;;;;;;;;;;;;;;;;;;;;;;;;;;;;;;;;;;;;;;;;;;;;;;;;;;;;;;;2                    ",
"                  2;;;;;;;;;;;;;;;;;;;;;;;;;;;;;;;;;;;;;;;;;;;;;;;;;;;;;;;;;;                   ",
"                 ;;;;;;;;;;;;;;;;;;;;;;;;;;;;;;;;;;;;;;;;;;;;;;;;;;;;;;;;;;;;;                  ",
"                ;;;;;;;;;;;;;;;;;;;;;;;;;;;;;;;;;;;;;;;;;;;;;;;;;;;;;;;;;;;;;;;                 ",
"               ;;;;;;;;;;;;;;;;;;;;;;;;;;;;;;;;;;;;;;;;;;;;;;;;;;;;;;;;;;;;;;;;;                ",
"              2;;;;;;;;;;;;;;;;;;;;;;;;;;;;;;;;;;;;;;;;;;;;;;;;;;;;;;;;;;;;;;;;;;               ",
"             2;;;;;;;;;;;;;;;;;;;;;;;;;;;;;;;;;;;;;;;;;;;;;;;;;;;;;;;;;;;;;;;;;;;;              ",
"            o;;;;;;;;;;;;;;;;;;;;;;;;;;;;;;;;;;;;;;;;;;;;;;;;;;;;;;;;;;;;;;;;;;;;;2             ",
"            ;;;;;;;;;;;;;;;;;;;;;;;;;;;;;;;;;;;;;;;;;;;;;;;;;;;;;;;;;;;;;;;;;;;;;;;o            ",
"           ;;;;;;;;;;;;;;;;;;;;;;;;;;;;;;;;;;;;;;;;;;;;;;;;;;;;;;;;;;;;;;;;;;;;;;;;;            ",
"          ;;;;;;;;;;;;;;;;;;;;;;;;;;;;;;;;;;;;;;;;;;;;;;;;;;;;;;;;;;;;;;;;;;;;;;;;;;;           ",
"         o;;;;;;;;;;;;;;;;;;;;;;;;;;;;;;;;;;;;;;;;;;;;;;;;;;;;;;;;;;;;;;;;;;;;;;;;;;;2          ",
"         ;;;;;;;;;;;;;;;;;;;;;;;;;;;;;;;;;;;;;;;;;;;;;;;;;;;;;;;;;;;;;;;;;;;;;;;;;;;;;          ",
"        2;;;;;;;;;;;;;;;;;;;;;;;;;;;;;;;;;;;;;;;;;;;;;;;;;;;;;;;;;;;;;;;;;;;;;;;;;;;;;;         ",
"        ;;;;;;;;;;;;;;;;;;;;;;;;;;;;;;;;;;;;;;;;;;;;;;;;;;;;;;;;;;;;;;;;;;;;;;;;;;;;;;;o        ",
"       ;;;;;;;;;;;;;;;;;;;;;;;;;;;;9xDR////////////////////////RSx9;;;;;;;;;;;;;;;;;;;;;        ",
"       ;;;;;;;;;;;;;;;;;;;;;;;;;;;tP//////////////////////////////Pt;;;;;;;;;;;;;;;;;;;;$       ",
"      ;;;;;;;;;;;;;;;;;;;;;;;;;;;9P////////////////////////////////P9;;;;;;;;;;;;;;;;;;;;       ",
"      ;;;;;;;;;;;;;;;;;;;;;;;;;;;x//////////////////////////////////x;;;;;;;;;;;;;;;;;;;;       ",
"     $;;;;;;;;;;;;;;;;;;;;;;;;;;;S//////////////////////////////////S;;;;;;;;;;;;;;;;;;;;2      ",
"     ;;;;;;;;;;;;;;;;;;;;;;;;;;;;R//////////////////////////////////R;;;;;;;;;;;;;;;;;;;;;      ",
"     ;;;;;;;;;;;;;;;;;;;;;;;;;;;;UUUUUU////////////////////////UUUUUU;;;;;;;;;;;;;;;;;;;;;<     ",
"    o;;;;;;;;;;;;;;;;;;;;;;;;;;;;UUUUUU////////////////////////UUUUUU;;;;;;;;;;;;;;;;;;;;;;     ",
"    ;;;;;;;;;;;;;;;;;;;;;;;;;;;;;UUUUUU////////////////////////UUUUUU;;;;;;;;;;;;;;;;;;;;;;     ",
"    ;;;;;;;;;;;;;;;;;;;;;;;;;;;;;UUUUUU////////////////////////UUUUUU;;;;;;;;;;;;;;;;;;;;;;     ",
"   o;;;;;;;;;;;;;;;;;;;;;;;;;;;;;UUUUUU////////////////////////UUUUUU;;;;;;;;;;;;;;;;;;;;;;o    ",
"   2;;;;;;;;;;;;;;;;;;;;;;;;;;;;;UUUUUU////////////////////////UUUUUU;;;;;;;;;;;;;;;;;;;;;;;    ",
"   ;;;;;;;;;;;;;;;;;;;;;;;;;;;;;;UUUUUU;;;;;;;;;;;;;;;;;;;;;;;;UUUUUU;;;;;;;;;;;;;;;;;;;;;;;    ",
"   ;;;;;;;;;;;;;;;;;;;;;;;;;;;;;;UUUUUU;;;;;;;;;;;;;;;;;;;;;;;;UUUUUU;;;;;;;;;;;;;;;;;;;;;;;    ",
"   ;;;;;;;;;;;;;;;;;;;;;;;;;;;;;;UUUUUU;;;;;;;;;;;;;;;;;;;;;;;;UUUUUU;;;;;;;;;;;;;;;;;;;;;;;    ",
"   ;;;;;;;;;;;;;;;;;;;;;;;;;;;;;;UUUUUU;;;;;;;;;;;;;;;;;;;;;;;;UUUUUU;;;;;;;;;;;;;;;;;;;;;;;o   ",
"  $;;;;;;;;;;;;;;;;;;;;;;;;;;;;;;UUUUUU;;;;;;;;;;;;;;;;;;;;;;;;UUUUUU;;;;;;;;;;;;;;;;;;;;;;;;   ",
"  $;;;;;;;;;;;;;;;;;;;;;;;;;;;;;;UUUUUU;;;;;;;;;;;;;;;;;;;;;;;;UUUUUU;;;;;;;;;;;;;;;;;;;;;;;;   ",
"  o;;;;;;;;;;;;;;;;;;;;;;;;;;;;;;UUUUUU;;;;;;;;;;;;;;;;;;;;;;;;UUUUUU;;;;;;;;;;;;;;;;;;;;;;;2   ",
"  ;;;;;;;;;;;;;;;;;;;;;;;;;;;;;;;UUUUUU;;;;;;;;;;;;;;;;;;;;;;;;UUUUUU;;;;;;;;;;;;;;;;;;;;;;;;   ",
"  2;;;;;;;;;;;;;;;;;;;;;;;;;;;;;;UUUUUU;;;;;;;;;;;;;;;;;;;;;;;;UUUUUU;;;;;;;;;;;;;;;;;;;;;;;;   ",
"  2;;;;;;;;;;;;;;;;;;;;;;;;;;;;;;UUUUUU;;;;;;;;;;;;;;;;;;;;;;;;UUUUUU;;;;;;;;;;;;;;;;;;;;;;;;   ",
"  ;;;;;;;;;;;;;;;;;;;;;;;;;;;;;;;UUUUUU;;;;;;;;;;;;;;;;;;;;;;;;UUUUUU;;;;;;;;;;;;;;;;;;;;;;;;   ",
"  $;;;;;;;;;;;;;;;;;;;;;;;;;;;;;;UUUUUU;;;;;;;;;;;;;;;;;;;;;;;;UUUUUU;;;;;;;;;;;;;;;;;;;;;;;;   ",
"  <;;;;;;;;;;;;;;;;;;;;;;;;;;;;;;UUUUUU;;;;;;;;;;;;;;;;;;;;;;;;UUUUUU;;;;;;;;;;;;;;;;;;;;;;;;   ",
"  ;;;;;;;;;;;;;;;;;;;;;;;;;;;;;;;UUUUUU;;;;;;;;;;;;;;;;;<<;;;;;UUUUUU;;;;;;;;;;;;;;;;;;;;;;;2   ",
"   ;;;;;;;;;;;;;;;;;;;;;;;;;;;;;;UUUUUU;;;;;;;;;;;;;;;;;<<;;;;;UUUUUU;;;;;;;;;;;;;;;;;;;;;;;o   ",
"   ;;;;;;;;;;;;;;;;;;;;;;;;;6tddtUUUUUU;;;;;;;;;;;;;;;;;;;6tddtUUUUUU;;;;;;;;;;;;;;;;;;;;;;;    ",
"   ;;;;;;;;;;;;;;;;;;;;;;;7vR//////UUUU;;;;;;;;;;;;;;;;;7vR//////UUUU;;;;;;;;;;;;;;;;;;;;;;;    ",
"   ;;;;;;;;;;;;;;;;;;;;;<tP/////////~UU<;;;;;;;;;;;;<;;rP/////////~UU<;;;;;;;;;;;;;;;;;;;;;;    ",
"   2;;;;;;;;;;;;;;;;;;;;eR///////////~U<;;;;;;;;;;;;<;eR///////////~U<;;;;;;;;;;;;;;;;;;;;;;    ",
"    ;;;;;;;;;;;;;;;;;;;5S/////////////U<;;;;;;;;;;;;<5S/////////////U<<;;;;;;;;;;;;;;;;;;;;o    ",
"    ;;;;;;;;;;;;;;;;;;;s///////////////<;;;;;;;;;;;;;d///////////////<<<;;;;;;;;;;;;;;;;;;;     ",
"    ;;;;;;;;;;;;;;;;<<<n///////////////;;;;;;;;;;;;;<n///////////////;;;;;;;;;;;;;;;;;;;;;;     ",
"    o;;;;;;;;;;;;;;;<<<K///////////////;;;;;;;;;;;;;<K///////////////;;;;;;;;;;;;;;;;;;;;;;     ",
"     ;;;;;;;;;;;;;;;<;<!///////////////<;;;;;;;;;;;;<////////////////;;;;;;;;;;;;;;;;;;;;;o     ",
"     ;;;;;;;;;;;;;;;;;<L//////////////H<;;;;;;;;;;;;<L//////////////K;;;;;;;;;;;;;;;;;;;;;      ",
"     <;;;;;;;;;;;;;;;;;V//////////////V<<;;;;;;;;;;;;V//////////////V<<<;;;;;;;;;;;;;;;;;2      ",
"      ;;;;;;;;;;;;;;;;;j//////////////j<<<;;;;;;;;;;;j//////////////j<<<;;;;;;;;;;;;;;;;;       ",
"      ;;;;;;;;;;;;;;;;;6H////////////K6<;;;;;;;;;;;;;6H////////////K6;<<;;;;;;;;;;;;;;;;;       ",
"       ;;;;;;;;;;;;;;;;;i////////////t<<;;;;;;;;;;;;;;i////////////t;<;<;;;;;;;;;;;;;;;;o       ",
"       2;;;;;;;;;;;;;;;;;aR////////Rp;;;;;;;;;;;;;;;;<<aR////////Rp;;;;;;;;;;;;;;;;;;;;;        ",
"        ;;;;;;;;;;;;;;;;;;eM//////Mq;;;;;;;;;;;;;;;;;;;;eV//////Mq;;;;;;;;;;;;;;;;;;;;;<        ",
"        2;;;;;;;;;;;;;;;;;<<0gllg0;;;;;;;;;;;;;;;;;;;;;;<<0gllg0;;;;;;;;;;;;;;;;;;;;;;;         ",
"         ;;;;;;;;;;;;;;;;;<<<<<<;;;;;;;;;;;;;;;;;;;;;;;;<<<;;;;;;;;;;;;;;;;;;;;;;;;;;;          ",
"         o;;;;;;;;;;;;;;;;;;;;;;;;;;;;;;;;;;;;;;;;;;;;;;;;;;;;;;;;;;;;;;;;;;;;;;;;;;;2          ",
"          2;;;;;;;;;;;;;;;;;;;;;;;;;;;;;;;;;;;;;;;;;;;;;;;;;;;;;;;;;;;;;;;;;;;;;;;;;;           ",
"           ;;;;;;;;;;;;;;;;;;;;;;;;;;;;;;;;;;;;;;;;;;;;;;;;;;;;;;;;;;;;;;;;;;;;;;;;;            ",
"            ;;;;;;;;;;;;;;;;;;;;;;;;;;;;;;;;;;;;;;;;;;;;;;;;;;;;;;;;;;;;;;;;;;;;;;;o            ",
"            o;;;;;;;;;;;;;;;;;;;;;;;;;;;;;;;;;;;;;;;;;;;;;;;;;;;;;;;;;;;;;;;;;;;;;;             ",
"             2;;;;;;;;;;;;;;;;;;;;;;;;;;;;;;;;;;;;;;;;;;;;;;;;;;;;;;;;;;;;;;;;;;;;              ",
"              2;;;;;;;;;;;;;;;;;;;;;;;;;;;;;;;;;;;;;;;;;;;;;;;;;;;;;;;;;;;;;;;;;;               ",
"               ;;;;;;;;;;;;;;;;;;;;;;;;;;;;;;;;;;;;;;;;;;;;;;;;;;;;;;;;;;;;;;;;;                ",
"                ;;;;;;;;;;;;;;;;;;;;;;;;;;;;;;;;;;;;;;;;;;;;;;;;;;;;;;;;;;;;;;;                 ",
"                 2;;;;;;;;;;;;;;;;;;;;;;;;;;;;;;;;;;;;;;;;;;;;;;;;;;;;;;;;;;;;                  ",
"                  2;;;;;;;;;;;;;;;;;;;;;;;;;;;;;;;;;;;;;;;;;;;;;;;;;;;;;;;;;;                   ",
"                   2;;;;;;;;;;;;;;;;;;;;;;;;;;;;;;;;;;;;;;;;;;;;;;;;;;;;;;;;                    ",
"                     ;;;;;;;;;;;;;;;;;;;;;;;;;;;;;;;;;;;;;;;;;;;;;;;;;;;;;                      ",
"                      2;;;;;;;;;;;;;;;;;;;;;;;;;;;;;;;;;;;;;;;;;;;;;;;;;;                       ",
"                        ;;;;;;;;;;;;;;;;;;;;;;;;;;;;;;;;;;;;;;;;;;;;;;;&                        ",
"                         &;;;;;;;;;;;;;;;;;;;;;;;;;;;;;;;;;;;;;;;;;;;;                          ",
"                           o;;;;;;;;;;;;;;;;;;;;;;;;;;;;;;;;;;;;;;;o                            ",
"                             o;;;;;;;;;;;;;;;;;;;;;;;;;;;;;;;;;;;o                              ",
"                                o;;;;;;;;;;;;;;;;;;;;;;;;;;;;;2                                 ",
"                                   ;;;;;;;;;;;;;;;;;;;;;;;;2                                    ",
"                                       <2;;;;;;;;;;;;;2<                                        ",
"                                                                                                ",
"                                                                                                ",
"                                                                                                "
};
