/* XPM */
static char *_4926782ca034965a6d9b99fcfab038f4xbc2ykh82hncuSm[] = {
/* columns rows colors chars-per-pixel */
"48 48 168 2 ",
"   c None",
".  c #4C2F61",
"X  c #4D3162",
"o  c #523566",
"O  c #563B6A",
"+  c #593C6D",
"@  c #5E4272",
"#  c #614677",
"$  c #654B7B",
"%  c #694D7E",
"&  c #6A4F80",
"*  c #625681",
"=  c #6D5383",
"-  c #655984",
";  c #685B87",
":  c #6A5E89",
">  c #705687",
",  c #745F86",
"<  c #745C8C",
"1  c #6E618C",
"2  c #72638F",
"3  c #75688F",
"4  c #746591",
"5  c #796593",
"6  c #766995",
"7  c #796A96",
"8  c #7B6D99",
"9  c #7E719D",
"0  c #806D8E",
"q  c #826D9B",
"w  c #847095",
"e  c #81729E",
"r  c #877B9D",
"t  c #8475A2",
"y  c #8876A3",
"u  c #8778A5",
"i  c #897AA6",
"p  c #8C7DAA",
"a  c #927FAD",
"s  c #8E81A3",
"d  c #8F80AD",
"f  c #9182AE",
"g  c #978AAC",
"h  c #9E92AC",
"j  c #9485B2",
"k  c #9887B6",
"l  c #9788B5",
"z  c #9989B6",
"x  c #9C8DBB",
"c  c #9F90BB",
"v  c #A093AC",
"b  c #A191B7",
"n  c #AA96B2",
"m  c #A59AB1",
"M  c #A99DB1",
"N  c #A192BE",
"B  c #A799BE",
"V  c #A99ABB",
"C  c #ADA2BD",
"Z  c #B0A5B8",
"A  c #A495C1",
"S  c #A699C4",
"D  c #A99DC6",
"F  c #AA9FC8",
"G  c #AEA1C3",
"H  c #ADA3CA",
"J  c #B2A4C5",
"K  c #B8A7C5",
"L  c #BBACC5",
"P  c #B3A7C9",
"I  c #B2AACD",
"U  c #BBAFCB",
"Y  c #BDB2C4",
"T  c #BCB1CC",
"R  c #B4ADD1",
"E  c #B6B1D4",
"W  c #B9B5D5",
"Q  c #BEB9D5",
"!  c #BAB7D8",
"~  c #BDBBDA",
"^  c #C0AEC5",
"/  c #C0B6C3",
"(  c #C5BAC5",
")  c #C1B7CE",
"_  c #C5B9CD",
"`  c #C9BDCD",
"'  c #C4BBD1",
"]  c #CFBED3",
"[  c #C0BFDC",
"{  c #D5CACF",
"}  c #C7C1D7",
"|  c #CDC3D4",
" . c #CFC9D4",
".. c #C0C0DD",
"X. c #CCC7D9",
"o. c #CECBDE",
"O. c #D3C4D5",
"+. c #D4CAD4",
"@. c #D9CFD5",
"#. c #D4CDDA",
"$. c #D7D2D7",
"%. c #DAD0D6",
"&. c #DDD3D5",
"*. c #DED3D5",
"=. c #DDD3D5",
"-. c #DCD4D9",
";. c #DDD6DB",
":. c #E0CFDB",
">. c #E0D5D5",
",. c #E0D6D6",
"<. c #E2D8D7",
"1. c #E3D8D7",
"2. c #E1D6DF",
"3. c #E1D4DD",
"4. c #E4DBD9",
"5. c #E0DADF",
"6. c #E3DCDC",
"7. c #E5DDDC",
"8. c #E5DEDD",
"9. c #E4DEDF",
"0. c #E4DBDB",
"q. c #E7E0DF",
"w. c #E6E0DF",
"e. c #E8E0DD",
"r. c #CDCCE1",
"t. c #D4D2E2",
"y. c #DAD6E0",
"u. c #DFDBE0",
"i. c #DDDCE5",
"p. c #DCDAE4",
"a. c #E6D5E1",
"s. c #E2DFE3",
"d. c #E0DDE4",
"f. c #E0DFE7",
"g. c #EADFE4",
"h. c #EEDEE6",
"j. c #ECDEE5",
"k. c #E6E1E2",
"l. c #E8E3E1",
"z. c #E8E3E2",
"x. c #E9E5E3",
"c. c #EAE0E4",
"v. c #EFE0E7",
"b. c #EFE3E7",
"n. c #EAE6E5",
"m. c #EAE7E6",
"M. c #E8E4E4",
"N. c #EAE5E3",
"B. c #EBE9E7",
"V. c #ECE8E5",
"C. c #E5E5E9",
"Z. c #E8E7E9",
"A. c #EAE8E8",
"S. c #ECEAE8",
"D. c #ECEBE9",
"F. c #EDECEA",
"G. c #EDEDEB",
"H. c #EEEDEB",
"J. c #EEEEEC",
"K. c #EDEDEB",
"L. c #F0E2E7",
"P. c #F3E6E9",
"I. c #F1E4E8",
"U. c #F2E6E9",
"Y. c #F5ECEA",
"T. c #F2F1ED",
"R. c #FAF5EE",
"E. c #FCF9F0",
/* pixels */
"            J.J.J.J.                                                                            ",
"          J.J.J.J.J.J.J.                                                                        ",
"        J.J.J.J.J.J.J.J.G.G.D.      S S A A A N N x x k j j                                     ",
"      J.J.J.J.J.J.J.J.G.G.D.S.m.} H D D S S A A A N x x l k j f d                               ",
"      J.J.J.        J.G.B.S.B.B.x.#.I F F F S S A A A x x l j j d i i                           ",
"    J.J.J.            I W o.d.m.m.x.d.' H F F S S A A N x x k j f d i i                         ",
"    J.J.            H H H I E X.5.l.l.9.| I H F D S A A N x x B j d d i t t                     ",
"    J.            H I I I I R R W X.5.e.7.@.I H F F S A A c x ' _ l p i u t e                   ",
"    J.          H I I R E E E E E E Q #.0.7.#.U H F F S A x x D g.O.z i i t e 9                 ",
"              H H I R R E E E ! ! ! E W } -.7.%.T F F S S A N x O.P.L y i u t 9 8               ",
"            H H I R R E ! ! ! ~ ! ~ ~ ! W Q +.<.@.T F D S A N x K I.:.w e t y 9 8 7             ",
"          H H H I R E W ! ~ ~ ~ ~ ..~ ! W W W | ,.@.U F S A A x N 2.v.n = 8 e e 8 8 6           ",
"          F U I I R E ! ! ............~ ~ W E E ' *.@.I S A A x x } I.O.q < 6 9 8 8 6           ",
"      d.F F C #.E E ! ! ~ ..............~ ! ! E R ' >.+.P S A A x K I.a.b q 2 5 8 8 6 4         ",
"      I F F z  .i.~ W ! ~ ..............[ ~ W E R I ) *.{ F A x x V g.h.K u 9 7 6 8 6 2         ",
"      S D H b v J.C.r.~ ~ ..............[ ~ ! E R I P ) *.O.S N x x 2.I.] p u 9 8 8 6 4 1       ",
"      A S H H 9 $.J.G.s.o...............~ ~ ! E R R H H Q -._ N x x +.P.3.g t t 8 7 6 4 1       ",
"    A D S G I d Z T.T.T.J.f.r...~ ........! W E R I H H D ` >.T x k } Y.j.B t t 8 8 6 4 1 :     ",
"    N A S H H c 1 Z V.T.G.G.J.C.r.r.~ ~ ~ ! W R R I H F D F | =.C k ] Y.v.^ t t 8 8 6 4 1 1     ",
"    N A A D H H % @ 7 Y Z.T.J.J.J.Z.i.r.~ W R R I H H H D B D { +.c ` R.P.O.p q 9 8 6 2 1 :     ",
"    A A S D H H s . . o 3 $.G.J.J.J.G.D.k.y.X.' R I F D A A N J @.( +.R.P.3.g e 8 8 6 2 1 :     ",
"  x x N A S S H c @ . . . 5 } y.Z.J.G.G.D.D.m.k.5.#.| _ U K J D ` >.V.R.Y.j.V 8 8 6 6 1 1 ; ;   ",
"  z x N A A A H G % . X X @ N W ~ t.Z.J.D.A.A.m.M.l.l.9.7.<.,.,.>.>.8.R.Y.P.L 8 8 6 4 1 1 ; *   ",
"  z x x N A A G H 3 . X X X 5 I R R ! o.k.D.D.m.M.l.l.9.9.0.0.1.,.,.,.V.R.Y.O.e 7 6 4 1 ; ; *   ",
"  k z x x A A A D a o o o o # N I R R H I [ y.C.V.l.l.g.9.7.<.<.<.$.<.<.G.T.1.i 6 3 3 1 1 1 3   ",
"  j j z x N A A S N # o O + + q H H H H P F P E #.k.l.l.q.7.9.7.4.<.>.>.4.R.e.g 6 3 1 1 % % %   ",
"  j j k x x N N A A < + + @ # = A F F F F D S S D P | 5.q.q.9.7.4.<.<.<.>.V.Y.M 3 3 1 : 1 $ %   ",
"  d d k k k x N A A q # # # # # i F D D S S S S A N N D ` -.q.7.;.<.<.<.>.4.Y./ 6 1 1 : : - 3   ",
"  p d f j k k x x A p $ $ $ % & < A S A S A A N N x x l l b T -.u.6.;.<.<.$.V. .6 : : : - $ -   ",
"    p d f j l k x x k > & & & & > a A A N N N x x x z l j d d z Y $.4.;.<.<.4.u.r : : - - -     ",
"    p p d d j j k x k 5 & = = > > q x x x x x x z z j j f d s i r g / $.<.<.$.s.s : - - : $     ",
"    u i p d d j j k k q = > < > < < a x x z z z j j j d d d i u r r 3 h ( >.p.i.h - - * % 3     ",
"    u u i i p p d j j u < > < < < < y k k k j j j j p p p i u u 9 9 8 7 8 c { e.Z 1 - $ * :     ",
"      t t u p p p d d i < < < < < < q a j j j a p p p i i u 9 t 9 9 8 6 6 1 s Z Z 1 - - *       ",
"      t 9 u u u i i p p 5 < 4 < < 5 5 y p p p p p p p u u 9 9 9 8 6 6 6 1 1 : 4 m 3 $ $ :       ",
"        9 9 t t i i i i 5 < 5 5 5 5 5 q p p p p u u t t 9 9 9 8 8 6 4 4 1 1 : - % % % -         ",
"        8 8 9 t e t t t 8 4 < 5 5 5 5 7 t i u u t t 9 9 9 8 8 6 6 4 1 1 1 : - * $ - % 1         ",
"          8 8 8 e 9 t t q 5 5 5 5 5 5 5 9 t 9 9 t 8 9 9 8 8 6 6 4 1 1 : : - * * - % %           ",
"            7 8 9 t 9 9 5 5 4 5 5 6 5 5 7 9 9 9 8 8 6 6 6 6 4 2 1 1 : - - * * * - $             ",
"              6 8 9 t 8 8 < 4 4 5 6 5 4 6 8 6 9 8 6 6 6 4 4 2 1 1 : : : : * * * :               ",
"              4 4 6 8 8 6 2 4 4 3 4 4 4 4 5 6 9 9 8 6 2 2 1 1 : - - - 1 1 $ % % %               ",
"                2 2 4 4 4 4 2 4 2 1 4 4 4 4 6 9 8 8 2 1 1 : ; ; - - * - - : % 3                 ",
"                    2 2 1 2 2 2 6 6 2 1 2 1 2 4 4 2 1 ; ; ; - * - * $ - * *                     ",
"                      : 1 1 : 1 6 6 1 1 1 1 1 : ; 1 ; - - - * * * * - : %                       ",
"                          : ; : 1 - 1 : - 1 ; ; - - * - : - * * * * *                           ",
"                            - - - - * - - * - * * * * * - * * * * $                             ",
"                                  * * * * * * * * * * * * * *                                   ",
"                                          * * * * * *                                           "
};
