/* XPM */
static char *discord[] = {
/* columns rows colors chars-per-pixel */
"24 24 105 2 ",
"   c None",
".  c #66AFDC",
"X  c #66AFDD",
"o  c #67AFDD",
"O  c #67B0DD",
"+  c #68B0DD",
"@  c #6BB1DE",
"#  c #6BB2DE",
"$  c #6CB2DE",
"%  c #6EB3DE",
"&  c #6FB4DF",
"*  c #72B5DF",
"=  c #73B6DF",
"-  c #72B5E0",
";  c #74B6E0",
":  c #76B7E1",
">  c #79B9E1",
",  c #7ABAE1",
"<  c #7BBAE1",
"1  c #7CBAE2",
"2  c #7CBBE2",
"3  c #7FBCE2",
"4  c #82BDE3",
"5  c #89C1E5",
"6  c #8BC2E5",
"7  c #8BC2E6",
"8  c #8CC3E5",
"9  c #8DC3E5",
"0  c #8CC3E6",
"q  c #8DC4E6",
"w  c #8EC4E6",
"e  c #8FC4E7",
"r  c #90C5E7",
"t  c #92C6E6",
"y  c #92C6E7",
"u  c #92C6E8",
"i  c #93C6E8",
"p  c #93C7E8",
"a  c #94C7E8",
"s  c #95C7E8",
"d  c #96C8E8",
"f  c #96C8E9",
"g  c #9BCAE8",
"h  c #9ACAE9",
"j  c #9BCAE9",
"k  c #9CCBEA",
"l  c #9ECCE9",
"z  c #9FCDEA",
"x  c #A0CDEB",
"c  c #A1CEEA",
"v  c #A3CFEA",
"b  c #A4CFEA",
"n  c #A4D0EB",
"m  c #A4D0EC",
"M  c #A6D0EC",
"N  c #ADD4ED",
"B  c #B1D6EE",
"V  c #B7DAF0",
"C  c #B8DAF0",
"Z  c #BADBF0",
"A  c #BCDCF1",
"S  c #BDDDF1",
"D  c #C2DFF2",
"F  c #C4E0F2",
"G  c #C5E1F3",
"H  c #C6E1F3",
"J  c #C7E2F3",
"K  c #C9E3F3",
"L  c #CBE4F3",
"P  c #CAE3F4",
"I  c #CDE5F4",
"U  c #CFE6F4",
"Y  c #D2E7F5",
"T  c #DCECF7",
"R  c #DCEDF7",
"E  c #DCEDF8",
"W  c #DEEEF8",
"Q  c #DFEEF8",
"!  c #E0EFF8",
"~  c #E4F1F9",
"^  c #E5F1F9",
"/  c #E6F2F9",
"(  c #E7F3FA",
")  c #E8F3FA",
"_  c #E9F4FA",
"`  c #EBF4FA",
"'  c #EDF5FB",
"]  c #EEF6FB",
"[  c #EFF7FB",
"{  c #EFF7FC",
"}  c #F0F7FC",
"|  c #F2F8FC",
" . c #F3F9FC",
".. c #F5FAFD",
"X. c #F6FAFD",
"o. c #F7FBFD",
"O. c #F8FBFD",
"+. c #F9FCFE",
"@. c #FAFCFE",
"#. c #FAFDFE",
"$. c #FBFDFE",
"%. c #FCFDFE",
"&. c #FEFEFF",
"*. c #FEFFFF",
"=. c white",
/* pixels */
"                                                ",
"                                                ",
"    a a a a a a a a a a a a a a a a a a a a     ",
"a a a a a a a a a a a a a a a a a a a a a t 2 + ",
"a a a a a a a a a a a a a a a a a a a a t < + + ",
"a a a a a a a a a a a a a a a a a a a w ; + + + ",
"a a a a a a a p a j a p p d j a p a w ; + + + + ",
"a a a a a a a m D H H P K H I H m 6 * + + + + + ",
"a a a a a p l / ..@.=.=.=.=.@.../ 3 X + + + + + ",
"a a a a a p A =.=.=.=.=.=.=.=.=.=.b X + + + + + ",
"a a a a a d W =.=.@.@.=.=.@.@.=.=.I % + + + + + ",
"a a a a p v } =...C C O...n v ..=._ < X + + + + ",
"a a a a p N @.=.] k v | / ; < ] =.O.9 X + + + + ",
"a a a a p V =.=.@.R W =.@.L Y @.=.=.j X + + + + ",
"a a a a p B @.=./ / ] ..@.| ! R =...t X + + + + ",
"a a a a a d A ) { v 2 6 9 3 l _ W v + + + + + + ",
"a a a a a a a d 6 % X X X X & 4 * X + + + + + + ",
"a a a a a a 9 - X + + + + + + X O + + + + + + + ",
"a a a a a w * O + + + + + + + + + + + + + + +   ",
"a a a a a                                       ",
"a a a a                                         ",
"a a a                                           ",
"a a                                             ",
"                                                "
};
