/* XPM */
static char *nixos_dark[] = {
/* columns rows colors chars-per-pixel */
"24 24 41 1 ",
"  c None",
". c #252525",
"X c gray15",
"o c #323233",
"O c gray20",
"+ c #333334",
"@ c #414141",
"# c #4E4E4E",
"$ c #4E4F4F",
"% c #505050",
"& c gray36",
"* c DimGray",
"= c gray42",
"- c #717172",
"; c #777777",
": c #797979",
"> c gray48",
", c #7B7B7B",
"< c gray49",
"1 c #7D7E81",
"2 c #818182",
"3 c #848484",
"4 c #898989",
"5 c #929292",
"6 c #9B9B9B",
"7 c #A0A0A0",
"8 c #A2A3A3",
"9 c gray68",
"0 c #AEAEAE",
"q c #BBBBBB",
"w c gray76",
"e c #C8C8C8",
"r c #C8C9C9",
"t c gray79",
"y c #CACBCB",
"u c gray84",
"i c gray89",
"p c #E4E4E4",
"a c #EFEFF0",
"s c #F1F1F1",
"d c white",
/* pixels */
"                        ",
"                        ",
"        XXXXXXXX        ",
"      XXXXXXXXXXXX      ",
"     XXXXXXXXXXXXXX     ",
"    XXXO9OX=qO@9XXXX    ",
"   XXXXXi5XOs5qyXXXXX   ",
"   XXXXX;d$+<dd&XXXXX   ",
"  XXXX9ddddd8uuXX;XXXX  ",
"  XXXXXX&4XXX&d&3pXXXX  ",
"  XXXXXOi5XXXXq5s;XXXX  ",
"  XX=yyuiOXXXX@9dyy&XX  ",
"  XX$59d,@XXXX$d855@XX  ",
"  XXXXqy99XXXXw9XXXXXX  ",
"  XXXOd&&d&&&&,=&$XXXX  ",
"  XXXX%XXiyyddddd,XXXX  ",
"   XXXXX3ss-X@d;XXXXX   ",
"   XXXXOa;5iOX6iXXXXX   ",
"    XXXX1XX5$XO2XXXX    ",
"     XXXXXXXXXXXXXX     ",
"      XXXXXXXXXXXX      ",
"        XXXXXXXX        ",
"                        ",
"                        "
};
