/* XPM */
static char *window_stick_xpm[] = {
/* columns rows colors chars-per-pixel */
"24 24 36 1 ",
"  c None",
". c black",
"X c #060000",
"o c #0D0000",
"O c #160000",
"+ c #190000",
"@ c #230000",
"# c #240000",
"$ c #2A0000",
"% c #2C0000",
"& c #400000",
"* c #470000",
"= c #4F0000",
"- c #500000",
"; c #650000",
": c #6D0000",
"> c #700000",
", c #790000",
"< c #7C0000",
"1 c #820000",
"2 c #840000",
"3 c #880000",
"4 c #960000",
"5 c #AF0000",
"6 c #B30000",
"7 c #B50000",
"8 c #C10000",
"9 c #D30000",
"0 c #D40000",
"q c #D90000",
"w c #DD0000",
"e c #E00000",
"r c #EA0000",
"t c #F10000",
"y c #F90000",
"u c red",
/* pixels */
"                        ",
"             .          ",
"       #$$$$$$$         ",
"      .>00999q6$        ",
"      .1uuuuuue%.       ",
"      .;wyuuut5@.       ",
"      .o=wuuu4@X.       ",
"       .@9uuu,..        ",
"        $9uuu,.         ",
"        $9uuu,.         ",
"        $9uuu,.         ",
"        $9uuu,.         ",
"        $9uuu,.         ",
"       *4ruuu8>O        ",
"      $4uuuuuuw-+       ",
"     $7tuuuuuuuw:.      ",
"    .O:2<<,,<<<1&..     ",
"   .......O@X......     ",
"         .:5@.          ",
"         .3w%           ",
"         .20%.          ",
"         .20%.          ",
"                        ",
"                        "
};
