/* XPM */
static char *_eb0674469d24d05ac92367a5bdfbaaem95EuVfg3cqP7MdE[] = {
/* columns rows colors chars-per-pixel */
"48 48 105 2 ",
"   c None",
".  c #899DFF",
"X  c #8A9DFF",
"o  c #8A9EFF",
"O  c #8B9EFF",
"+  c #8B9FFF",
"@  c #8C9FFE",
"#  c #8C9FFF",
"$  c #8DA0FF",
"%  c #8EA1FF",
"&  c #8FA1FF",
"*  c #8FA2FF",
"=  c #90A2FF",
"-  c #90A3FF",
";  c #91A3FF",
":  c #92A4FF",
">  c #93A5FF",
",  c #95A6FE",
"<  c #95A7FE",
"1  c #95A6FF",
"2  c #95A7FF",
"3  c #96A7FE",
"4  c #96A8FE",
"5  c #97A8FF",
"6  c #98A9FE",
"7  c #9AAAFE",
"8  c #9BABFE",
"9  c #9AAAFF",
"0  c #9BACFE",
"q  c #9DADFE",
"w  c #9EAEFE",
"e  c #A0AFFE",
"r  c #A2B1FE",
"t  c #A3B2FE",
"y  c #A3B3FE",
"u  c #A6B5FE",
"i  c #A9B7FE",
"p  c #AAB8FE",
"a  c #B2BFFE",
"s  c #B3BFFE",
"d  c #B4C0FD",
"f  c #B4C1FD",
"g  c #BCC7FE",
"h  c #BDC7FE",
"j  c #C3CDFD",
"k  c #C2CCFE",
"l  c #C6CFFE",
"z  c #C7D0FE",
"x  c #C9D2FD",
"c  c #CAD3FD",
"v  c #CBD4FD",
"b  c #CFD7FD",
"n  c #CFD7FE",
"m  c #D0D7FE",
"M  c #D1D8FD",
"N  c #D3DAFD",
"B  c #D3DBFD",
"V  c #D3DAFE",
"C  c #D5DCFD",
"Z  c #D7DEFD",
"A  c #D6DDFE",
"S  c #D7DEFE",
"D  c #D8DEFD",
"F  c #D9DFFD",
"G  c #DCE2FD",
"H  c #DEE3FD",
"J  c #DCE1FE",
"K  c #DCE2FE",
"L  c #DDE2FE",
"P  c #DFE4FD",
"I  c #DFE4FE",
"U  c #DFE5FE",
"Y  c #E3E7FD",
"T  c #E2E7FE",
"R  c #E3E8FD",
"E  c #E4E8FD",
"W  c #E7EBFD",
"Q  c #E7EBFE",
"!  c #E8ECFE",
"~  c #EAEDFE",
"^  c #EBEEFE",
"/  c #EDF0FE",
"(  c #EEF1FE",
")  c #EFF1FE",
"_  c #F1F3FD",
"`  c #F0F2FE",
"'  c #F0F3FE",
"]  c #F1F4FE",
"[  c #F4F6FE",
"{  c #F6F7FE",
"}  c #F6F8FD",
"|  c #F7F8FE",
" . c #F9FAFD",
".. c #F8F9FE",
"X. c #F9F9FE",
"o. c #F8FAFE",
"O. c #F9FAFE",
"+. c #FAFAFE",
"@. c #FAFBFE",
"#. c #FBFBFE",
"$. c #FBFCFE",
"%. c #FDFDFE",
"&. c #FEFEFE",
"*. c #FFFEFE",
"=. c #FFFFFE",
/* pixels */
"                                                                                                ",
"                                                                                                ",
"                                                                                                ",
"                                                                                                ",
"                                                                                                ",
"                # # # # # # # # # # # # # # # # # # # # # # # # # # # # # # #                   ",
"            # # # # # # # # # # # # # # # # # # # # # # # # # # # # # # # # # # #               ",
"            # # # # # # # # # # # # # # # # # # # # # # # # # # # # # # # # # # #               ",
"          # # # # # # # # # # # $ O $ O $ O $ O # # # # # # # # # # # # # # # # # #             ",
"          # # # # # # # # # # # O $ O $ O $ O $ # # # # # # # # # # # # # # # # # #             ",
"          # # # # # # # # # # # $ O $ O $ O $ O # # # # # # # # # # # # # # # # # #             ",
"          # # # # # # # # # # # O $ O $ O $ O $ # # # # # # # # # # # # # # # # # #             ",
"          # # # # # # # # # # # $ O $ O & O $ O $ O & O # O & O # # # # # # # # # #             ",
"          # # # # # # # # # # # O O $ 5 & O O O O O & 5 & O O O # # # # # # # # # #             ",
"          # # # # # # # # # O O 0 g b z w > 6 0 5 > w c B g 0 O O # # # # # # # # #             ",
"          # # # # # # # # O , k R B j v J ! ( ( ( W J c k B R k , O # # # # # # # #             ",
"          # # # # # # # # - C ] G R } &.&.&.&.&.&.&.&.&. .E D _ C > # # # # # # # #             ",
"          # # # # # # # O a &.} @.&.&.&.&.&.&.&.&.&.&.&.&.&.@.}  .d O # # # # # # #             ",
"          # # # # # # # - J &.&.&.&.&.&.&.&.&.&.&.&.&.&.&.&.&.&.&.J - # # # # # # #             ",
"          # # # # # # # u { &.&.&.&.&.&.&.&.&.&.&.&.&.&.&.&.&.&.&.{ u O # # # # # #             ",
"          # # # # # # O l &.&.&.&.&.&.&.&.&.&.&.&.&.&.&.&.&.&.&.&.&.z # O $ O $ # #             ",
"          # # # # # # - R &.&.&.&.&.&.{ { &.&.&.&.&.{ { &.&.&.&.&.&.T - $ O $ O # #             ",
"          # # # # # # e ] &.&.&.&.&.T r r U &.&.&.U r r T &.&.&.&.&.] w O O O $ # #             ",
"          # # # # # O a &.&.&.&.&. .i O O i  .&. .i . O i  .&.&.&.&.&.a O $ $ O # #             ",
"          # # # O $ O z &.&.&.&.&.] 6 O # 8 ] &.] 6 O O 6 ] &.&.&.&.&.z # # O $ # #             ",
"          # # # $ O $ C &.&.&.&.&. .p O O i  .&. .p O O p  .&.&.&.&.&.C & # $ O # #             ",
"          # # # & O - T &.&.&.&.&.&.U r r U &.&.&.T r r T &.&.&.&.&.&.R & $ O $ # #             ",
"          # # # O $ , ( &.&. . .&.&.&.{ { &.&.&.&.&.{ { &.&.&. . .&.&.^ 5 O $ O # #             ",
"          # # # # O , E &.&. .U J { &.&.&.&.&.&.&.&.&.&.&.] J U @.&.&.! , O # # # #             ",
"          # # # # # # p ! &.&. .C f g B R ! _ _ _ ! R B g d C  .&.&.! p & # # # # #             ",
"          # # # # # # O w B { &.&.] z , & 5 6 6 6 , - , z _ &.&.] B w O O O # # # #             ",
"          # # # # # # # O # r k J ( C > O $ O O O $ O , C ( J k r O O $ O $ # # # #             ",
"          # # # # # # # # # O O & , > # # # # # # # # O > , & O O $ O $ O $ O $ O $             ",
"          # # # # # # # # # & O # O # # # # # # # # O & O O $ O $ O $ O $ O $ O $ O             ",
"          # # # # # # # $ O O O # # # # # # # # O $ O $ O $ O $ O $ O $ O $ O $ O $             ",
"          # # # # # # # O $ O $ # # # # # # # # $ O $ O $ O $ O $ O $ O $ O $ O $ O             ",
"          # # # $ O $ O $ O $ O # # # # # # # # O $ O $ O $ O $ O $ O $ O $ O $ # #             ",
"          # # # O $ O $ O $ O $ # # # # # # # # $ O $ O $ O $ O $ O $ O $ O $ O # #             ",
"            # # $ O $ O $ O $ O # # # # # # # # O $ O $ O $ O $ O $ O O O $ O $ # #             ",
"            # # O $ O $ O $ O $ # # # # # # # # $ O $ O $ O $ O $ O   & $ O $ O # #             ",
"                $ O & O O & O O # # # # # # # # # # # # # # O & # #     # # # # # #             ",
"                                                                            # # # #             ",
"                                                                              # # #             ",
"                                                                                # #             ",
"                                                                                                ",
"                                                                                                ",
"                                                                                                ",
"                                                                                                "
};
