/* XPM */
static char *ea71d27c24a34a858f3a4840f5201fc4YtXg0ZohM7dp8B38[] = {
/* columns rows colors chars-per-pixel */
"48 48 233 2 ",
"   c None",
".  c #1F488D",
"X  c #1F498F",
"o  c #20498D",
"O  c #214A91",
"+  c #204A92",
"@  c #264E91",
"#  c #274E91",
"$  c #204C95",
"%  c #244F97",
"&  c #224E9A",
"*  c #2E5494",
"=  c #255098",
"-  c #23519F",
";  c #2453A4",
":  c #2A56A1",
">  c #2A57A2",
",  c #2556A8",
"<  c #2657A8",
"1  c #2657AB",
"2  c #2659AE",
"3  c #2759AE",
"4  c #2659AF",
"5  c #265AAF",
"6  c #275AAF",
"7  c #2759B0",
"8  c #255AB1",
"9  c #265AB0",
"0  c #275AB0",
"q  c #285AB0",
"w  c #285BB0",
"e  c #295BB0",
"r  c #295BB1",
"t  c #2A5CB1",
"y  c #3260AF",
"u  c #2E60B2",
"i  c #3161B3",
"p  c #3262B4",
"a  c #3666B5",
"s  c #396ABD",
"d  c #396BBE",
"f  c #3275E7",
"g  c #3375E7",
"h  c #3476E7",
"j  c #3577E7",
"k  c #3879E8",
"l  c #3B7BE8",
"z  c #3C7BE9",
"x  c #3F7EE9",
"c  c #377EF0",
"v  c #387EF0",
"b  c #387FF0",
"n  c #4074CA",
"m  c #4174CB",
"M  c #477DD7",
"N  c #487ED8",
"B  c #417FE9",
"V  c #4D84E2",
"C  c #4D85E2",
"Z  c #4281EA",
"A  c #4583EB",
"S  c #4A85EB",
"D  c #4986EB",
"F  c #4C88EC",
"G  c #4F8AED",
"H  c #518AE9",
"J  c #518AEA",
"K  c #518BED",
"L  c #528BEC",
"P  c #548BED",
"I  c #538CED",
"U  c #528DED",
"Y  c #538CEE",
"T  c #538DEE",
"R  c #548CED",
"E  c #548DED",
"W  c #548CEE",
"Q  c #548DEE",
"!  c #548DEF",
"~  c #558EEE",
"^  c #548EEF",
"/  c #568EEE",
"(  c #5990ED",
")  c #5E93EE",
"_  c #4688F1",
"`  c #4788F1",
"'  c #4989F1",
"]  c #4A8AF1",
"[  c #508EF1",
"{  c #528FF2",
"}  c #5491F2",
"|  c #5591F2",
" . c #6396EC",
".. c #6899ED",
"X. c #6199F3",
"o. c #679AF0",
"O. c #6A9FF3",
"+. c #6BA0F3",
"@. c #6CA0F3",
"#. c #6DA1F4",
"$. c #71A0F1",
"%. c #73A2F2",
"&. c #76A6F4",
"*. c #7BA9F5",
"=. c #7BAAF5",
"-. c #7DA9F4",
";. c #8198BE",
":. c #85A1D1",
">. c #87A3D3",
",. c #88A4D3",
"<. c #8EAFE8",
"1. c #9CB6E2",
"2. c #9DB6E2",
"3. c #9CB6E3",
"4. c #9EB7E2",
"5. c #9EB7E3",
"6. c #9FB8E3",
"7. c #9FBBED",
"8. c #87AFF3",
"9. c #82AEF5",
"0. c #86AFF5",
"q. c #88AFF3",
"w. c #84B0F5",
"e. c #86B1F5",
"r. c #8EB3F2",
"t. c #88B2F6",
"y. c #90B7F6",
"u. c #92B7F7",
"i. c #95B8F2",
"p. c #98BCF7",
"a. c #99BDF7",
"s. c #9ABDF9",
"d. c #A0B8E3",
"f. c #A0B9E3",
"g. c #A1B9E4",
"h. c #A1BAE4",
"j. c #A2BAE4",
"k. c #A3BBE4",
"l. c #A7BEE6",
"z. c #A8BFE7",
"x. c #A9BFE7",
"c. c #A9C0EA",
"v. c #A9C1EB",
"b. c #AAC3EE",
"n. c #BFCCE1",
"m. c #BBCBE6",
"M. c #BCCBE6",
"N. c #ABC5F0",
"B. c #AAC5F5",
"V. c #ACC7F4",
"C. c #ADC8F6",
"Z. c #AEC9F7",
"A. c #A1C2FA",
"S. c #A2C3FA",
"D. c #A8C6FB",
"F. c #ABC9F8",
"G. c #ADCAF8",
"H. c #AFCAF9",
"J. c #ABC9FC",
"K. c #ACC9FC",
"L. c #AFCBFC",
"P. c #B2CBF7",
"I. c #B5CEF7",
"U. c #B0CCF9",
"Y. c #B5CFF9",
"T. c #B0CCFC",
"R. c #B1CCFC",
"E. c #B1CDFC",
"W. c #B0CCFD",
"Q. c #B1CCFD",
"!. c #B0CDFD",
"~. c #B1CDFD",
"^. c #B0CEFD",
"/. c #B1CEFD",
"(. c #B2CEFD",
"). c #B1CDFE",
"_. c #B1CEFE",
"`. c #B6D0F9",
"'. c #B7D0F9",
"]. c #B8D1F9",
"[. c #BAD2F9",
"{. c #BBD2F9",
"}. c #BDD3F8",
"|. c #BDD4FA",
" X c #BFD6FA",
".X c #C5D0E1",
"XX c #CBD7EC",
"oX c #C8D6EF",
"OX c #C6D5F0",
"+X c #C8D7F0",
"@X c #C1D7FC",
"#X c #C5D9FA",
"$X c #C5DAFA",
"%X c #C6DAFA",
"&X c #C7DBFA",
"*X c #C6DAFD",
"=X c #C9DCFA",
"-X c #CADCFB",
";X c #CBDDFD",
":X c #DBE4F5",
">X c #DCE5F5",
",X c #D5E2FA",
"<X c #D9E5FA",
"1X c #DEE9FB",
"2X c #E4EBF7",
"3X c #EBEFF5",
"4X c #E0EBFE",
"5X c #E3EDFE",
"6X c #E6EEFC",
"7X c #EAF1FC",
"8X c #EDF2FC",
"9X c #EFF5FE",
"0X c #F0F2F7",
"qX c #F2F4F8",
"wX c #F3F6FA",
"eX c #F0F5FE",
"rX c #F2F6FE",
"tX c #F7F9FC",
"yX c #F4F8FE",
"uX c #F6F9FE",
"iX c #F7FAFE",
"pX c #F6FAFF",
"aX c #F8F9FD",
"sX c #F8FBFE",
"dX c #F9FBFE",
"fX c #FAFBFE",
"gX c #FAFCFE",
"hX c #FBFDFE",
"jX c #FCFDFE",
"kX c #FDFDFE",
"lX c #FEFEFE",
"zX c #FEFEFF",
"xX c white",
/* pixels */
"                                                                                                ",
"                                                                                                ",
"                                          0 4 4 0 4 4                                           ",
"                                  4 0 0 0 0 w 0 0 0 4 w 0 0 0                                   ",
"                              4 0 0 0 0 0 0 0 0 0 0 0 0 0 0 0 0 0                               ",
"                          4 w 0 0 0 0 0 0 0 0 0 0 0 0 0 0 0 0 0 0 0 0                           ",
"                      0 w 0 0 0 0 0 0 0 0 0 0 0 0 0 0 0 0 0 0 0 0 0 0 0 0                       ",
"                    0 0 0 0 0 0 0 0 0 0 0 0 0 0 0 0 0 0 0 0 0 0 0 0 0 0 0 0                     ",
"                  0 0 0 0 0 0 0 0 0 0 0 0 0 0 0 0 0 0 0 0 0 0 0 0 0 0 0 0 0 0                   ",
"                0 0 0 0 0 0 0 0 0 0 0 0 0 0 0 0 0 0 0 0 0 0 0 0 0 0 0 0 0 0 0 0                 ",
"              4 0 0 0 0 0 0 0 0 0 0 0 0 0 0 0 0 0 0 0 0 0 0 0 0 0 0 0 0 0 0 0 0 8               ",
"            4 0 0 0 0 0 0 0 0 0 0 0 0 0 0 0 0 w 0 0 0 0 0 0 0 0 0 0 0 0 0 0 0 0 8 r             ",
"            < 4 0 0 0 0 0 0 0 0 0 0 0 0 4 4 w w w w w 4 0 0 0 0 0 0 0 0 0 0 0 w w 0             ",
"          Y d & 4 0 0 0 0 0 0 0 0 0 0 0 e e w i i w w e w w w w 0 0 0 0 0 0 0 w w 0 0           ",
"          Q J = + , 4 w 0 0 0 0 0 w 0 a ,.oXqXxXxXtX2XoXz.j.j.j.j.j.j.5.5.5.2.2.2.2.a.          ",
"        Y Q Q m . . - 4 0 0 0 0 0 w >.qXxXxXxXxXxXxXxXxXaX+Xz.z.z.z.z.z.x.x.x.x.V.R.~.(.        ",
"        Q Q Q Q : . . $ < 0 0 0 t M.xXxXtX`.9.O.+.e.|.aXxXxX>Xz.l.c.l.c.c.c.Z.U.~.~.~.~.        ",
"      L Q Q Q Q N . . . X ; 0 w M.xXxX].' c c c c c c [ %XxXxX:Xc.l.c.c.Z.U.~.~.~.~.~.~.`.      ",
"      Q Q Q Q Q W y o . . . & :.xXxXp.c c c c c c c c c c J.xXxXOXV.G.~.~.~.~.~.~.~.~.~.L.      ",
"      Q Q Q Q Q Q V + . . . * qXxXY.c c c c c c c c c c c z =XxXtX~.~.~.~.~.~.~.~.~.~.~.`.      ",
"      Q Q Q Q Q Q Q d . o . ;.xXrX_ c c c c c c c c c c c c } hXxX-X~.~.~.~.~.~.~.~.~.~.~.      ",
"    W Q Q Q Q Q Q Q J % o o .XxXU.c c c c c c c c c c c c c c $XxX5X~.~.~.~.~.~.~.~.~.~.L.`.    ",
"    Q Q Q Q Q Q Q Q Q n o o 0XxX*.c c c c c c c c c c c c c c y.xXrX~.~.~.~.~.~.~.~.~.~.L.L.    ",
"    Q Q Q Q Q Q Q Q Q L > o xXxXX.c c c c c c c c c c c c c c &.xXhX~.~.~.~.~.~.~.~.~.~.`.L.    ",
"    Y Q Q Q Q Q Q Q Q Q M @ xXxX) c c c c c c c c c c c c c c &.xXtX~.~.~.~.~.~.~.~.~.~.~.~.    ",
"    Y Q Q Q Q Q Q Q Q Q Q y 3XxX=.c c c c c c c c c c c c c c y.xXrX~.~.~.~.~.~.~.~.~.~.~.~.    ",
"    Y Q Q Q Q Q Q Q Q Q Q V n.xX_.b c c c c c c c c c c c c c $XxX4X~.~.~.~.~.~.~.~.~.~.~.L.    ",
"      Q Q Q Q Q Q Q Q Q Q Q <.xXpX_ c c c c c c c c c c c c } hXxX*X~.~.~.~.~.~.~.~.~.~.~.      ",
"      Q Q Q Q Q Q Q Q Q Q Q ( 8XxX`.c c c c c c c c c c c b -XxX9X~.~.~.~.~.~.~.~.~.~.~.~.      ",
"      Y Q Q Q Q Q Q Q Q Q Q Q r.xXhXs.c c c c c c c c c b G.xXxX@X~.~.~.~.~.~.~.~.~.~.~.~.      ",
"      Y Q Q Q Q Q Q Q Q Q Q Q Q I.xXxX].] b c c c c z } %XxXxX].~.~.~.~.~.~.~.~.~.~.~.~.~.      ",
"        Q Q Q Q Q Q Q Q Q Q Q Q Q P.xXxXtX].w.+.+.t.|.hXxXhXi.A.~.~.~.~.~.~.~.~.~.~.~.~.        ",
"        Q Q Q Q Q Q Q Q Q Q Q Q Q Q e.7XxXxXxXxXxXxXxXxX<X .%.~.~.~.~.~.~.~.~.~.~.~.~.~.        ",
"          Q Q Q Q Q Q Q Q Q Q Q Q Q Q Q 8.}.1XrX7X,XB...f B J.~.~.~.~.~.~.~.~.~.~.~.~.          ",
"          Q Q Q Q Q Q Q Q Q Q Q Q Q Q Q Q Q Q F f f f f f 0.~.~.~.~.~.~.~.~.~.~.~.~.Q.          ",
"            Q Q Q Q Q Q Q Q Q Q Q Q Q Q Q Q Q F f f f f L U.~.~.~.~.~.~.~.~.~.~.~.~.            ",
"            ^ Q Q Q Q Q Q Q Q Q Q Q Q Q Q Q Q D f f f h s.~.~.~.~.~.~.~.~.~.~.~.~.~.            ",
"              Q Q Q Q Q Q Q Q Q Q Q Q Q Q Q Q A f f f o.~.~.~.~.~.~.~.~.~.~.~.~.~.              ",
"                Q Q Q Q Q Q Q Q Q Q Q Q Q Q Q Z f f l D.~.~.~.~.~.~.~.~.~.~.~.~.                ",
"                  Q Q Q Q Q Q Q Q Q Q Q Q Q Q x f f -.~.~.~.~.~.~.~.~.~.~.~.~.                  ",
"                    Q Q Q Q Q Q Q Q Q Q Q Q Q z f S L.~.~.~.~.~.~.~.~.~.~.~.                    ",
"                      Q Q Q Q Q Q Q Q Q Q Q ^ k f u.~.~.~.~.~.~.~.~.~.~.~.                      ",
"                          Q Q Q Q Q Q Q Q Q Q j ) ~.~.~.~.~.~.~.~.~.~.                          ",
"                              Q Q Q Q Q Q Q Y k A.~.~.~.~.~.~.~.~.                              ",
"                                  Y ^ Q Q Y Y %.~.~.~.~.~.~.~.                                  ",
"                                          Y Y J.~.~.                                            ",
"                                                                                                ",
"                                                                                                "
};
