/* XPM */
static char *audacious[] = {
/* columns rows colors chars-per-pixel */
"48 48 77 1 ",
"  c None",
". c #558CDA",
"X c #578EDA",
"o c #588EDA",
"O c #598EDA",
"+ c #598FDB",
"@ c #5A8FDB",
"# c #5A90DB",
"$ c #5B90DB",
"% c #5B91DB",
"& c #5C91DB",
"* c #5D91DB",
"= c #6295DD",
"- c #6798DE",
"; c #6A9ADE",
": c #6B9BDE",
"> c #74A1E1",
", c #75A1E1",
"< c #78A4E1",
"1 c #7DA7E3",
"2 c #7EA7E3",
"3 c #83ABE4",
"4 c #8DB2E6",
"5 c #90B4E7",
"6 c #91B4E7",
"7 c #91B5E7",
"8 c #98BAE8",
"9 c #99BAE8",
"0 c #9ABAE9",
"q c #9FBEEA",
"w c #A9C4EA",
"e c #ABC5EB",
"r c #ACC6EB",
"t c #A8C4EC",
"y c #A9C5EC",
"u c #AAC6EC",
"i c #ABC6EC",
"p c #ACC7ED",
"a c #ADC7ED",
"s c #B4CDEE",
"d c #B5CDEF",
"f c #C3D7F2",
"g c #C6D8F3",
"h c #C6D9F3",
"j c #C7D9F3",
"k c #CADBF3",
"l c #CDDEF4",
"z c #CEDEF4",
"x c #D3E0F3",
"c c #DEE8F7",
"v c #E8F0FA",
"b c #E9F0FA",
"n c #EEF4FC",
"m c #EFF4FC",
"M c #F1F6FC",
"N c #F2F6FC",
"B c #F7FAFD",
"V c gray98",
"C c #FBFBFA",
"Z c #FCFCFB",
"A c #FDFCFB",
"S c #F8FAFD",
"D c #FBFBFC",
"F c #FAFBFD",
"G c #F8FBFE",
"H c #F9FBFE",
"J c #FAFCFE",
"K c #FDFDFC",
"L c #FCFCFD",
"P c #FEFDFD",
"I c #FFFEFD",
"U c #FCFDFE",
"Y c #FDFEFE",
"T c #FDFEFF",
"R c #FEFEFF",
"E c #FEFFFF",
"W c white",
/* pixels */
"                                                ",
"                     $$$$$$                     ",
"                 $$$$$$$$$$$$$$                 ",
"              $$$$$$$$$$$$$$$$$$$               ",
"            $$$$$$$$$$$$$$$$$$$$$$$             ",
"           $$$$$$$$$$$$$$$$$$$$$$$$$$           ",
"         $$$$$$$$$$$$$$$$$$$$$$$$$$$$$          ",
"        $$$$$$$$$$$$$$$$$$$$$$$$$$$$$$$         ",
"       $$$$$$$$$$$$$$$$$$$$$$$$$$$$$$$$$        ",
"      $$$$$$$$$$$$$$$$$$$$$$$$$$$$$$$$$$$       ",
"      $$$$$$$$$$$$$$$$$$$$$$$$$$$$$$$$$$$$      ",
"     $$$$$$$$$$$$$$$$$$$$$$$$$$$$$$$$$$$$$$     ",
"    $$$$$$$$$$$$$oooooooXXoooooooo$$$$$$$$$     ",
"    $$$$$$$$$$$$o:9ipppiippppppi9:$$$$$$$$$$    ",
"   $$$$$$$$$$$$o:kFWWWWWWWWWWWWWFk:o$$$$$$$$    ",
"   $$$$$$$$$$$$o9JWWWWWWJWWWWWWWWJ9o$$$$$$$$$   ",
"  $$$$$$$$$$$$$oeWFWWWWWWWJJJWWWFWeo$$$$$$$$$   ",
"  $$$$$$$$$$$$$oeAVFWWWWWWJJJWWFVAeo$$$$$$$$$$  ",
"  $$$$$$$$$$$$$oeAVWWWWWWWWWWWWWVAeo$$$$$$$$$$  ",
"  $$$$$$$$$$$$$oeAVxipppiiiippixVAeo$$$$$$$$$$  ",
" $$$$$$$$$$$$$$oeAAeXooooooooXXeAAeo$$$$$$$$$$  ",
" $$$$$$$$$$$$$$oeAAeo$$$$$$$$ooeAAeo$$$$$$$$$$  ",
" $$$$$$$$$$$$$$oeAAeo$$$$$$$$$oeAAeo$$$$$$$$$$  ",
" $$$$$$$$$$$$$$oeAAeo$$$$$$$$$oeAAeo$$$$$$$$$$  ",
" $$$$$$$$$$$$$$oeAAeo$$$$$$$$$oeAAeo$$$$$$$$$$  ",
" $$$$$$$$$$$$$$XeAAeo$$$$$$$$$XeAAeo$$$$$$$$$$  ",
" $$$$$$$$$$$$o$*rAAeo$$$$$$$o$*rAAeo$$$$$$$$$$  ",
" $$$$$$$$$$$*3dfcAAeo$$$$$$*3dfcAAeo$$$$$$$$$$  ",
"  $$$$$$$$$*9mWWWWWeo$$$$$*9mWWWWWeo$$$$$$$$$$  ",
"  $$$$$$$$o<bWWWWWWro$$$$o<bWWWWWWro$$$$$$$$$$  ",
"  $$$$$$$$oqWWWWWWWpo$$$$oqWWWWWWWpo$$$$$$$$$$  ",
"  $$$$$$$$oiWWWWWWWio$$$$oiWWWWWWWio$$$$$$$$$   ",
"   $$$$$$$o6FWWWWWF6o$$$$o6FWWWWWF6o$$$$$$$$$   ",
"   $$$$$$$o-zWWWWWz-o$$$$o-zWWWWWz-o$$$$$$$$    ",
"    $$$$$$$o,hMBMh,o$$$$$$o,hMFMh,o$$$$$$$$$    ",
"    $$$$$$$$o=141=o$$$$$$$$o=141=o$$$$$$$$$     ",
"     $$$$$$$$$ooo$$$$$$$$$$$$ooo$$$$$$$$$$$     ",
"      $$$$$$$$$$$$$$$$$$$$$$$$$$$$$$$$$$$$      ",
"      $$$$$$$$$$$$$$$$$$$$$$$$$$$$$$$$$$$       ",
"       $$$$$$$$$$$$$$$$$$$$$$$$$$$$$$$$$        ",
"        $$$$$$$$$$$$$$$$$$$$$$$$$$$$$$$         ",
"         $$$$$$$$$$$$$$$$$$$$$$$$$$$$$          ",
"           $$$$$$$$$$$$$$$$$$$$$$$$$$           ",
"            $$$$$$$$$$$$$$$$$$$$$$$             ",
"              $$$$$$$$$$$$$$$$$$$               ",
"                 $$$$$$$$$$$$$$                 ",
"                     $$$$$$                     ",
"                                                "
};
