/* XPM */
static char *emacs[] = {
/* columns rows colors chars-per-pixel */
"48 48 194 2 ",
"   c None",
".  c #7C6291",
"X  c #7D6391",
"o  c #7D6492",
"O  c #7E6492",
"+  c #7E6592",
"@  c #7E6593",
"#  c #7F6593",
"$  c #7F6693",
"%  c #7F6694",
"&  c #806694",
"*  c #806794",
"=  c #816794",
"-  c #806795",
";  c #816894",
":  c #816895",
">  c #816995",
",  c #826995",
"<  c #826996",
"1  c #826A96",
"2  c #836A96",
"3  c #836B97",
"4  c #846C97",
"5  c #856D98",
"6  c #866E99",
"7  c #866F99",
"8  c #876F9A",
"9  c #87709A",
"0  c #88709A",
"q  c #88709B",
"w  c #88719B",
"e  c #89719B",
"r  c #89729B",
"t  c #89729C",
"y  c #8A739C",
"u  c #8A739D",
"i  c #8B749D",
"p  c #8C759E",
"a  c #8C769E",
"s  c #8D769F",
"d  c #8D779F",
"f  c #8E779F",
"g  c #8E78A0",
"h  c #8F79A1",
"j  c #907AA1",
"k  c #907AA2",
"l  c #917BA2",
"z  c #927CA3",
"x  c #937EA4",
"c  c #947FA5",
"v  c #957FA5",
"b  c #9580A6",
"n  c #9581A6",
"m  c #9681A6",
"M  c #9682A7",
"N  c #9783A8",
"B  c #9883A8",
"V  c #9985A9",
"C  c #9A86AA",
"Z  c #9B87AB",
"A  c #9C89AC",
"S  c #9D8AAD",
"D  c #9E8AAD",
"F  c #9F8DAF",
"G  c #A08EAF",
"H  c #A18EAF",
"J  c #A18EB0",
"K  c #A18FB0",
"L  c #A390B1",
"P  c #A391B1",
"I  c #A492B3",
"U  c #A695B4",
"Y  c #A795B4",
"T  c #A795B5",
"R  c #A796B5",
"E  c #A896B5",
"W  c #A897B5",
"Q  c #A897B6",
"!  c #AA9AB8",
"~  c #AB9BB8",
"^  c #AB9BB9",
"/  c #AC9BB9",
"(  c #AC9CB9",
")  c #AF9FBC",
"_  c #AFA0BC",
"`  c #B0A0BC",
"'  c #B0A1BD",
"]  c #B1A1BD",
"[  c #B2A3BE",
"{  c #B3A5BF",
"}  c #B4A5BF",
"|  c #B4A5C0",
" . c #B5A7C1",
".. c #B6A8C1",
"X. c #B6A8C2",
"o. c #B8AAC3",
"O. c #B9ABC4",
"+. c #BBADC5",
"@. c #BBAEC6",
"#. c #BEB1C8",
"$. c #BFB3C9",
"%. c #C0B3CA",
"&. c #C0B4CA",
"*. c #C1B4CB",
"=. c #C3B7CD",
"-. c #C3B8CD",
";. c #C4B9CE",
":. c #C6BACF",
">. c #C6BBCF",
",. c #C7BCD0",
"<. c #C8BDD1",
"1. c #C8BED1",
"2. c #C9BED1",
"3. c #C9BFD2",
"4. c #CAC0D2",
"5. c #CBC1D3",
"6. c #CCC1D4",
"7. c #CCC3D4",
"8. c #CDC3D5",
"9. c #CEC4D5",
"0. c #CEC4D6",
"q. c #CEC5D6",
"w. c #CFC6D7",
"e. c #D0C6D7",
"r. c #D0C7D7",
"t. c #D0C7D8",
"y. c #D2C9D9",
"u. c #D4CBDB",
"i. c #D4CCDB",
"p. c #D7CFDD",
"a. c #D7D0DE",
"s. c #DAD3E0",
"d. c #DBD4E1",
"f. c #DCD5E2",
"g. c #DDD6E2",
"h. c #DED7E3",
"j. c #DED8E4",
"k. c #DFD8E4",
"l. c #DFD9E4",
"z. c #E0D9E4",
"x. c #E0DAE5",
"c. c #E1DBE5",
"v. c #E2DCE6",
"b. c #E2DDE7",
"n. c #E4DEE8",
"m. c #E4DFE8",
"M. c #E4DFE9",
"N. c #E5E0E9",
"B. c #E6E1EA",
"V. c #E6E2EA",
"C. c #E7E2EB",
"Z. c #E7E3EB",
"A. c #E8E3EC",
"S. c #E8E4EC",
"D. c #E9E4EC",
"F. c #E9E5EC",
"G. c #E9E5ED",
"H. c #EAE6ED",
"J. c #EBE7EE",
"K. c #ECE8EF",
"L. c #ECE9EF",
"P. c #EDE9F0",
"I. c #EEEBF1",
"U. c #EFEBF1",
"Y. c #F0EDF2",
"T. c #F0EDF3",
"R. c #F1EFF3",
"E. c #F1EFF4",
"W. c #F2EFF4",
"Q. c #F2F0F4",
"!. c #F3F0F4",
"~. c #F3F0F5",
"^. c #F3F1F5",
"/. c #F4F1F5",
"(. c #F4F2F5",
"). c #F4F2F6",
"_. c #F5F3F7",
"`. c #F6F4F7",
"'. c #F6F5F8",
"]. c #F7F5F8",
"[. c #F7F6F9",
"{. c #F8F7F9",
"}. c #F9F7FA",
"|. c #F9F8FA",
" X c #FAF8FA",
".X c #FAF9FB",
"XX c #FBFAFC",
"oX c #FCFBFC",
"OX c #FCFCFD",
"+X c #FDFCFD",
"@X c #FEFDFE",
"#X c #FEFEFE",
"$X c #FFFEFF",
"%X c white",
/* pixels */
"                                                                                                ",
"                                          * * * * * *                                           ",
"                                * * * * * * * * * * * * * * *                                   ",
"                            * * * * * * * * * * * * * * * * * * * *                             ",
"                        * * * * * * * * * * * * * * * * * * * * * * * *                         ",
"                      * * * * * * * * * * * * * * * * * * * * * * * * * *                       ",
"                  * * * * * * * * * * * * * * * * * * * * * * * * * * * * *                     ",
"                * * * * * * * * * * * * * * * * * * * * * * * * * * * * * * *                   ",
"              * * * * * * * * * * * * * * * * * * * % # # # # # # % * * * * * *                 ",
"            * * * * * * * * * * * * * * * * * * * 5 u u i a a a a 5 # % * * * * *               ",
"          * * * * * * * * * * * * * * * * * * * : k / ,.d.G.Y.E.P.h. .r # * * * * *             ",
"          * * * * * * * * * * * * % # : : * # # # # : u B ` 4.G.%X%X%X8.r % * * * * *           ",
"        * * * * * * * * * * * * % u  .q.q.>.+.( S k i 9 4 * : c x.%X%XoX) # * * * * *           ",
"        * * * * * * * * * * * * : &.%X%X%X%X%XXX'.E.G.x.p.q.<.q.E.%X%X%X4.: * * * * * *         ",
"      * * * * * * * * * * * * * : 8.%X%X%X%X%X%X%X%X%X%X%X%X%X%X%X%X%X%X<.: * * * * * *         ",
"      * * * * * * * * * * * * * # E {.%X%X%X%X~.n.l.x.N.P./.{.%X%X%X%XE.P # * * * * * * *       ",
"    * * * * * * * * * * * * * * * 5 e.%X%X%XN.S r r r u a b P } >.q.,.J : * * * * * * * *       ",
"    * * * * * * * * * * * * * * * # x b.%X%XN.g # # # # # # # # % : * # * * * * * * * * * *     ",
"    * * * * * * * * * * * * * * * * # V n.%X%Xi.k # * * * * * * * * * * * * * * * * * * * *     ",
"    * * * * * * * * * * * * * * * * * # B h.%X%Xx.S % * * * * * * * * * * * * * * * * * * *     ",
"  * * * * * * * * * * * * * * * * % # # # g 8.XX%XP._ : # * * * * * * * * * * * * * * * * *     ",
"  * * * * * * * * * * * * * # # : 5 u a a u a o.G.%X{.-.u # * * * * * * * * * * * * * * * *     ",
"  * * * * * * * * * * * # : x ` <.s.N.K.K.A.h.e.i.E.%X%Xa.b # * * * * * * * * * * * * * * *     ",
"  * * * * * * * * * * * N <.P.%X%X%X%X%X%X%X%X%X%X%X%X%X%XG.E : * * * * * * * * * * * * * *     ",
"  * * * * * * * * * # H G.%X%X%X%X%X%X%X%X%X%X%X X'.`./.~.~.N.! : * * * * * * * * * * * * *     ",
"  * * * * * * * * % r h.%X%X%X%X%X%X%X%XY.p.$.` R H V b z g g u : * * * * * * * * * * * * *     ",
"  * * * * * * * * # k ~.%X%X%X%X%X%XE.%.b 5 # # # # # # # # # # * * * * * * * * * * * * * *     ",
"  * * * * * * * * # u N.%X%X%X%X%X/.E * # * * * * * * * * * * * * * * * * * * * * * * * * *     ",
"    * * * * * * * * * X.oX%X%X%X%Xl.5 # * * * * * * * * * * * * * * * * * * * * * * * * * *     ",
"    * * * * * * * * % 5 <.%X%X%X%X/.` : # * * * * * * * * * * * * * * * * * * * * * * * * *     ",
"    * * * * * * * * * # 5 &.'.%X%X%X'.>.b : # # * * * * * * * * * * * * * * * * * * * * * *     ",
"    * * * * * * * * * * # : R b.%X%X%X%XP.4.R a : # # # * * * * * * * * * * * * * * * * *       ",
"      * * * * * * * * * * * # a +.K.%X%X%X%X XG.q. .S i : # # # * * * * * * * * * * * * *       ",
"      * * * * * * * * * * * * # * c &.N. X%X%X%X%X%X`.N.t.O.J i * # * * * * * * * * * *         ",
"        * * * * * * * * * * * * * # * a R &.u.n.Y.{.%X%X%X%X'.N.=.V : * * * * * * * * *         ",
"        * * * * * * * * * * * * # # # # . . : 9 k P o.y.'.%X%X%X%XY.! # * * * * * * *           ",
"          * * * * * * * * * * r V I ! ` { X.O.+.%.>.8.h. X%X%X%X%X'. .* * * * * * * *           ",
"          * * * * * * * * * * : a J ` %.8.p.x.A.P.E.~.Y.K.N.l.y.$.F 4 * * * * * * *             ",
"            * * * * * * * * * * # # # # : 5 r i a a g a a u r : # # * * * * * * *               ",
"              * * * * * * * * * * * * * * * # # # # # # # # % * * * * * * * * *                 ",
"                * * * * * * * * * * * * * * * * * * * * * * * * * * * * * * *                   ",
"                  * * * * * * * * * * * * * * * * * * * * * * * * * * * * *                     ",
"                      * * * * * * * * * * * * * * * * * * * * * * * * * *                       ",
"                        * * * * * * * * * * * * * * * * * * * * * * * *                         ",
"                            * * * * * * * * * * * * * * * * * * * *                             ",
"                                * * * * * * * * * * * * * * *                                   ",
"                                          * * * * * *                                           ",
"                                                                                                "
};
