/* XPM */
static char *gimp[] = {
/* columns rows colors chars-per-pixel */
"48 48 212 2 ",
"   c None",
".  c #239277",
"X  c #249277",
"o  c #249278",
"O  c #259278",
"+  c #259378",
"@  c #269378",
"#  c #269379",
"$  c #279379",
"%  c #279479",
"&  c #27947A",
"*  c #28947A",
"=  c #29947A",
"-  c #29947B",
";  c #29957B",
":  c #2A957B",
">  c #2B957C",
",  c #2B967C",
"<  c #2C967C",
"1  c #2D967D",
"2  c #2D977D",
"3  c #2E977D",
"4  c #2E977E",
"5  c #2F977E",
"6  c #30987F",
"7  c #319880",
"8  c #319980",
"9  c #329980",
"0  c #339981",
"q  c #349A81",
"w  c #359A82",
"e  c #369B83",
"r  c #389B83",
"t  c #389C83",
"y  c #389C84",
"u  c #399C84",
"i  c #3A9D85",
"p  c #3C9E86",
"a  c #3D9E87",
"s  c #3E9F87",
"d  c #40A088",
"f  c #40A089",
"g  c #42A18A",
"h  c #43A28B",
"j  c #44A18B",
"k  c #45A28B",
"l  c #46A28C",
"z  c #46A38C",
"x  c #47A38D",
"c  c #49A48E",
"v  c #4AA48E",
"b  c #4BA58F",
"n  c #4CA590",
"m  c #4CA691",
"M  c #4EA691",
"N  c #4FA791",
"B  c #51A893",
"V  c #53A994",
"C  c #54A994",
"Z  c #55AA95",
"A  c #58AB96",
"S  c #58AB97",
"D  c #5AAD99",
"F  c #5BAD99",
"G  c #5BAD9A",
"H  c #5CAD99",
"J  c #5DAE9A",
"K  c #5EAE9A",
"L  c #5EAE9B",
"P  c #60AF9C",
"I  c #61B09D",
"U  c #62B09D",
"Y  c #63B19E",
"T  c #66B29F",
"R  c #66B2A0",
"E  c #67B2A0",
"W  c #66B3A0",
"Q  c #69B3A1",
"!  c #69B4A2",
"~  c #6AB4A2",
"^  c #6CB5A3",
"/  c #6EB6A4",
"(  c #6FB6A5",
")  c #70B7A6",
"_  c #73B8A7",
"`  c #74B9A8",
"'  c #75B9A8",
"]  c #75BAA9",
"[  c #78BBAA",
"{  c #78BBAB",
"}  c #7CBDAD",
"|  c #7EBEAE",
" . c #7FBFB0",
".. c #81BFB0",
"X. c #82C0B1",
"o. c #83C0B1",
"O. c #84C0B1",
"+. c #84C1B2",
"@. c #86C2B3",
"#. c #8AC3B5",
"$. c #89C4B6",
"%. c #8BC4B6",
"&. c #8CC4B6",
"*. c #8CC5B7",
"=. c #8EC5B7",
"-. c #90C6B9",
";. c #92C7BA",
":. c #93C8BB",
">. c #94C8BB",
",. c #95C9BC",
"<. c #96C9BD",
"1. c #97C9BD",
"2. c #97CABD",
"3. c #99CABE",
"4. c #9BCCBF",
"5. c #9BCCC0",
"6. c #9ACDC0",
"7. c #9BCEC1",
"8. c #9DCCC0",
"9. c #9ECDC1",
"0. c #A0CEC3",
"q. c #A1CEC3",
"w. c #A2CFC4",
"e. c #A3D0C5",
"r. c #A5D0C5",
"t. c #A5D1C6",
"y. c #A6D1C7",
"u. c #A4D2C7",
"i. c #A7D2C7",
"p. c #A9D2C8",
"a. c #ABD3C9",
"s. c #ABD4C9",
"d. c #ACD4CA",
"f. c #ADD4CA",
"g. c #AED5CB",
"h. c #AFD5CC",
"j. c #AED7CD",
"k. c #B1D6CD",
"l. c #B4D8CF",
"z. c #B7D9D0",
"x. c #B9DAD1",
"c. c #B9DAD2",
"v. c #B9DCD3",
"b. c #BBDCD3",
"n. c #BADDD4",
"m. c #BDDCD4",
"M. c #BEDCD5",
"N. c #C1DED6",
"B. c #C1DED7",
"V. c #C2DED7",
"C. c #C3DFD7",
"Z. c #C4DFD8",
"A. c #C2E1D9",
"S. c #C3E1D9",
"D. c #C7E1DA",
"F. c #C5E2DB",
"G. c #C5E3DB",
"H. c #C8E1DB",
"J. c #CAE2DC",
"K. c #CAE4DE",
"L. c #CEE4DE",
"P. c #CFE5DF",
"I. c #D1E6E0",
"U. c #D2E6E0",
"Y. c #D2E6E1",
"T. c #D4E7E2",
"R. c #D4E8E3",
"E. c #D9E9E5",
"W. c #DBEBE6",
"Q. c #DCEBE7",
"!. c #DEECE8",
"~. c #DFEDE9",
"^. c #E0EDE9",
"/. c #E2EEEA",
"(. c #E2EFEB",
"). c #E6F0ED",
"_. c #E7F0ED",
"`. c #E7F0EE",
"'. c #E7F1EE",
"]. c #E8F1EE",
"[. c #E9F1EF",
"{. c #EBF2F0",
"}. c #EBF3F0",
"|. c #ECF3F0",
" X c #EDF3F1",
".X c #EEF4F2",
"XX c #F1F5F3",
"oX c #F1F5F4",
"OX c #F1F6F4",
"+X c #F2F6F4",
"@X c #F4F6F5",
"#X c #F4F7F6",
"$X c #F5F7F6",
"%X c #F6F8F7",
"&X c #F7F8F7",
"*X c #F8F9F8",
"=X c #F9F9F8",
"-X c #F9F9F9",
";X c #FBFAF9",
":X c #FBFAFA",
">X c #FCFAFA",
",X c #FCFBFA",
"<X c #FDFBFB",
"1X c #FEFCFB",
"2X c #FEFCFC",
"3X c #FFFCFC",
"4X c #FFFCFD",
"5X c #FFFDFD",
"6X c #FFFDFE",
"7X c #FFFEFE",
"8X c #FFFEFF",
"9X c white",
/* pixels */
"                                                                                                ",
"                                              * *                                               ",
"                                  * * * * * * * * * * * * * *                                   ",
"                              * * * * * * * * * * * * * * * * * *                               ",
"                          * * * * * * * * * * * * * * * * * * * * * *                           ",
"                      * * * * * * * * * * * * * * * * * * * * * * * * * *                       ",
"                    * * * * * * * * * * * * * * * * * * * * * * * * * * * *                     ",
"                  * * * * * * * * * * * * * * * * * * * * * * * * * * * * * *                   ",
"                * * * * * * * * * * * * * * * * * * * * * * * * * * * * * * * *                 ",
"              * * * * * * * * * * * * * * * * * * * > * * * * * * # K Y # * * * *               ",
"            * * * * * * * * * * * * * * * * * * * 1 W u % * * * # u V.m.9 % * * * *             ",
"          * * * * * * * * * * * * * * * * * * * # m j.G # * * # a s.1X].v # * * * * *           ",
"        * * * * * * * * * * * * * * * * * * * % 1 $.G. .* # * A V.>X5X#XW # * * % * *           ",
"        * * * * * * * * * * * * * * * * * * * # G v.G.5.9 k ,.).5X5X5X%X) X h 3.V # * *         ",
"      * * * * * * * * * * * * * * * * * * * # h u.A.A.n.5.W.1X5X5X5X5X#XT . l ].9.% * * *       ",
"      * * * * * * * * * * * * * * * * * % # a 5.K.R.(.OX5X5X5X5X5X5X5X).v # 1 u.{ # * * *       ",
"      * * * * * * * * * * * * * * * * # w ~ v.}.*X>X5X5X5X5X5X5X5X5X5Xc.6 1 6 k u % * * *       ",
"    * * * * * * * * * * * * * * * % > Y V.#X5X5X5X5X5X5X5X5X5X5X5X5X#X( X C .._ d.u % * * *     ",
"    * * * * * * * * * * * * * * # 6 $. X5X5X5X5X5X5X5X5X5X5X5X5X5X5Xl.9 # a G a.*XY # * * *     ",
"    * * * * * * * * * * * * * % 1 ,.*X5X5X5X5X5X5X5X5X5X5X5X5X5X5XQ.m # * # 1 c.(.V # * * *     ",
"    * * * * * * * * * * * * * * X.%X5X5X5X5X5X5X5X5X5X5X5X5X5X5X.X( # # * r k ^ B * * * * *     ",
"  * * * * * * * * * * * * * # A ).5X5X5X5X5X5X5X5X5X5X5X3X3X5X*X4.h C ' 9.P.;.# # * * * * * *   ",
"  * * * * * * * * * * * * % 1 j.5X X,.0.%X5X5X5X5X5X5X5X5X5X5X>X(.(..X*X5X5X} # * * * * * * *   ",
"  * * * * * * * * * * * * # v ).>X@.# t P.5X5X5X5X5X5X5X5X5X5X5X5X5X5X5X5X).m # * * * * * * *   ",
"  * * * * * * * * * * * * # ' *X!.a # > a.5X5X5X5X5X5X5X5X5X5X5X5X5X5X5X5Xd.1 % * * * * * * *   ",
"  * * * * * * * * * * * * * e.5XT.~ w # :.5X5X5X5X5X5X5X5X5X5X5X5X5X5X5X XG # * * * * * * * *   ",
"  * * * * * * * * * * * # k W.5X*X#X&.. ;.5X5X5X5X>X5X5X5X5X>X3X5X5X5X5Xw.1 * * * * * * * * *   ",
"  * * * * * * * * * * # > ,.>X5X5X5Xz.K Y.5X5X5X5X1X5X5X5X5X5X5X5X5X5XW.v # * * * * * * * *     ",
"    * * * * * * * * # 1 @.OX5X5X5X5X}.}.5X5X5X5X5X5X5X5X5X5X5X5X5X5X%X} % * * * * * * * * *     ",
"    * * * * * * # % l u.#X5X5X5X5X5X5X5X5X5X5X5X3X5X5X5X5X5X5X5X5X5Xd.9 % * * * * * * * * *     ",
"    * * * * * % a &.W.5X5X5X5X5X5X5X5X5X5X5XJ.Y.5X>X5X5X5X5X5X5X5Xm.h # * * * * * * * * * *     ",
"    * * * * * # #.5X5X5X5X5X5X5X5X5X5X5X5XP.K V.5X5X5X5X5X5X5X>Xm.k # * * * * * * * * * * *     ",
"      * * * * # Y  X5X5X5X5X5X5X5X5X>X Xk.P u.>X5X5X5X5X5X5X%Xu.a # * * * * * * * * * * *       ",
"      * * * * * > &.*X5X5X5X5X5X5XY.@.W ^ m.>X5X5X5X5X5X5XW.{ 6 # * * * * * * * * * * * *       ",
"        * * * * # 9 >.XX5X5X5X5X5XY.0.H.OX5X5X5X5X5X>X!.,.l # % * * * * * * * * * * * *         ",
"        * * * * * # 1 Q V.XX5X5X5X5X5X5X5X5X5X*X].V.X.l * # * * * * * * * * * * * * * *         ",
"          * * * * * % # w K &.d.m.Z.G.V.c.d.:.' m 9 # # * * * * * * * * * * * * * * *           ",
"            * * * * * * % # # 1 9 w w 9 6 1 # # # % * * * * * * * * * * * * * * * *             ",
"            * * * * * * * * * * % % % % % * * * * * * * * * * * * * * * * * * * * *             ",
"              * * * * * * * * * * * * * * * * * * * * * * * * * * * * * * * * * *               ",
"                * * * * * * * * * * * * * * * * * * * * * * * * * * * * * * * *                 ",
"                  * * * * * * * * * * * * * * * * * * * * * * * * * * * * * *                   ",
"                    * * * * * * * * * * * * * * * * * * * * * * * * * * * *                     ",
"                        * * * * * * * * * * * * * * * * * * * * * * * *                         ",
"                            * * * * * * * * * * * * * * * * * * * *                             ",
"                                * * * * * * * * * * * * * * * *                                 ",
"                                      * * * * * * * * * *                                       ",
"                                                                                                "
};
