/* XPM */
static char *terminal[] = {
/* columns rows colors chars-per-pixel */
"48 48 86 1 ",
"  c None",
". c #51656A",
"X c #51656B",
"o c #51666B",
"O c #52666B",
"+ c #52666C",
"@ c #52676C",
"# c #53676C",
"$ c #54686D",
"% c #55686D",
"& c #55696E",
"* c #566A6E",
"= c #566A6F",
"- c #576A6F",
"; c #576B70",
": c #586C70",
"> c #586C71",
", c #596C71",
"< c #5A6D72",
"1 c #5B6E73",
"2 c #5C6F74",
"3 c #5D7075",
"4 c #5E7176",
"5 c #627579",
"6 c #63757A",
"7 c #65777B",
"8 c #66787C",
"9 c #66787D",
"0 c #67797D",
"q c #6B7C80",
"w c #6D7E82",
"e c #728286",
"r c #78888C",
"t c #79898D",
"y c #808E92",
"u c #808F93",
"i c #839195",
"p c #859497",
"a c #869498",
"s c #88969A",
"d c #8A989B",
"f c #8E9B9F",
"g c #8F9C9F",
"h c #919EA1",
"j c #93A0A3",
"k c #97A3A6",
"l c #98A4A7",
"z c #9CA7AA",
"x c #A0ABAE",
"c c #A1ACAF",
"v c #A2ADAF",
"b c #A5B0B2",
"n c #ABB5B7",
"m c #B3BCBE",
"M c #BBC3C5",
"N c #BCC4C6",
"B c #C4CBCC",
"V c #C4CBCD",
"C c #CBD1D3",
"Z c #CCD2D3",
"A c #CDD3D5",
"S c #D2D7D9",
"D c #D3D8D9",
"F c #D3D8DA",
"G c #D3D9DA",
"H c #D4D9DA",
"J c #DBDFE0",
"K c #E1E4E5",
"L c #E5E8E9",
"P c #E7EAEA",
"I c #E7EAEB",
"U c #EAECED",
"Y c #EDEFEF",
"T c #EDEFF0",
"R c #EEF0F1",
"E c #EFF1F1",
"W c #EFF1F2",
"Q c #F1F3F3",
"! c #F2F4F4",
"~ c #F4F5F6",
"^ c #F5F6F7",
"/ c #F6F7F7",
"( c #F9FAFA",
") c gray99",
"_ c #FDFEFE",
"` c white",
/* pixels */
"                                                ",
"                    #######                     ",
"                ################                ",
"              ####################              ",
"            ########################            ",
"          ###########################           ",
"         ##############################         ",
"        ################################        ",
"       ##################################       ",
"      ####################################      ",
"     ######################################     ",
"     ######################################     ",
"    ########################################    ",
"   #########################################    ",
"   ##########################################   ",
"  ###########################################   ",
"  #############O##############################  ",
"  ############%1##############################  ",
" ############OdAs%O###########################  ",
" ############Og~!c1O########################### ",
" #############%fI)N9O########################## ",
" ##############OrD)DrO######################### ",
" ###############O9M)Ig%O####################### ",
" ################O1cQ~b1####################### ",
" #################O1N)UqO###################### ",
" ################O3n~Rz;####################### ",
" ###############OwV)Kp%######################## ",
" #############O#yJ)ZeO##OOOOOOOOO############## ",
" #############1kY(m5O##1799999995%############# ",
" ############Oj(Tl1O###xTRRRRRRRIiO############ ",
" ############OaVy#O####hSDDDDDDHCrO###########  ",
"  ############%1O######%233333331#############  ",
"  ######################OOOOOOOOO#############  ",
"   ##########################################   ",
"   ##########################################   ",
"   #########################################    ",
"    ########################################    ",
"     ######################################     ",
"     #####################################      ",
"      ####################################      ",
"       ##################################       ",
"        ################################        ",
"         ##############################         ",
"           ##########################           ",
"            ########################            ",
"              ####################              ",
"                 ##############                 ",
"                    #######                     "
};
