/* XPM */
static char * title_rightoftext_inactive_xpm[] = {
"6 24 79 1",
" 	c None",
".	c #868686",
"+	c #4E4E4E",
"@	c #797979",
"#	c #8A8A8A",
"$	c #505050",
"%	c #4D4D4D",
"&	c #989898",
"*	c #565656",
"=	c #4B4B4B",
"-	c #A6A6A6",
";	c #5D5D5D",
">	c #525252",
",	c #B5B5B5",
"'	c #636363",
")	c #616161",
"!	c #C3C3C3",
"~	c #696969",
"{	c #676767",
"]	c #6C6C6C",
"^	c #D1D1D1",
"/	c #707070",
"(	c #727272",
"_	c #777777",
":	c #DFDFDF",
"<	c #767676",
"[	c #7C7C7C",
"}	c #828282",
"|	c #EEEEEE",
"1	c #878787",
"2	c #8C8C8C",
"3	c #FCFCFC",
"4	c #838383",
"5	c #8B8B8B",
"6	c #969696",
"7	c #F3F3F3",
"8	c #7F7F7F",
"9	c #8D8D8D",
"0	c #9F9F9F",
"a	c #E4E4E4",
"b	c #787878",
"c	c #8F8F8F",
"d	c #A9A9A9",
"e	c #D6D6D6",
"f	c #848484",
"g	c #B3B3B3",
"h	c #C8C8C8",
"i	c #BDBDBD",
"j	c #BABABA",
"k	c #656565",
"l	c #6E6E6E",
"m	c #C7C7C7",
"n	c #ACACAC",
"o	c #5F5F5F",
"p	c #D0D0D0",
"q	c #9D9D9D",
"r	c #585858",
"s	c #5C5C5C",
"t	c #CBCBCB",
"u	c #535353",
"v	c #818181",
"w	c #4C4C4C",
"x	c #4A4A4A",
"y	c #A8A8A8",
"z	c #737373",
"A	c #464646",
"B	c #434343",
"C	c #404040",
"D	c #606060",
"E	c #5A5A5A",
"F	c #3A3A3A",
"G	c #8E8E8E",
"H	c #7D7D7D",
"I	c #545454",
"J	c #484848",
"K	c #333333",
"L	c #414141",
"M	c #3D3D3D",
"N	c #2D2D2D",
".....+",
"@@@@#$",
"%%%%&*",
"===+-;",
">>>*,'",
";;;)!~",
"{{{]^/",
"(((_:<",
"[[[}|[",
"111234",
"555678",
"9990ab",
"cccde(",
"fffgh]",
"@@@ijk",
"lllmno",
"kkkpqr",
"ssstc>",
"uuuivw",
"xxxyzA",
"BBB2kC",
"DE$/*F",
"GH{IJK",
"xALMFN"};
