/* XPM */
static char * title_rightoftext_active_xpm[] = {
"6 24 95 2",
"  	c None",
". 	c #868687",
"+ 	c #4E4E4F",
"@ 	c #79797A",
"# 	c #8A8A8B",
"$ 	c #505051",
"% 	c #4D4D4D",
"& 	c #989899",
"* 	c #565657",
"= 	c #3C435B",
"- 	c #4E4E4E",
"; 	c #A6A6A8",
"> 	c #5D5D5E",
", 	c #39456B",
"' 	c #565656",
") 	c #B5B5B6",
"! 	c #636364",
"~ 	c #435177",
"{ 	c #616161",
"] 	c #C3C3C4",
"^ 	c #68686A",
"/ 	c #4E5D81",
"( 	c #6C6C6C",
"_ 	c #D1D1D2",
": 	c #6F6F71",
"< 	c #58688C",
"[ 	c #777777",
"} 	c #DFDFE0",
"| 	c #757577",
"1 	c #637496",
"2 	c #828282",
"3 	c #EEEEEE",
"4 	c #7C7C7E",
"5 	c #6E7FA1",
"6 	c #8C8C8C",
"7 	c #FCFCFC",
"8 	c #828284",
"9 	c #7183A5",
"0 	c #969696",
"a 	c #F3F3F3",
"b 	c #7E7E80",
"c 	c #7385A7",
"d 	c #9F9F9F",
"e 	c #E4E4E5",
"f 	c #777779",
"g 	c #7587A9",
"h 	c #A9A9A9",
"i 	c #D6D6D7",
"j 	c #717173",
"k 	c #6A7C9E",
"l 	c #B3B3B3",
"m 	c #C8C8C9",
"n 	c #6B6B6D",
"o 	c #607093",
"p 	c #BDBDBD",
"q 	c #BABABB",
"r 	c #656566",
"s 	c #556488",
"t 	c #C7C7C7",
"u 	c #ACACAC",
"v 	c #5F5F60",
"w 	c #4C5B7F",
"x 	c #D0D0D0",
"y 	c #9D9D9E",
"z 	c #58585A",
"A 	c #435176",
"B 	c #CBCBCB",
"C 	c #8F8F90",
"D 	c #525253",
"E 	c #3A466D",
"F 	c #818182",
"G 	c #4C4C4D",
"H 	c #313D64",
"I 	c #A8A8A8",
"J 	c #737374",
"K 	c #454547",
"L 	c #2A355C",
"M 	c #3F3F41",
"N 	c #515870",
"O 	c #4A5169",
"P 	c #414760",
"Q 	c #707070",
"R 	c #39393B",
"S 	c #8E8E8E",
"T 	c #7D7D7E",
"U 	c #676767",
"V 	c #545454",
"W 	c #484849",
"X 	c #323234",
"Y 	c #4A4A4B",
"Z 	c #464647",
"` 	c #414142",
" .	c #3D3D3E",
"..	c #3A3A3B",
"+.	c #2C2C2E",
". . . . . + ",
"@ @ @ @ # $ ",
"% % % % & * ",
"= = = - ; > ",
", , , ' ) ! ",
"~ ~ ~ { ] ^ ",
"/ / / ( _ : ",
"< < < [ } | ",
"1 1 1 2 3 4 ",
"5 5 5 6 7 8 ",
"9 9 9 0 a b ",
"c c c d e f ",
"g g g h i j ",
"k k k l m n ",
"o o o p q r ",
"s s s t u v ",
"w w w x y z ",
"A A A B C D ",
"E E E p F G ",
"H H H I J K ",
"L L L 6 r M ",
"N O P Q * R ",
"S T U V W X ",
"Y Z `  ...+."};
