/* XPM */
static char * title_leftoftext_active_xpm[] = {
"6 24 95 2",
"  	c None",
". 	c #4E4E4F",
"+ 	c #868687",
"@ 	c #505051",
"# 	c #8A8A8B",
"$ 	c #79797A",
"% 	c #565657",
"& 	c #989899",
"* 	c #4D4D4D",
"= 	c #5D5D5E",
"- 	c #A6A6A8",
"; 	c #4E4E4E",
"> 	c #3C435B",
", 	c #636364",
"' 	c #B5B5B6",
") 	c #565656",
"! 	c #39456B",
"~ 	c #68686A",
"{ 	c #C3C3C4",
"] 	c #616161",
"^ 	c #435177",
"/ 	c #6F6F71",
"( 	c #D1D1D2",
"_ 	c #6C6C6C",
": 	c #4E5D81",
"< 	c #757577",
"[ 	c #DFDFE0",
"} 	c #777777",
"| 	c #58688C",
"1 	c #7C7C7E",
"2 	c #EEEEEE",
"3 	c #828282",
"4 	c #637496",
"5 	c #828284",
"6 	c #FCFCFC",
"7 	c #8C8C8C",
"8 	c #6E7FA1",
"9 	c #7E7E80",
"0 	c #F3F3F3",
"a 	c #969696",
"b 	c #7183A5",
"c 	c #777779",
"d 	c #E4E4E5",
"e 	c #9F9F9F",
"f 	c #7385A7",
"g 	c #717173",
"h 	c #D6D6D7",
"i 	c #A9A9A9",
"j 	c #7587A9",
"k 	c #6B6B6D",
"l 	c #C8C8C9",
"m 	c #B3B3B3",
"n 	c #6A7C9E",
"o 	c #656566",
"p 	c #BABABB",
"q 	c #BDBDBD",
"r 	c #607093",
"s 	c #5F5F60",
"t 	c #ACACAC",
"u 	c #C7C7C7",
"v 	c #556488",
"w 	c #58585A",
"x 	c #9D9D9E",
"y 	c #D0D0D0",
"z 	c #4C5B7F",
"A 	c #525253",
"B 	c #8F8F90",
"C 	c #CBCBCB",
"D 	c #435176",
"E 	c #4C4C4D",
"F 	c #818182",
"G 	c #3A466D",
"H 	c #454547",
"I 	c #737374",
"J 	c #A8A8A8",
"K 	c #313D64",
"L 	c #3F3F41",
"M 	c #2A355C",
"N 	c #39393B",
"O 	c #707070",
"P 	c #414760",
"Q 	c #4A5169",
"R 	c #515870",
"S 	c #323234",
"T 	c #484849",
"U 	c #545454",
"V 	c #676767",
"W 	c #7D7D7E",
"X 	c #8E8E8E",
"Y 	c #2C2C2E",
"Z 	c #3A3A3B",
"` 	c #3D3D3E",
" .	c #414142",
"..	c #464647",
"+.	c #4A4A4B",
". + + + + + ",
"@ # $ $ $ $ ",
"% & * * * * ",
"= - ; > > > ",
", ' ) ! ! ! ",
"~ { ] ^ ^ ^ ",
"/ ( _ : : : ",
"< [ } | | | ",
"1 2 3 4 4 4 ",
"5 6 7 8 8 8 ",
"9 0 a b b b ",
"c d e f f f ",
"g h i j j j ",
"k l m n n n ",
"o p q r r r ",
"s t u v v v ",
"w x y z z z ",
"A B C D D D ",
"E F q G G G ",
"H I J K K K ",
"L o 7 M M M ",
"N % O P Q R ",
"S T U V W X ",
"Y Z `  ...+."};
