/* XPM */
static char * title_leftoftext_inactive_xpm[] = {
"6 24 79 1",
" 	c None",
".	c #4E4E4E",
"+	c #868686",
"@	c #505050",
"#	c #8A8A8A",
"$	c #797979",
"%	c #565656",
"&	c #989898",
"*	c #4D4D4D",
"=	c #5D5D5D",
"-	c #A6A6A6",
";	c #4B4B4B",
">	c #636363",
",	c #B5B5B5",
"'	c #525252",
")	c #696969",
"!	c #C3C3C3",
"~	c #616161",
"{	c #707070",
"]	c #D1D1D1",
"^	c #6C6C6C",
"/	c #676767",
"(	c #767676",
"_	c #DFDFDF",
":	c #777777",
"<	c #727272",
"[	c #7C7C7C",
"}	c #EEEEEE",
"|	c #828282",
"1	c #838383",
"2	c #FCFCFC",
"3	c #8C8C8C",
"4	c #878787",
"5	c #7F7F7F",
"6	c #F3F3F3",
"7	c #969696",
"8	c #8B8B8B",
"9	c #787878",
"0	c #E4E4E4",
"a	c #9F9F9F",
"b	c #8D8D8D",
"c	c #D6D6D6",
"d	c #A9A9A9",
"e	c #8F8F8F",
"f	c #C8C8C8",
"g	c #B3B3B3",
"h	c #848484",
"i	c #656565",
"j	c #BABABA",
"k	c #BDBDBD",
"l	c #5F5F5F",
"m	c #ACACAC",
"n	c #C7C7C7",
"o	c #6E6E6E",
"p	c #585858",
"q	c #9D9D9D",
"r	c #D0D0D0",
"s	c #CBCBCB",
"t	c #5C5C5C",
"u	c #4C4C4C",
"v	c #818181",
"w	c #535353",
"x	c #464646",
"y	c #737373",
"z	c #A8A8A8",
"A	c #4A4A4A",
"B	c #404040",
"C	c #434343",
"D	c #3A3A3A",
"E	c #5A5A5A",
"F	c #606060",
"G	c #333333",
"H	c #484848",
"I	c #545454",
"J	c #7D7D7D",
"K	c #8E8E8E",
"L	c #2D2D2D",
"M	c #3D3D3D",
"N	c #414141",
".+++++",
"@#$$$$",
"%&****",
"=-.;;;",
">,%'''",
")!~===",
"{]^///",
"(_:<<<",
"[}|[[[",
"123444",
"567888",
"90abbb",
"<cdeee",
"^fghhh",
"ijk$$$",
"lmnooo",
"pqriii",
"'esttt",
"uvkwww",
"xyzAAA",
"Bi3CCC",
"D%{@EF",
"GHI/JK",
"LDMNxA"};
