/* XPM */
static char * title_leftend_inactive_xpm[] = {
"1 24 13 1",
" 	c None",
".	c #4F4F51",
"+	c #585859",
"@	c #646465",
"#	c #717172",
"$	c #767677",
"%	c #8C8C8C",
"&	c #7E7E7E",
"*	c #69696A",
"=	c #5C5C5C",
"-	c #515153",
";	c #3F3F41",
">	c #373739",
".",
".",
".",
"+",
"@",
"#",
"#",
"#",
"$",
"%",
"&",
"#",
"#",
"#",
"*",
"=",
"-",
".",
".",
".",
";",
">",
">",
">"};
