/* XPM */
static char *window_identify[] = {
/* columns rows colors chars-per-pixel */
"24 24 89 1 ",
"  c None",
". c black",
"X c #160000",
"o c #180000",
"O c #220000",
"+ c #230000",
"@ c #260000",
"# c #270000",
"$ c #290000",
"% c #2A0000",
"& c #2B0000",
"* c #2D0505",
"= c #381616",
"- c #3C1A1A",
"; c #450000",
": c #4B0000",
"> c #4D0000",
", c #4E0000",
"< c #6E0000",
"1 c #6F0000",
"2 c #710000",
"3 c #760000",
"4 c #790000",
"5 c #7B0000",
"6 c #512121",
"7 c #572020",
"8 c #334545",
"9 c #404040",
"0 c #404848",
"q c #6B6F6F",
"w c #706B6B",
"e c #870000",
"r c #880000",
"t c #8A0000",
"y c #8D0000",
"u c #830909",
"i c #920000",
"p c #930000",
"a c #B30000",
"s c #BC0000",
"d c #B03131",
"f c #C10000",
"g c #D20000",
"h c #D30000",
"j c #D70000",
"k c #D80000",
"l c #D90000",
"z c #DA0000",
"x c #DB0000",
"c c #C41616",
"v c #C91313",
"b c #E70000",
"n c #E80000",
"m c #ED0000",
"M c #F00000",
"N c #F80000",
"B c #FA0000",
"V c #FF0000",
"C c #F40B0B",
"Z c #FF0808",
"A c #FE0C0C",
"S c #FF0C0C",
"D c #E91616",
"F c #FF1717",
"G c #D72929",
"H c #C83737",
"J c #CD3838",
"K c #FF2525",
"L c #FF2727",
"P c #BF4040",
"I c #A75858",
"U c #A95B5B",
"Y c #8D6B6B",
"T c #926868",
"R c #946B6B",
"E c #837F7F",
"W c #DF6464",
"Q c #FF6E6E",
"! c #FF7272",
"~ c #FF7878",
"^ c #7E8080",
"/ c #7A8989",
"( c #828282",
") c #868989",
"_ c #979E9E",
"` c #FF8D8D",
"' c #FFB2B2",
"] c #B8C3C3",
"[ c #E6C5C5",
/* pixels */
"           VVVV         ",
"          VVVVVV        ",
"       LLZVVVVVVV       ",
"      V~'LVVVVVVVV      ",
"     L~`!Ff55sVVVb:     ",
"    VL'!Bk2..tVVVg%.    ",
"    VZLFx,X  kVVVg%.    ",
"     ke5<o    VVVk%.    ",
"      ...    VVVMa%     ",
"            VVVVi#      ",
"           VVVMi;       ",
"          VBkja#        ",
"         VVx,O#         ",
"         VVny3<O        ",
"         DCVVAv*        ",
"         RHVVJT         ",
"          Idu68         ",
"          _E-#%         ",
"         ^][Ggg         ",
"         PWQFVAU        ",
"         VVVVmcY/       ",
"          VVVi=w)       ",
"           kt70q        ",
"            .9(         "
};
