/* XPM */
static char *discord[] = {
/* columns rows colors chars-per-pixel */
"72 72 240 2 ",
"   c None",
".  c #66AFDD",
"X  c #67AFDD",
"o  c #67B0DD",
"O  c #68B0DD",
"+  c #69B0DD",
"@  c #69B1DD",
"#  c #6AB1DD",
"$  c #6AB1DE",
"%  c #6BB1DE",
"&  c #6BB2DE",
"*  c #6CB2DE",
"=  c #6DB2DE",
"-  c #6DB3DE",
";  c #6EB3DE",
":  c #6FB4DF",
">  c #70B4DF",
",  c #71B4DF",
"<  c #71B5DF",
"1  c #72B5DF",
"2  c #73B6DF",
"3  c #73B5E0",
"4  c #73B6E0",
"5  c #74B6E0",
"6  c #75B6E0",
"7  c #75B7E1",
"8  c #76B7E0",
"9  c #76B7E1",
"0  c #77B8E0",
"q  c #77B8E1",
"w  c #78B8E1",
"e  c #78B9E1",
"r  c #79B9E1",
"t  c #7AB9E1",
"y  c #7BBAE1",
"u  c #7AB9E2",
"i  c #7BB9E2",
"p  c #7BBAE2",
"a  c #7CBAE2",
"s  c #7DBBE2",
"d  c #7EBBE3",
"f  c #7FBCE3",
"g  c #80BCE2",
"h  c #81BDE3",
"j  c #84BFE3",
"k  c #81BDE4",
"l  c #85BFE4",
"z  c #86C0E5",
"x  c #87C1E5",
"c  c #89C1E4",
"v  c #88C1E5",
"b  c #89C1E5",
"n  c #89C2E5",
"m  c #8AC2E5",
"M  c #8BC2E5",
"N  c #89C1E6",
"B  c #8AC2E6",
"V  c #8BC2E6",
"C  c #8DC3E5",
"Z  c #8CC3E6",
"A  c #8DC3E6",
"S  c #8EC4E5",
"D  c #8EC4E6",
"F  c #8FC5E6",
"G  c #8EC4E7",
"H  c #8FC4E7",
"J  c #8FC5E7",
"K  c #90C5E6",
"L  c #90C5E7",
"P  c #91C5E7",
"I  c #91C6E7",
"U  c #93C6E7",
"Y  c #94C7E7",
"T  c #96C8E7",
"R  c #92C6E8",
"E  c #93C6E8",
"W  c #93C7E8",
"Q  c #94C7E8",
"!  c #95C7E8",
"~  c #94C7E9",
"^  c #94C8E8",
"/  c #95C8E8",
"(  c #96C8E8",
")  c #97C8E8",
"_  c #97C8E9",
"`  c #97C9E9",
"'  c #98C9E9",
"]  c #99C9E9",
"[  c #99CAE9",
"{  c #9ACAE8",
"}  c #9ACAE9",
"|  c #9BCAE9",
" . c #9BCBE9",
".. c #9BCBEA",
"X. c #9CCBEA",
"o. c #9DCCE9",
"O. c #9ECCE9",
"+. c #9DCCEA",
"@. c #9ECCEA",
"#. c #9ECDEA",
"$. c #9FCDEA",
"%. c #A0CDEB",
"&. c #A1CEEA",
"*. c #A1CEEB",
"=. c #A4CFEA",
"-. c #A5D0EA",
";. c #A4D0EB",
":. c #A6D0EB",
">. c #A6D1EB",
",. c #A6D0EC",
"<. c #A8D1EC",
"1. c #A8D2EC",
"2. c #A9D2EC",
"3. c #ABD3EC",
"4. c #AAD2ED",
"5. c #AAD3ED",
"6. c #ABD3ED",
"7. c #ACD3ED",
"8. c #ACD4ED",
"9. c #ADD4ED",
"0. c #AED4ED",
"q. c #AED5ED",
"w. c #AFD5ED",
"e. c #AED5EE",
"r. c #B0D5EE",
"t. c #B1D7EF",
"y. c #B2D6EE",
"u. c #B3D7EF",
"i. c #B4D8EE",
"p. c #B5D9EE",
"a. c #B4D8EF",
"s. c #B5D8EF",
"d. c #B6D8EF",
"f. c #B6D9EF",
"g. c #B7D9EF",
"h. c #B8DAEF",
"j. c #B9DAEF",
"k. c #B8D9F0",
"l. c #B9DAF0",
"z. c #B9DBF0",
"x. c #BADAF0",
"c. c #BADBF0",
"v. c #BBDCF1",
"b. c #BCDCF1",
"n. c #BDDCF1",
"m. c #BDDDF1",
"M. c #BEDDF0",
"N. c #BFDDF1",
"B. c #BFDEF0",
"V. c #BFDEF1",
"C. c #BFDEF2",
"Z. c #C1DEF1",
"A. c #C2DFF1",
"S. c #C3DFF1",
"D. c #C1DEF2",
"F. c #C2DFF2",
"G. c #C3DFF2",
"H. c #C3E0F2",
"J. c #C4E0F2",
"K. c #C6E1F2",
"L. c #C6E1F3",
"P. c #C7E1F3",
"I. c #C7E2F3",
"U. c #C9E3F3",
"Y. c #CBE4F3",
"T. c #CCE4F3",
"R. c #CBE3F4",
"E. c #CBE4F4",
"W. c #CCE4F4",
"Q. c #CDE5F4",
"!. c #CEE5F4",
"~. c #CEE5F5",
"^. c #CFE5F5",
"/. c #D0E6F5",
"(. c #D0E7F5",
"). c #D1E7F5",
"_. c #D2E7F5",
"`. c #D3E8F5",
"'. c #D3E8F6",
"]. c #D5E9F6",
"[. c #D6E9F6",
"{. c #D7EAF6",
"}. c #D9EBF6",
"|. c #D8EAF7",
" X c #D9EBF7",
".X c #DAEBF7",
"XX c #DAECF7",
"oX c #DBECF7",
"OX c #DCEDF7",
"+X c #DCEDF8",
"@X c #DDEDF8",
"#X c #DDEEF8",
"$X c #DEEEF8",
"%X c #DFEEF8",
"&X c #DFEFF8",
"*X c #E0EFF8",
"=X c #E1EFF8",
"-X c #E2F0F8",
";X c #E2F0F9",
":X c #E3F0F9",
">X c #E4F1F9",
",X c #E5F1F9",
"<X c #E5F2F9",
"1X c #E6F2F9",
"2X c #E5F1FA",
"3X c #E6F2FA",
"4X c #E7F2FA",
"5X c #E8F3FA",
"6X c #E9F3FA",
"7X c #EAF4FA",
"8X c #EBF4FA",
"9X c #EBF5FB",
"0X c #ECF5FB",
"qX c #EDF6FB",
"wX c #EEF6FB",
"eX c #EFF7FB",
"rX c #EFF7FC",
"tX c #F0F7FC",
"yX c #F1F8FC",
"uX c #F2F8FC",
"iX c #F2F9FC",
"pX c #F3F9FC",
"aX c #F4F9FD",
"sX c #F4FAFD",
"dX c #F5FAFD",
"fX c #F6FAFD",
"gX c #F6FBFD",
"hX c #F7FBFD",
"jX c #F8FBFD",
"kX c #F8FBFE",
"lX c #F9FBFE",
"zX c #F8FCFE",
"xX c #F9FCFE",
"cX c #FAFCFE",
"vX c #FBFDFE",
"bX c #FCFDFE",
"nX c #FDFEFF",
"mX c #FEFEFF",
"MX c #FEFFFF",
"NX c white",
/* pixels */
"                                                                                                                                                ",
"                                                                                                                                                ",
"                                                                                                                                                ",
"                                                                                                                                                ",
"                                                                                                                                                ",
"                                                                                                                                                ",
"                                                                                                                                                ",
"      Q Q Q Q Q Q Q Q Q Q Q Q Q Q Q Q Q Q Q Q Q Q Q Q Q Q Q Q Q Q Q Q Q Q Q Q Q Q Q Q Q Q Q Q Q Q Q Q Q Q Q Q Q Q Q Q Q Q Q Q Q Q Q Q Q Q       ",
"    R Q Q Q Q Q Q Q Q Q Q Q Q Q Q Q Q Q Q Q Q Q Q Q Q Q Q Q Q Q Q Q Q Q Q Q Q Q Q Q Q Q Q Q Q Q Q Q Q Q Q Q Q Q Q Q Q Q Q Q Q Q Q Q Q Q L p     ",
"  Q Q Q Q Q Q Q Q Q Q Q Q Q Q Q Q Q Q Q Q Q Q Q Q Q Q Q Q Q Q Q Q Q Q Q Q Q Q Q Q Q Q Q Q Q Q Q Q Q Q Q Q Q Q Q Q Q Q Q Q Q Q Q Q Q Q L p O     ",
"    Q Q Q Q Q Q Q Q Q Q Q Q Q Q Q Q Q Q Q Q Q Q Q Q Q Q Q Q Q Q Q Q Q Q Q Q Q Q Q Q Q Q Q Q Q Q Q Q Q Q Q Q Q Q Q Q Q Q Q Q Q Q Q Q H 0 O O     ",
"    Q Q Q Q Q Q Q Q Q Q Q Q Q Q Q Q Q Q Q Q Q Q Q Q Q Q Q Q Q Q Q Q Q Q Q Q Q Q Q Q Q Q Q Q Q Q Q Q Q Q Q Q Q Q Q Q Q Q Q Q Q Q Q Z 5 O O O     ",
"    Q Q Q Q Q Q Q Q Q Q Q Q Q Q Q Q Q Q Q Q Q Q Q Q Q Q Q Q Q Q Q Q Q Q Q Q Q Q Q Q Q Q Q Q Q Q Q Q Q Q Q Q Q Q Q Q Q Q Q Q Q Q b 4 O O O O     ",
"    Q Q Q Q Q Q Q Q Q Q Q Q Q Q Q Q Q Q Q Q Q Q Q Q Q Q Q Q Q Q Q Q Q Q Q Q Q Q Q Q Q Q Q Q Q Q Q Q Q Q Q Q Q Q Q Q Q Q Q Q Q b 1 O O O O O     ",
"    Q Q Q Q Q Q Q Q Q Q Q Q Q Q Q Q Q Q Q Q Q Q Q Q Q Q Q Q Q Q Q Q Q Q Q Q Q Q Q Q Q Q Q Q Q Q Q Q Q Q Q Q Q Q Q Q Q Q Q Q z : O O O O O O     ",
"    Q Q Q Q Q Q Q Q Q Q Q Q Q Q Q Q Q Q Q Q Q Q Q Q Q Q Q Q Q Q Q Q Q Q Q Q Q Q Q Q Q Q Q Q Q Q Q Q Q Q Q Q Q Q Q Q Q Q R l ; o O O O O O O     ",
"    Q Q Q Q Q Q Q Q Q Q Q Q Q Q Q Q Q Q Q Q Q Q Q Q Q Q Q Q Q Q Q Q Q Q Q Q Q Q Q Q Q Q Q Q Q Q Q Q Q Q Q Q Q Q Q Q Q R k ; O O O O O O O O     ",
"    Q Q Q Q Q Q Q Q Q Q Q Q Q Q Q Q Q Q Q Q Q Q Q Q Q Q Q Q Q Q Q Q Q Q Q Q Q Q Q Q Q Q Q Q Q Q Q Q Q Q Q Q Q Q Q Q R f O O O O O O O O O O     ",
"    Q Q Q Q Q Q Q Q Q Q Q Q Q Q Q Q Q Q Q Q Q Q Q Q Q Q Q Q Q Q Q Q Q Q Q Q Q Q Q Q Q Q Q Q Q Q Q Q Q Q Q Q Q Q Q L s O O O O O O O O O O O     ",
"    Q Q Q Q Q Q Q Q Q Q Q Q Q Q Q Q Q Q Q Q Q Q Q Q Q Q Q Q Q Q Q Q Q Q Q Q Q Q Q Q Q Q Q Q Q Q Q Q Q Q Q Q Q Q L p O O O O O O O O O O O O     ",
"    Q Q Q Q Q Q Q Q Q Q Q Q Q Q Q Q Q Q Q Q Q Q Q R R Q | X.| Q Q Q Q Q Q Q Q Q ` X.X.| Q R R Q Q Q Q Q Q Q Q H p O O O O O O O O O O O O O     ",
"    Q Q Q Q Q Q Q Q Q Q Q Q Q Q Q Q Q Q Q Q Q Q R | 7.G./.!.f.Q L L R Q Q R L L | P.|.[.G.2.| R Q Q Q Q Q Q Z 5 O O O O O O O O O O O O O O     ",
"    Q Q Q Q Q Q Q Q Q Q Q Q Q Q Q Q Q Q Q Q Q | z.oX7X[.z.,.2.f.G.P.!./.!.E.P.b.u.2.u.!.7XuX|.z.| Q Q Q Q Z 5 O O O O O O O O O O O O O O O     ",
"    Q Q Q Q Q Q Q Q Q Q Q Q Q Q Q Q Q Q Q Q 7.oXtX%Xb.v./.2XwXdXNXNXNXNXNXNXNXcXdXwX%X!.b.!.uXdX%X8.Q Q b 1 O O O O O O O O O O O O O O O O     ",
"    Q Q Q Q Q Q Q Q Q Q Q Q Q Q Q Q Q Q Q f.rXuX[.|.rXcXNXNXNXNXNXNXNXNXNXNXNXNXNXNXNXNXdX2X[.7XNXuXf.z 1 O O O O O O O O O O O O O O O O O     ",
"    Q Q Q Q Q Q Q Q Q Q Q Q Q Q Q Q Q Q X.2XNXtXkXNXNXNXNXNXNXNXNXNXNXNXNXNXNXNXNXNXNXNXNXNXNXuXcXNX2Xp O O O O O O O O O O O O O O O O O O     ",
"    Q Q Q Q Q Q Q Q Q Q Q Q Q Q Q Q Q Q f.cXNXNXNXNXNXNXNXNXNXNXNXNXNXNXNXNXNXNXNXNXNXNXNXNXNXNXNXNXcX@.o O O O O O O O O O O O O O O O O O     ",
"    Q Q Q Q Q Q Q Q Q Q Q Q Q Q Q Q Q ` oXNXNXNXNXNXNXNXNXNXNXNXNXNXNXNXNXNXNXNXNXNXNXNXNXNXNXNXNXNXNX/.1 O O O O O O O O O O O O O O O O O     ",
"    Q Q Q Q Q Q Q Q Q Q Q Q Q Q Q Q R 8.uXNXNXNXNXNXNXNXNXNXNXNXNXNXNXNXNXNXNXNXNXNXNXNXNXNXNXNXNXNXNXwXL X O O O O O O O O O O O O O O O O     ",
"    Q Q Q Q Q Q Q Q Q Q Q Q Q Q Q Q Q U.NXNXNXNXNXNXNXNXNXNXNXNXNXNXNXNXNXNXNXNXNXNXNXNXNXNXNXNXNXNXNXNXf.O O O O O O O O O O O O O O O O O     ",
"    Q Q Q Q Q Q Q Q Q Q Q Q Q Q Q R @.*XNXNXNXNXNXNXNXNXNXNXNXNXNXNXNXNXNXNXNXNXNXNXNXNXNXNXNXNXNXNXNXNX|.p X O O O O O O O O O O O O O O O     ",
"    Q Q Q Q Q Q Q Q Q Q Q Q Q Q Q R 8.dXNXNXNXNXNXNXNXNXNXNXNXNXNXNXNXNXNXNXNXNXNXNXNXNXNXNXNXNXNXNXNXNXdXH X O O O O O O O O O O O O O O O     ",
"    Q Q Q Q Q Q Q Q Q Q Q Q Q Q Q Q H.NXNXNXNXNXNXNXNXNXNXcXcXNXNXNXNXNXNXNXNXNXNXcXcXNXNXNXNXNXNXNXNXNXNX2.O O O O O O O O O O O O O O O O     ",
"    Q Q Q Q Q Q Q Q Q Q Q Q Q Q Q | %XNXNXNXNXNXNXNXNXdX/.f.z.[.kXNXNXNXNXNXNXdX!.2.&.T.cXNXNXNXNXNXNXNXNX/.: O O O O O O O O O O O O O O O     ",
"    Q Q Q Q Q Q Q Q Q Q Q Q Q Q Q @.rXNXNXNXNXNXNXNXcXb.` Q Q | P.NXNXNXNXNXkXv.b 1 o 1 P.NXNXNXNXNXNXNXNXwXp O O O O O O O O O O O O O O O     ",
"    Q Q Q Q Q Q Q Q Q Q Q Q Q Q Q 2.kXNXNXNXNXNXNXNX;X| Q Q Q R @.wXNXNXNXNX%XZ : O O X j uXNXNXNXNXNXNXNXdXZ O O O O O O O O O O O O O O O     ",
"    Q Q Q Q Q Q Q Q Q Q Q Q Q Q Q b.cXNXNXNXNXNXNXNX!.` Q Q Q Q | *XNXNXNXNXb.: O O O O 1 *XNXNXNXNXNXNXNXcX2.O O O O O O O O O O O O O O O     ",
"    Q Q Q Q Q Q Q Q Q Q Q Q Q Q Q /.NXNXNXNXNXNXNXNX/.` Q Q Q Q | 5XNXNXNXNXj.O O O O O 4 2XNXNXNXNXNXNXNXNXb.O O O O O O O O O O O O O O O     ",
"    Q Q Q Q Q Q Q Q Q Q Q Q Q Q Q OXNXNXNXNXNXNXNXNX7X&.R Q Q R 8.dXNXNXNXNXOX0 X O o X L dXNXNXNXNXNXNXNXNX/.O O O O O O O O O O O O O O O     ",
"    Q Q Q Q Q Q Q Q Q Q Q Q Q Q ` 2XNXNXNXNXNXNXNXNXNX`.&.R ` 2.;XNXNXNXNXNXNXb.p X O b oXNXNXNXNXNXNXNXNXNXoX1 O O O O O O O O O O O O O O     ",
"    Q Q Q Q Q Q Q Q Q Q Q Q Q R @.5XNXNXNXNXNXNXNXNXNXNX;X!.`.7XNXNXNXNXNXNXNXcX[.f.b.2XNXNXNXNXNXNXNXNXNXNX*Xp o O O O O O O O O O O O O O     ",
"    Q Q Q Q Q Q Q Q Q Q Q Q Q R ,.wXNXNXNXNXNXNXNXNXNXNXNXNXNXNXNXNXNXNXNXNXNXNXNXNXNXNXNXNXNXNXcXNXNXNXNXNX2Xg X O O O O O O O O O O O O O     ",
"    Q Q Q Q Q Q Q Q Q Q Q Q Q R 2.wXNXNXNXNXNXuX%XwXNXNXNXNXNXNXNXNXNXNXNXNXNXNXNXNXNXNXNXNXwX`.;XNXNXNXNXNX5Xl X O O O O O O O O O O O O O     ",
"    Q Q Q Q Q Q Q Q Q Q Q Q Q Q @.2XNXNXNXNXNXNX%Xb.R.2XcXNXNXNXNXNXNXNXNXNXNXNXNXNXNXNX5XG.:.G.cXNXNXNXNXNX%Xp X O O O O O O O O O O O O O     ",
"    Q Q Q Q Q Q Q Q Q Q Q Q Q Q Q z.dXNXNXNXNXNXNX5XG.2.f.!.;XuXcXcXNXNXNXNXNXcXdXwX!.=.b | /.NXNXNXNXNXNXuX| O O O O O O O O O O O O O O O     ",
"    Q Q Q Q Q Q Q Q Q Q Q Q Q Q Q ` z.wXNXNXNXNXNXNXcX2X8.0 1 g | 8.j.G.P.G.f.:.H p 1 Y Y.dXNXNXNXNXNXNX5X@.O O O O O O O O O O O O O O O O     ",
"    Q Q Q Q Q Q Q Q Q Q Q Q Q Q Q Q Q 8.[.kXNXNXNXNXNXcX8.; o O O O O O O O O O O X ; u.cXNXNXNXNXNXdX!.Z O O O O O O O O O O O O O O O O O     ",
"    Q Q Q Q Q Q Q Q Q Q Q Q Q Q Q Q Q R | u.`.wXcXcXcXP.4 X O O O O O O O O O O O O X 4 P.cXcXdX5XG.T 5 X O O O O O O O O O O O O O O O O O     ",
"    Q Q Q Q Q Q Q Q Q Q Q Q Q Q Q Q Q Q R R ` @.7.u.:.5 o O O O O O O O O O O O O O O o p :.@.b 5 ; X X O O O O O O O O O O O O O O O O O O     ",
"    Q Q Q Q Q Q Q Q Q Q Q Q Q Q Q Q Q Q Q Q Q R s O O O O O O O O O O O O O O O O O O O O O O O O O O O O O O O O O O O O O O O O O O O O O     ",
"    Q Q Q Q Q Q Q Q Q Q Q Q Q Q Q Q Q Q Q Q L s O O O O O O O O O O O O O O O O O O O O O O O O O O O O O O O O O O O O O O O O O O O O O O     ",
"    Q Q Q Q Q Q Q Q Q Q Q Q Q Q Q Q Q Q Q H p O O O O O O O O O O O O O O O O O O O O O O O O O O O O O O O O O O O O O O O O O O O O O O O     ",
"    Q Q Q Q Q Q Q Q Q Q Q Q Q Q Q Q Q Q H 0 O O O O O O O O O O O O O O O O O O O O O O O O O O O O O O O O O O O O O O O O O O O O O O O O     ",
"    Q Q Q Q Q Q Q Q Q Q Q Q Q Q Q Q Q Z 5 O O O O O O O O O O O O O O O O O O O O O O O O O O O O O O O O O O O O O O O O O O O O O O O O O     ",
"    Q Q Q Q Q Q Q Q Q Q Q Q Q Q Q Q b 4 O O O O O O O O O O O O O O O O O O O O O O O O O O O O O O O O O O O O O O O O O O O O O O O O O O     ",
"    Q Q Q Q Q Q Q Q Q Q Q Q Q Q Q b 1 O O O O O O O O O O O O O O O O O O O O O O O O O O O O O O O O O O O O O O O O O O O O O O O O O O O     ",
"    Q Q Q Q Q Q Q Q Q Q Q Q Q Q b 1 O O O O O O O O O O O O O O O O O O O O O O O O O O O O O O O O O O O O O O O O O O O O O O O O O O O O     ",
"    Q Q Q Q Q Q Q Q Q Q Q Q Q `                                                                                                                 ",
"    Q Q Q Q Q Q Q Q Q Q Q Q Q                                                                                                                   ",
"    Q Q Q Q Q Q Q Q Q Q Q Q                                                                                                                     ",
"    Q Q Q Q Q Q Q Q Q Q                                                                                                                         ",
"    Q Q Q Q Q Q Q Q Q                                                                                                                           ",
"    Q Q Q Q Q Q Q Q                                                                                                                             ",
"    Q Q Q Q Q Q Q                                                                                                                               ",
"    Q Q Q Q Q Q                                                                                                                                 ",
"    Q Q Q Q Q                                                                                                                                   ",
"    Q Q Q Q                                                                                                                                     ",
"    Q Q Q                                                                                                                                       ",
"  Q Q Q                                                                                                                                         ",
"    Q                                                                                                                                           ",
"                                                                                                                                                ",
"                                                                                                                                                "
};
