/* XPM */
static char *nixos[] = {
/* columns rows colors chars-per-pixel */
"72 72 132 2 ",
"   c None",
".  c #3F3A37",
"X  c #3E3A38",
"o  c #453737",
"O  c #4C3736",
"+  c #433D37",
"@  c #4A3936",
"#  c #523736",
"$  c #5B3634",
"%  c #523835",
"&  c #7C312F",
"*  c #643433",
"=  c #6B3432",
"-  c #733331",
";  c #7A3230",
":  c #5F5C2F",
">  c #464236",
",  c #494535",
"<  c #4D4A34",
"1  c #514E33",
"2  c #555332",
"3  c #595630",
"4  c #5D5A30",
"5  c #615E2E",
"6  c #65632E",
"7  c #69662D",
"8  c #6C6A2B",
"9  c #716E29",
"0  c #787627",
"q  c #7C7A26",
"w  c #757329",
"e  c #787728",
"r  c #7B7928",
"t  c #8D2F2C",
"y  c #942E2B",
"u  c #9B2D29",
"i  c #84302E",
"p  c #8A302D",
"a  c #A62B27",
"s  c #AC2B26",
"d  c #A22C28",
"f  c #A32C28",
"g  c #A12D29",
"h  c #A42D29",
"j  c #A82B28",
"k  c #A82C28",
"l  c #A82C28",
"z  c #BC2721",
"x  c #BE2721",
"c  c #B62823",
"v  c #B22924",
"b  c #B32924",
"n  c #B62924",
"m  c #B42924",
"M  c #B82823",
"N  c #B92823",
"B  c #BD2822",
"V  c #BA2822",
"C  c #C3261F",
"Z  c #C7251F",
"A  c #C4261F",
"S  c #C5261F",
"D  c #C6261F",
"F  c #C7261F",
"G  c #C5251F",
"H  c #C8251E",
"J  c #C9251E",
"K  c #C8251F",
"L  c #C9251F",
"P  c #CB241E",
"I  c #CA251E",
"U  c #CB251E",
"Y  c #CC241D",
"T  c #CD241D",
"R  c #CC241D",
"E  c #C02620",
"W  c #C12620",
"Q  c #C02721",
"!  c #C12721",
"~  c #C22620",
"^  c #C22721",
"/  c #C42620",
"(  c #C32620",
")  c #817F24",
"_  c #817F25",
"`  c #807E25",
"'  c #8D8C1F",
"]  c #8F8E1E",
"[  c #8F8E1F",
"{  c #8E8D1F",
"}  c #908F1E",
"|  c #918F1E",
" . c #908F1E",
".. c #96951B",
"X. c #97961B",
"o. c #92911D",
"O. c #93911D",
"+. c #93921D",
"@. c #91901E",
"#. c #94931C",
"$. c #94921D",
"%. c #94931D",
"&. c #95941C",
"*. c #96951C",
"=. c #94931D",
"-. c #98971A",
";. c #98961B",
":. c #98971A",
">. c #9A9919",
",. c #98981A",
"<. c #99981A",
"1. c #99981A",
"2. c #838123",
"3. c #848223",
"4. c #848323",
"5. c #858323",
"6. c #858423",
"7. c #868522",
"8. c #878522",
"9. c #868423",
"0. c #838224",
"q. c #848323",
"w. c #888622",
"e. c #888721",
"r. c #898821",
"t. c #8A8921",
"y. c #8B8A20",
"u. c #8B8A21",
"i. c #8C8A20",
"p. c #8C8B20",
"a. c #8D8B20",
"s. c #8B8A21",
/* pixels */
"                                                                                                                                                ",
"                                                                                                                                                ",
"                                                                                                                                                ",
"                                                                                                                                                ",
"                                                                                                                                                ",
"                                                                                                                                                ",
"                                    $ & & & $                   + < 5 5 5 5 5 : <                 2 5 5 4 >                                     ",
"                                  O u P P P u #                   4 } -.....-.&.8 +             < 0.-.-.@.6                                     ",
"                                  ; Q Y Y Y / ;                   , 0 <.-.-.-.<.u.2           + 8 ..-.-.-.7.<                                   ",
"                                @ u Y Y Y Y Y j $                   3 p.<.-.-.-.-.0 >         2 p.-.-.-.-.&.6                                   ",
"                                  ; A Y Y Y Y P i                   + 9 ..-.-.-.-.} 4       > 0 -.-.-.-.-.] 2                                   ",
"                                  # g Y Y Y Y Y b *                   1 w.-.-.-.-.-.q ,     4 } <.-.-.-...8 +                                   ",
"                                    = Q Y Y Y Y P y @                   6 &.-.-.-.-.@.6 X , q <.-.-.-.<.7.1                                     ",
"                                    O y P Y Y Y Y B =                   < q <.-.-.-.<.4.< 6 %.-.-.-.-.%.6                                       ",
"                                      * c Y Y Y Y Y u O                   : } <.-.-.-...) p.-.-.-.-.<.q ,                                       ",
"                                      o p P Y Y Y Y / ;                   > 0 -.-.-.-.-.-.-.-.-.-.-.} 4                                         ",
"                                        $ s Y Y Y Y Y j $                   2 p.-.-.-.-.-.-.-.-.-.-.w >                                         ",
"                        * = = = = = = = = g Y Y Y Y Y A t = = = = = = = = * o 8 ..-.-.-.-.-.-.-.<.u.2                                           ",
"                      * b A C C C C C C A P Y Y Y Y Y Y P C C C C C C C C N = < 4.<.-.-.-.-.-.-.&.8 +                 o o                       ",
"                    O y P Y Y Y Y Y Y Y Y Y Y Y Y Y Y Y Y Y Y Y Y Y Y Y Y Y g O 6 %.-.-.-.-.-.<.2.1                   * =                       ",
"                    = z Y Y Y Y Y Y Y Y Y Y Y Y Y Y Y Y Y Y Y Y Y Y Y Y Y P A ; , q <.-.-.-.-...7                   O u j $                     ",
"                  # u Y Y Y Y Y Y Y Y Y Y Y Y Y Y Y Y Y Y Y Y Y Y Y Y Y Y Y Y s $ 3 @.-.-.-.-...9 +                 ; Q P i                     ",
"                  ; / Y Y Y Y Y Y Y Y Y Y Y Y Y Y Y Y Y Y Y Y Y Y Y Y Y Y Y Y P p @ w -.-.-.-.<.p.3               $ f Y Y n *                   ",
"                O i j k k k k k k k k k j j j j j j j j j k k k k k k k k k k j y $ 2 u.<.-.-.-.-.0 ,             & A Y Y P y O                 ",
"                o O # # # # # # # # # O @ @ @ @ @ @ @ @ @ O # # # # # # # # # # O o + 8 ..-.-.-.-.@.:           $ b Y Y Y Y Q =                 ",
"                                        1 8 9 9 9 9 8 3 +                             1 4.<.-.-.-.-.) <       o t P Y Y Y Y Q -                 ",
"                                      > w <.<.<.<.<.] 3                                 6 %.-.-.-.-.&.7       = N Y Y Y Y Y u O                 ",
"                                      4 ] <.-.-.-...8 +                                 , q -.-.-.-.<.7.1   O u P Y Y Y Y N *                   ",
"                                    , q <.-.-.-.<.7.1                                     4 ] -.-.-.-...8 X ; Q Y Y Y Y P t @                   ",
"                                    6 %.-.-.-.-.%.6                                       > w -.-.-.<.@.5 O j Y Y Y Y Y s $                     ",
"                                  < 7.-.-.-.-.-.q ,                                         2 u.<.-.-.q , i P Y Y Y Y A &                       ",
"                                + 8 ..-.-.-.-.@.4                                           + 8 ..-.] 2 $ b Y Y Y Y Y h #                       ",
"      + > > > >               + 3 u.<.-.-.-.-.0 >                                             < 2.-.w @ t P Y Y Y Y A & O # # # O O O O         ",
"    + 6 q q r 0 0 0 0 0 0 0 0 0 4.-.-.-.-.<.u.2                                                 6 q.1 * B Y Y Y Y Y P b k k k h h g g g -       ",
"    2 p.-.-.-.-.-.-.-.-.-.-.-.-.-.-.-.-.-...8 +                                                 , 2 @ u Y Y Y Y Y Y Y Y Y Y Y Y Y Y Y Y s $     ",
"  > 0 -.-.-.-.-.-.-.-.-.-.-.-.-.-.-.-.-.<.4.1                                                     o ; / Y Y Y Y Y Y Y Y Y Y Y Y Y Y Y Y P p o   ",
"  1 7.<.-.-.-.-.-.-.-.-.-.-.-.-.-.-.-.-.%.6 .                                                     $ j Y Y Y Y Y Y Y Y Y Y Y Y Y Y Y Y Y Y u O   ",
"  + 8 ..-.-.-.-.-.-.-.-.-.-.-.-.-.-.-.-.q , O                                                     i A Y Y Y Y Y Y Y Y Y Y Y Y Y Y Y Y Y z =     ",
"    < 4.%.%.%.%.%.%.%.&...-.-.-.-.-.<.} 3 $ i $                                                 * b Y P Y Y Y A A C A A A A A A A A A A y O     ",
"      3 6 6 6 6 6 6 6 6 q -.-.-.-.-.-.w @ t / &                                               O y P Y P Y Y z i = - - ; ; ; ; ; ; ; ; ; $       ",
"                      > e -.-.-.-.<.u.2 * N Y s $                                             = z Y Y Y Y P y O                                 ",
"                      4 @.-.-.-.-...8 @ u Y Y P p o                                         # u Y Y Y Y Y c *                                   ",
"                    < ) <.-.-.-.-.7., - Q Y Y Y N *                                         ; Q Y Y Y Y P i o                                   ",
"                    7 %.-.-.-.-.@.5 O u Y Y Y Y P y O                                     $ j Y Y Y Y Y j $                                     ",
"                  1 7.<.-.-.-.<.q , o y P Y Y Y Y Q -                                   o i P Y Y Y Y Q &                                       ",
"                + 9 ..-.-.-.<.] 3     * b Y Y Y Y Y f $                                 * c Y Y Y Y Y u #                                       ",
"                3 ] -.-.-.-...w >       i A Y Y Y Y A &                               @ p Q / / / / N =                                         ",
"              + 9 -.-.-.-.-.u.1         $ j Y Y Y Y Y s $                             o $ * * * * * * o                                         ",
"                4 } -.-.-...8 +           ; Q Y Y Y Y P t o , 3 3 3 3 3 3 3 3 3 3 3 3 2 2 2 2 2 2 2 2 3 3 3 3 3 3 3 3 3 3 3 < +                 ",
"                > w -.-.<.0.<             # u Y Y Y Y Y N * 1 9.@.@.@.@.@.@.@.@.@.@.@.@.@.@.@.@.@.@.@.@.@.@.@.@.@.@.@.@.@.a.4                   ",
"                  2 u.<.@.6                 = N Y Y Y Y Y u O 8 ..<.-.-.-.-.-.-.-.-.-.-.-.-.-.-.-.-.-.-.-.-.-.-.-.-.-.-.<.q ,                   ",
"                  + 8 &.q ,                 O u Y Y Y Y Y Q - < 4.<.-.-.-.-.-.-.-.-.-.-.-.-.-.-.-.-.-.-.-.-.-.-.-.-.-.<.] 3                     ",
"                    < 0 3                   $ a Y Y Y Y Y Y a % 5 %.-.-.-.-.-.-.-.-.-.-.-.-.-.-.-.-.-.-.-.-.-.-.-.-.-...w >                     ",
"                      < +                   & A Y Y Y Y Y Y A & , q <.<.<.<.<.<.<.<.<.<.-.-.-.-.-.-.<.<.<.<.<.<.<.<.<.u.1                       ",
"                                          $ b Y Y Y Y Y Y Y Y b $ 2 q q q q q q q q q ] <.-.-.-.-.-.7.q q q q q q q q 6 +                       ",
"                                        @ p P Y Y Y Y Y Y Y Y P t o + + + + + + + + + 7 &.-.-.-.-...6 + + + + + + + + +                         ",
"                                        = N Y Y Y Y Y Y Y Y Y Y B =                   < 0.<.-.-.-.-.4.<                                         ",
"                                      O u Y Y Y Y Y P P Y Y Y Y Y u #                   5 @.-.-.-.-...8 +                                       ",
"                                      ; Q Y Y Y Y P y y P Y Y Y Y Q ;                   > q -.-.-.-.<.w.2                                       ",
"                                    $ a Y Y Y Y Y b $ $ b Y Y Y Y Y a $                   3 ] <.-.-.-...w >                                     ",
"                                    i P Y Y Y Y A &     & A Y Y Y Y P i                   > 9 ..-.-.-.<.] 3                                     ",
"                                  * n Y Y Y Y Y a $     $ a Y Y Y Y Y n *                   2 w.<.-.-.-.-.q ,                                   ",
"                                o t P Y Y Y Y Q -         - Q Y Y P Y P y O                   8 &.-.-.-.-.@.5                                   ",
"                                o p P Y Y Y P y O         O u P Y Y Y Y z =                   , 0.-.-.-.-.@.4                                   ",
"                                  $ b Y Y Y c *             * N Y Y Y P Y u #                   5 @.<.-.-.e >                                   ",
"                                    ; b n n i o             @ i c n b b n j *                   , w u.w.0.2                                     ",
"                                    o $ $ $ O                 O $ $ $ $ $ $ O                     > , , ,                                       ",
"                                                                                                                                                ",
"                                                                                                                                                ",
"                                                                                                                                                ",
"                                                                                                                                                ",
"                                                                                                                                                "
};
