/* XPM */
static char *Thunar[] = {
/* columns rows colors chars-per-pixel */
"72 72 41 1 ",
"  c None",
". c #5B9BE4",
"X c #5B9CE4",
"o c #5C9CE4",
"O c #5D9CE4",
"+ c #5D9DE4",
"@ c #5E9DE4",
"# c #5F9DE4",
"$ c #609EE5",
"% c #63A0E4",
"& c #64A0E4",
"* c #65A1E4",
"= c #67A2E4",
"- c #68A2E4",
"; c #6CA5E4",
": c #6DA5E4",
"> c #6EA5E4",
", c #74A9E5",
"< c #7CADE4",
"1 c #80AFE4",
"2 c #81B0E4",
"3 c #87B3E4",
"4 c #8CB5E4",
"5 c #8CB6E4",
"6 c #A0C0E5",
"7 c #A0C1E5",
"8 c #AAC6E5",
"9 c #B5CBE5",
"0 c #C5D4E4",
"q c #C6D5E5",
"w c #D3DBE5",
"e c #D3DCE5",
"r c #D5DCE5",
"t c #D9DFE5",
"y c #DADFE5",
"u c #DDE1E5",
"i c #DEE1E5",
"p c #E2E3E5",
"a c #E3E4E5",
"s c gray90",
"d c #E6E6E5",
/* pixels */
"                                                                        ",
"                                                                        ",
"                                                                        ",
"                                                                        ",
"                                                                        ",
"                                                                        ",
"                                                                        ",
"                                                                        ",
"                                                                        ",
"  sssssssssssssssssssssss                                               ",
"  ssssssssssssssssssssssss                                              ",
" sssssssssssssssssssssssss                                              ",
" ssssssssssssssssssssssssss                                             ",
" sssssssssssssssssssssssssss                                            ",
" sssssssssssssssssssssssssss                                            ",
" ssssssssssssssssssssssssssssssssssssssssssssssssssssssssssssssssss     ",
" ssssssssssssssssssssssssssssssssssssssssssssssssssssssssssssssssss     ",
" ssssssssssssssssssssssssssssuttttttttttttttttttttttttttttttttttttu     ",
" sssssssssssssssssssssssssssw3=------------------------=---------=2     ",
" ssssssssssssssssssssssssssp7OXOOOOOOOOXOOOOOOOOOOOOOOOOOOOOOOOOOXO=    ",
" ssssssssssssssssssssssssss0>.OOOOOOOOOOOOOOOOOOOOOOOOOOOOOOOOOOOOOO    ",
" sssssssssssssssssssssssssu5OOOOOOOOOOOOOOOOOOOOOOOOOOOOOOOOOOOOOOOO    ",
" sssssssssssssssssssssssss9%OOXXOOOOOOOOOOOOOOXOOOOOOOOOOOOOOOOOOOOO    ",
" sssssssssssssssssssssssse<.OOOOOOOOOOOOOOOOOOXOOOOOOOOOXOOOOOOOOOOO    ",
" sssssssssssssssssssssssa7OOOOOOOOOOXOOOOOOOOXOOXOOOOXOOOOOOXOOOOOOO    ",
" sssssssssssssssssssssss0>.OOOOOOOOOOOOOOOOOOOOOOOOOOXOOOOOOXXOOOOOO    ",
" auttttttttttttttttttttr5OOOOOOXOOOOOOOOOOOOOOOOOOOOOOOOOOOOOOOOOOOO    ",
" 81=-------------------=OOOOOOOXOOOOOOOOOOOXOOOOOOOOOOOOOOOOOOOOOOOO    ",
" =OXOOOOOOOOOOOOOOOOOOOOOOOOOOOOOOOOOXOOOOOXOOOOOOOOOOOOOOOXOXOOOOOO    ",
" OOOOOOOOOOOOOOOOOOOOOOOOOOOOOOOOOOXXXOOOOOOOOOOOOOOOOOOOOOXOOOOOOOO    ",
" OOOOOOOOOOOOOOOOOOOOOOOOOOOOOOOOOOOOOOOOOOOOXOOOOOOXXOOOOOOOOOOOOOO    ",
" OOOOOOOOOOOOOOOOOOOOOOOOOOOOOOOOOOOOOOOOOOOOXOOOXXOOOOOOOOOOOOOOOOO    ",
" OOOOOOOOOXOOOOXOOOOOOOOOOOOOOOOOOOOOOOOOOXOOOXXOOOOOOOOOOOOOOOOOOOO    ",
" OOOOOOOOOXOOOOOOOOXOOOOOOOOOOOOOOOOOOXOOOXOOOOOOOOOOOOOOOOOOOXOOOOO    ",
" OOOXOOOOOOOOOOOOOOXOOXOOOOOXXOOOOOOOOXOOOOOOOOOOOOOOOOOOOOOOOOOOOOO    ",
" OOOOOOOOOOOOOOOOOOOOOXOXXOOOOOOXXOOOOOOOOOOOOOOOOOOOXXOXXOOOOOOOOOO    ",
" OOOXXOOOOOOOOOOOOOXOOOOOOOOXXOOOOOOOOOOXXOOOXOOXOOOOXOOXOOOOOOOOOOO    ",
" OOOOOOOOOOOOOOOOOOXOOOOOOOOOOOOXOOOOOOOOOOOOOOOOOOOOXOOXOOOOOOOOOOO    ",
" OOOOOOOOOXXOOOOOOOOOOOOOOOOOOOOOOOOOOOXOOOOOOOOOOOOOOOOOOOOOOXXOOOO    ",
" OOOOOOOOOOOOXXOOOOOOOOXOOOOOOOOOOOOOOOXOOOOOOOOOOOOOOOOOOOOOOOOOOOO    ",
" OOOOOOOOOOOOXOOOOOOOOOOOOOOOOOOOOOOOOOOOOOOOOOOOOOXOOOOOOOOOOOOOOOO    ",
" OOOOOOOOOOOOXOOOOOOOOOOOXOOOOOOOOOOOOOOOXOOOXOOOOOOOOOXOOXXOOOOOOOO    ",
" OOOOOOOOOOOOOOOOXOOOOXXOXOOOOOOOXOOOOOXOOOOOXOOOOOOOOOXOOOOXOOOOOOO    ",
" OOOOOOOOOOXOOOOOOOOOOOOOOOOOOXOOXOOOOOXOOOOOOOOOOOOOOOOOOOOOOOOOOOO    ",
" OOOOOOOOOOXOOOOOOOOOOOOOOOOOOOOOOXXOOOOOOOOOOOOOOOOOOOOOOOOOOOOOOOO    ",
" OOOOOOOOOOOOOOOOOOOOOOOOOOOOOOXOOOOOOOOXOOOOOOOOOXXOOOOOOOOOOOOOOOO    ",
" OOXOOOOOOOOOOOOXXOOOOOOXOOOOOOXOOOOOOOOXOOOOOOOOOOOOOXXOOOOOOOOOOOO    ",
" OOXOOOOOOOOOXOOOOOOOOXXXOOOOOOOOOOOOOOOOOOOXXOOOOOOOOOOOOOXXOOOOOOO    ",
" OOOOOOOXOOOOOXXOXOOOOOOOOOOOOOOOOOOOOOOOOOOXXOOOOOOOOOOOOOXXOOOOOOO    ",
" OOOOOOOXOOOOOOOOOOOOOXXOOOOOOOOOOOOOOOOXOOOOOOOOOOOOOXXOOOOOOOOOOOO    ",
" OOOOOOOOOOOOOOOOOOOOOOOXOOOOOXOOOOOOOOOXOOOOOOOOOXXOOOOOOOOOOOOOOOO    ",
" OOOOOOOOOOOOOOOOOOOOOOOXOOOOOOOOOXXOOOOOOOOOOOOOOOOOOOOOOOOOOOOOOOO    ",
" OOOOOOOOOOOOOOOXOOOOOOOOOOOXXOOOXOOOOOXOOOOOOOOOOOOOOOOOOOOOOOOOOOO    ",
" OOOOOOOOXOOOOXXXOOOOXXOOOOOOOOOOXOOOOOOOOOOOXOOOOOOOOOXOOOOXXOOOOOO    ",
" OOOOOOOOOOOOOOOOOOOOOOOOOOOOOOOOOOOOOOOXXOOOOOOOOOXOOOOOOOXOOOOOOOO    ",
" OOOOOOOOOOOOOOOOOOOOOOOOOOOOOOOOOOOOOOOOOOOOOOOOOOXOOOOOOOOOOOOOOOO    ",
" OOOOOOOOOOOOOOOOOOOOOOOOOOOOOOOOOOOOOOOOOOOOOOOOOOOOOOOOOOOOOOOOOOO    ",
" OOOOOOOOOOOOOOOOOOOOOOOOOOOOOOOOOOOOOOXOOOOOOOOOOOOOOOOOOOOOOXXOOOO    ",
" OXXOOOOOOOOOOOOOOOOOOOOOOOOOXOOXOOOOOOOOOOOOXOOOOOOOXOOXOOOOOOOOOOO    ",
" OOOOOXXOOXXOXXOOXOOXXOOXXOOOOOOXOOOOOOOXXOOOXOOXOOOOXOOXOOOOOOOOOOO    ",
" OOOOOOOOOOOOOOOOOOOOOOOOOOOOXXOXXOOOOOOOOOOOOOOXOOOOXXOXOOOOOOOOOOO    ",
" OOOOOOOOOOOOOOOOOOOOOOOOOOOOOOOOOOOOOXOOOOOOOOOOOOOOOOOOOOOOOOOOOOO    ",
" OOOOOOOOOOOXXOOOOXOOOOOOOOOOOOOOOOOOOXOOOXOOOOOOOOOOOOOOOOOOOXXOOO     ",
" OOOOOOOXOOOOOOOOOXOOOXXOOOOOOOOOOOOOOOOOOXOOOXOOOOOOOOOOOOOOOOOOOOO    ",
" $OOOOOOOOOOOOOOOOOOOOOOOOOOOOOOOOOOOOOOOOOOOOOOOOOOOOOOOOOOOOOOOOO     ",
"  ,>>>>>>>>>>>>>>>>>>>>>>>>>>>>>>>>>>>>>>>>>>>>>>>>>>>>>>>>>>>>>>>=     ",
"                                                                        ",
"                                                                        ",
"                                                                        ",
"                                                                        ",
"                                                                        ",
"                                                                        "
};
