/* XPM */
static char *_a575f3da0e24718c2d7c13e957ec0d12n8SCOW7PmYbIeAF[] = {
/* columns rows colors chars-per-pixel */
"48 48 151 2 ",
"   c None",
".  c #0E599D",
"X  c #145C9E",
"o  c #185F9F",
"O  c #1E608F",
"+  c #1E6392",
"@  c #206695",
"#  c #236897",
"$  c #236B9B",
"%  c #28709F",
"&  c #1C62A1",
"*  c #2266A3",
"=  c #256BA3",
"-  c #296BA4",
";  c #2473A5",
":  c #2973A3",
">  c #2475AB",
",  c #2B77A8",
"<  c #2B78A9",
"1  c #367AA7",
"2  c #347AA8",
"3  c #397EAB",
"4  c #116DC2",
"5  c #1573C9",
"6  c #1A76CB",
"7  c #1D79CC",
"8  c #167EDE",
"9  c #187FDE",
"0  c #247ECE",
"q  c #297FCB",
"w  c #257FD0",
"e  c #3A81AF",
"r  c #5C8DAF",
"t  c #4F8BB2",
"y  c #5F96BA",
"u  c #649BBE",
"i  c #1C82DE",
"p  c #2780CF",
"a  c #2D82CD",
"s  c #3386CE",
"d  c #3688CF",
"f  c #3989CF",
"g  c #2581D5",
"h  c #2B84D3",
"j  c #2F88D6",
"k  c #2384DC",
"l  c #2A87DA",
"z  c #2788DF",
"x  c #2C89DC",
"c  c #3186D2",
"v  c #3489D4",
"b  c #3C8DD2",
"n  c #348DDB",
"m  c #398FD9",
"M  c #3F90D6",
"N  c #3790DE",
"B  c #3C92DC",
"V  c #1E83E0",
"C  c #2286E1",
"Z  c #2689E2",
"A  c #2C8CE3",
"S  c #318FE2",
"D  c #2F90E6",
"F  c #3492E5",
"G  c #3A95E4",
"H  c #3795E8",
"J  c #3A97E8",
"K  c #3D99E9",
"L  c #418FD2",
"P  c #4492D5",
"I  c #4B95D5",
"U  c #4E98D7",
"Y  c #4294DA",
"T  c #4598DE",
"R  c #4A99DC",
"E  c #5097D4",
"W  c #549AD6",
"Q  c #589DD7",
"!  c #519DDD",
"~  c #659DC1",
"^  c #58A1DE",
"/  c #74AEDE",
"(  c #4197E1",
")  c #4398E0",
"_  c #439DEA",
"`  c #489FE9",
"'  c #47A0EB",
"]  c #4BA3EC",
"[  c #52A6ED",
"{  c #54A9EF",
"}  c #56AAF0",
"|  c #6DAEE2",
" . c #7BB6E6",
".. c #76B7EB",
"X. c #79B6EA",
"o. c #7FB9EA",
"O. c #8AADC5",
"+. c #83B0CF",
"@. c #8BB1CC",
"#. c #8FB6D0",
"$. c #90B7D0",
"%. c #82BBEB",
"&. c #81BBEA",
"*. c #83BCEB",
"=. c #85BDEC",
"-. c #BBCFDD",
";. c #BDD1DF",
":. c #BDD2DF",
">. c #8FC3EF",
",. c #BDD2E0",
"<. c #BDD3E1",
"1. c #BED5E3",
"2. c #BED4E3",
"3. c #BDD4E2",
"4. c #DDEAF6",
"5. c #E1EBF3",
"6. c #E2EBF3",
"7. c #E1EBF4",
"8. c #E2EBF4",
"9. c #E2ECF4",
"0. c #E1EDF6",
"q. c #E4EDF5",
"w. c #E9F0F6",
"e. c #EAF0F6",
"r. c #EAF0F5",
"t. c #ECF2F7",
"y. c gray96",
"u. c #F6F5F5",
"i. c #F6F6F6",
"p. c #F7F6F6",
"a. c gray97",
"s. c #F7F7F6",
"d. c #F8F7F6",
"f. c #F8F7F7",
"g. c #F8F8F7",
"h. c #F9F8F7",
"j. c #F8F8F8",
"k. c #F9F9F8",
"l. c #F9F9F9",
"z. c #F9F8F8",
"x. c #FAF8F8",
"c. c #FAF9F8",
"v. c #FAF9F9",
"b. c #FBFAF9",
"n. c #FAFAF9",
"m. c #FDFBF9",
"M. c #FCFBFA",
"N. c #FDFBFB",
"B. c #FDFCFB",
"V. c #FEFCFA",
"C. c #FFFDFC",
/* pixels */
"                                                                                                ",
"                                                                                                ",
"                                                                                                ",
"                                                                                                ",
"        O O O + + $ + + $ + $ + $ $ + ;                                                         ",
"      O O + O + + + + # + + $ $ + $ $ ; $ 1                                                     ",
"      O O O @ O $ + $ + $ + $ + $ $ $ + $ % t                                                   ",
"      O + O @ + + + + + $ $ $ + $ $ ; $ $ ; 1 y u   u u u u ~ ~ ~ ~ ~ ~ ~ ~ ~ ~ ~ ~ ~ ~         ",
"      + O O @ O @ @ @ @ @ # # $ $ $ $ $ $ ; $ 1 3 3 3 3 3 e e e e e e e e e e e e e e e e       ",
"      O @ O @ @ @ @ @ @ # @ + = $ $ $ $ $ $ ; ; % ; ; ; ; ; ; ; ; > ; ; ; ; ; > ; ; ; > >       ",
"      + @ @ # # % # # # % % = $ ; % : ; : : : : : : , , < < < < < < < < < < < < < < < ; ;       ",
"      + r -.;.;.;.;.;.,.:.;.<.,.;.;.,.,.3.3.,.3.3.3.1.1.3.1.1.3.1.1.1.1.1.1.1.1.1.3.3.u ;       ",
"      + O.m.f.f.x.x.f.f.f.m.x.x.m.l.h.l.l.m.l.l.m.l.V.l.V.m.l.V.C.M.M.C.M.C.M.C.C.V.C.$.;       ",
"      + O.s.y.y.u.u.u.u.s.s.i.i.s.s.f.f.j.i.l.s.a.j.l.j.l.l.j.l.l.l.l.l.j.l.j.l.l.l.V.#.;       ",
"      + O.s.s.y.u.u.u.s.s.y.s.y.s.s.s.i.i.j.i.s.a.l.j.j.j.j.j.l.l.l.l.l.l.l.l.l.l.l.n.#.;       ",
"      + O.s.y.y.u.u.u.u.y.s.y.s.s.s.i.j.j.i.j.s.a.l.j.j.j.j.j.l.l.l.l.l.l.l.l.l.l.l.V.#.;       ",
"      + O.s.y.y.y.y.y.a.y.s.y.s.s.i.i.i.h.h.a.h.h.h.g.g.k.g.n.n.m.m.l.m.l.m.x.x.m.l.m.$.;       ",
"      + O.s.y.y.y.y.a.y.s.y.s.s.s.i.x.e.6.6.6.6.6.6.6.6.6.6.6.0.6.6.8.8.8.8.5.5.8.8.q.+.,       ",
"      + O.s.s.y.y.y.y.a.y.s.s.s.x.x.4./ Q Q Q Q Q Q W Q W W W E E E I I I I I I I I I f q q     ",
"      + O.s.s.s.y.y.a.y.s.y.s.s.x.0. .L L P f P f M f f b f f f d d d s d s s s s a s a s s     ",
"      , @.t.w.q.r.r.r.r.r.r.r.r.4.>.I P L L P f b b f M f f f f d d s d s d s s a s q s q q     ",
"    ..| | >.>.o.*.*.*.*.o.o.o.o.X.^ L L L b f P b b f f f f f f d d d s s a s s s q s s q q     ",
"    } ! U I I I I I P P P P P I P L L L f L f f b f f f d d d d d s s s s a a a q q q q q q     ",
"    } [ ! U P I P I P P P P P b b L L b L b f L b f d d d d d c s s s s s a s a q s q q q q     ",
"    } } ] R I I I P P P P M P P b b M M b b f M f f f f d d d c s a s s a a a a a a a q 0 q     ",
"    [ } [ ] R P R P Y I P P M M P M M v M v M v f b v M v v d c s s a j a a a p a p q p q w     ",
"    { [ [ [ ] R Y P P Y M Y M P M M M M M v v M M v v v v c j c s j c j j a j a p h p p w w     ",
"    [ [ ] ] ] ] R Y T Y M Y B Y M M M M v M M v v v v v v v c j j j j h j p p h w h p g g w     ",
"    { ] ] [ ] ] ' B Y B Y T T B B M B M v B N n N v v v v j v j v j h j h h h h h g h g w w     ",
"    ] ] ] ] ] ] ' ' T T B B B B B B B B B B v B n n N j N j j x l j l h l l g l g g g w k w     ",
"    ] ] ] ] ' ' ' ' ' T T B B B B B N B n v N n n n j N x j x j n l h l l l l g g g k g i g     ",
"    ] ] ] ' ' ' ' _ _ ' B K G B G N N N N N N n N N N x N N x x l l l l l l g k l k g k w k     ",
"    ] ] ' ' ' ' _ _ _ K _ J G G B G F N F m N n S n n A x A n x x x l l l k l k k k k 9 g k     ",
"    ' ' ' ' _ _ _ _ _ _ K K G G G G B F F F F n F S n A n A A x A z z A z k z k k k k k k 9     ",
"    ' ' _ _ _ _ _ _ K K J _ G G G F H F F N S F S F A A A A A Z l z z z Z z k k k k i i k i     ",
"    ' _ ' _ K _ K K K K J J J J H H F F F F F S S A S S A A Z A Z A Z z Z C C C i C i k i i     ",
"    ' _ _ K K _ K K K J J J J J H F F H F F F A A F A A A A A A Z Z Z Z Z C C C V V V i i i     ",
"    _ _ K _ K K K K J J G J H H H F F F D D F F A A A A A A C A Z Z C C C C C C V i V i i 9     ",
"    _ K K _ K K K J G J H H H H F F F D D A D A A A A A Z A Z Z Z Z C C C C V V i V i i 9 i     ",
"    K _ K K K K J J G F H H H S F F D F F A A A A A A Z Z Z Z C Z C C C V V i i V i 9 i 9 9     ",
"    _ K K J J J G H H H H H S F D D A A A D A A A A Z Z Z Z Z C C C V V V i V i i i 8 8 9 8     ",
"    G K K K J J H H H H F D F D F S D D D A A A Z Z Z Z Z Z C C C C V V V V V i i 9 8 8 8 8     ",
"    d v v v c c c c c c h h h h h q h h w w w 0 w w 7 0 7 7 7 7 7 7 6 6 5 5 5 5 5 5 5 5 5 4     ",
"      - - - - - = = * * * * * * & * & & & & & & & & o & o & o o o X X X X X X X . . . . .       ",
"                                                                                                ",
"                                                                                                ",
"                                                                                                ",
"                                                                                                "
};
