/* XPM */
static char *result[] = {
/* columns rows colors chars-per-pixel */
"48 48 188 2 ",
"   c #101D2F",
".  c #051735",
"X  c #071937",
"o  c #0B1B33",
"O  c #04173B",
"+  c #06183B",
"@  c #0C1E3E",
"#  c #051742",
"$  c #071940",
"%  c #091A44",
"&  c #0B1D4B",
"*  c #132444",
"=  c #14254C",
"-  c #1A2B4D",
";  c #0E2454",
":  c #0D2658",
">  c #0F285C",
",  c #1C2C53",
"<  c #122A5C",
"1  c #172A56",
"2  c #1D305D",
"3  c #24344F",
"4  c #243456",
"5  c #2A3A54",
"6  c #23335B",
"7  c #2C3C5A",
"8  c #0F2D62",
"9  c #132D61",
"0  c #133064",
"q  c #133468",
"w  c #133A6E",
"e  c #1A3769",
"r  c #0F3F74",
"t  c #123F72",
"y  c #2C3C62",
"u  c #253B69",
"i  c #2E3F68",
"p  c #233763",
"a  c #33425E",
"s  c #38465E",
"d  c #144275",
"f  c #14477B",
"g  c #144B7E",
"h  c #1C4375",
"j  c #2D406A",
"k  c #374665",
"l  c #3B496C",
"z  c #244D7D",
"x  c #2A4573",
"c  c #364870",
"v  c #324A77",
"b  c #3D527B",
"n  c #414F6D",
"m  c #49576F",
"M  c #43526C",
"N  c #414E71",
"B  c #435274",
"V  c #48577B",
"C  c #47587D",
"Z  c #4C597A",
"A  c #495778",
"S  c #525F79",
"D  c #5C687F",
"F  c #59657F",
"G  c #144F82",
"H  c #145386",
"J  c #1C5385",
"K  c #14578A",
"L  c #135B8E",
"P  c #1E5E8F",
"I  c #135F92",
"U  c #255D8C",
"Y  c #2B5988",
"T  c #3C5984",
"R  c #355B87",
"E  c #136396",
"W  c #13679A",
"Q  c #136A9D",
"!  c #1C6192",
"~  c #3B608B",
"^  c #2A6492",
"/  c #236999",
"(  c #2C6D9A",
")  c #376D98",
"_  c #386994",
"`  c #136DA0",
"'  c #1373A5",
"]  c #1377A9",
"[  c #1379AB",
"{  c #137EB0",
"}  c #4F5E81",
"|  c #44628B",
" . c #4E6085",
".. c #5B6887",
"X. c #596788",
"o. c #5B6B8C",
"O. c #53698F",
"+. c #466E96",
"@. c #596D91",
"#. c #57799E",
"$. c #5D7B9F",
"%. c #646F88",
"&. c #626D85",
"*. c #687387",
"=. c #69748C",
"-. c #6E798E",
";. c #606F90",
":. c #667596",
">. c #6B7793",
",. c #6E7992",
"<. c #677D9D",
"1. c #527EA4",
"2. c #5A7CA0",
"3. c #1383B5",
"4. c #7F8898",
"5. c #77839E",
"6. c #4E84AA",
"7. c #6482A4",
"8. c #6E82A2",
"9. c #7588A7",
"0. c #7583A1",
"q. c #6191B4",
"w. c #7495B3",
"e. c #7799B6",
"r. c #7D9DBA",
"t. c #7B94B1",
"y. c #848D9E",
"u. c #858FA4",
"i. c #8992A5",
"p. c #8C96AC",
"a. c #8491AC",
"s. c #969EAF",
"d. c #8E9DB6",
"f. c #949DB2",
"g. c #8DA4BD",
"h. c #85A5BF",
"j. c #9CA4B6",
"k. c #99A4BA",
"l. c #A0A6B7",
"z. c #A2AABB",
"x. c #A9AFBD",
"c. c #8EAEC7",
"v. c #94AFC7",
"b. c #9CADC3",
"n. c #98B5CB",
"m. c #A2ADC2",
"M. c #A9B2C5",
"N. c #AFB7C8",
"B. c #A0B9CE",
"V. c #AABCCE",
"C. c #B5BBC5",
"Z. c #B6BECE",
"A. c #B9BFCE",
"S. c #B0B5C2",
"D. c #A8BED1",
"F. c #A1BED2",
"G. c #BEC2CC",
"H. c #ABC3D5",
"J. c #AFC8D9",
"K. c #BFC8D6",
"L. c #B2C7D8",
"P. c #BAC7D6",
"I. c #C3C8CF",
"U. c #C6CAD4",
"Y. c #C9CDD6",
"T. c #C4CCD9",
"R. c #CACED8",
"E. c #CCD2DB",
"W. c #D3D7DE",
"Q. c #D7DADF",
"!. c #CFDBE6",
"~. c #D5DBE4",
"^. c #DBDEE4",
"/. c #D4DEE8",
"(. c #DEE1E6",
"). c #D4E1EA",
"_. c #DCE3EB",
"`. c #E2E5EA",
"'. c #E6E9ED",
"]. c #E9EBEF",
"[. c #E5ECF2",
"{. c #ECEEF2",
"}. c #EEF1F4",
"|. c #F2F3F6",
" X c #F3F6F8",
".X c #F7F8FA",
"XX c #FFFFFF",
"oX c None",
/* pixels */
"oXoXoXoXoXoXoXoXoXoXoXoXoXoXoXoXoXoXoX                    oXoXoXoXoXoXoXoXoXoXoXoXoXoXoXoXoXoXoX",
"oXoXoXoXoXoXoXoXoXoXoXoXoXoXoXoXo       o       o   o       o   oXoXoXoXoXoXoXoXoXoXoXoXoXoXoXoX",
"oXoXoXoXoXoXoXoXoXoXoXoXoX  o     o o               o         o       oXoXoXoXoXoXoXoXoXoXoXoXoX",
"oXoXoXoXoXoXoXoXoXoXoXoXo   o   o   o o o o o o o o   o o o   o o o o   oXoXoXoXoXoXoXoXoXoXoXoX",
"oXoXoXoXoXoXoXoXoXoXo o o o o o o o o o o o o o o o o o o o o o o o o o o o oXoXoXoXoXoXoXoXoXoX",
"oXoXoXoXoXoXoXoXoXo X o o o o o o o o o o o o o o o o o o o o o o o o o o o X oXoXoXoXoXoXoXoXoX",
"oXoXoXoXoXoXoXoXo o o X o X X X o o X o o o X X o X o X X o o o o X o o X o o X oXoXoXoXoXoXoXoX",
"oXoXoXoXoXoXoXX X X X o X X X X X X X X X X X o o X X o X X . X . . X X X X X X X oXoXoXoXoXoXoX",
"oXoXoXoXoXoXX X X X X X X X X X X X X X X X X X X X X . . * 3 s s 3 @ o X X X X X X oXoXoXoXoXoX",
"oXoXoXoXoX+ + X X X X O X X X X O X X X X O X X X O O 5 y.I.`.|.].`.C.*.- . X X X X X oXoXoXoXoX",
"oXoXoXoX+ + + + O + + O + + + + O + + + O O O + O @ *.^.XXXXXXXXXXXXXXXXI.m X O + + + + oXoXoXoX",
"oXoXoXoX+ + + + + + + + + + + + O + O + + + O O % y..XXXXXXX].Q.~.}.XXXXXX].D O + + + + oXoXoXoX",
"oXoXoX+ + $ + + + + + + $ + + $ X + + $ + + $ O -..XXXXXW.-.7 - - k y.].XXXX'.M + + $ + + oXoXoX",
"oXoX$ + + $ $ + + + $ + + % + $ + $ $ + $ + + k `.XXXXC.5 - &.i.i.S * n W.XXXXI.= + + $ + + oXoX",
"oXoX$ $ $ + % + $ $ $ $ % % + + + $ $ $ $ $ O i.XXXXE.4 l Y.XXXXXX.XS.4 M ].XX.X..+ # $ + % oXoX",
"oXoX$ $ % % % % % $ % $ % + % % % % % $ $ $ - E.XXXX&.3 E.XXXXXXXXXXXXx.* s.XXXXl.% $ $ % % oXoX",
"oX% % % % % % % % % % % % % % % % % % $ % # k {.XX`.6 ,.XXXXXXXXXXXXXX Xn A .XXXE.- # % # # % oX",
"oX% % % % % % % % % % % % % % % % % % % % # A  XXXU.= l.XXXXXXXXXXXXXXXX,.y ].XX(.4 % % & % % oX",
"oX& % % % % % % % % % & & % % % % % & % % & i.XXXXU.= l.XXXXXXXXXXXXXXXX,.y ].XX(.6 % & % % % oX",
"& & % & % & & & & & % % & % & % & % & & % Z {.XXXX`.6 ,.XXXXXXXXXXXXXX XN S .XXXR.1 % % & % & & ",
"& & & & & & & & & & & & & & & & & & & & 6 U.XXXXXX.X=.2 R.XXXXXXXXXXXXz.; j.XXXXz.& & & & & & & ",
"& & ; & & & & ; & & & ; & & & ; ; & & ; f.XXXXXXXXXXW.y l T.XXXXXX XM.6 Z {.XX.X..& & & & ; & & ",
">.i ; & ; ; ; ; ; & ; ; ; ; = ; ; & ; X.|.XXXXXXXXXXXXA.i 2 o.p.a.} 1 V ~.XXXXG.2 & ; ; ; ; ; ; ",
"XX^.f.V < & ; ; ; ; ; ; ; ; ; ; ; ; i W.XXXXXXXXXXXXXXXX~.5.c p p B p.].XXXX].C ; ; ; ; ; ; ; ; ",
"XXXXXX|.A.:.u ; : : : : : : : : : < z.XXXXXXXXXXXXXXXXXXXXXX{.^.^. XXXXXXX].;.: : : : : : : : : ",
"XXXXXXXXXXXX~.p.B < : < < < : : : :..XXXXXXXXXXXXXXXXXXXXXXXXXXXXXXXXXXXT.} : > < : < < < < < < ",
"XXXXXXXXXXXXXXXX{.N.@.u : < c O.0.(.XXXXXXXXXXXXXXXXXXXXXXXXXX.X{.(.A.<.u > 9 < < < < < < < < < ",
"XXXXXXXXXXXXXXXXXXXXXXE.a.k.`. X X.XXXXXXXXXXXXXXXXXXXXXXXXX~.:.b x e < 9 9 9 9 9 9 9 9 2 9 9 9 ",
"XXXXXXXXXXXXXXXXXXXXXXXXXXXX.Xm.@.O.d.`.XXXXXXXXXXXXXXXX.XN.v 0 9 0 0 0 0 0 9 9 0 0 0 0 0 0 0 0 ",
"oXXXXXXXXXXXXXXXXXXXXXXXXXXXXX|.T.8.x T E.XXXXXXXXXXXX[.9.e q q q q q q q q q e q q e q q q q oX",
"oX.XXXXXXXXXXXXXXXXXXXXXXXXXXXXXXXXXR.R | '.XXXXXXXXK.| w q w q w q w q w q q w w q q w w q w oX",
"oX<.b.`.XXXXXXXXXXXXXXXXXXXXXXXXXXXXXXP.h b.XXXX|.g.z w w w r r w t w t w r t w t w t w w t w oX",
"oXoXd R t.E..XXXXXXXXXXXXXXXXXXXXXXXXX}.~ 7.XX/.2.d r t t t t t t t d t d d t t t d t t t t oXoX",
"oXoXd d d z 2.D.[.XXXXXXXXXXXXXXXXXXXX X+.#..X7.d d d d f d h f f d f h d h d f d d f h d f oXoX",
"oXoXf f f f f f _ g.}.XXXXXXXXXXXXXXXX_.Y w.|.+.f f g f g f f f f f f f f f f f g f f f f f oXoX",
"oXoXoXg g g g g g g D.XX/.}.XXXXXXXX.Xe.J T./.Y g g g g g g g g g g g g g g g g g g g g g oXoXoX",
"oXoXoXoXG G H G G G 1. XD.1.v.).[.!.w.G e.XXr.G G G G G G G G G G G G G G G H G H G G G oXoXoXoX",
"oXoXoXoXH H H H H H K c..XB.) ^ ( ^ ^ c. XL.U H H H H H H H H H H H H H H H H H H H H J oXoXoXoX",
"oXoXoXoXoXK K K K K K L c.|.[.L.n.H._..XH.( K K K K K K K K K K K K K K K K K K K K K oXoXoXoXoX",
"oXoXoXoXoXoXL L L L L L I 6.H.).[.).J.q.P L L L L L L L L L L L L L L L L L L L L L oXoXoXoXoXoX",
"oXoXoXoXoXoXoXI I I E I I I I / ( / E I I I I I I E I I I I I E I I I E I I I I I oXoXoXoXoXoXoX",
"oXoXoXoXoXoXoXoXE E E E E E E E E E E E E E E E E E E E E E E E E E E E E E E E oXoXoXoXoXoXoXoX",
"oXoXoXoXoXoXoXoXoXW W W W W E W W W W W W W W W W W W W W W W W W W W W W W W oXoXoXoXoXoXoXoXoX",
"oXoXoXoXoXoXoXoXoXoXQ ` ` ` ` ` ` ` ` Q ` ` ` ` ` Q ` ` ` ` ` Q ` Q ` ` ` ` oXoXoXoXoXoXoXoXoXoX",
"oXoXoXoXoXoXoXoXoXoXoXoX' ' ' ' ' ' ' ' ' ' ' ' ' ' ' ' ' ' ' ' ' ' ' ' oXoXoXoXoXoXoXoXoXoXoXoX",
"oXoXoXoXoXoXoXoXoXoXoXoXoX] [ [ [ [ [ [ [ [ [ [ [ [ [ [ [ [ [ [ [ [ ] oXoXoXoXoXoXoXoXoXoXoXoXoX",
"oXoXoXoXoXoXoXoXoXoXoXoXoXoXoXoX[ 3.3.[ [ 3.{ { { { [ 3.{ { 3.[ oXoXoXoXoXoXoXoXoXoXoXoXoXoXoXoX",
"oXoXoXoXoXoXoXoXoXoXoXoXoXoXoXoXoXoXoX3.3.3.3.3.3.3.3.3.3.oXoXoXoXoXoXoXoXoXoXoXoXoXoXoXoXoXoXoX"
};
