/* XPM */
static char *gimp[] = {
/* columns rows colors chars-per-pixel */
"72 72 127 2 ",
"   c None",
".  c #249277",
"X  c #269379",
"o  c #28947A",
"O  c #2F987E",
"+  c #30987F",
"@  c #349A81",
"#  c #3B9D85",
"$  c #3F9F88",
"%  c #409F88",
"&  c #44A28B",
"*  c #4AA48F",
"=  c #4DA690",
"-  c #50A792",
";  c #54A994",
":  c #58AB97",
">  c #5CAD99",
",  c #61AF9C",
"<  c #63B19E",
"1  c #67B2A0",
"2  c #6CB5A3",
"3  c #70B7A5",
"4  c #73B8A7",
"5  c #74B9A8",
"6  c #7CBCAD",
"7  c #7FBFB0",
"8  c #80BEAF",
"9  c #85C1B3",
"0  c #8AC4B5",
"q  c #8EC6B8",
"w  c #92C7BA",
"e  c #95C9BC",
"r  c #99CBBF",
"t  c #9DCDC1",
"y  c #A2CFC4",
"u  c #A5D1C6",
"i  c #ABD4C9",
"p  c #B2D7CD",
"a  c #B3D8CF",
"s  c #B7D9D0",
"d  c #BDDDD5",
"f  c #BFE0D8",
"g  c #C1DDD6",
"h  c #C3DFD8",
"j  c #C3E1D9",
"k  c #CBE3DC",
"l  c #CAE4DD",
"z  c #C9E4DE",
"x  c #CBE4DE",
"c  c #CDE4DE",
"v  c #CEE4DE",
"b  c #CFE4DF",
"n  c #CFE5DF",
"m  c #CAE2DC",
"M  c #D0E5DF",
"N  c #D0E5E0",
"B  c #D0E6E0",
"V  c #D2E6E1",
"C  c #D3E6E1",
"Z  c #D3E7E2",
"A  c #D4E7E2",
"S  c #D3E7E1",
"D  c #D6E9E4",
"F  c #D7E9E4",
"G  c #D6E8E3",
"H  c #D9EAE5",
"J  c #DAEAE6",
"K  c #DBEAE6",
"L  c #DAEBE6",
"P  c #DDEBE8",
"I  c #DDECE8",
"U  c #DEECE8",
"Y  c #DFECE9",
"T  c #DFEDE9",
"R  c #DDECE8",
"E  c #E3EFEB",
"W  c #E4EFEB",
"Q  c #E5EFEC",
"!  c #E3EFEC",
"~  c #E5F0EC",
"^  c #E6F0ED",
"/  c #E7F1ED",
"(  c #E7F0EE",
")  c #E8F1EE",
"_  c #EAF2EF",
"`  c #E8F1EE",
"'  c #EBF3F0",
"]  c #ECF3F0",
"[  c #ECF3F1",
"{  c #EEF4F2",
"}  c #EFF4F2",
"|  c #EDF3F1",
" . c #F0F4F2",
".. c #F0F4F3",
"X. c #F1F5F3",
"o. c #F1F5F4",
"O. c #F2F6F4",
"+. c #F3F6F5",
"@. c #F4F7F5",
"#. c #F4F7F6",
"$. c #F5F7F6",
"%. c #F1F5F4",
"&. c #F5F8F6",
"*. c #F6F8F7",
"=. c #F7F8F7",
"-. c #F8F8F7",
";. c #F8F8F8",
":. c #F8F9F8",
">. c #F9F9F8",
",. c #F9F9F9",
"<. c #FAF9F9",
"1. c #FAFAF9",
"2. c #FBFAF9",
"3. c #FBFAFA",
"4. c #FCFAFA",
"5. c #FCFBFA",
"6. c #FDFBFA",
"7. c #FDFBFB",
"8. c #FEFBFB",
"9. c #FEFCFC",
"0. c #FFFCFC",
"q. c #FFFCFD",
"w. c #FFFDFD",
"e. c #FFFDFE",
"r. c #FFFEFE",
"t. c white",
"y. c #FFFCFC",
/* pixels */
"                                                                                                                                                ",
"                                                                                                                                                ",
"                                                              o o o o o o o o o o                                                               ",
"                                                      o o o o o o o o o o o o o o o o o o                                                       ",
"                                                o o o o o o o o o o o o o o o o o o o o o o o o                                                 ",
"                                          o o o o o o o o o o o o o o o o o o o o o o o o o o o o o o                                           ",
"                                      o o o o o o o o o o o o o o o o o o o o o o o o o o o o o o o o o o                                       ",
"                                    o o o o o o o o o o o o o o o o o o o o o o o o o o o o o o o o o o o o                                     ",
"                                o o o o o o o o o o o o o o o o o o o o o o o o o o o o o o o o o o o o o o o o                                 ",
"                              o o o o o o o o o o o o o o o o o o o o o o o o o o o o o o o o o o o o o o o o o o                               ",
"                            o o o o o o o o o o o o o o o o o o o o o o o o o o o o o o o o o o o o o o o o o o o o                             ",
"                          o o o o o o o o o o o o o o o o o o o o o o o o o o o o o o o o o o o o o o o o o o o o o o                           ",
"                        o o o o o o o o o o o o o o o o o o o o o o o o o o o o o o o o o o o o o o o o X o o o o o o o                         ",
"                      o o o o o o o o o o o o o o o o o o o o o o o o o o o o o o o o o o o o o o o o O % O o o o o o o o                       ",
"                    o o o o o o o o o o o o o o o o o o o o o o o o o o o o o o o o o o o o o o o o X * i ; X o o o o o o o                     ",
"                  o o o o o o o o o o o o o o o o o o o o o o o o o o o o o o ; : X o o o o o o o o O w 4.e O o o o o o o o o                   ",
"                o o o o o o o o o o o o o o o o o o o o o o o o o o o o o o @ t 9 O o o o o o o o o 4 ] 0.V # o o o o o o o o o                 ",
"              o o o o o o o o o o o o o o o o o o o o o o o o o o o o o o o < d i & X o o o o X O 6 Q 0.0...: o o o o o o o o o                 ",
"              o o o o o o o o o o o o o o o o o o o o o o o o o o o o o X # t j f > X o o o X $ e ..0.0.0.=.5 o o o o X o o o o o               ",
"            o o o o o o o o o o o o o o o o o o o o o o o o o o o o o o o 2 d j j 6 O o X O 1 d ,.0.0.0.0.,.0 o o o @ & o o o o o o             ",
"            o o o o o o o o o o o o o o o o o o o o o o o o o o o o o X * i m j j t O O - i _ 0.0.0.0.0.0.,.0 o o O w A 5 o o o o o             ",
"          o o o o o o o o o o o o o o o o o o o o o o o o o o o o o o # w j j j j a < t ^ 0.0.0.0.0.0.0.0.,.8 o o O u 0.m @ o o o o o           ",
"          o o o o o o o o o o o o o o o o o o o o o o o o o o o o o @ 7 j j j j l Y _ 0.0.0.0.0.0.0.0.0.0.@.1 o o X 4 @.m @ o o o o o           ",
"        o o o o o o o o o o o o o o o o o o o o o o o o o o o o X + 5 d l l Y { +.0.0.0.0.0.0.0.0.0.0.0.0.^ & o o X & m 9 o o o o o o o         ",
"        o o o o o o o o o o o o o o o o o o o o o o o o o o X o = w v _ ,.,.4.0.0.0.0.0.0.0.0.0.0.0.0.0.0.p + o X X @ - O o o o o o o o         ",
"        o o o o o o o o o o o o o o o o o o o o o o o o o o : r D ,.0.0.0.0.0.0.0.0.0.0.0.0.0.0.0.0.0.0.@.2 o o & , O & 2 @ o o o o o o         ",
"      o o o o o o o o o o o o o o o o o o o o o o o o X # 0 Y 0.0.0.0.0.0.0.0.0.0.0.0.0.0.0.0.0.0.0.0.0.d # X o 3 m * u ..6 o o o o o o o       ",
"      o o o o o o o o o o o o o o o o o o o o o o o X - d ,.0.0.0.0.0.0.0.0.0.0.0.0.0.0.0.0.0.0.0.0.0.] 2 X o o & 0 * M 0.d # X o o o o o       ",
"      o o o o o o o o o o o o o o o o o o o o o o o > v 0.0.0.0.0.0.0.0.0.0.0.0.0.0.0.0.0.0.0.0.0.0.4.t + o o o o X = J 0.m & X o o o o o       ",
"    o o o o o o o o o o o o o o o o o o o o o o X : V 0.0.0.0.0.0.0.0.0.0.0.0.0.0.0.0.0.0.0.0.0.0.0.m & o o o o o X > E @.e O o o o o o o       ",
"    o o o o o o o o o o o o o o o o o o o o o X * m 0.0.0.0.0.0.0.0.0.0.0.0.0.0.0.0.0.0.0.0.0.0.0.Y > X o o o X X o > r 1 @ o o o o o o o o     ",
"    o o o o o o o o o o o o o o o o o o o o o @ i 0.0.0.0.0.0.0.0.0.0.0.0.0.0.0.0.0.0.0.0.0.0.0.' 5 o o o o O - 6 9 @ o o o o o o o o o o o     ",
"    o o o o o o o o o o o o o o o o o o o o o 6 +.0.0.0.4.0.0.0.0.0.0.0.0.0.0.0.0.0.0.0.0.0.0.,.e $ $ : 5 t m Y ,.v @ o o o o o o o o o o o     ",
"    o o o o o o o o o o o o o o o o o o o X & v 0.0.,.m u V 4.0.0.0.0.0.0.0.0.0.0.0.0.0.0.0.0.4.P D _ +.=.4.0.0.0.i o o o o o o o o o o o o     ",
"    o o o o o o o o o o o o o o o o o o o X 6 @.0.4.i $ o ; ^ 0.0.0.0.0.0.0.0.0.0.0.0.0.0.0.0.0.0.0.0.0.0.0.0.0.=.6 o o o o o o o o o o o o     ",
"    o o o o o o o o o o o o o o o o o o o O u 0.0.V * X o + s 0.0.0.0.0.0.0.0.0.0.0.0.0.0.0.0.0.0.0.0.0.0.0.0.0.W & o o o o o o o o o o o o     ",
"    o o o o o o o o o o o o o o o o o o X & v 0.0.e X o o o q 0.0.0.0.0.0.0.0.0.0.0.0.0.0.0.0.0.0.0.0.0.0.0.0.0.y O o o o o o o o o o o o o     ",
"    o o o o o o o o o o o o o o o o o o X > ..0.+.4 . o o X 4 0.0.0.0.0.0.0.0.0.0.0.0.0.0.0.0.0.0.0.0.0.0.0.0.^ > X o o o o o o o o o o o o     ",
"    o o o o o o o o o o o o o o o o o o o 9 0.0.{ r 5 $ o X , ,.0.0.0.0.0.0.0.0.0.0.0.0.0.0.0.0.0.0.0.0.0.0.0.t O o o o o o o o o o o o o o     ",
"    o o o o o o o o o o o o o o o o o o # m 0.0.4.,.=.u O . > @.0.0.0.0.0.0.0.0.0.0.0.0.0.0.0.0.0.0.0.0.0.0.J - X o o o o o o o o o o o o o     ",
"    o o o o o o o o o o o o o o o o o o 5 =.0.0.0.0.0.J * X 8 4.0.0.0.0.0.0.0.0.0.0.0.0.0.0.0.0.0.0.0.0.0.,.0 o o o o o o o o o o o o o o o     ",
"    o o o o o o o o o o o o o o o o X * V 0.0.0.0.0.0.Y > 2 Y 0.0.0.0.0.0.0.0.0.0.0.0.0.0.0.0.0.0.0.0.0.0.m $ o o o o o o o o o o o o o o o     ",
"    o o o o o o o o o o o o o o o X & d 0.0.0.0.0.0.0.{ D @.0.0.0.0.0.0.0.0.0.0.0.0.0.0.0.0.0.0.0.0.0.0._ < X o o o o o o o o o o o o o o o     ",
"      o o o o o o o o o o o o o o > g 4.0.0.0.0.0.0.0.0.0.0.0.0.0.0.0.0.0.0.0.0.0.0.0.0.0.0.0.0.0.0.0.,.e O o o o o o o o o o o o o o o o       ",
"      o o o o o o o o o o X X # 9 Y 0.0.0.0.0.0.0.0.0.0.0.0.0.0.0.0.0.0.0.0.0.0.0.0.0.0.0.0.0.0.0.0.0.d & X o o o o o o o o o o o o o o o       ",
"      o o o o o o o o o o $ 4 g -.0.0.0.0.0.0.0.0.0.0.0.0.0.0.0.0.@.A +.0.0.0.0.0.0.0.0.0.0.0.0.0.0.v = X o o o o o o o o o o o o o o o o       ",
"      o o o o o o o o X & d ,.0.0.0.0.0.0.0.0.0.0.0.0.0.0.0.0.0.,.r * V 0.0.0.0.0.0.0.0.0.0.0.0.0.v : o o o o o o o o o o o o o o o o o o       ",
"        o o o o o o o X 1 4.0.0.0.0.0.0.0.0.0.0.0.0.0.0.0.0.0.4.p $ 6 ..0.0.0.0.0.0.0.0.0.0.0.0.m : o o o o o o o o o o o o o o o o o o         ",
"        o o o o o o o X & v 0.0.0.0.0.0.0.0.0.0.0.0.0.0.0.0.' y $ 2 ^ 0.0.0.0.0.0.0.0.0.0.0.,.a & o o o o o o o o o o o o o o o o o o o         ",
"        o o o o o o o o o 4 { 0.0.0.0.0.0.0.0.0.0.0.0.{ V u 1 $ 6 Q 0.0.0.0.0.0.0.0.0.0.0.^ w # X o o o o o o o o o o o o o o o o o o           ",
"          o o o o o o o o + w ,.0.0.0.0.0.0.0.0.0.0.y : * $ > p +.0.0.0.0.0.0.0.0.0.0.,.h , O X o o o o o o o o o o o o o o o o o o o           ",
"          o o o o o o o o X @ t +.0.0.0.0.0.0.0.0.0.y 2 e m ..0.0.0.0.0.0.0.0.0.0.,.v 6 # X o o o o o o o o o o o o o o o o o o o o o           ",
"            o o o o o o o o X @ 6 J 0.0.0.0.0.0.0.0.0.0.0.0.0.0.0.0.0.0.0.0.0.+.g 9 & o o o o o o o o o o o o o o o o o o o o o o o             ",
"            o o o o o o o o o o o = t E ,.0.0.0.0.0.0.0.0.0.0.0.0.0.0.,...A t < $ X X o o o o o o o o o o o o o o o o o o o o o o               ",
"              o o o o o o o o o o X O & 6 p v J Q ^ ' ] ' _ E Y G m i 0 : @ O X X o o o o o o o o o o o o o o o o o o o o o o o o               ",
"                o o o o o o o o o o o o o o @ = > , 1 2 1 < > - & O o o o o o o o o o o o o o o o o o o o o o o o o o o o o o o                 ",
"                o o o o o o o o o o o o o o o X X X X X X X X X X o o o o o o o o o o o o o o o o o o o o o o o o o o o o o o                   ",
"                  o o o o o o o o o o o o o o o o o o o o o o o o o o o o o o o o o o o o o o o o o o o o o o o o o o o o o o                   ",
"                    o o o o o o o o o o o o o o o o o o o o o o o o o o o o o o o o o o o o o o o o o o o o o o o o o o o o                     ",
"                      o o o o o o o o o o o o o o o o o o o o o o o o o o o o o o o o o o o o o o o o o o o o o o o o o o                       ",
"                        o o o o o o o o o o o o o o o o o o o o o o o o o o o o o o o o o o o o o o o o o o o o o o o o                         ",
"                          o o o o o o o o o o o o o o o o o o o o o o o o o o o o o o o o o o o o o o o o o o o o o o                           ",
"                            o o o o o o o o o o o o o o o o o o o o o o o o o o o o o o o o o o o o o o o o o o o o                             ",
"                              o o o o o o o o o o o o o o o o o o o o o o o o o o o o o o o o o o o o o o o o o o                               ",
"                                  o o o o o o o o o o o o o o o o o o o o o o o o o o o o o o o o o o o o o o                                   ",
"                                    o o o o o o o o o o o o o o o o o o o o o o o o o o o o o o o o o o o o                                     ",
"                                        o o o o o o o o o o o o o o o o o o o o o o o o o o o o o o o o                                         ",
"                                            o o o o o o o o o o o o o o o o o o o o o o o o o o o o                                             ",
"                                                  o o o o o o o o o o o o o o o o o o o o o o                                                   ",
"                                                        o o o o o o o o o o o o o o o o                                                         ",
"                                                                                                                                                ",
"                                                                                                                                                "
};
