/* XPM */
static char *steam[] = {
/* columns rows colors chars-per-pixel */
"72 72 123 2 ",
"   c None",
".  c #5693B5",
"X  c #5995B6",
"o  c #5C97B8",
"O  c #5E99B9",
"+  c #649CBB",
"@  c #689FBD",
"#  c #6CA1BF",
"$  c #6FA3C0",
"%  c #73A6C2",
"&  c #77A8C3",
"*  c #7CABC5",
"=  c #80AEC7",
"-  c #81AFC8",
";  c #85B1C9",
":  c #8BB5CC",
">  c #8FB8CE",
",  c #91B9CF",
"<  c #96BCD1",
"1  c #99BED2",
"2  c #9EC1D5",
"3  c #A3C4D6",
"4  c #A8C7D9",
"5  c #ACCADB",
"6  c #B1CDDD",
"7  c #B6D1DF",
"8  c #B7D1E0",
"9  c #BDD5E2",
"0  c #C1D7E3",
"q  c #C1D8E4",
"w  c #C3D9E5",
"e  c #C4D9E5",
"r  c #C5DAE6",
"t  c #C6DAE6",
"y  c #C6DBE6",
"u  c #C7DBE7",
"i  c #C8DCE7",
"p  c #C9DCE7",
"a  c #C9DDE7",
"s  c #C9DCE8",
"d  c #CADDE8",
"f  c #CADEE8",
"g  c #CBDEE8",
"h  c #CCDFE9",
"j  c #CDDFE9",
"k  c #CEDFE9",
"l  c #CDDFEA",
"z  c #CEE0EA",
"x  c #CFE0EA",
"c  c #CFE1EA",
"v  c #D0E1EA",
"b  c #D2E2EB",
"n  c #D4E4EC",
"m  c #D5E4ED",
"M  c #D6E5ED",
"N  c #D7E5ED",
"B  c #D8E6EE",
"V  c #D9E6EE",
"C  c #D8E7EE",
"Z  c #D9E7EE",
"A  c #D9E7EF",
"S  c #DAE7EF",
"D  c #DAE8EF",
"F  c #DBE8EF",
"G  c #DCE9F0",
"H  c #DDE9F0",
"J  c #DFEBF1",
"K  c #E0ECF1",
"L  c #E1ECF2",
"P  c #E2ECF2",
"I  c #E2EDF2",
"U  c #E2EDF3",
"Y  c #E3EDF3",
"T  c #E4EEF3",
"R  c #E5EEF4",
"E  c #E5EFF4",
"W  c #E6EFF4",
"Q  c #E6F0F4",
"!  c #E7F0F5",
"~  c #E8F0F5",
"^  c #E8F1F5",
"/  c #E9F1F5",
"(  c #EAF1F5",
")  c #E9F1F6",
"_  c #EBF2F6",
"`  c #EBF3F7",
"'  c #ECF3F6",
"]  c #ECF3F7",
"[  c #EDF3F7",
"{  c #EDF4F7",
"}  c #EEF4F8",
"|  c #EEF5F8",
" . c #EFF5F8",
".. c #F0F6F8",
"X. c #F0F6F9",
"o. c #F1F6F9",
"O. c #F1F7F9",
"+. c #F2F6F9",
"@. c #F2F7F9",
"#. c #F2F7FA",
"$. c #F3F7FA",
"%. c #F3F8FA",
"&. c #F4F8FA",
"*. c #F5F8FA",
"=. c #F5F8FB",
"-. c #F5F9FB",
";. c #F6F9FB",
":. c #F6FAFB",
">. c #F7FAFB",
",. c #F8FAFC",
"<. c #F8FBFC",
"1. c #F9FBFC",
"2. c #F9FBFD",
"3. c #FAFCFD",
"4. c #FBFCFD",
"5. c #FBFDFD",
"6. c #FCFDFD",
"7. c #FCFDFE",
"8. c #FDFEFE",
"9. c #FEFEFE",
"0. c #FEFEFF",
"q. c #FEFFFF",
"w. c white",
/* pixels */
"                                                                                                                                                ",
"                                                                                                                                                ",
"                                                            X X X X X X X X X X X X                                                             ",
"                                                    X X X X X X X X X X X X X X X X X X X X                                                     ",
"                                              X X X X X X X X X X X X X X X X X X X X X X X X X X                                               ",
"                                          X X X X X X X X X X X X X X X X X X X X X X X X X X X X X X                                           ",
"                                      X X X X X X X X X X X X X X X X X X X X X X X X X X X X X X X X X X                                       ",
"                                  X X X X X X X X X X X X X X X X X X X X X X X X X X X X X X X X X X X X X                                     ",
"                                X X X X X X X X X X X X X X X X X X X X X X X X X X X X X X X X X X X X X X X X                                 ",
"                            X X X X X X X X X X X X X X X X X X X X X X X X X X X X X X X X X X X X X X X X X X X                               ",
"                          X X X X X X X X X X X X X X X X X X X X X X X X X X X X X X X X X X X X X X X X X X X X X                             ",
"                        X X X X X X X X X X X X X X X X X X X X X X X X X X X X X X X X X X X X X X X X X X X X X X X                           ",
"                      X X X X X X X X X X X X X X X X X X X X X X X X X X X X X X X X X X X X X X X X X X X X X X X X X                         ",
"                    X X X X X X X X X X X X X X X X X X X X X X X X X X X X X X X X X X X X X X X X X X X X X X X X X X X                       ",
"                  X X X X X X X X X X X X X X X X X X X X X X X X X X X X X X X X X X X X X X X X X X X X X X X X X X X X X                     ",
"                  X X X X X X X X X X X X X X X X X X X X X X X X X X X X X X X X X X X X X . . . . . . X X X X X X X X X X X                   ",
"                X X X X X X X X X X X X X X X X X X X X X X X X X X X X X X X X X X X X X $ : 2 4 3 1 * + X X X X X X X X X X X                 ",
"              X X X X X X X X X X X X X X X X X X X X X X X X X X X X X X X X X X X X & 7 G ..5.w.w.,./ c < + X X X X X X X X X                 ",
"              X X X X X X X X X X X X X X X X X X X X X X X X X X X X X X X X X X + 3 / w.w.w.w.w.w.w.w.w.,.s * X X X X X X X X X               ",
"            X X X X X X X X X X X X X X X X X X X X X X X X X X X X X X X X X X + 5 >.w.w.>.M 9 6 6 y / w.w.w.G = X X X X X X X X               ",
"          X X X X X X X X X X X X X X X X X X X X X X X X X X X X X X X X X X o 3 ,.w.w.M : % @ + + # * 6 ..w.w.S % X X X X X X X X             ",
"          X X X X X X X X X X X X X X X X X X X X X X X X X X X X X X X X X X ;  .w.w.9 # & 5 S ] W y > @ > / w.w.9 O X X X X X X X             ",
"        X X X X X X X X X X X X X X X X X X X X X X X X X X X X X X X X X X + y w.w.j # : L w.w.w.w.w.>.9 # < ..w. .: . X X X X X X X           ",
"        X X X X X X X X X X X X X X X X X X X X X X X X X X X X X X X X X X * ..w...= = W w.w.w.w.w.w.w.w.7 + 9 w.w.8 o X X X X X X X           ",
"        X X X X X X X X X X X X X X X X X X X X X X X X X X X X X X X X X X 3 5.w.y @ 9 w.w.w.w.w.w.w.w.w...* : ..w.S $ . X X X X X X X         ",
"      X X X X X X X X X X X X X X X X X X X X X X X X X X X X X X X X X X X 9 w.w.2 * W w.w.w.w.w.w.w.w.w.w.6 # G w. .* . X X X X X X X         ",
"      X X X X X X X X X X X X X X X X X X X X X X X X X X X X X X X X X X X c w.w.: = ,.w.w.w.w.w.w.w.w.w.w.s O M w.,.= . X X X X X X X         ",
"      X X X X X X X X X X X X X X X X X X X X X X X X X X X X X X X X X . * W w.w.: = ,.w.w.w.w.w.w.w.w.w.w.s O M w.,.= . X X X X X X X X       ",
"    X X X X X X X X X X X X X X X X X X X X X X X X X X X X X X X X X X + 9 w.w.w.2 * W w.w.w.w.w.w.w.w.w.w.6 $ G w. .* . X X X X X X X X       ",
"    X X X X X X X X X X X X X X X X X X X X X X X X X X X X X X X X X X < >.w.w.w.i @ 9 w.w.w.w.w.w.w.w.w...* : ..w.S $ . X X X X X X X X       ",
"    X X X X X X X X X X X X X X X X X X X X X X X X X X X X X X X X X % L w.w.w.w...= * T w.w.w.w.w.w.w.w.6 + 9 w.w.8 o X X X X X X X X X       ",
"    X X X X X X X X X X X X X X X X X X X X X X X X X X X X X X X X + 9 w.w.w.w.w.w.j # : L w.w.w.w.w.>.9 # < ..w. .: . X X X X X X X X X       ",
"    X X X X X X X X X X X X X X X X X X X X X X X X X X X X X X X X < %.w.w.w.w.w.w.w.0 # & 5 S / W y : + > / w.w.9 O X X X X X X X X X X X     ",
"    X X X X X X X o o . X X X X X X X X X X X X X X X X X X X X X % F w.w.w.w.w.w.w.w.w.M : % @ + + # * 6 ..w.w.S % X X X X X X X X X X X X     ",
"    X X X X X X . % 6 : + X X X X X X X X X X X X X X X X X X X O 7 w.w.w.w.w.w.w.w.w.w.w.,.M 9 6 6 y / w.w.w.G = X X X X X X X X X X X X X     ",
"    X X X X X X . ; w...M 4 % O X . X X X X X X X X X X X X X X : ..w.w.w.w.w.w.w.w.w.w.w.w.w.w.w.w.w.w.w.,.i * X X X X X X X X X X X X X X     ",
"    X X X X X X . ; w.w.w.5.] q , # X . X X X X X X . . . . . # S w.w.w.w.w.w.w.w.w.w.w.w.w.w.w.w.w.,./ c < + X X X X X X X X X X X X X X X     ",
"    X X X X X X . ; ,.w.w.w.w.w.,.S 5 = O X X X X O * < 3 4 2 y 5.w.w.w.w.w.w.w.w.w.w.w.w.w.w.w.S 5 1 * + X X X X X X X X X X X X X X X X X     ",
"    X X X X X X . * ..w.w.w.w.w.w.w.w./ s 1 # + * 0 W >.w.w.w.w.w.w.w.w.w.w.w.w.w.w.w.w.w.w.>.9 % . . . X X X X X X X X X X X X X X X X X X     ",
"    X X X X X X . & Q w.w.w.w.w.w.w.w.w.w.,.L s { w.w.w.w.w.w.w.w.w.w.w.w.w.w.w.w.w.w.w.w.L < + . X X X X X X X X X X X X X X X X X X X X X     ",
"    X X X X X X . $ S w.w.w.w.w.w.w.w.w.w.w.w.w.w.w.w.G 8 6 9 L w.w.w.w.w.w.w.w.w.w.w.5.i * X X X X X X X X X X X X X X X X X X X X X X X       ",
"    X X X X X X X + y w.w.w.w.w.w.w.w.w.w.w.w.w.w.w.w./ q : # % 5 ..w.w.w.w.w.w.w.w. .5 @ . X X X X X X X X X X X X X X X X X X X X X X X       ",
"    X X X X X X X X 5 w.w.w.w.w.w.w.w.w.w.w.w.w.w.w.w.w.w.>.M < + 1 ..w.w.w.w.w.w.S ; o X X X X X X X X X X X X X X X X X X X X X X X X X       ",
"      X X X X X X . < >.w.w.w.w.w.w.w.w.w.w.w.w.w.w.w.w.w.w.w.>.6 + 8 w.w.w.w.>.9 % X X X X X X X X X X X X X X X X X X X X X X X X X X X       ",
"      X X X X X X X + 2 S >.w.w.w.w.w.w.w.w.w.w.w.w.w.w.w.w.w.w...; ; ] w.w.Q < + . X X X X X X X X X X X X X X X X X X X X X X X X X X X       ",
"      X X X X X X X X X + ; 9 L 5.w.w.w.w.w.w.w.w.w.w.w.w.w.w.w.w.9 + S w.5.> X X X X X X X X X X X X X X X X X X X X X X X X X X X X X         ",
"      X X X X X X X X X X X X % 2 i ..w.w.w.w.w.w.w.w.w.w.w.w.w.w.s O M w.5.; . X X X X X X X X X X X X X X X X X X X X X X X X X X X X         ",
"        X X X X X X X X X X X . . + = 5 { w.w.w.w.w.w.w.w.w.w.w.w.9 + F w.>.* . X X X X X X X X X X X X X X X X X X X X X X X X X X X X         ",
"        X X X X X X X X X X X X X X . o 6 w.w.w.w.w.w.w.w.w.w.w...; ; ] w.L % . X X X X X X X X X X X X X X X X X X X X X X X X X X X           ",
"        X X X X X X X X X X X X X X X X ; >.w.>.s M ,.w.w.w.w.>.5 + 9 w.w.q + X X X X X X X X X X X X X X X X X X X X X X X X X X X X           ",
"          X X X X X X X X X X X X X X X + c w.w.j ; : 9 L / b < + 1 ..w.>., . X X X X X X X X X X X X X X X X X X X X X X X X X X X             ",
"          X X X X X X X X X X X X X X X X ;  .w.w.b ; # + + @ % 5 ..w.w.0 + X X X X X X X X X X X X X X X X X X X X X X X X X X X X             ",
"            X X X X X X X X X X X X X X X O 3 >.w.w...j 7 6 9 L w.w.w.M % X X X X X X X X X X X X X X X X X X X X X X X X X X X X               ",
"              X X X X X X X X X X X X X X X + 2 ] w.w.w.w.w.w.w.w.5.i & X X X X X X X X X X X X X X X X X X X X X X X X X X X X X               ",
"              X X X X X X X X X X X X X X X X X * 9 W >.w.w.5. .S 3 + X X X X X X X X X X X X X X X X X X X X X X X X X X X X X                 ",
"                X X X X X X X X X X X X X X X X X O & < 3 4 2 ; @ X X X X X X X X X X X X X X X X X X X X X X X X X X X X X X X                 ",
"                  X X X X X X X X X X X X X X X X X . . . . . . X X X X X X X X X X X X X X X X X X X X X X X X X X X X X X X                   ",
"                  X X X X X X X X X X X X X X X X X X X X X X X X X X X X X X X X X X X X X X X X X X X X X X X X X X X X X                     ",
"                    X X X X X X X X X X X X X X X X X X X X X X X X X X X X X X X X X X X X X X X X X X X X X X X X X X X                       ",
"                      X X X X X X X X X X X X X X X X X X X X X X X X X X X X X X X X X X X X X X X X X X X X X X X X X                         ",
"                        X X X X X X X X X X X X X X X X X X X X X X X X X X X X X X X X X X X X X X X X X X X X X X X                           ",
"                          X X X X X X X X X X X X X X X X X X X X X X X X X X X X X X X X X X X X X X X X X X X X X                             ",
"                            X X X X X X X X X X X X X X X X X X X X X X X X X X X X X X X X X X X X X X X X X X X                               ",
"                                X X X X X X X X X X X X X X X X X X X X X X X X X X X X X X X X X X X X X X X X                                 ",
"                                  X X X X X X X X X X X X X X X X X X X X X X X X X X X X X X X X X X X X X                                     ",
"                                      X X X X X X X X X X X X X X X X X X X X X X X X X X X X X X X X X X                                       ",
"                                          X X X X X X X X X X X X X X X X X X X X X X X X X X X X X X                                           ",
"                                              X X X X X X X X X X X X X X X X X X X X X X X X X X                                               ",
"                                                    X X X X X X X X X X X X X X X X X X X X                                                     ",
"                                                            X X X X X X X X X X X X                                                             ",
"                                                                                                                                                ",
"                                                                                                                                                "
};
