/* XPM */
static char *vim[] = {
/* columns rows colors chars-per-pixel */
"72 72 142 2 ",
"   c None",
".  c #77BA7B",
"X  c #78BA7B",
"o  c #79BA7C",
"O  c #7ABB7D",
"+  c #7BBB7E",
"@  c #7BBB7F",
"#  c #7CBB7F",
"$  c #7BBC7E",
"%  c #7BBC7F",
"&  c #7CBC7F",
"*  c #7DBC7F",
"=  c #7CBD7F",
"-  c #7DBD7F",
";  c #7CBB80",
":  c #7BBC80",
">  c #7CBC80",
",  c #7DBC80",
"<  c #7DBD80",
"1  c #7EBD81",
"2  c #7FBD82",
"3  c #7FBE82",
"4  c #80BE83",
"5  c #81BE83",
"6  c #81BE84",
"7  c #81BF84",
"8  c #82BF85",
"9  c #83BF86",
"0  c #83C086",
"q  c #84C087",
"w  c #85C088",
"e  c #85C188",
"r  c #86C189",
"t  c #87C189",
"y  c #87C28A",
"u  c #88C28B",
"i  c #89C28C",
"p  c #89C38C",
"a  c #8AC38D",
"s  c #8BC38D",
"d  c #8CC48F",
"f  c #8DC58F",
"g  c #8EC591",
"h  c #8FC691",
"j  c #90C692",
"k  c #90C693",
"l  c #92C794",
"z  c #92C795",
"x  c #93C895",
"c  c #93C896",
"v  c #94C897",
"b  c #94C997",
"n  c #95C997",
"m  c #95C998",
"M  c #96C998",
"N  c #98CA9A",
"B  c #9ACB9D",
"V  c #9BCB9D",
"C  c #9CCC9E",
"Z  c #9CCD9E",
"A  c #9DCD9F",
"S  c #9DCDA0",
"D  c #9FCEA1",
"F  c #A0CFA2",
"G  c #A1CFA3",
"H  c #A2D0A4",
"J  c #A4D0A6",
"K  c #A4D1A7",
"L  c #A8D3AA",
"P  c #AAD4AC",
"I  c #ADD5AF",
"U  c #AFD6B1",
"Y  c #B1D7B2",
"T  c #B1D7B3",
"R  c #B4D8B6",
"E  c #B6DAB7",
"W  c #B7DAB9",
"Q  c #B8DBB9",
"!  c #BBDCBC",
"~  c #BCDCBD",
"^  c #BDDDBE",
"/  c #BDDDBF",
"(  c #BEDEBF",
")  c #C0DEC1",
"_  c #C1DFC2",
"`  c #C2E0C4",
"'  c #C3E0C4",
"]  c #C5E1C6",
"[  c #C5E1C7",
"{  c #C6E2C8",
"}  c #C9E3CA",
"|  c #CBE4CC",
" . c #CCE5CD",
".. c #CDE6CE",
"X. c #CEE6D0",
"o. c #D0E7D1",
"O. c #D1E7D2",
"+. c #D2E8D3",
"@. c #D3E8D4",
"#. c #D8EBD9",
"$. c #D9EBD9",
"%. c #D9EBDA",
"&. c #D9ECDA",
"*. c #DAECDB",
"=. c #DBEDDC",
"-. c #DCEDDC",
";. c #DCEDDD",
":. c #DEEEDF",
">. c #DFEEDF",
",. c #E3F0E3",
"<. c #E4F1E5",
"1. c #E5F1E5",
"2. c #E6F2E7",
"3. c #E7F3E7",
"4. c #E7F3E8",
"5. c #E8F3E9",
"6. c #E9F4E9",
"7. c #EAF4EA",
"8. c #EAF4EB",
"9. c #EDF6ED",
"0. c #EDF6EE",
"q. c #EEF6EE",
"w. c #EEF6EF",
"e. c #EFF7EF",
"r. c #F1F8F1",
"t. c #F2F8F2",
"y. c #F3F9F3",
"u. c #F3F9F4",
"i. c #F4F9F4",
"p. c #F5FAF5",
"a. c #F6FAF6",
"s. c #F7FBF7",
"d. c #F8FCF9",
"f. c #F9FCFA",
"g. c #FAFCFA",
"h. c #FBFDFB",
"j. c #FBFDFC",
"k. c #FCFDFC",
"l. c #FCFEFC",
"z. c #FDFEFD",
"x. c #FEFEFE",
"c. c white",
/* pixels */
"                                                                                                                                                ",
"                                                                                                                                                ",
"                                                              & > & & & & & > & &                                                               ",
"                                                      & & & & & & & & & & & & & & & & & %                                                       ",
"                                                & & & & & & & & & & & & & & & & & & & & & & & &                                                 ",
"                                          & & & & & & & & & & & & & & & & & & & & & & & & & & & & & &                                           ",
"                                      & & & & & & & & & & & & & & & & & & & & & & & & & & & & & & & & & :                                       ",
"                                    & & & & & & & & & & & & & & & & & & & & & & & & & & & & & & & & & & & &                                     ",
"                                & & & & & & & & & & & & & & & & & & & & & & & & & & & & & & & & & & & & & & & &                                 ",
"                              & & & & & & & & & & & & & & & & & & & & & & & & & & & & & & & & & & & & & & & & & &                               ",
"                            & & & & & & & & & & & & & & & & & & & & & & & & & & & & & & & & & & & & & & & & & & & >                             ",
"                          & & & & & & & & & & & & & & & & & & & & & & & & & & & & & & & & & & & & & & & & & & & & & >                           ",
"                        & & & & & & & & & & & & & & & & & & & & & & & & & & & & & & & & & & & & & & & & & & & & & & & &                         ",
"                      & & & & & & & & & & & & & & & & & & & & & & & & & & & & & & & & & & & & & & & & & & & & & & & & & &                       ",
"                    & & & & & & & & & & & & & & & & & & & & & & & & & & & & & & & & & & & & & & & & & & & & & & & & & & & &                     ",
"                  & & & & & & & & & & & & & & & & & & & & & & & & & & & & & & & & & & & & & & & & & & & & & & & & & & & & & &                   ",
"                & & & & & & & & & & & & & & & & & & & & & & & & & & & & & & & & & & & & & & & & & & & & & & & & & & & & & & & &                 ",
"              & & & & & & & & & & & & & & & & & & & & & & & & & & & & & & & & & & & & & & & & & & & & & & & & & & & & & & & & &                 ",
"              & & & & & & & & & & & & & & & & & & & & & & & & & & & & & & & & & & & & & & & & & & & & & & & & & & & & & & & & & &               ",
"            & & & & & & & & & & & & & & & & & & & & & & & & & & & & & & & & & & & & & & & & & & & & & & & & & & & & & & & & & & & O             ",
"            & & & & & & & & & & & & & & & & & & & & & & & & & & & & & & & & & & & & & & & & & & & & & & & & & & & & & & & & & & & &             ",
"          > & & & & & & & & & & & & & & & & & & & & & & & & & & & & & & & & & & & & & & & & & & & & & & & & & & & & & & & & & & & & &           ",
"          & & & & & & & & & & & & & & & & & & & & & & & & & & & & & & & & & & & & & & & & & & & & & & & & & & & & & & & & & & & & & &           ",
"        & & & & & & & & & & & & & & & & & & % O O O O O O O O O O O O & & & & & & & & & % O O O O O O O O O O O O & & & & & & & & & & &         ",
"        & & & & & & & & & & & & & & & & & % q x n n n n n n n n n n a > & & & & & & & % 0 l n n n n n n n n n n d > & & & & & & & & & &         ",
"        & & & & & & & & & & & & & & & & O u { 8.e.e.e.e.e.e.e.e.e.e.:.V & & & & & & & e ' 8.e.e.e.e.e.e.e.e.e.e.:.G & & & & & & & & & &         ",
"      & & & & & & & & & & & & & & & & & O C h.c.c.c.c.c.c.c.c.c.c.c.c.] > & & & & & O S r.c.c.c.c.c.c.c.c.c.c.c.c.O.& & & & & & & & & & &       ",
"      & & & & & & & & & & & & & & & & & O G c.c.c.c.c.c.c.c.c.c.c.c.c...6 & & & & & O J u.c.c.c.c.c.c.c.c.c.c.c.c.$.& & & & & & & & & & &       ",
"      & & & & & & & & & & & & & & & & & O M e.c.c.c.c.c.c.c.c.c.c.c.c.W > & & & & & O x 4.c.c.c.c.c.c.c.c.c.c.c.c._ & & & & & & & & & & &       ",
"    # & & & & & & & & & & & & & & & & & & > R s.c.c.c.c.c.c.c.c.c.c.+.e % & & & & & & > Y 2.8.8.8.8.8.8.8.8.8.5.' a & & & & & & & & & & &       ",
"    % & & & & & & & & & & & & & & & & & & O C e.c.c.c.c.c.c.c.c.c.c./ X & & & & & & O g &.h.c.c.c.c.c.c.c.c.h.X.a O & & & & & & & & & & & ;     ",
"    & & & & & & & & & & & & & & & & & & & O C e.c.c.c.c.c.c.c.c.c.c./ O & & & & & O a +.c.c.c.c.c.c.c.c.c.c.=.k O & & & & & & & & & & & & &     ",
"    & & & & & & & & & & & & & & & & & & & O C e.c.c.c.c.c.c.c.c.c.c./ O & & & & % e | c.c.c.c.c.c.c.c.c.c.,.n % & & & & & & & & & & & & & &     ",
"    & & & & & & & & & & & & & & & & & & & O C e.c.c.c.c.c.c.c.c.c.c./ O & & & % 0 ' h.c.c.c.c.c.c.c.c.c.4.V O & & & & & & & & & & & & & & &     ",
"    & & & & & & & & & & & & & & & & & & & O C e.c.c.c.c.c.c.c.c.c.c./ O & & % 6 ! h.c.c.c.c.c.c.c.c.c.e.H & & & & & & & & & & & & & & & & &     ",
"    & & & & & & & & & & & & & & & & & & & O C e.c.c.c.c.c.c.c.c.c.c./ O & & > Y s.c.c.c.c.c.c.c.c.c.r.L > & & & & & & & & & & & & & & & & &     ",
"    & & & & & & & & & & & & & & & & & & & O C e.c.c.c.c.c.c.c.c.c.c./ O & > P s.c.c.c.c.c.c.c.c.c.s.U > & & & & & & & & & & & & & & & & & &     ",
"    & & & & & & & & & & & & & & & & & & & O C e.c.c.c.c.c.c.c.c.c.c./ X & J e.c.c.c.c.c.c.c.c.c.s.Q 5 % & & & & & & & & & & & & & & & & & &     ",
"    & & & & & & & & & & & & & & & & & & & O C e.c.c.c.c.c.c.c.c.c.c./ . C 8.c.c.c.c.c.c.c.c.c.h._ 6 % & & & & & & & & & & & & & & & & & & &     ",
"    & & & & & & & & & & & & & & & & & & & O C e.c.c.c.c.c.c.c.c.c.c./ l 2.c.c.c.c.c.c.c.c.c.c.} q % & & & & & & & & & & & & & & & & & & & &     ",
"    & & & & & & & & & & & & & & & & & & & O C e.c.c.c.c.c.c.c.c.c.c.@.$.c.c.c.c.c.c.c.c.c.c.O.a % & & & & & & & & & & & & & & & & & & & & &     ",
"    & & & & & & & & & & & & & & & & & & & O C e.c.c.c.c.c.c.c.c.c.c.h.c.c.c.c.c.c.c.c.c.c.$.d O & & & & & & & & & & & & & & & & & & & & & &     ",
"    & & & & & & & & & & & & & & & & & & & O C e.c.c.c.c.c.c.c.c.c.c.c.c.c.c.c.c.c.c.c.c.:.k % & & & & & & & & & & & & & & & & & & & & & & >     ",
"      & & & & & & & & & & & & & & & & & & O C e.c.c.c.c.c.c.c.c.c.c.c.c.c.c.c.c.c.c.c.2.N & & & & & & & & & & & & & & & & & & & & & & & &       ",
"      & & & & & & & & & & & & & & & & & & O C e.c.c.c.c.c.c.c.c.c.c.c.c.c.c.c.c.c.c.8.S & & & & & & & & & & & & & & & & & & & & & & & & &       ",
"      & & & & & & & & & & & & & & & & & & O C e.c.c.c.c.c.c.c.c.c.c.c.c.c.c.c.c.c.e.J & & & & & & & & & & & & & & & & & & & & & & & & & &       ",
"      > & & & & & & & & & & & & & & & & & O C e.c.c.c.c.c.c.c.c.c.c.c.c.c.c.c.c.r.I > & & & & & & & & & & & & & & & & & & & & & & & & & &       ",
"        & & & & & & & & & & & & & & & & & O C e.c.c.c.c.c.c.c.c.c.c.c.c.c.c.c.s.R > % & & & & & & & & & & & & & & & & & & & & & & & & &         ",
"        & & & & & & & & & & & & & & & & & O C e.c.c.c.c.c.c.c.c.c.c.c.c.c.c.h./ 5 % & & & & & & & & & & & & & & & & & & & & & & & & & &         ",
"        & & & & & & & & & & & & & & & & & O C e.c.c.c.c.c.c.c.c.c.c.c.c.c.c.] 6 & & & & & & & & & & & & & & & & & & & & & & & & & & &           ",
"          & & & & & & & & & & & & & & & & O C e.c.c.c.c.c.c.c.c.c.c.c.c.c...e % & & & & & & & & & & & & & & & & & & & & & & & & & & &           ",
"          & & & & & & & & & & & & & & & & O C e.c.c.c.c.c.c.c.c.c.c.c.c.@.a O & & & & & & & & & & & & & & & & & & & & & & & & & & & &           ",
"            & & & & & & & & & & & & & & & O C e.c.c.c.c.c.c.c.c.c.c.c.&.g & & & & & & & & & & & & & & & & & & & & & & & & & & & & &             ",
"            & & & & & & & & & & & & & & & O C 2.s.s.s.s.s.s.s.s.s.s.:.M % & & & & & & & & & & & & & & & & & & & & & & & & & & & &               ",
"              & & & & & & & & & & & & & & & > e e e e e e e e e e e 0 & & & & & & & & & & & & & & & & & & & & & & & & & & & & & &               ",
"                & & & & & & & & & & & & & & & & & & & & & & & & & & & & & & & & & & & & & & & & & & & & & & & & & & & & & & & &                 ",
"                > & & & & & & & & & & & & & & & & & & & & & & & & & & & & & & & & & & & & & & & & & & & & & & & & & & & & & &                   ",
"                  & & & & & & & & & & & & & & & & & & & & & & & & & & & & & & & & & & & & & & & & & & & & & & & & & & & & & &                   ",
"                    > & & & & & & & & & & & & & & & & & & & & & & & & & & & & & & & & & & & & & & & & & & & & & & & & & & &                     ",
"                      & & & & & & & & & & & & & & & & & & & & & & & & & & & & & & & & & & & & & & & & & & & & & & & & & &                       ",
"                        & & & & & & & & & & & & & & & & & & & & & & & & & & & & & & & & & & & & & & & & & & & & & & & &                         ",
"                          & & & & & & & & & & & & & & & & & & & & & & & & & & & & & & & & & & & & & & & & & & & & & &                           ",
"                            & & & & & & & & & & & & & & & & & & & & & & & & & & & & & & & & & & & & & & & & & & & &                             ",
"                              & & & & & & & & & & & & & & & & & & & & & & & & & & & & & & & & & & & & & & & & & &                               ",
"                                  & & & & & & & & & & & & & & & & & & & & & & & & & & & & & & & & & & & & & &                                   ",
"                                    > & & & & & & & & & & & & & & & & & & & & & & & & & & & & & & & & & & &                                     ",
"                                        & & & & & & & & & & & & & & & & & & & & & & & & & & & & & & & &                                         ",
"                                            & & & & & & & & & & & & & & & & & & & & & & & & & & & &                                             ",
"                                                  > & & & & & & & & & & & & & & & & & & & & &                                                   ",
"                                                        & & & & & & & & & & & & & & & &                                                         ",
"                                                                                                                                                ",
"                                                                                                                                                "
};
