/* XPM */
static char *firefox[] = {
/* columns rows colors chars-per-pixel */
"72 72 247 2 ",
"   c None",
".  c #E1856B",
"X  c #E1856C",
"o  c #E1866C",
"O  c #E1866D",
"+  c #E1876D",
"@  c #E1876E",
"#  c #E2876E",
"$  c #E1886F",
"%  c #E2886E",
"&  c #E2886F",
"*  c #E2896F",
"=  c #E3896F",
"-  c #E18970",
";  c #E28870",
":  c #E28970",
">  c #E38970",
",  c #E28971",
"<  c #E18A70",
"1  c #E28A70",
"2  c #E28A71",
"3  c #E28A72",
"4  c #E28B72",
"5  c #E38B72",
"6  c #E38B73",
"7  c #E38C73",
"8  c #E38C74",
"9  c #E38D75",
"0  c #E38E75",
"q  c #E38E76",
"w  c #E38E77",
"e  c #E38F77",
"r  c #E48F78",
"t  c #E49078",
"y  c #E49079",
"u  c #E49179",
"i  c #E4917A",
"p  c #E4917B",
"a  c #E4927A",
"s  c #E4927B",
"d  c #E4937C",
"f  c #E5947D",
"g  c #E4947E",
"h  c #E5957F",
"j  c #E5967F",
"k  c #E59680",
"l  c #E59780",
"z  c #E59781",
"x  c #E69781",
"c  c #E69882",
"v  c #E69883",
"b  c #E69983",
"n  c #E69984",
"m  c #E69A84",
"M  c #E69A85",
"N  c #E79B85",
"B  c #E69B86",
"V  c #E79B86",
"C  c #E79C88",
"Z  c #E79D88",
"A  c #E79D89",
"S  c #E79E89",
"D  c #E79F8B",
"F  c #E89F8B",
"G  c #E7A08C",
"H  c #E8A08B",
"J  c #E8A08C",
"K  c #E8A08D",
"L  c #E8A18D",
"P  c #E8A28E",
"I  c #E8A38F",
"U  c #E8A390",
"Y  c #E9A491",
"T  c #E9A591",
"R  c #E9A592",
"E  c #E9A694",
"W  c #E9A794",
"Q  c #E9A795",
"!  c #EAA895",
"~  c #EAA896",
"^  c #EAA996",
"/  c #EBAB98",
"(  c #EAAB99",
")  c #EBAD9B",
"_  c #EBAD9C",
"`  c #EBAE9C",
"'  c #EBAE9D",
"]  c #EBAF9E",
"[  c #EBB09F",
"{  c #ECB09F",
"}  c #ECB1A1",
"|  c #ECB2A1",
" . c #ECB2A2",
".. c #ECB3A3",
"X. c #EDB3A3",
"o. c #ECB4A4",
"O. c #EDB4A4",
"+. c #EDB5A5",
"@. c #EDB5A6",
"#. c #EDB6A6",
"$. c #EDB7A7",
"%. c #EEB7A7",
"&. c #EDB7A8",
"*. c #EDB8A8",
"=. c #EDB8A9",
"-. c #EEB9A9",
";. c #EEB9AA",
":. c #EEBAAB",
">. c #EEBAAC",
",. c #EEBBAC",
"<. c #EEBBAD",
"1. c #EFBDAF",
"2. c #EFBEB0",
"3. c #EFBFB1",
"4. c #F0BEB1",
"5. c #EFC0B3",
"6. c #F0C0B3",
"7. c #F0C1B4",
"8. c #F0C2B4",
"9. c #F0C2B5",
"0. c #F1C5B8",
"q. c #F0C5B9",
"w. c #F1C5B9",
"e. c #F1C6B9",
"r. c #F1C6BA",
"t. c #F1C6BB",
"y. c #F1C7BB",
"u. c #F2C7BC",
"i. c #F1C9BE",
"p. c #F2C9BE",
"a. c #F2CABE",
"s. c #F2CABF",
"d. c #F2CBBF",
"f. c #F2CBC0",
"g. c #F2CDC2",
"h. c #F3CDC3",
"j. c #F3CEC3",
"k. c #F3CEC4",
"l. c #F3CFC4",
"z. c #F3CFC5",
"x. c #F3D0C5",
"c. c #F3D1C6",
"v. c #F4D0C6",
"b. c #F4D0C7",
"n. c #F4D1C7",
"m. c #F4D1C8",
"M. c #F4D2C8",
"N. c #F4D2C9",
"B. c #F4D3CA",
"V. c #F5D3CA",
"C. c #F4D4CA",
"Z. c #F5D4CA",
"A. c #F4D4CB",
"S. c #F5D4CC",
"D. c #F4D5CC",
"F. c #F5D5CC",
"G. c #F5D5CD",
"H. c #F5D6CD",
"J. c #F5D7CE",
"K. c #F5D7CF",
"L. c #F6D7CF",
"P. c #F5D8D0",
"I. c #F5D9D1",
"U. c #F6D8D0",
"Y. c #F6D9D1",
"T. c #F6DAD2",
"R. c #F6DBD3",
"E. c #F6DBD4",
"W. c #F6DCD4",
"Q. c #F7DDD6",
"!. c #F7DED7",
"~. c #F7DFD7",
"^. c #F7DFD8",
"/. c #F7E0D9",
"(. c #F7E0DA",
"). c #F8E0DA",
"_. c #F8E1DA",
"`. c #F8E1DB",
"'. c #F8E3DD",
"]. c #F8E3DE",
"[. c #F8E5DF",
"{. c #F9E5DF",
"}. c #F8E5E0",
"|. c #F9E6E0",
" X c #F9E6E1",
".X c #F9E7E1",
"XX c #F9E6E2",
"oX c #F9E7E2",
"OX c #F9E9E4",
"+X c #FAE9E4",
"@X c #F9EAE5",
"#X c #FAEAE5",
"$X c #FAEBE7",
"%X c #FAECE7",
"&X c #FAECE8",
"*X c #FAECE9",
"=X c #FAEDE9",
"-X c #FBEDE9",
";X c #FBEDEA",
":X c #FBEEEA",
">X c #FBEEEB",
",X c #FBEFEB",
"<X c #FBEFEC",
"1X c #FBF0EC",
"2X c #FBF0ED",
"3X c #FBF1ED",
"4X c #FBF1EE",
"5X c #FCF0ED",
"6X c #FCF1ED",
"7X c #FCF0EE",
"8X c #FCF1EE",
"9X c #FCF1EF",
"0X c #FCF2EE",
"qX c #FCF2F0",
"wX c #FCF3F0",
"eX c #FCF3F1",
"rX c #FCF4F1",
"tX c #FCF4F2",
"yX c #FDF4F2",
"uX c #FCF5F2",
"iX c #FDF5F2",
"pX c #FDF5F3",
"aX c #FDF6F4",
"sX c #FDF6F5",
"dX c #FDF7F5",
"fX c #FDF7F6",
"gX c #FDF8F6",
"hX c #FDF8F7",
"jX c #FDF9F7",
"kX c #FEF8F7",
"lX c #FEF9F7",
"zX c #FDF9F8",
"xX c #FEF9F8",
"cX c #FEFAF8",
"vX c #FEFAF9",
"bX c #FEFAFA",
"nX c #FEFBFA",
"mX c #FEFBFB",
"MX c #FEFCFB",
"NX c #FEFCFC",
"BX c #FEFDFC",
"VX c #FEFDFD",
"CX c #FFFDFD",
"ZX c #FFFEFD",
"AX c #FFFEFE",
"SX c #FFFFFE",
"DX c white",
/* pixels */
"                                                                                                                                                ",
"                                                                                                                                                ",
"                                                              $ : : : : : : : $ :                                                               ",
"                                                      $ : : : : : : : : : : : : : : : : :                                                       ",
"                                                : : : : : : : : : : : : : : : : : : : : : : : :                                                 ",
"                                          : : : : : : : : : : : : : : : : : : : : : : : : : : : : : :                                           ",
"                                      : : : : : : : : : : : : : : : : : : : : : : : : : : : : : : : : : :                                       ",
"                                    : : : : : : : : : : : : : : : : : : : : : : : : : : : : : : : : : : : :                                     ",
"                                : : : : : : : : : : : : : : : : : : : : : : : : : : : : : : : : : : : : : : : :                                 ",
"                              : : : : : : : : : : : : : : : : : : : : : : : : : : : : : : : : : : : : : : : : : :                               ",
"                            : : : : : : : : : : : : : : : : : : : : : : : : : : : : : : : : : : : : : : : : : : : :                             ",
"                          : : : : : : : : : : : : : : : : : : : : : : : : : : : : : : : : : : : : : : : : : : : : : :                           ",
"                        : : : : : : : : : : : : : : : : : : : : : : : : : : : : : : : : : : : : : : : : : : : : : : : :                         ",
"                      : : : : : : : : : : : : : : : : : : : : : : : : : : : : : : : : : : : : : : : : : : : : : : : : : :                       ",
"                    : : : : : i d i i q : X $ : : : : : : : : : : : : : : : : : : : : : : : : : : : $ X : q i : : : : : : :                     ",
"                  : : : : : i {.wX*X{.M.+.J i X $ : : : : : : : : : : : : : : : : : : : : : : : $ X q C &.T.T.l $ : : : : : :                   ",
"                : : : : : : Y gXDXDXDXDXDXtXT.;.h : : : : : : : : : : : : : : : : : : : : : : $ i  .b.2XDXDXtX( X : : : : : : :                 ",
"              : : : : : : : 3.MXDXDXDXDXDXDXDXnX'. .q $ : : : : : : : : : : : : : : : : $ : d ;._.gXDXDXDXDXDX,.X : : : : : : :                 ",
"              : : : : : : : l.DXsXnXDXDXDXDXDXDXDXgXM.C $ : : : : : : : : : : : : : : $ i  .'.nXDXDXDXDXgXnXDXu.$ : : : : : : : :               ",
"            : : : : : : : : J.DX/.j.nXDXDXDXDXDXDXDXDX}.E : : : : : : : : : : : : : : J A.nXDXDXDXDXDXDXM./.DXJ.i $ : : : : : : : :             ",
"            : : : : : : : : E.DXA.B '.DXDXDXDXDXDXDXDXDX*X~ $ : : : : : : : : : : 7  .+XDXDXDXDXDXDXDX*XJ x.DX'.v $ : : : : : : : :             ",
"          : : : : : : : : : W.DXf.:  .nXDXDXDXDXDXDXDXDXDX+XJ $ $ X X X X X $ $ q ,.sXDXDXDXDXDXDXDXDXy.: s.DX*XC X : : : : : : : : :           ",
"          : : : : : : : : : T.DXy.X l _.DXDXDXDXDXDXDXDXDXDXJ.h J  .;.,.&. .Y q ) wXDXDXDXDXDXDXDXDX2XB $ y.DX2XG X : : : : : : : : :           ",
"        : : : : : : : : : : A.DXy.X $ y.DXDXDXDXDXDXDXDXDXDXgX'.*XsXnXDXnXsX2X_.*XDXDXDXDXDXDXDXDXDXE.q : y.DX2XJ X : : : : : : : : : :         ",
"        : : : : : : : : : : y.DXM.q . 6.DXDXDXDXDXDXDXDXDXDXDXDXDXDXDXDXDXDXDXDXDXDXDXDXDXDXDXDXDXDXb.q $ j.DX*XC X : : : : : : : : : :         ",
"        : : : : : : : : : : ' nX+XB X y.DXDXDXDXDXDXDXDXDXDXDXDXDXDXDXDXDXDXDXDXDXDXDXDXDXDXDXDXDXDXT.q q W.DX}.B $ : : : : : : : : : :         ",
"      : : : : : : : : : : : h 6XMX' i T.DXDXDXDXDXDXDXDXDXDXDXDXDXDXDXDXDXDXDXDXDXDXDXDXDXDXDXDXDXDX+Xq E 6XDXJ.i $ : : : : : : : : : : :       ",
"      : : : : : : : : : : : q J.DXT.Y *XDXDXDXDXDXDXDXDXDXDXDXDXDXDXDXDXDXDXDXDXDXDXDXDXDXDXDXDXDXDXtXC s.DXDX7.X : : : : : : : : : : : :       ",
"      : : : : : : : : : : : $ [ nXsXl.nXDXDXDXDXDXDXDXDXDXDXDXDXDXDXDXDXDXDXDXDXDXDXDXDXDXDXDXDXDXDXnXM.2XDXtX) X : : : : : : : : : : : :       ",
"    $ : : : : : : : : : : : $ l _.DXnXDXDXDXDXDXDXDXDXDXDXDXDXDXDXDXDXDXDXDXDXDXDXDXDXDXDXDXDXDXDXDXDXnXDXDX_.i : : : : : : : : : : : : :       ",
"    : : : : : : : : : : : : : $ +.gXDXDXDXDXDXDXDXDXDXDXDXDXDXDXDXDXDXDXDXDXDXDXDXDXDXDXDXDXDXDXDXDXDXDXDXDX3.: : : : : : : : : : : : : : :     ",
"    : : : : : : : : : : : : : $ i M.DXDXDXDXDXDXDXDXDXDXDXDXDXDXDXDXDXDXDXDXDXDXDXDXDXDXDXDXDXDXDXDXDXDXDX<Xv : : : : : : : : : : : : : : :     ",
"    : : : : : : : : : : : : : : $ ,.nXDXDXDXDXDXDXDXDXDXDXDXDXDXDXDXDXDXDXDXDXDXDXDXDXDXDXDXDXDXDXDXDXDXDX{.i : : : : : : : : : : : : : : :     ",
"    : : : : : : : : : : : : : : : M.DXDXDXDXDXDXDXDXDXDXDXDXDXDXDXDXDXDXDXDXDXDXDXDXDXDXDXDXDXDXDXDXDXDXDX*Xi : : : : : : : : : : : : : : :     ",
"    : : : : : : : : : : : : : $ B +XDXDXDXDXDXDXDXDXDXDXDXDXDXDXDXDXDXDXDXDXDXDXDXDXDXDXDXDXDXDXDXDXDXDXDXtXl : : : : : : : : : : : : : : :     ",
"    : : : : : : : : : : : : : X 1.DXDXDXDXDX}.*XDXDXDXDXDXDXDXDXDXDXDXDXDXDXDXDXDXDXDXDXDXnX+XgXDXDXDXDXDXnX( : : : : : : : : : : : : : : :     ",
"    : : : : : : : : : : : : $ v '.DXDXDXDXDXJ.;.6XDXDXDXDXDXDXDXDXDXDXDXDXDXDXDXDXDXDXDXDXs.6.nXDXDXDXDXDXDX7.: : : : : : : : : : : : : : :     ",
"    : : : : : : : : : : : : : ,.DXDXDXDXDXDX_.v +.wXDXDXDXDXDXDXDXDXDXDXDXDXDXDXDXDXDXDXM.q 3.DXDXDXDXDXDXDXJ.: : : : : : : : : : : : : : :     ",
"    : : : : : : : : : : : : l +XDXDXDXDXDXDX*XU q ;.tXDXDXDXDXDXDXDXDXDXDXDXDXDXDXDXDXA.l q s.DXDXDXDXDXDXDX}.l $ : : : : : : : : : : : : :     ",
"    : : : : : : : : : : : : y.DXDXDXDXDXDXDXDX*Xb. .A.MXDXDXDXDXDXDXDXDXDXDXDXDXDXDX}.+.7.'.gXDXDXDXDXDXDXDXgX .X : : : : : : : : : : : : :     ",
"    : : : : : : : : : : $ F +XDXDXDXDXDXDXDXDXDXDXDXwXnXDXDXDXDXDXDXDXDXDXDXDXDXDXDXwXnXDXDXDXDXDXDXDXDXDXDXDXJ.i $ : : : : : : : : : : : :     ",
"    $ : : : : : : : : : $ l 3.W.sXDXDXDXDXDXDXDXDXDXDXDXDXDXDXDXDXDXDXDXDXDXDXDXDXDXDXDXDXDXDXDXDXDXDXDXDXMX}.1.i $ : : : : : : : : : : : $     ",
"    $ : : : : : : : : : : $ : Y J.}.6XnXDXDXDXDXDXDXDXDXDXDXDXDXDXDXDXDXDXDXDXDXDXDXDXDXDXDXDXDXDXDXDXnX6X^.~ : : : : : : : : : : : : : : :     ",
"      : : : : : : : : : : : : ' s.M.J._.*XMXDXDXDXDXDXDXDXDXDXDXDXDXDXDXDXDXDXDXDXDXDXDXDXDXDXDXDXDX6X_.J.l.{ : : : : : : : : : : : : : :       ",
"      : : : : : : : : : : : : i l B Y +.y.W.6XDXDXDXDXDXDXDXDXDXDXDXDXDXDXDXDXDXDXDXDXDXDXDXDXDXtXT.,.~ C B d : : : : : : : : : : : : : :       ",
"      : : : : : : : : : : : : $ $ $ : : q h ' J.nXDXDXDXDXDXDXDXDXDXDXDXDXDXDXDXDXDXDXDXDXDXDX^.~ r 7 : $ $ $ : : : : : : : : : : : : : $       ",
"      : : : : : : : : : : : : : : : : : : : : q 5.tXDXDXDXDXDXDXDXDXDXDXDXDXDXDXDXDXDXDXDXnXx.h $ : : : : : : : : : : : : : : : : : : : $       ",
"        : : : : : : : : : : : : : : : : : : : $ : 3.gXDXDXDXDXDXDXDXDXDXDXDXDXDXDXDXDXDXDXl.i $ : : : : : : : : : : : : : : : : : : : :         ",
"        : : : : : : : : : : : : : : : : : : : : $ : y.DXDXDXDXDXDXDXDXDXDXDXDXDXDXDXDXDXJ.i $ : : : : : : : : : : : : : : : : : : : : :         ",
"        : : : : : : : : : : : : : : : : : : : : : : i T.DXDXDXDXDXDXDXDXDXDXDXDXDXDXDX'.B $ : : : : : : : : : : : : : : : : : : : : :           ",
"          : : : : : : : : : : : : : : : : : : : : : $ E wXDXDXDXDXDXDXDXDXDXDXDXDXDXtX' $ : : : : : : : : : : : : : : : : : : : : : :           ",
"          : : : : : : : : : : : : : : : : : : : : : $ : y.DXDXDXDXDXDXDXDXDXDXDXDXDXy.: : : : : : : : : : : : : : : : : : : : : : : :           ",
"            : : : : : : : : : : : : : : : : : : : : : $ B }.DXDXDXDXDXDXDXDXDXDXDX}.h : : : : : : : : : : : : : : : : : : : : : : :             ",
"            : : : : : : : : : : : : : : : : : : : : : : : 7.DXDXDXDXDXDXDXDXDXDXnX+.: : : : : : : : : : : : : : : : : : : : : : :               ",
"              : : : : : : : : : : : : : : : : : : : : : : h +XDXDXDXDXDXDXDXDXDXT.d $ : : : : : : : : : : : : : : : : : : : : : :               ",
"                : : : : : : : : : : : : : : : : : : : : : : 4.DXnX2X2X<X*X*XnXgX .X : : : : : : : : : : : : : : : : : : : : : :                 ",
"                $ : : : : : : : : : : : : : : : : : : : : X C %XsX+.C C C +.wX/.i $ : : : : : : : : : : : : : : : : : : : : :                   ",
"                  : : : : : : : : : : : : : : : : : : : : : : y.DXJ.q X q M.nX+.$ : : : : : : : : : : : : : : : : : : : : : :                   ",
"                    : : : : : : : : : : : : : : : : : : : : $ H *XnX,.: ,.nX}.i : : : : : : : : : : : : : : : : : : : : : :                     ",
"                      : : : : : : : : : : : : : : : : : : : : : s.DX*X+.*XDX;.: : : : : : : : : : : : : : : : : : : : : $                       ",
"                        : : : : : : : : : : : : : : : : : : : : v }.DXnXDXW.v $ : : : : : : : : : : : : : : : : : : : :                         ",
"                          $ : : : : : : : : : : : : : : : : : : : J j./.s.C $ : : : : : : : : : : : : : : : : : : : :                           ",
"                            : : : : : : : : : : : : : : : : : : : $ q h q $ : : : : : : : : : : : : : : : : : : : :                             ",
"                              $ : : : : : : : : : : : : : : : : : : $ $ : : : : : : : : : : : : : : : : : : : : :                               ",
"                                  : : : : : : : : : : : : : : : : : : : : : : : : : : : : : : : : : : : : : :                                   ",
"                                    : : : : : : : : : : : : : : : : : : : : : : : : : : : : : : : : : : : :                                     ",
"                                        $ : : : : : : : : : : : : : : : : : : : : : : : : : : : : : : :                                         ",
"                                            : : : : : : : : : : : : : : : : : : : : : : : : : : : :                                             ",
"                                                  : : : : : : : : : : : : : : : : : : : : : :                                                   ",
"                                                        : : : : : : : : : : : : : : : :                                                         ",
"                                                                                                                                                ",
"                                                                                                                                                "
};
