/* XPM */
static char *result[] = {
/* columns rows colors chars-per-pixel */
"72 72 57 1 ",
"  c #3F3A37",
". c #3E3A38",
"X c #453737",
"o c #4C3736",
"O c #433D37",
"+ c #4A3936",
"@ c #523736",
"# c #5B3634",
"$ c #523835",
"% c #7C312F",
"& c #643433",
"* c #6B3432",
"= c #733331",
"- c #7A3230",
"; c #5F5C2F",
": c #464236",
"> c #494535",
", c #4D4A34",
"< c #514E33",
"1 c #555332",
"2 c #595630",
"3 c #5D5A30",
"4 c #615E2E",
"5 c #65632E",
"6 c #69662D",
"7 c #6C6A2B",
"8 c #716E29",
"9 c #787627",
"0 c #7C7A26",
"q c #757329",
"w c #787728",
"e c #7B7928",
"r c #8D2F2C",
"t c #942E2B",
"y c #9B2D29",
"u c #84302E",
"i c #8A302D",
"p c #A62B27",
"a c #AC2B26",
"s c #A32C29",
"d c #A82C28",
"f c #BD2721",
"g c #B42924",
"h c #BA2822",
"j c #C5261F",
"k c #CC241D",
"l c #C22620",
"z c #817F25",
"x c #8E8D1F",
"c c #908F1E",
"v c #94931D",
"b c #98971A",
"n c #99981A",
"m c #848323",
"M c #888722",
"N c #8B8A20",
"B c None",
/* pixels */
"BBBBBBBBBBBBBBBBBBBBBBBBBBBBBBBBBBBBBBBBBBBBBBBBBBBBBBBBBBBBBBBBBBBBBBBB",
"BBBBBBBBBBBBBBBBBBBBBBBBBBBBBBBBBBBBBBBBBBBBBBBBBBBBBBBBBBBBBBBBBBBBBBBB",
"BBBBBBBBBBBBBBBBBBBBBBBBBBBBBBBBBBBBBBBBBBBBBBBBBBBBBBBBBBBBBBBBBBBBBBBB",
"BBBBBBBBBBBBBBBBBBBBBBBBBBBBBBBBBBBBBBBBBBBBBBBBBBBBBBBBBBBBBBBBBBBBBBBB",
"BBBBBBBBBBBBBBBBBBBBBBBBBBBBBBBBBBBBBBBBBBBBBBBBBBBBBBBBBBBBBBBBBBBBBBBB",
"BBBBBBBBBBBBBBBBBBBBBBBBBBBBBBBBBBBBBBBBBBBBBBBBBBBBBBBBBBBBBBBBBBBBBBBB",
"BBBBBBBBBBBBBBBBBB#=%-#BBBBBBBBBO,44444;,BBBBBBBB1453:BBBBBBBBBBBBBBBBBB",
"BBBBBBBBBBBBBBBBBoykkky@BBBBBBBBB3cnbvbv7OBBBBBB,mnvv5BBBBBBBBBBBBBBBBBB",
"BBBBBBBBBBBBBBBBB=lkkkl-BBBBBBBBB>wnnbbnN1BBBBBO7vnnnm,BBBBBBBBBBBBBBBBB",
"BBBBBBBBBBBBBBBB+ykkkkka#BBBBBBBBB2Nnnbbbq:BBBB1xnnvnv5BBBBBBBBBBBBBBBBB",
"BBBBBBBBBBBBBBBBB-lkkkkkuBBBBBBBBBO7vnbbbc3BBB:qvnnnnx2BBBBBBBBBBBBBBBBB",
"BBBBBBBBBBBBBBBBB$skkkkkg&BBBBBBBBB1Mbbbbn0>BB;vnbnnv7OBBBBBBBBBBBBBBBBB",
"BBBBBBBBBBBBBBBBBB=lkkkkkr+BBBBBBBBB5vbbbbv5.,0nbbbnm1BBBBBBBBBBBBBBBBBB",
"BBBBBBBBBBBBBBBBBBotkkkkkh*BBBBBBBBB,znbbbnm,5vbbbbv5BBBBBBBBBBBBBBBBBBB",
"BBBBBBBBBBBBBBBBBBB&hkkkkky@BBBBBBBBB3vnbbbvzxvbbbn0>BBBBBBBBBBBBBBBBBBB",
"BBBBBBBBBBBBBBBBBBBXukkkkkl-BBBBBBBBB:qbbbbbvnnnbbc;BBBBBBBBBBBBBBBBBBBB",
"BBBBBBBBBBBBBBBBBBBB#akkkkkp#BBBBBBBBB1xbbbbbbbbbbq:BBBBBBBBBBBBBBBBBBBB",
"BBBBBBBBBBBB&=*****&*ykkkkkkr********&O7bbbbbbbbbN1BBBBBBBBBBBBBBBBBBBBB",
"BBBBBBBBBBB&gklljjjjjkkkkkkkjjjjjjljlh*,mnbbbbbbv6OBBBBBBBB.XBBBBBBBBBBB",
"BBBBBBBBBB+tlkkkkkkkkkkkkkkkkkkkkkkkkks+5vbbbbnnm<BBBBBBBBB&*BBBBBBBBBBB",
"BBBBBBBBBB*hkkkkkkkkkkkkkkkkkkkkkkkkkkj%:0nnbbbv6BBBBBBBBBoyd#BBBBBBBBBB",
"BBBBBBBBB@skkkkkkkkkkkkkkkkkkkkkkkkkkkka#3vbbbbb8:BBBBBBBB=lluBBBBBBBBBB",
"BBBBBBBBB-lkkkkkkkkkkkkkkkkkkkkkkkkkkkkki+qvbbbnN2BBBBBBB#dkkg&BBBBBBBBB",
"BBBBBBBBoiddddddddddddddddddddddddddddddt@1Nnbbbbw>BBBBBB%lkkktoBBBBBBBB",
"BBBBBBBBXo$@@o$@$@ooo++o+Xoo+o@@o$@o$@o@oXO7vbbbvv;BBBBB#gkkkkl*BBBBBBBB",
"BBBBBBBBBBBBBBBBBBBB<7888882OBBBBBBBBBBBBBB<mnbbnbz,BBBXikkkkkl=BBBBBBBB",
"BBBBBBBBBBBBBBBBBBB:qnnnnnx2BBBBBBBBBBBBBBBB5vbbbbv6BBB*hkkkkkyoBBBBBBBB",
"BBBBBBBBBBBBBBBBBBB3xnnbnb7OBBBBBBBBBBBBBBBB:0bbbbnM<B@tkkkkkh&BBBBBBBBB",
"BBBBBBBBBBBBBBBBBB>0nnbbnm<BBBBBBBBBBBBBBBBBB3xnbbbv6.=lkkkkkr+BBBBBBBBB",
"BBBBBBBBBBBBBBBBBB5vbbbnv6BBBBBBBBBBBBBBBBBBB:qvbbnv5oakkkkka#BBBBBBBBBB",
"BBBBBBBBBBBBBBBBB<mbbbbv0,BBBBBBBBBBBBBBBBBBBB1Nnbn0:ukkkkkj-BBBBBBBBBBB",
"BBBBBBBBBBBBBBBBO8vnbbbv;BBBBBBBBBBBBBBBBBBBBBO7vbx2#gkkkkks#BBBBBBBBBBB",
"BBBO::::BBBBBBBO2Nbbnnnw:BBBBBBBBBBBBBBBBBBBBBB,mvqOrkkkkkj-+o$@@oooBBBB",
"BB:60eewqqqqqqqqmnbbnnN1BBBBBBBBBBBBBBBBBBBBBBBB5m<*hkkkkkkgddddddds=BBB",
"BB1Nnnbbnnbbnnnbnnbbnv7OBBBBBBBBBBBBBBBBBBBBBBBB>1+ykkkkkkkkkkkkkkkka#BB",
"B:qbbbbbbnbbbbbbnnbbbm<BBBBBBBBBBBBBBBBBBBBBBBBBBO=lkkkkkkkkkkkkkkkkkiXB",
"B<mnbbbbbbbbbnbbvbbbv5.BBBBBBBBBBBBBBBBBBBBBBBBBB#akkkkkkkkkkkkkkkkklyXB",
"BO7vbbbbbbbbbnbbbbbb0>XBBBBBBBBBBBBBBBBBBBBBBBBBBulkkkkkkkkkkkkkkkkkl=BB",
"BB<mvcvvvvvvvnbbbbbc3#u#BBBBBBBBBBBBBBBBBBBBBBBB&gkkkkkkjjjjjjjjlllltoBB",
"BBB256556655ebbbbbnqOil%BBBBBBBBBBBBBBBBBBBBBBBotkkkkkfu**==---%----#BBB",
"BBBBBBBBBBB:ebbbbbN1&hkg#BBBBBBBBBBBBBBBBBBBBBB*hkkkkktoBBBBBBBBBBBBBBBB",
"BBBBBBBBBBB3vbbbbv7+tkkjuoBBBBBBBBBBBBBBBBBBBB@ykkkkkh&BBBBBBBBBBBBBBBBB",
"BBBBBBBBBB,zbbbbbm>=lkkkh&BBBBBBBBBBBBBBBBBBBB-lkkkkjuXBBBBBBBBBBBBBBBBB",
"BBBBBBBBBB5vvnbbv4oykkkkkt@BBBBBBBBBBBBBBBBBB#akkkkka#BBBBBBBBBBBBBBBBBB",
"BBBBBBBBB<mnbbbne>Xtkkkkkl=BBBBBBBBBBBBBBBBBXukkkkkk%BBBBBBBBBBBBBBBBBBB",
"BBBBBBBBOqnnbbnx3BB&gkkkkkd$BBBBBBBBBBBBBBBB&hkkkkky@BBBBBBBBBBBBBBBBBBB",
"BBBBBBBB2Nbbbbvq:BBBulkkkkj%BBBBBBBBBBBBBBBXilllljh*BBBBBBBBBBBBBBBBBBBB",
"BBBBBBBO8bbbbbN<BBBB#akkkkkg#BBBBBBBBBBBBBBX#&*&&&&XBBBBBBBBBBBBBBBBBBBB",
"BBBBBBBB3cnnvv6OBBBBB-lkkkkkiX>2222222222222211211122222222222> BBBBBBBB",
"BBBBBBBB:qnnnm,BBBBBB@ykkkkkh&1mcvvcvvvvvccvccvvvvcvvcvcvvvcvx;BBBBBBBBB",
"BBBBBBBBB1Mnc5BBBBBBBB*hkkkkky+6bbbbbbbbbbbbbbbbbbbbbbbbvnnbbe>BBBBBBBBB",
"BBBBBBBBBO6ve>BBBBBBBBotkkkkkj=,mbbbbbbbbbbbbbbbbbbbbbbbnnbnx3BBBBBBBBBB",
"BBBBBBBBBB,q3BBBBBBBBB#pkkkkkkp@4vnbbbbbbbbbbbbbbbbbbbbbbbbvq:BBBBBBBBBB",
"BBBBBBBBBBB,OBBBBBBBBB%lkkkkkkju:0nnbbbnbbnnbbbbbbnnnnnnnnnN1BBBBBBBBBBB",
"BBBBBBBBBBBBBBBBBBBBB#gkkkkkkkkh$1000000000cnnbbbbm000000005OBBBBBBBBBBB",
"BBBBBBBBBBBBBBBBBBBB+ikkkkkkkkkki: OOOOOOO:6vbbbbv6OOOO::OOOBBBBBBBBBBBB",
"BBBBBBBBBBBBBBBBBBBB*hkkkkkkkkkkh*BBBBBBBBB,mvbbbbm,BBBBBBBBBBBBBBBBBBBB",
"BBBBBBBBBBBBBBBBBBBoykkkkkkjkkkkkyoBBBBBBBBB4vnnbbv7OBBBBBBBBBBBBBBBBBBB",
"BBBBBBBBBBBBBBBBBBB=lkkkkkttkkkkkl-BBBBBBBBB:ebnbbnM1BBBBBBBBBBBBBBBBBBB",
"BBBBBBBBBBBBBBBBBB#dkkkkka##gkkkkkd#BBBBBBBBB2Nnbbbvq:BBBBBBBBBBBBBBBBBB",
"BBBBBBBBBBBBBBBBBBukkkkkj%BB-jkkkkjuBBBBBBBBB:8bbbbnx3BBBBBBBBBBBBBBBBBB",
"BBBBBBBBBBBBBBBBB&gkkkkkd#BB#pkkkkkg&BBBBBBBBB1Mbbbbb0:BBBBBBBBBBBBBBBBB",
"BBBBBBBBBBBBBBBBXrkkkkkl=BBBB=lkkkkkroBBBBBBBBB6vbbbnv4BBBBBBBBBBBBBBBBB",
"BBBBBBBBBBBBBBBBXijkkkktoBBBBotkkkkkf*BBBBBBBBB>mbbbvv3BBBBBBBBBBBBBBBBB",
"BBBBBBBBBBBBBBBBB#gkkkg&BBBBBB*hkkkkks@BBBBBBBBB4vnnnw:BBBBBBBBBBBBBBBBB",
"BBBBBBBBBBBBBBBBBB=ggguXBBBBBBXugggggd&BBBBBBBBB>qMMm1BBBBBBBBBBBBBBBBBB",
"BBBBBBBBBBBBBBBBBBo$#@oBBBBBBBBo#@@###oBBBBBBBBBB:>>>BBBBBBBBBBBBBBBBBBB",
"BBBBBBBBBBBBBBBBBBBBBBBBBBBBBBBBBBBBBBBBBBBBBBBBBBBBBBBBBBBBBBBBBBBBBBBB",
"BBBBBBBBBBBBBBBBBBBBBBBBBBBBBBBBBBBBBBBBBBBBBBBBBBBBBBBBBBBBBBBBBBBBBBBB",
"BBBBBBBBBBBBBBBBBBBBBBBBBBBBBBBBBBBBBBBBBBBBBBBBBBBBBBBBBBBBBBBBBBBBBBBB",
"BBBBBBBBBBBBBBBBBBBBBBBBBBBBBBBBBBBBBBBBBBBBBBBBBBBBBBBBBBBBBBBBBBBBBBBB",
"BBBBBBBBBBBBBBBBBBBBBBBBBBBBBBBBBBBBBBBBBBBBBBBBBBBBBBBBBBBBBBBBBBBBBBBB"
};
