/* XPM */
static char *terminal[] = {
/* columns rows colors chars-per-pixel */
"72 72 135 2 ",
"   c None",
".  c #4E6368",
"X  c #4F6368",
"o  c #506469",
"O  c #50656A",
"+  c #51656A",
"@  c #51656B",
"#  c #51666B",
"$  c #52666B",
"%  c #53666B",
"&  c #53676B",
"*  c #54666B",
"=  c #52666C",
"-  c #53666C",
";  c #52676C",
":  c #53676C",
">  c #53676D",
",  c #54666C",
"<  c #54676C",
"1  c #54676D",
"2  c #53686C",
"3  c #53686D",
"4  c #54686D",
"5  c #56696E",
"6  c #566A6E",
"7  c #576B6F",
"8  c #576B70",
"9  c #586C71",
"0  c #596D72",
"q  c #5A6D72",
"w  c #5B6E73",
"e  c #5C6F73",
"r  c #5C6F74",
"t  c #5D7075",
"y  c #5E7175",
"u  c #607277",
"i  c #627478",
"p  c #63767A",
"a  c #64767B",
"s  c #65777C",
"d  c #66787C",
"f  c #67797D",
"g  c #687A7E",
"h  c #697A7F",
"j  c #6B7D81",
"k  c #6C7D81",
"l  c #6E7F83",
"z  c #6F7F84",
"x  c #6F8084",
"c  c #708085",
"v  c #738387",
"b  c #738488",
"n  c #758589",
"m  c #76868A",
"M  c #79888C",
"N  c #7A898D",
"B  c #7C8B8F",
"V  c #7D8C90",
"C  c #7D8D90",
"Z  c #7E8D91",
"A  c #819093",
"S  c #839295",
"D  c #849396",
"F  c #859396",
"G  c #869498",
"H  c #869598",
"J  c #879599",
"K  c #89969A",
"L  c #8C9A9D",
"P  c #909DA0",
"I  c #919EA1",
"U  c #929FA2",
"Y  c #93A0A3",
"T  c #99A5A8",
"R  c #9CA7AA",
"E  c #9FAAAD",
"W  c #A0ABAD",
"Q  c #A0ABAE",
"!  c #A4AFB1",
"~  c #A6B0B3",
"^  c #A7B2B4",
"/  c #A8B2B4",
"(  c #A9B3B6",
")  c #AAB3B6",
"_  c #ABB5B7",
"`  c #B0B9BC",
"'  c #B4BCBF",
"]  c #B4BDBF",
"[  c #B5BEC0",
"{  c #B6BEC0",
"}  c #B9C1C3",
"|  c #BEC5C7",
" . c #BEC5C8",
".. c #BFC6C8",
"X. c #C2C9CA",
"o. c #C3CACC",
"O. c #C7CED0",
"+. c #C8CFD0",
"@. c #CBD1D2",
"#. c #CBD1D3",
"$. c #CED4D5",
"%. c #D2D8D9",
"&. c #D4D9DA",
"*. c #D5DADB",
"=. c #DADEE0",
"-. c #DCE0E1",
";. c #DFE2E3",
":. c #DFE3E4",
">. c #E0E4E5",
",. c #E1E4E5",
"<. c #E2E5E6",
"1. c #E4E8E8",
"2. c #E5E8E8",
"3. c #E7EAEB",
"4. c #EBEDEE",
"5. c #EEEFF0",
"6. c #EEF0F1",
"7. c #F0F1F2",
"8. c #F0F2F2",
"9. c #F2F3F4",
"0. c #F2F4F4",
"q. c #F4F5F5",
"w. c #F4F5F6",
"e. c #F5F6F7",
"r. c #F7F7F8",
"t. c #F7F8F9",
"y. c #F8F9F9",
"u. c #F9FAFA",
"i. c #FAFBFB",
"p. c #FBFBFB",
"a. c #FBFCFC",
"s. c #FDFDFD",
"d. c #FEFEFE",
"f. c #FEFFFF",
"g. c white",
/* pixels */
"                                                                                                                                                ",
"                                                                                                                                                ",
"                                                          : : : : : : : : : : : : : :                                                           ",
"                                                  : : : : : : : : : : : : : : : : : : : : : 1                                                   ",
"                                            : : : : : : : : : : : : : : : : : : : : : : : : : : :                                               ",
"                                        : : : : : : : : : : : : : : : : : : : : : : : : : : : : : : : :                                         ",
"                                    : : : : : : : : : : : : : : : : : : : : : : : : : : : : : : : : : : :                                       ",
"                                  : : : : : : : : : : : : : : : : : : : : : : : : : : : : : : : : : : : : : :                                   ",
"                              & : : : : : : : : : : : : : : : : : : : : : : : : : : : : : : : : : : : : : : : :                                 ",
"                            : : : : : : : : : : : : : : : : : : : : : : : : : : : : : : : : : : : : : : : : : : : :                             ",
"                          : : : : : : : : : : : : : : : : : : : : : : : : : : : : : : : : : : : : : : : : : : : : : :                           ",
"                        : : : : : : : : : : : : : : : : : : : : : : : : : : : : : : : : : : : : : : : : : : : : : : : :                         ",
"                      : : : : : : : : : : : : : : : : : : : : : : : : : : : : : : : : : : : : : : : : : : : : : : : : : :                       ",
"                    : : : : : : : : : : : : : : : : : : : : : : : : : : : : : : : : : : : : : : : : : : : : : : : : : : : :                     ",
"                  : : : : : : : : : : : : : : : : : : : : : : : : : : : : : : : : : : : : : : : : : : : : : : : : : : : : : :                   ",
"                & : : : : : : : : : : : : : : : : : : : : : : : : : : : : : : : : : : : : : : : : : : : : : : : : : : : : : : 1                 ",
"              : : : : : : : : : : : : : : : : : : : : : : : : : : : : : : : : : : : : : : : : : : : : : : : : : : : : : : : : :                 ",
"              : : : : : : : : : : : : : : : : : : : : : : : : : : : : : : : : : : : : : : : : : : : : : : : : : : : : : : : : : :               ",
"            : : : : : : : : : : : : : : : : : : : : : : : : : : : : : : : : : : : : : : : : : : : : : : : : : : : : : : : : : : : :             ",
"            : : : : : : : : : : : : : : : : : : : : : : : : : : : : : : : : : : : : : : : : : : : : : : : : : : : : : : : : : : : :             ",
"          : : : : : : : : : : : : : : : : : : : : : : : : : : : : : : : : : : : : : : : : : : : : : : : : : : : : : : : : : : : : : :           ",
"          : : : : : : : : : : : : : : : : : : : : : : : : : : : : : : : : : : : : : : : : : : : : : : : : : : : : : : : : : : : : : :           ",
"        : : : : : : : : : : : : : : : : : : : : : : : : : : : : : : : : : : : : : : : : : : : : : : : : : : : : : : : : : : : : : : : :         ",
"        : : : : : : : : : : : : : : : : : : : : : : : : : : : : : : : : : : : : : : : : : : : : : : : : : : : : : : : : : : : : : : : :         ",
"      & : : : : : : : : : : : : : : : : : : : : : : : : : : : : : : : : : : : : : : : : : : : : : : : : : : : : : : : : : : : : : : : : :       ",
"      : : : : : : : : : : : : : : : : : : : : : : : : : : : : : : : : : : : : : : : : : : : : : : : : : : : : : : : : : : : : : : : : : :       ",
"      : : : : : : : : : : : : : : : : : : : w w & : : : : : : : : : : : : : : : : : : : : : : : : : : : : : : : : : : : : : : : : : : : :       ",
"    : : : : : : : : : : : : : : : : : : & s {  .m : : : : : : : : : : : : : : : : : : : : : : : : : : : : : : : : : : : : : : : : : : : : :     ",
"    : : : : : : : : : : : : : : : : : : & A p.d.>.L 8 & : : : : : : : : : : : : : : : : : : : : : : : : : : : : : : : : : : : : : : : : : :     ",
"    : : : : : : : : : : : : : : : : : : & g @.d.d.6.! t & : : : : : : : : : : : : : : : : : : : : : : : : : : : : : : : : : : : : : : : : :     ",
"    : : : : : : : : : : : : : : : : : : : : d { r.d.p. .j & : : : : : : : : : : : : : : : : : : : : : : : : : : : : : : : : : : : : : : : :     ",
"  : : : : : : : : : : : : : : : : : : : : : : w W 4.d.d.%.C 4 : : : : : : : : : : : : : : : : : : : : : : : : : : : : : : : : : : : : : : :     ",
"  : : : : : : : : : : : : : : : : : : : : : : & 4 J -.d.d.3.I 8 & : : : : : : : : : : : : : : : : : : : : : : : : : : : : : : : : : : : : : :   ",
"  : : : : : : : : : : : : : : : : : : : : : : : & : c +.p.d.0._ i & : : : : : : : : : : : : : : : : : : : : : : : : : : : : : : : : : : : : :   ",
"  : : : : : : : : : : : : : : : : : : : : : : : : : & a ` q.d.p.o.x : : : : : : : : : : : : : : : : : : : : : : : : : : : : : : : : : : : : :   ",
"  : : : : : : : : : : : : : : : : : : : : : : : : : : & w T 4.d.d.*.M & : : : : : : : : : : : : : : : : : : : : : : : : : : : : : : : : : : :   ",
"  & : : : : : : : : : : : : : : : : : : : : : : : : : : & 1 Y q.d.d.] 4 : : : : : : : : : : : : : : : : : : : : : : : : : : : : : : : : : : 3   ",
"  : : : : : : : : : : : : : : : : : : : : : : : : : : : : b O.a.d.9.Y : : : : : : : : : : : : : : : : : : : : : : : : : : : : : : : : : : : 3   ",
"  : : : : : : : : : : : : : : : : : : : : : : : : : & 4 F =.d.d.3.I w : : : : : : : : : : : : : : : : : : : : : : : : : : : : : : : : : : : :   ",
"  : : : : : : : : : : : : : : : : : : : : : : : : & r R 4.d.d.*.B 1 & : : : : : : : : : : : : : : : : : : : : : : : : : : : : : : : : : : : :   ",
"  : : : : : : : : : : : : : : : : : : : : : : : & d ] t.d.p.| k & : : : : : : : : : : : : : : : : : : : : : : : : : : : : : : : : : : : : : :   ",
"  : : : : : : : : : : : : : : : : : : : : : : & m @.d.d.9.^ u & : : : : : : : : : : : : : : : : : : : : : : : : : : : : : : : : : : : : : :     ",
"    : : : : : : : : : : : : : : : : : : : & 4 K >.d.d.>.I 8 & : : : : & . . . . . . . . . . . . . & : : : : : : : : : : : : : : : : : : : :     ",
"    : : : : : : : : : : : : : : : : : : & r E 5.d.d.$.M : : : : : : : C ~ ( ( ( ( ( ( ( ( ( ( ( ( S 8 : : : : : : : : : : : : : : : : : : :     ",
"    : : : : : : : : : : : : : : : : : : & C q.d.p.} g & : : : : : & i *.d.d.d.d.d.d.d.d.d.d.d.d.d.:.z & : : : : : : : : : : : : : : : : : :     ",
"    : : : : : : : : : : : : : : : : : : & m -.3.W e & : : : : : : : t X.7.7.7.7.7.7.7.7.7.7.7.7.7.@.g & : : : : : : : : : : : : : : : : : :     ",
"    & : : : : : : : : : : : : : : : : : : 4 c m 4 : : : : : : : : : : d F J J J J J J J J J J J J k : : : : : : : : : : : : : : : : : : :       ",
"      : : : : : : : : : : : : : : : : : : : & & : : : : : : : : : : : & & & & & & & & & & & & & & & : : : : : : : : : : : : : : : : : : :       ",
"      : : : : : : : : : : : : : : : : : : : : : : : : : : : : : : : : : : : : : : : : : : : : : : : : : : : : : : : : : : : : : : : : : *       ",
"      : : : : : : : : : : : : : : : : : : : : : : : : : : : : : : : : : : : : : : : : : : : : : : : : : : : : : : : : : : : : : : : : :         ",
"        : : : : : : : : : : : : : : : : : : : : : : : : : : : : : : : : : : : : : : : : : : : : : : : : : : : : : : : : : : : : : : : :         ",
"        : : : : : : : : : : : : : : : : : : : : : : : : : : : : : : : : : : : : : : : : : : : : : : : : : : : : : : : : : : : : : : :           ",
"          : : : : : : : : : : : : : : : : : : : : : : : : : : : : : : : : : : : : : : : : : : : : : : : : : : : : : : : : : : : : : :           ",
"          : : : : : : : : : : : : : : : : : : : : : : : : : : : : : : : : : : : : : : : : : : : : : : : : : : : : : : : : : : : : :             ",
"            : : : : : : : : : : : : : : : : : : : : : : : : : : : : : : : : : : : : : : : : : : : : : : : : : : : : : : : : : : : :             ",
"              : : : : : : : : : : : : : : : : : : : : : : : : : : : : : : : : : : : : : : : : : : : : : : : : : : : : : : : : : :               ",
"              : : : : : : : : : : : : : : : : : : : : : : : : : : : : : : : : : : : : : : : : : : : : : : : : : : : : : : : : : :               ",
"                : : : : : : : : : : : : : : : : : : : : : : : : : : : : : : : : : : : : : : : : : : : : : : : : : : : : : : : :                 ",
"                  : : : : : : : : : : : : : : : : : : : : : : : : : : : : : : : : : : : : : : : : : : : : : : : : : : : : : :                   ",
"                    : : : : : : : : : : : : : : : : : : : : : : : : : : : : : : : : : : : : : : : : : : : : : : : : : : : :                     ",
"                    : : : : : : : : : : : : : : : : : : : : : : : : : : : : : : : : : : : : : : : : : : : : : : : : : : :                       ",
"                      : : : : : : : : : : : : : : : : : : : : : : : : : : : : : : : : : : : : : : : : : : : : : : : : :                         ",
"                        : : : : : : : : : : : : : : : : : : : : : : : : : : : : : : : : : : : : : : : : : : : : : : :                           ",
"                            : : : : : : : : : : : : : : : : : : : : : : : : : : : : : : : : : : : : : : : : : : : :                             ",
"                              : : : : : : : : : : : : : : : : : : : : : : : : : : : : : : : : : : : : : : : : : :                               ",
"                                : : : : : : : : : : : : : : : : : : : : : : : : : : : : : : : : : : : : : : : :                                 ",
"                                    : : : : : : : : : : : : : : : : : : : : : : : : : : : : : : : : : : : :                                     ",
"                                        : : : : : : : : : : : : : : : : : : : : : : : : : : : : : : : :                                         ",
"                                            : : : : : : : : : : : : : : : : : : : : : : : : : : : :                                             ",
"                                                : : : : : : : : : : : : : : : : : : : : : : : :                                                 ",
"                                                      : : : : : : : : : : : : : : : : :                                                         ",
"                                                                  : : : 4 4                                                                     "
};
