/* XPM */
static char *emacs[] = {
/* columns rows colors chars-per-pixel */
"24 24 116 2 ",
"   c None",
".  c #7D6391",
"X  c #7E6592",
"o  c #7E6593",
"O  c #7F6593",
"+  c #7F6693",
"@  c #7F6694",
"#  c #806694",
"$  c #806794",
"%  c #816895",
"&  c #816995",
"*  c #826996",
"=  c #826A96",
"-  c #836A96",
";  c #836B97",
":  c #846B97",
">  c #846C97",
",  c #846C98",
"<  c #856D98",
"1  c #866E99",
"2  c #876F9A",
"3  c #87709A",
"4  c #89719B",
"5  c #89729C",
"6  c #8A729C",
"7  c #8A739D",
"8  c #8B749D",
"9  c #8C759E",
"0  c #8D779F",
"q  c #8E77A0",
"w  c #8F79A1",
"e  c #907AA1",
"r  c #907AA2",
"t  c #927CA3",
"y  c #927DA3",
"u  c #947FA5",
"i  c #9580A6",
"p  c #9681A7",
"a  c #9783A7",
"s  c #9884A8",
"d  c #9884A9",
"f  c #9A85A9",
"g  c #9C88AB",
"h  c #9E8BAD",
"j  c #9F8BAE",
"k  c #9F8CAE",
"l  c #A28FB1",
"z  c #A290B1",
"x  c #A391B1",
"c  c #A493B3",
"v  c #A593B3",
"b  c #A897B6",
"n  c #AA99B7",
"m  c #B0A1BD",
"M  c #B2A3BE",
"N  c #B6A8C2",
"B  c #B7A8C2",
"V  c #B7A9C2",
"C  c #B8AAC3",
"Z  c #B9ACC4",
"A  c #BAACC5",
"S  c #BAADC5",
"D  c #BCAEC6",
"F  c #BDB0C7",
"G  c #BFB3C9",
"H  c #C1B4CB",
"J  c #C2B6CC",
"K  c #C6BACF",
"L  c #C6BBCF",
"P  c #C9BED2",
"I  c #CABFD2",
"U  c #CBC1D3",
"Y  c #CCC2D4",
"T  c #CDC3D5",
"R  c #D0C6D7",
"E  c #D1C7D8",
"W  c #D2C9D9",
"Q  c #D4CBDA",
"!  c #D5CCDB",
"~  c #D5CDDC",
"^  c #D8D1DE",
"/  c #D9D1DF",
"(  c #DAD3E0",
")  c #DCD6E2",
"_  c #E0D9E5",
"`  c #E2DDE7",
"'  c #E4DEE8",
"]  c #E5E0EA",
"[  c #E7E2EB",
"{  c #E8E3EC",
"}  c #E8E4EC",
"|  c #EAE6ED",
" . c #EAE6EE",
".. c #EBE7EE",
"X. c #ECE8EF",
"o. c #ECE9EF",
"O. c #EDE9F0",
"+. c #EEEAF0",
"@. c #EFEBF1",
"#. c #EFECF2",
"$. c #F1EEF3",
"%. c #F1EFF4",
"&. c #F2EFF4",
"*. c #F4F2F6",
"=. c #F5F2F6",
"-. c #F6F4F7",
";. c #F8F7F9",
":. c #F9F7FA",
">. c #F9F8FA",
",. c #FAF9FB",
"<. c #FBFAFC",
"1. c #FCFBFC",
"2. c #FDFDFD",
"3. c #FDFDFE",
"4. c #FEFEFE",
"5. c white",
/* pixels */
"                                                ",
"                $ $ $ $ $ $ $ $                 ",
"            $ $ $ $ $ $ $ $ $ $ $ $             ",
"        $ $ $ $ $ $ $ $ $ o o o o $ $           ",
"      $ $ $ $ $ $ $ $ $ = 7 w r 9 = $ $         ",
"      $ $ $ $ $ $ : < = = f B ~ { G < $ $       ",
"    $ $ $ $ $ o a / _ ! L S m S *.1.z o $ $     ",
"  $ $ $ $ $ $ o l <.5.>.X...#.-.5.*.k o $ $     ",
"  $ $ $ $ $ $ $ < T 5.L 7 8 r g n h = $ $ $ $   ",
"  $ $ $ $ $ $ $ o 7 W X.b $ o o o o $ $ $ $ $   ",
"  $ $ $ $ $ o $ < 9 a I O.F < o $ $ $ $ $ $ $   ",
"$ $ $ $ $ = h I ` O.O.{ *.5.Q y $ $ $ $ $ $ $   ",
"$ $ $ $ o c *.5.5.5.X./ T L J c = $ $ $ $ $ $   ",
"  $ $ $ o D 5.5.;.S 9 = $ o o o $ $ $ $ $ $ $   ",
"  $ $ $ o a ..5.$.f . o $ $ $ $ $ $ $ $ $ $ $   ",
"  $ $ $ $ o f ( 5...B u > o o o $ $ $ $ $ $ $   ",
"  $ $ $ $ $ o 3 m ' ;.%.) J b y = o $ $ $ $     ",
"    $ $ $ $ $ $ = 9 z C T ] >.%.R w o $ $ $     ",
"      $ $ $ $ = a n B H U / ..] E y o $ $       ",
"      $ $ $ $ $ = < 7 q r r 9 4 = @ $ $         ",
"        $ $ $ $ $ $ $ o o o o @ $ $ $           ",
"            $ $ $ $ $ $ $ $ $ $ $ $             ",
"                $ $ $ $ $ $ $ $                 ",
"                                                "
};
