/* XPM */
static char *find[] = {
/* columns rows colors chars-per-pixel */
"24 24 30 1 ",
"  c None",
". c #29A197",
"X c #2BA197",
"o c #29A198",
"O c #2AA098",
"+ c #2AA198",
"@ c #2BA198",
"# c #2BA099",
"$ c #2AA199",
"% c #2BA199",
"& c #2AA298",
"* c #2BA298",
"= c #2EA299",
"- c #36A69D",
"; c #3AA8A0",
": c #64BBB3",
"> c #66BBB5",
", c #8BCBC6",
"< c #8BCBC9",
"1 c #8ECDC9",
"2 c #9BD4D0",
"3 c #9DD5D0",
"4 c #C3E5E3",
"5 c #C4E5E3",
"6 c #E2F2F0",
"7 c #E2F3F1",
"8 c #E8F4F4",
"9 c #E9F5F4",
"0 c #EAF6F5",
"q c #EBF7F6",
/* pixels */
"                        ",
"                        ",
"                        ",
"        ++++++          ",
"      ++++++++++        ",
"     X+++++++++++       ",
"    +++++->:-+++++      ",
"    ++++299993++++      ",
"   ++++,9999991++++     ",
"   ++++69999996++++     ",
"   ++++99999999++++     ",
"   X+++99999999++++     ",
"   ++++49999994++++     ",
"    +++;699996;+++      ",
"    ++++=<55<=++++      ",
"     +++++++++++++      ",
"      +++++++++++++     ",
"       +++++++++++++    ",
"         +++X  +++++X   ",
"                +++++   ",
"                 ++++   ",
"                  ++    ",
"                        ",
"                        "
};
