/* XPM */
static char *lock[] = {
/* columns rows colors chars-per-pixel */
"24 24 27 1 ",
"  c None",
". c #FEAF26",
"X c #FEAF27",
"o c #FEB026",
"O c #FEB027",
"+ c #FEBB46",
"@ c #FEBB47",
"# c #FEC156",
"$ c #FEC35D",
"% c #FECF7D",
"& c #FED182",
"* c #FED793",
"= c #FFDA9A",
"- c #FFDDA4",
"; c #FFDEA5",
": c #FFE1AE",
"> c #FFE2B0",
", c #FFE2B1",
"< c #FFE2B2",
"1 c #FFE7BD",
"2 c #FFEAC5",
"3 c #FFEAC6",
"4 c #FFEBC9",
"5 c #FFEFD4",
"6 c #FFF5E2",
"7 c #FFF7EA",
"8 c white",
/* pixels */
"                        ",
"                        ",
"         XXXXXX         ",
"       XXXXXXXXXX       ",
"     XXXXXXXXXXXXXX     ",
"    XXXXXXXXXXXXXXXO    ",
"    XXXXXXX++XXXXXXX    ",
"   XXXXXXX-,,-XXXXXXX   ",
"   XXXXXX+,XX,+XXXXXX   ",
"  XXXXXXX$*XX*$XXXXXXO  ",
"  OXXXXXX$*XX*$XXXXXXX  ",
"  XXXXXX%562265%XXXXXX  ",
"  XXXXXX48811884XXXXXX  ",
"  XXXXXX488&&884XXXXXX  ",
"  XXXXXX488::884XXXXXX  ",
"   XXXXX28877882XXXXX   ",
"   XXXXX#======#XXXXX   ",
"    XXXXXXXXXXXXXXXX    ",
"    OXXXXXXXXXXXXXXX    ",
"     XXXXXXXXXXXXXX     ",
"       XXXXXXXXXX       ",
"         XXXXXX         ",
"                        ",
"                        "
};
