/* XPM */
static char *quit[] = {
/* columns rows colors chars-per-pixel */
"24 24 56 1 ",
"  c None",
". c #63A336",
"X c #63A435",
"o c #62A436",
"O c #63A436",
"+ c #63A437",
"@ c #64A436",
"# c #66A63A",
"$ c #67A63B",
"% c #67A63C",
"& c #68A73C",
"* c #69A73D",
"= c #72AD4A",
"- c #73AD4A",
"; c #75AE4D",
": c #76AF4E",
"> c #8ABB68",
", c #8CBC6B",
"< c #8DBD6C",
"1 c #8EBD6E",
"2 c #90BE70",
"3 c #91BF71",
"4 c #91BF72",
"5 c #98C37A",
"6 c #99C37B",
"7 c #A3C989",
"8 c #A4CA8A",
"9 c #A5CB8B",
"0 c #A6CB8D",
"q c #A9CD90",
"w c #A9CD91",
"e c #B3D39D",
"r c #B9D6A5",
"t c #BAD7A6",
"y c #BCD8A8",
"u c #BDD8AA",
"i c #D8E8CD",
"p c #DCEAD1",
"a c #DCEBD2",
"s c #DDEBD3",
"d c #DDEBD4",
"f c #DEECD4",
"g c #DFECD6",
"h c #E0EDD7",
"j c #E0EDD8",
"k c #E3EFDB",
"l c #E4EFDC",
"z c #E5F0DD",
"x c #E5F0DE",
"c c #F4F9F1",
"v c #F5F9F2",
"b c #F6FAF4",
"n c #F7FAF5",
"m c #F8FBF6",
"M c #F9FCF8",
"N c white",
/* pixels */
"                        ",
"                        ",
"         O.OO.O         ",
"       OOOOOOOOOO       ",
"     OOOOOOOOOOOOO.     ",
"    OOOOOOOOOOOOOOOO    ",
"    OOOO&w2jj2w&OOOO    ",
"   OOOO:xN6jj6Nl:OOOO   ",
"   OOO&xv>OjjO<nj%OOO   ",
"  OOOOwN<OOjjOO2N0OOOO  ",
"  .OOOhsOOOjjOOOhdOOOO  ",
"  OOOOMyOOOjjOOOymOOOO  ",
"  OOOOnrOOOOOOOOrnOOOO  ",
"  OOOOssOOOOOOOOgsOOO@  ",
"  OOOO9N<OOOOOO2N7OOOO  ",
"   OOO$jv,OOOO<vg$OOO   ",
"   OOOO-jNieeiNg-OOOO   ",
"    OOOO$9smms7$OOOO    ",
"    OOOOOOOOOOOOOOOO    ",
"     .OOOOOOOOOOOOO     ",
"       OOOOOOOOOO       ",
"         OOOOOO         ",
"                        ",
"                        "
};
