/* XPM */
static char *shutdown[] = {
/* columns rows colors chars-per-pixel */
"24 24 48 1 ",
"  c None",
". c #FF5555",
"X c #FF5656",
"o c #FF5858",
"O c #FF5959",
"+ c #FF5A5A",
"@ c #FF5B5B",
"# c #FF6666",
"$ c #FF6868",
"% c #FF6A6A",
"& c #FF8080",
"* c #FF8282",
"= c #FF8383",
"- c #FF8484",
"; c #FF8686",
": c #FF8787",
"> c #FF8888",
", c #FF8E8E",
"< c #FF9090",
"1 c #FF9B9B",
"2 c #FF9C9C",
"3 c #FF9D9D",
"4 c #FF9E9E",
"5 c #FFA1A1",
"6 c #FFA2A2",
"7 c #FFACAC",
"8 c #FFB3B3",
"9 c #FFB4B4",
"0 c #FFB6B6",
"q c #FFB7B7",
"w c #FFD4D4",
"e c #FFD8D8",
"r c #FFD9D9",
"t c #FFDADA",
"y c #FFDBDB",
"u c #FFDCDC",
"i c #FFDDDD",
"p c #FFDEDE",
"a c #FFE0E0",
"s c #FFE2E2",
"d c #FFE3E3",
"f c #FFF3F3",
"g c #FFF4F4",
"h c #FFF6F6",
"j c #FFF7F7",
"k c #FFF8F8",
"l c #FFF9F9",
"z c white",
/* pixels */
"                        ",
"                        ",
"         ......         ",
"       ..........       ",
"     ..............     ",
"    ................    ",
"    ....+6;pp;6+....    ",
"   ....%sz,pp<zs%....   ",
"   ...+sg&.pp.;gs+...   ",
"  ....6z&..pp..>z3....  ",
"  ....pt...pp...pt....  ",
"  ....l0...pp...0l....  ",
"  ....g8........0g....  ",
"  ....tt........tt....  ",
"  ....3z;......;z1....  ",
"   ...+pf&....&gp+...   ",
"   ....#pzw77wzp#....   ",
"    ....+3tggt1+....    ",
"    ................    ",
"     ..............     ",
"       ..........       ",
"         ......         ",
"                        ",
"                        "
};
