/* XPM */
static char *Thunar[] = {
/* columns rows colors chars-per-pixel */
"24 24 29 1 ",
"  c None",
". c #5A9BE4",
"X c #5B9BE4",
"o c #5C9CE4",
"O c #5D9CE4",
"+ c #5E9DE4",
"@ c #609EE4",
"# c #619EE4",
"$ c #6AA3E4",
"% c #6BA4E4",
"& c #6CA5E4",
"* c #6DA5E4",
"= c #6EA6E4",
"- c #76AAE4",
"; c #77AAE4",
": c #8AB4E4",
"> c #A4C3E5",
", c #C9D6E5",
"< c #D2DBE5",
"1 c #D3DBE5",
"2 c #D4DCE5",
"3 c #D5DCE5",
"4 c #D5DDE5",
"5 c #DADFE5",
"6 c #E0E3E5",
"7 c gray90",
"8 c #E6E5E5",
"9 c #E6E6E5",
"0 c #E7E6E5",
/* pixels */
"                        ",
"                        ",
"                        ",
" 7777777                ",
"777777777               ",
"7777777776211111111112  ",
"777777777>************- ",
"77777777,$XXXXXXXXXXXX  ",
"52222221:Xoooooooooooo  ",
"-******%oooooooooooooo  ",
"XXXXXXXXoooooooooooooo  ",
"oooooooooooooooooooooo  ",
"oooooooooooooooooooooo  ",
"oooooooooooooooooooooo  ",
"oooooooooooooooooooooo  ",
"oooooooooooooooooooooo  ",
"oooooooooooooooooooooo  ",
"oooooooooooooooooooooo  ",
"oooooooooooooooooooooo  ",
"oooooooooooooooooooooo  ",
"ooooooooooooooooooooooo ",
" @@@@@@@@@@@@@@@@@@@@@  ",
"                        ",
"                        "
};
