/* XPM */
static char *audacious[] = {
/* columns rows colors chars-per-pixel */
"24 24 65 1 ",
"  c None",
". c #568DDA",
"X c #588EDA",
"o c #598EDA",
"O c #598FDB",
"+ c #5A8FDB",
"@ c #5A90DB",
"# c #5B90DB",
"$ c #5C90DB",
"% c #5D91DB",
"& c #5E92DC",
"* c #6194DC",
"= c #6496DD",
"- c #6798DE",
"; c #699ADE",
": c #6C9CDF",
"> c #73A0E0",
", c #74A1E1",
"< c #80A9E3",
"1 c #87ADE3",
"2 c #83ABE4",
"3 c #84ACE4",
"4 c #85ACE4",
"5 c #89AEE4",
"6 c #89AFE4",
"7 c #89AFE5",
"8 c #8BB0E4",
"9 c #93B6E7",
"0 c #98B9E8",
"q c #A5C2EB",
"w c #A6C2EB",
"e c #ACC7ED",
"r c #ADC7ED",
"t c #ADC8ED",
"y c #B3CBED",
"u c #B9D0F0",
"i c #CEDCF1",
"p c #CEDDF2",
"a c #CFDDF2",
"s c #CFDEF3",
"d c #CBDCF4",
"f c #CEDEF4",
"g c #CFDFF4",
"h c #D0DEF2",
"j c #D1E0F5",
"k c #DBE6F6",
"l c #E1EAF6",
"z c #E1EBF8",
"x c #E6EFFA",
"c c #E7EFFA",
"v c #F0F4F9",
"b c #F4F6F9",
"n c #F6F7F9",
"m c #F5F7FA",
"M c #F4F8FD",
"N c #F7FAFD",
"B c #F8F9FB",
"V c #F9FBFD",
"C c #FBFCFD",
"Z c #F9FCFE",
"A c #FFFEFD",
"S c #FCFDFE",
"D c #FDFEFF",
"F c #FEFEFE",
"G c white",
/* pixels */
"                        ",
"        ########        ",
"      ############      ",
"    ###############     ",
"   #################    ",
"   ######XXXXXXXX####   ",
"  ######=2777777,#####  ",
"  ######rNVVVVVVz,X###  ",
" ######&pAAAAAAAB7X#### ",
" ######&pvfffffkm7X#### ",
" ######&hh*&&&$8m7X#### ",
" ######&hh&###X7m7X#### ",
" #####X$ph&###.1m7X#### ",
" ####X:9lp&##&<ym7X#### ",
" ###X;jAAp&#X0NAZ7X#### ",
" ###X4ZAAf&#$dAAA7X#### ",
"  ##X>xAAr###tAAx>X###  ",
"  ####4uq-##X-qu4#####  ",
"   ###X#XX###XX#X####   ",
"   #################    ",
"    ###############     ",
"      ############      ",
"        ########        ",
"                        "
};
