/* XPM */
static char *firefox_trunk[] = {
/* columns rows colors chars-per-pixel */
"24 24 143 2 ",
"   c None",
".  c #613FCA",
"X  c #7639D2",
"o  c #753AD2",
"O  c #763AD2",
"+  c #763BD2",
"@  c #763AD3",
"#  c #773AD3",
"$  c #763CD3",
"%  c #773CD4",
"&  c #773ED5",
"*  c #5543C7",
"=  c #5644C7",
"-  c #5644C8",
";  c #5843C8",
":  c #5845C8",
">  c #5B45CC",
",  c #604BCD",
"<  c #774CCE",
"1  c #774DCF",
"2  c #6550CF",
"3  c #7856CE",
"4  c #654DD6",
"5  c #7740D7",
"6  c #7743D9",
"7  c #7844DA",
"8  c #7845DB",
"9  c #7848DE",
"0  c #6C56D1",
"q  c #6D58D3",
"w  c #6E50DB",
"e  c #6F56DC",
"r  c #715BD5",
"t  c #7456D9",
"y  c #775FDC",
"u  c #7E68DB",
"i  c #7F69DC",
"p  c #7F68DD",
"a  c #734FE1",
"s  c #7A4EE1",
"d  c #7A4EE3",
"f  c #7B4FE3",
"g  c #7A50E4",
"h  c #7B52E6",
"j  c #7B53E6",
"k  c #7458E6",
"l  c #775DE7",
"z  c #7B58E2",
"x  c #7C54E8",
"c  c #7C55E8",
"v  c #7C56E9",
"b  c #7C59EE",
"n  c #7D5DEE",
"m  c #7E5CEF",
"M  c #7E61F2",
"N  c #7E62F2",
"B  c #7E64F3",
"V  c #7A62F5",
"C  c #7D60F4",
"Z  c #7E64F5",
"A  c #7F65F5",
"S  c #7D67F6",
"D  c #7F66F6",
"F  c #7E69F7",
"G  c #7F69F8",
"H  c #7F6AF9",
"J  c #7F6AFD",
"K  c #7E6CFF",
"L  c #814EDD",
"P  c #844FDF",
"I  c #825BEA",
"U  c #895DE8",
"Y  c #8A63EE",
"T  c #9365EE",
"R  c #9669EF",
"E  c #8D75E7",
"W  c #8E76E8",
"Q  c #927DEA",
"!  c #8167F6",
"~  c #836AF2",
"^  c #8068F8",
"/  c #806AF9",
"(  c #806BFA",
")  c #806CFB",
"_  c #866CF8",
"`  c #846FFB",
"'  c #806BFE",
"]  c #806DFC",
"[  c #806EFD",
"{  c #816FFD",
"}  c #806CFE",
"|  c #806CFF",
" . c #816FFE",
".. c #946FF4",
"X. c #8B74F5",
"o. c #8C77F7",
"O. c #8D77F7",
"+. c #8674FB",
"@. c #8272FD",
"#. c #8372FD",
"$. c #8070FE",
"%. c #8071FE",
"&. c #8171FF",
"*. c #8473FD",
"=. c #8975F9",
"-. c #9570F4",
";. c #9671F5",
":. c #9870F3",
">. c #9B74F5",
",. c #937DF5",
"<. c #937EF5",
"1. c #A07BF9",
"2. c #A17DFB",
"3. c #A17FFB",
"4. c #A27FFB",
"5. c #A27FFC",
"6. c #9B86F4",
"7. c #9F8BF3",
"8. c #9E8AF4",
"9. c #A387F4",
"0. c #A288F2",
"q. c #A481FD",
"w. c #A583FE",
"e. c #A584FD",
"r. c #A584FE",
"t. c #A684FF",
"y. c #A685FF",
"u. c #A594F1",
"i. c #A796F5",
"p. c #AA99F6",
"a. c #AB9BF6",
"s. c #AA9DF4",
"d. c #B0A5F7",
"f. c #B0A2F8",
"g. c #B2A8F9",
"h. c #B3A9F9",
"j. c #B6AFFB",
"k. c #B7B1FC",
"l. c #B8B3FD",
"z. c #B9B4FD",
"x. c #BAB4FD",
"c. c #BAB6FE",
"v. c #BCB9FF",
/* pixels */
"                                                ",
"                            I                   ",
"                          b -.1.                ",
"                          J 5.y.:.              ",
"                        C ] y.y.y.R             ",
"        m F     <       ' ] 4.y.y.y.T           ",
"        %.]   3 <     a V K ..y.y.y.w.P         ",
"      ( %.%.H B z . ; * * ; w 4.y.y.y.>.#       ",
"    m %.%.%.%.%.%.k - * * * 2 t w.y.y.y.L       ",
"    S %.%.,.6.,.*.%.S 4 * * r g.0.y.y.y.U #     ",
"    ] %.o.x.v.v.x.a.i.Q * * * i v.9.y.y.Y #     ",
"    %.%.%.=.8.v.s.i q * * * * - l.g.y.y.! #     ",
"    ] %.%.%.%.u.= * * * * * * * d.v.y.-.( #     ",
"    M %.%.%.%.E * * * * * * * : k.x.4._ M #     ",
"    s %.%.%.%.X., * * * * * * u v.f._ %.h #     ",
"      S %.%.%.%.~ > * * * * 0 j.a.+.%.%.5       ",
"      6 ] %.%.%.%.) l e y W 7.o.%.%.%.x #       ",
"        9 ] %.%.%.%.%.%.%.%.%.%.%.%.S $         ",
"        # 8 H %.%.%.%.%.%.%.%.%.%.M % #         ",
"          # % h ( %.%.%.%.%.%.H s # #           ",
"              # # 8 s x x h 8 # #               ",
"                  # # # # # #                   ",
"                                                ",
"                                                "
};
