/* XPM */
static char *_bd6bcade7d84652d653eef82ca3a5ed99An4i2J6JywOjcz[] = {
/* columns rows colors chars-per-pixel */
"48 48 131 2 ",
"   c None",
".  c #33667C",
"X  c #4B4B52",
"o  c #78654D",
"O  c #706553",
"+  c #6A715B",
"@  c #6B7D59",
"#  c #737054",
"$  c #4B6A6D",
"%  c #576D66",
"&  c #5B6E63",
"*  c #4E726B",
"=  c #6A7B65",
"-  c #874D27",
";  c #BD6B21",
":  c #A36F3C",
">  c #A07F39",
",  c #DB6C0F",
"<  c #C26C1E",
"1  c #D46E15",
"2  c #E76E05",
"3  c #EF6C00",
"4  c #F06E00",
"5  c #E4750A",
"6  c #F17300",
"7  c #F57C00",
"8  c #C36E23",
"9  c #8E754E",
"0  c #85784A",
"q  c #837055",
"w  c #5D8676",
"e  c #5C8279",
"r  c #6E856B",
"t  c #798564",
"y  c #6A8D70",
"u  c #648373",
"i  c #AB8D3E",
"p  c #CD8B1E",
"a  c #DC8F15",
"s  c #D5921E",
"d  c #F78300",
"f  c #FA8B00",
"g  c #F48A05",
"h  c #EA940E",
"j  c #F49506",
"k  c #FD9601",
"l  c #FF9800",
"z  c #F29609",
"x  c #E29415",
"c  c #E89510",
"v  c #FFA400",
"b  c #FFAB00",
"n  c #FFB300",
"m  c #FEBA0A",
"M  c #E2A311",
"N  c #FEBF11",
"B  c #C38824",
"V  c #C98A20",
"C  c #C08F2E",
"Z  c #CF9123",
"A  c #FDC71D",
"S  c #FDC91F",
"D  c #FDCC24",
"F  c #F8CA28",
"G  c #FDD22D",
"H  c #FCD633",
"J  c #FDD835",
"K  c #F4D338",
"L  c #8B8946",
"P  c #979043",
"I  c #8D8954",
"U  c #83875B",
"Y  c #A08A46",
"T  c #97A35E",
"R  c #9BA65C",
"E  c #8C9E62",
"W  c #84A17A",
"Q  c #DAA547",
"!  c #CABD49",
"~  c #DDB56E",
"^  c #DEAF70",
"/  c #BCC87F",
"(  c #DCC742",
")  c #E1C940",
"_  c #FDDE43",
"`  c #FDE14E",
"'  c #FEE95F",
"]  c #FCE354",
"[  c #D0D57C",
"{  c #FECB7F",
"}  c #FEEB68",
"|  c #F1E877",
" . c #FCEF76",
".. c #FFF176",
"X. c #185C8C",
"o. c #075897",
"O. c #01579B",
"+. c #01599D",
"@. c #0C5E99",
"#. c #225F87",
"$. c #1C638D",
"%. c #166192",
"&. c #1A6697",
"*. c #1D6896",
"=. c #126198",
"-. c #266084",
";. c #2C6282",
":. c #22688D",
">. c #357185",
",. c #2C759B",
"<. c #2A7C9E",
"1. c #357D96",
"2. c #327D98",
"3. c #015CA1",
"4. c #0161A5",
"5. c #0165AA",
"6. c #0169AE",
"7. c #016DB2",
"8. c #0D78B4",
"9. c #0277BD",
"0. c #0E7AB9",
"q. c #1179B1",
"w. c #217BA5",
"e. c #4F8182",
"r. c #62928C",
"t. c #7FA388",
"y. c #5391A8",
"u. c #96B186",
"i. c #85A097",
"p. c #E3C286",
"a. c #FFCC80",
/* pixels */
"                                                                                                ",
"                                                                                                ",
"                                                                                                ",
"                                                                                                ",
"                                                                                                ",
"                                        9.9.9.9.9.9.9.9.                                        ",
"                                  9.9.9.9.9.9.9.9.9.9.9.7.+.O.                                  ",
"                              9.9.9.9.9.9.9.9.9.9.9.9.9.+.O.=.&.@.                              ",
"                          9.9.9.9.9.9.9.9.9.9.9.9.9.9.9.+.O.r.|  .[ u.                          ",
"              3         9.9.9.9.9.9.q.e.w.9.9.9.9.9.9.9.7.+.O.*./ .... .                        ",
"              3 4     9.9.9.9.9.q.I j Y 9.9.9.9.9.9.9.9.9.9.4.O.O.t. .......  J                 ",
"              3 3 : 9.9.9.9.9.1.x l h q.9.9.9.9.9.9.9.9.9.9.9.5.O.O.r. .` } ..J J               ",
"            4 3 3 5 Y Z z k z j l l U 9.9.9.9.9.9.9.9.9.9.9.9.+.O.O.O.r.] J ' _ J               ",
"            3 4 g k l l l l l l l l 2.9.9.9.9.9.9.9.9.9.9.9.9.+.O.E T :.W J J _ J J             ",
"            6 k k l l l l l l l k j w.9.9.9.9.9.9.9.9.9.9.9.9.6.O.*.K K w ) J J J J             ",
"            l l l l l l l l l l k z 5 q ,.9.9.9.9.9.9.9.9.9.9.9.3.O.E J J ( J J J J J           ",
"          l l l l l l l l l l l k k 1 4 4 - X 9.9.9.9.9.9.9.9.9.7.+.%.K J J J D H J J           ",
"          l l l l l l l l l l l k k ~ { { ^ ;.9.9.9.9.9.9.9.9.9.9.5.O.R J J H n H J J           ",
"          l l l l l l l l l l l l l Q a.p.y.9.9.9.9.9.9.9.9.9.9.9.7.O.>.J J H n S J J           ",
"        l l l l l l l l l l l l l l h i.0.9.9.9.9.9.9.9.9.9.9.9.9.7.O.O.! J G n m J J N         ",
"        k l l l l l l l l l l l l l l r 9.9.9.9.9.9.9.9.9.9.9.9.9.9.O.O.y J G n n H H n         ",
"          l l l l l l l l l l k k l l i 9.9.9.9.9.9.9.9.9.9.9.9.9.7.O.O.P J D n n D S n         ",
"          l l l l l l l k f 6 3 3 9 t i 9.9.9.9.9.9.9.9.9.9.9.9.9.+.O.o.n F D n n D n n         ",
"        l k l l l l l l k 4 3 3 8 9.9.9.9.9.9.9.9.9.9.9.9.9.9.9.5.O.O.X.n m S n n m n n         ",
"        l l l l l l l l 7 4 3 3 8 9.9.9.9.9.9.9.9.9.9.9.9.9.9.7.O.O.O.. n n N n n n n n         ",
"        l l l l l l l l 6 3 d k j <.9.9.9.9.9.9.0.9.9.9.9.9.6.O.O.O.O.* n n n n n n n n         ",
"        l l l l l l l l 6 k k l l h e 9.9.8.t c l x u 9.9.3.O.O.O.;.% @ n n n n n n n           ",
"          l l l l l l k f l k l l l l z s j l l l l l = O.O.O.O.O.0 a L n n n n n n n           ",
"          l l l l l l l k l l k l l l l f f 7 4 4 < # ;.O.O.O.O.O.a l M n b n n n n n           ",
"          l l l l l l l l k f 7 7 7 7 6 3 3 3 2 O o.O.O.O.O.O.O.-.k l b b k b n n n             ",
"          l l l l l l l l l l k d 7 3 3 2 8 o X.O.O.O.O.O.O.O.O.+ l l b l l b n n v             ",
"            l l l l l l l l l k k l p -.O.O.O.O.O.O.O.O.O.O.O.o.V l l l l l b b l l             ",
"            l l l l l l l l l l l l l h % O.O.O.O.O.O.O.O.O.#.B l l l l l l b l l               ",
"              l l l l l l l l l l l l l k p + -.O.O.O.X.$ > k l l l l l l l l l l               ",
"                l l l l l l l l l l l l k l l l j h z k k l l l l l l l l l l l                 ",
"                l l l l l l k l l l l l l l l l k l l l l l l l l l l l l l l l                 ",
"                  k l l l l l l l l l l l l l l l l l l l l l l l l l l l l l                   ",
"                    k l l l l l l l l l l l l l l l l l l l l l l l l l l l                     ",
"                      l l l l l l l l l l l l l l l l l l l l l l l l l k                       ",
"                          k l l l l l l l l l l l l l l l l l l l l l l                         ",
"                              l l l l l l l l l l l l l l l l l l l                             ",
"                                  k l l l l l l l l l l l l k l                                 ",
"                                        j l l l l k l k l                                       ",
"                                                                                                ",
"                                                                                                ",
"                                                                                                ",
"                                                                                                ",
"                                                                                                "
};
