/* XPM */
static char *audacious[] = {
/* columns rows colors chars-per-pixel */
"72 72 148 2 ",
"   c None",
".  c #558CDA",
"X  c #568DDA",
"o  c #588EDA",
"O  c #598EDA",
"+  c #598EDB",
"@  c #598FDB",
"#  c #5B8FDA",
"$  c #5A8FDB",
"%  c #5B8FDB",
"&  c #5A90DA",
"*  c #5B90DA",
"=  c #5A90DB",
"-  c #5B90DB",
";  c #5A91DB",
":  c #5B91DB",
">  c #5C90DB",
",  c #5C91DB",
"<  c #5A90DC",
"1  c #5B90DC",
"2  c #5B91DC",
"3  c #5D92DC",
"4  c #5F93DC",
"5  c #6093DC",
"6  c #6194DC",
"7  c #6295DC",
"8  c #6395DC",
"9  c #6294DD",
"0  c #6295DD",
"q  c #6597DD",
"w  c #6798DE",
"e  c #6899DE",
"r  c #6D9CDF",
"t  c #6F9DDF",
"y  c #6F9EDF",
"u  c #709EE0",
"i  c #719FE0",
"p  c #73A0E1",
"a  c #74A1E1",
"s  c #75A2E1",
"d  c #76A2E1",
"f  c #77A3E1",
"g  c #78A3E1",
"h  c #7AA5E1",
"j  c #7AA5E2",
"k  c #7CA7E2",
"l  c #7DA7E2",
"z  c #7EA8E2",
"x  c #7EA8E3",
"c  c #80A9E3",
"v  c #84ABE3",
"b  c #85ACE3",
"n  c #86ADE3",
"m  c #83ABE4",
"M  c #84ACE4",
"N  c #86ADE4",
"B  c #87ADE4",
"V  c #86ADE5",
"C  c #87AEE5",
"Z  c #88AFE5",
"A  c #8CB2E6",
"S  c #8DB2E6",
"D  c #96B8E7",
"F  c #95B7E8",
"G  c #9DBDEA",
"H  c #A6C2EA",
"J  c #A7C3EC",
"K  c #A7C4EC",
"L  c #AAC5EC",
"P  c #ADC7ED",
"I  c #AFC9ED",
"U  c #B0C9ED",
"Y  c #B0CAEE",
"T  c #B1CAEE",
"R  c #B2CBEE",
"E  c #B3CCEE",
"W  c #B6CEEF",
"Q  c #BBD1F0",
"!  c #BCD2F0",
"~  c #BDD3F0",
"^  c #BDD2F1",
"/  c #BED3F0",
"(  c #C3D7F2",
")  c #C4D7F2",
"_  c #C5D8F2",
"`  c #C9DBF3",
"'  c #CADBF3",
"]  c #CADCF3",
"[  c #CFDDF2",
"{  c #CFDEF3",
"}  c #CCDDF4",
"|  c #CFDFF4",
" . c #D0DEF2",
".. c #D1DFF3",
"X. c #D5E1F3",
"o. c #D1E0F5",
"O. c #D2E0F4",
"+. c #D2E1F5",
"@. c #D3E1F5",
"#. c #D6E4F6",
"$. c #D7E4F6",
"%. c #DBE6F4",
"&. c #D8E5F6",
"*. c #DAE6F7",
"=. c #DBE6F7",
"-. c #DEE8F8",
";. c #E0EAF8",
":. c #E1EAF8",
">. c #E2ECF9",
",. c #E3ECF9",
"<. c #E4EDF9",
"1. c #E5EEF9",
"2. c #E8EFFA",
"3. c #E9F0FA",
"4. c #EAF0FA",
"5. c #EAF1FA",
"6. c #EDF3FB",
"7. c #EEF4FC",
"8. c #F0F4FC",
"9. c #F1F6FC",
"0. c #F3F7FC",
"q. c #F5F8FC",
"w. c gray98",
"e. c #FBFBFB",
"r. c #FCFCFA",
"t. c #FDFCFB",
"y. c #FEFDFB",
"u. c #F8FAFD",
"i. c #FAFBFC",
"p. c #FAFBFD",
"a. c #F8FBFE",
"s. c #FBFCFD",
"d. c #FAFCFE",
"f. c #FBFCFE",
"g. c gray99",
"h. c #FDFCFC",
"j. c #FCFCFD",
"k. c #FDFDFD",
"l. c #FCFDFE",
"z. c #FDFDFE",
"x. c #FDFDFF",
"c. c #FDFEFE",
"v. c #FCFEFF",
"b. c #FDFEFF",
"n. c #FEFEFE",
"m. c #FFFFFE",
"M. c #FEFFFF",
"N. c white",
/* pixels */
"                                                                                                                                                ",
"                                                                                                                                                ",
"                                                            - - - - - - - - - - - $                                                             ",
"                                                    - - - - - - - - - - - - - - - - - - - $                                                     ",
"                                              - - - - - - - - - - - - - - - - - - - - - - - - - -                                               ",
"                                          - - - - - - - - - - - - - - - - - - - - - - - - - - - - - -                                           ",
"                                      - - - - - - - - - - - - - - - - - - - - - - - - - - - - - - - - - 1                                       ",
"                                  - - - - - - - - - - - - - - - - - - - - - - - - - - - - - - - - - - - - -                                     ",
"                                - - - - - - - - - - - - - - - - - - - - - - - - - - - - - - - - - - - - - - - 1                                 ",
"                            1 - - - - - - - - - - - - - - - - - - - - - - - - - - - - - - - - - - - - - - - - - -                               ",
"                          - - - - - - - - - - - - - - - - - - - - - - - - - - - - - - - - - - - - - - - - - - - - -                             ",
"                        - - - - - - - - - - - - - - - - - - - - - - - - - - - - - - - - - - - - - - - - - - - - - - -                           ",
"                      - - - - - - - - - - - - - - - - - - - - - - - - - - - - - - - - - - - - - - - - - - - - - - - - -                         ",
"                    1 - - - - - - - - - - - - - - - - - - - - - - - - - - - - - - - - - - - - - - - - - - - - - - - - - -                       ",
"                  - - - - - - - - - - - - - - - - - - - - - - - - - - - - - - - - - - - - - - - - - - - - - - - - - - - - -                     ",
"                  - - - - - - - - - - - - - - - - - - - - - - - - - - - - - - - - - - - - - - - - - - - - - - - - - - - - - -                   ",
"                - - - - - - - - - - - - - - - - - - - - - - - - - - - - - - - - - - - - - - - - - - - - - - - - - - - - - - - -                 ",
"              - - - - - - - - - - - - - - - - - - - - - - - - - - - - - - , - - - - - - - , - - - - - - - - - - - - - - - - - -                 ",
"              - - - - - - - - - - - - - - - - - - - - - - - - - - - - - - - - - - - - - - - - - - - - - - - - - - - - - - - - - -               ",
"            - - - - - - - - - - - - - - - - - - - - - - - - - - - - - - - - - - - - - - - - 1 1 - - - - - - - - - - - - - - - - -               ",
"          - - - - - - - - - - - - - - - - - - - - - i L ' o.o.o.o.o.o.o.o.o.o.o.o.o.o.o.o.o.o.| ~ A 6 - - - - - - - - - - - - - - -             ",
"          - - - - - - - - - - - - - - - - - - - $ z &.i.j.j.j.j.j.j.j.j.j.j.j.j.j.j.j.j.j.j.j.j.j.9.P 6 - - - - - - - - - - - - - -             ",
"        - - - - - - - - - - - - - - - - - - - $ e _ j.j.j.j.j.j.j.j.j.j.j.j.j.j.j.j.j.j.j.j.j.j.j.j.9.A - - - - - - - - - - - - - - -           ",
"        - - - - - - - - - - - - - - - - - - - $ z 6.j.j.j.j.j.j.j.j.j.j.j.j.j.j.j.j.j.j.j.j.j.j.j.j.j.~ - - - - - - - - - - - - - - -           ",
"        - - - - - - - - - - - - - - - - - - - $ N i.j.s.s.j.j.j.j.j.j.j.j.j.j.j.j.j.j.j.j.j.j.j.s.s.j.{ - - - - - - - - - - - - - - - -         ",
"      - - - - - - - - - - - - - - - - - - - - $ n w.w.w.w.s.j.j.j.j.j.j.j.j.j.j.j.j.j.j.j.j.j.w.w.w.t. .- - - - - - - - - - - - - - - -         ",
"      - - - - - - - - - - - - - - - - - - - - $ n w.w.w.w.s.j.j.j.j.j.j.j.j.j.j.j.j.j.j.j.j.j.w.w.w.t. .- - - - - - - - - - - - - - - -         ",
"      - - - - - - - - - - - - - - - - - - - - $ n w.w.w.w.s.j.j.j.j.j.j.j.j.j.j.j.j.j.j.j.j.j.w.w.w.t. .- - - - - - - - - - - - - - - - -       ",
"    - - - - - - - - - - - - - - - - - - - - - $ n w.w.w.w.s.j.j.j.j.j.j.j.j.j.j.j.j.j.j.j.j.j.w.w.w.t. .- - - - - - - - - - - - - - - - -       ",
"    - - - - - - - - - - - - - - - - - - - - - $ n w.w.w.w.H N N N N N N N N N N N N N N N N N &.t.w.t. .- - - - - - - - - - - - - - - - -       ",
"    - - - - - - - - - - - - - - - - - - - - - $ n w.w.w.w.v . $ $ $ $ $ $ $ $ $ $ $ $ $ $ $ $ { t.w.t. .- - - - - - - - - - - - - - - - -       ",
"    - - - - - - - - - - - - - - - - - - - - - $ n w.w.w.w.n $ - - - - - - - - - - - - - - - -  .t.w.t. .- - - - - - - - - - - - - - - - -       ",
"    - - - - - - - - - - - - - - - - - - - - - $ n w.w.w.w.n $ - - - - - - - - - - - - - - - -  .t.w.t. .- - - - - - - - - - - - - - - - - -     ",
"    - - - - - - - - - - - - - - - - - - - - - $ n w.w.w.w.n $ - - - - - - - - - - - - - - - -  .t.w.t. .- - - - - - - - - - - - - - - - - -     ",
"    - - - - - - - - - - - - - - - - - - - - - $ n w.w.w.w.n $ - - - - - - - - - - - - - - - -  .t.w.t. .- - - - - - - - - - - - - - - - - -     ",
"    - - - - - - - - - - - - - - - - - - - - - $ n w.w.w.w.n $ - - - - - - - - - - - - - - - -  .t.w.t. .- - - - - - - - - - - - - - - - - -     ",
"    - - - - - - - - - - - - - - - - - - - - - $ n w.w.w.w.n $ - - - - - - - - - - - - - - - -  .t.w.t. .- - - - - - - - - - - - - - - - - -     ",
"    - - - - - - - - - - - - - - - - - - - - - $ n w.w.w.w.n $ - - - - - - - - - - - - - - - -  .t.w.t. .- - - - - - - - - - - - - - - - - -     ",
"    - - - - - - - - - - - - - - - - - - - - - $ n w.w.w.w.n $ - - - - - - - - - - - - - - - 3  .t.w.t. .- - - - - - - - - - - - - - - - - -     ",
"    - - - - - - - - - - - - - - - - - - - - $ . n w.w.w.w.n $ - - - - - - - - - - - - - $ $ 1  .t.w.t. .- - - - - - - - - - - - - - - - - 1     ",
"    - - - - - - - - - - - - - - - - - - - 6 f f D w.w.w.w.n $ - - - - - - - - - - - - , t j f X.t.w.t. .- - - - - - - - - - - - - - - - -       ",
"    - - - - - - - - - - - - - - - - - w G o.>.1.5.j.j.w.w.N $ - - - - - - - - - - , z ~ -.1.1.q.j.w.t. .- - - - - - - - - - - - - - - - -       ",
"    - - - - - - - - - - - - - - - $ r ) i.j.j.j.j.j.j.j.w.n $ - - - - - - - - - 3 F 5.j.j.j.j.j.j.j.t. .- - - - - - - - - - - - - - - - -       ",
"      - - - - - - - - - - - - - - 6 ~ j.j.j.j.j.j.j.j.j.t.n $ - - - - - - - - $ N 5.j.j.j.j.j.j.j.j.j. .- - - - - - - - - - - - - - - - -       ",
"      - - - - - - - - - - - - - 3 A q.j.j.j.j.j.j.j.j.j.j.N $ - - - - - - - $ q ( j.j.j.j.j.j.j.j.j.j. .- - - - - - - - - - - - - - - - $       ",
"      - - - - - - - - - - - - - 3 W j.j.j.j.j.j.j.j.j.j.j.N $ - - - - - - - $ j 5.j.j.j.j.j.j.j.j.j.j.o.- - - - - - - - - - - - - - - -         ",
"      - - - - - - - - - - - - - 3 | j.j.j.j.j.j.j.j.j.j.j.N $ - - - - - - - $ N s.j.j.j.j.j.j.j.j.j.j.X.- - - - - - - - - - - - - - - -         ",
"        - - - - - - - - - - 3 3 3 ] j.j.j.j.j.j.j.j.j.j.i.m $ - - - - - - - $ m i.j.j.j.j.j.j.j.j.j.j.] - - - - - - - - - - - - - - - -         ",
"        - - - - - - - - - - - - - T j.j.j.j.j.j.j.j.j.j.1.f $ - - - - - - - $ g 1.j.j.j.j.j.j.j.j.j.j.T - - - - - - - - - - - - - - -           ",
"        1 - - - - - - - - - - - - c 7.j.j.j.j.j.j.j.j.j.Q 6 - - - - - - - - $ 6 ~ j.j.j.j.j.j.j.j.j.9.c - - - - - - - - - - - - - - -           ",
"          - - - - - - - - - - - - 3 T s.j.j.j.j.j.j.j.>.k $ - - - - - - - - - $ z >.j.j.j.j.j.j.j.j.T 6 - - - - - - - - - - - - - -             ",
"          1 - - - - - - - - - - - $ e E 9.j.j.j.j.j.=.N , - - - - - - - - - - - 3 N =.j.j.j.j.j.9.E e 1 - - - - - - - - - - - - - -             ",
"            - - - - - - - - - - - - - 6 A Q o.$.] L p - - - - - - - - - - - - - 3 3 f L ' $.o.Q A 6 - - - - - - - - - - - - - - -               ",
"              - - - - - - - - - - - - - $ 5 r r e 1 $ - - - - - - - - - - - - - 3 3 $ - w i r 5 $ - - - - - - - - - - - - - - - -               ",
"              $ - - - - - - - - - - - - - - $ $ 1 - - - - - - - - - - - - - - - - - - - $ $ $ - - - - - - - - - - - - - - - - -                 ",
"                - - - - - - - - - - - - - - - - 3 , - - - - - - - - - - - - - - - - - - - - - - - - - - - - - - - - - - - - - -                 ",
"                  - - - - - - - - - - - - - - - - - - - - - - - - - - - - - - - - - - - - - - - - - - - - - - - - - - - - - -                   ",
"                  - - - - - - - - - - - - - - - - - - - - - - - - - - - - - - - - - - - - - - - - - - - - - - - - - - - - -                     ",
"                    1 - - - - - - - - - - - - - - - - - - - - - - - - - - - - - - - - - - - - - - - - - - - - - - - - - -                       ",
"                      - - - - - - - - - - - - - - - - - - - - - - - - - - - - - - - - - - - - - - - - - - - - - - - - -                         ",
"                        - - - - - - - - - - - - - - - - - - - - - - - - - - - - - - - - - - - - - - - - - - - - - - -                           ",
"                          1 - - - - - - - - - - - - - - - - - - - - - - - - - - - - - - - - - - - - - - - - - - - -                             ",
"                            1 - - - - - - - - - - - - - - - - - - - - - - - - - - - - - - - - - - - - - - - - - -                               ",
"                                - - - - - - - - - - - - - - - - - - - - - - - - - - - - - - - - - - - - - - - -                                 ",
"                                  - - - - - - - - - - - - - - - - - - - - - - - - - - - - - - - - - - - - -                                     ",
"                                      - - - - - - - - - - - - - - - - - - - - - - - - - - - - - - - - - -                                       ",
"                                          - - - - - - - - - - - - - - - - - - - - - - - - - - - - - -                                           ",
"                                              - - - - - - - - - - - - - - - - - - - - - - - - - -                                               ",
"                                                    - - - - - - - - - - - - - - - - - - - -                                                     ",
"                                                            1 - - - - - - - - - - -                                                             ",
"                                                                                                                                                ",
"                                                                                                                                                "
};
