/* XPM */
static char *emacs[] = {
/* columns rows colors chars-per-pixel */
"72 72 126 2 ",
"   c None",
".  c #7E6593",
"X  c #806794",
"o  c #826995",
"O  c #866E99",
"+  c #87709A",
"@  c #8A739C",
"#  c #8F78A0",
"$  c #927CA3",
"%  c #9681A7",
"&  c #9783A8",
"*  c #9985A9",
"=  c #9E8AAD",
"-  c #A08EAF",
";  c #A28FB1",
":  c #A593B3",
">  c #A897B5",
",  c #A999B7",
"<  c #AD9CBA",
"1  c #B1A2BD",
"2  c #B5A6C1",
"3  c #B7A9C2",
"4  c #BBADC6",
"5  c #BDB0C7",
"6  c #BFB3C9",
"7  c #C1B5CB",
"8  c #C4B9CE",
"9  c #C7BCD0",
"0  c #C9BED2",
"q  c #CCC2D5",
"w  c #D0C6D7",
"e  c #D0C7D8",
"r  c #D4CCDB",
"t  c #D8D1DF",
"y  c #D9D2DF",
"u  c #D8D0DE",
"i  c #DAD3E0",
"p  c #DBD3E0",
"a  c #DBD4E1",
"s  c #DCD5E2",
"d  c #DDD6E2",
"f  c #DED7E3",
"g  c #DED8E3",
"h  c #DED8E4",
"j  c #DFD8E4",
"k  c #DFD9E4",
"l  c #DFD9E5",
"z  c #DFD8E4",
"x  c #E0DAE5",
"c  c #E1DBE5",
"v  c #E1DBE6",
"b  c #E2DCE7",
"n  c #E2DDE7",
"m  c #E3DDE7",
"M  c #E3DEE7",
"N  c #E1DBE6",
"B  c #E3DEE8",
"V  c #E4DEE8",
"C  c #E4DFE8",
"Z  c #E4DFE9",
"A  c #E5E0E9",
"S  c #E6E1EA",
"D  c #E7E2EB",
"F  c #E7E3EB",
"G  c #E7E2EB",
"H  c #E8E3EB",
"J  c #E8E4EC",
"K  c #E9E4EC",
"L  c #E9E5EC",
"P  c #E9E5ED",
"I  c #EAE5ED",
"U  c #EAE6ED",
"Y  c #EAE6EE",
"T  c #EBE6EE",
"R  c #EBE7EE",
"E  c #EBE7EE",
"W  c #ECE8EF",
"Q  c #ECE9EF",
"!  c #ECE9EF",
"~  c #EDE9F0",
"^  c #EDEAF0",
"/  c #EDEAF1",
"(  c #EEEAF0",
")  c #EFEBF1",
"_  c #EEECF1",
"`  c #EFECF1",
"'  c #EFECF2",
"]  c #EFEDF2",
"[  c #EFECF1",
"{  c #F0ECF2",
"}  c #F0EDF2",
"|  c #F0EEF3",
" . c #F1EFF3",
".. c #F1EFF4",
"X. c #F2EFF4",
"o. c #F2F0F5",
"O. c #F3F1F5",
"+. c #F4F1F5",
"@. c #F4F2F6",
"#. c #F5F3F6",
"$. c #F5F3F7",
"%. c #F6F4F7",
"&. c #F3F1F5",
"*. c #F6F4F8",
"=. c #F6F5F8",
"-. c #F7F5F8",
";. c #F7F6F9",
":. c #F8F6F9",
">. c #F8F7F9",
",. c #F9F8FA",
"<. c #FAF8FA",
"1. c #FAF9FB",
"2. c #FAFAFB",
"3. c #FBFAFB",
"4. c #FBFAFC",
"5. c #FBFBFC",
"6. c #FCFBFC",
"7. c #FCFCFD",
"8. c #FDFCFD",
"9. c #FDFDFD",
"0. c #FDFDFE",
"q. c #FEFDFE",
"w. c #FEFEFE",
"e. c #FEFEFF",
"r. c #FFFEFF",
"t. c white",
/* pixels */
"                                                                                                                                                ",
"                                                                                                                                                ",
"                                                          X X X X X X X X X X X . X X                                                           ",
"                                                  X X X X X X X X X X X X X X X X X X X X X                                                     ",
"                                              X X X X X X X X X X X X X X X X X X X X X X X X X X                                               ",
"                                        X X X X X X X X X X X X X X X X X X X X X X X X X X X X X X X                                           ",
"                                      X X X X X X X X X X X X X X X X X X X X X X X X X X X X X X X X X o                                       ",
"                                  X X X X X X X X X X X X X X X X X X X X X X X X X X X X X X X X X X X X X                                     ",
"                                X X X X X X X X X X X X X X X X X X X X X X X X X X X X X X X X X X X X X X X X                                 ",
"                            X X X X X X X X X X X X X X X X X X X X X X X X X X X X X X X X X X X X X X X X X X X                               ",
"                          X X X X X X X X X X X X X X X X X X X X X X X X X X X X X X X X X X X X X X X X X X X X X                             ",
"                        X X X X X X X X X X X X X X X X X X X X X X X X X X X X X X X X X X X X X X X X X X X X X X X                           ",
"                      X X X X X X X X X X X X X X X X X X X X X X X X X X X X X X X X X X X X X X X X X X X X X X X X X                         ",
"                    X X X X X X X X X X X X X X X X X X X X X X X X X X X X X X X X X X X X X X X X X X X X X X X X X X X                       ",
"                  X X X X X X X X X X X X X X X X X X X X X X X X X X X X o O O + + + + @ @ @ @ @ + O . . X X X X X X X X X                     ",
"                X X X X X X X X X X X X X X X X X X X X X X X X X X X X X + - 3 0 t Z R ( ' } +...S q : + . X X X X X X X X X                   ",
"                X X X X X X X X X X X X X X X X X X X X X X X X X X X X X X o # ; 1 8 i ' t.t.t.t.t.t.=.q $ . X X X X X X X X X                 ",
"              X X X X X X X X X X X X X X X X X X X X . . o o X . . . . . X X . . . o @ * , 0 ( t.t.t.t.t.r @ X X X X X X X X X                 ",
"            X X X X X X X X X X X X X X X X X X X X o & < 4 4 2 , - * $ @ o . . . . . . . . o $ i t.t.t.t.4.3 X X X X X X X X X X               ",
"            X X X X X X X X X X X X X X X X X X X o < R t.t.t.t.t.4.' b r q 7 3 < > - * $ @ @ & e t.t.t.t.t.d O X X X X X X X X X X             ",
"          X X X X X X X X X X X X X X X X X X X . $ Z t.t.t.t.t.t.t.t.t.t.t.t.t.:.+.} R S B Z R 1.t.t.t.t.t.H $ . X X X X X X X X X             ",
"          X X X X X X X X X X X X X X X X X X X . & R t.t.t.t.t.t.t.t.t.t.t.t.t.t.t.t.t.t.t.t.t.t.t.t.t.t.t.S # . X X X X X X X X X X           ",
"        X X X X X X X X X X X X X X X X X X X X X O r t.t.t.t.t.t.t.t.t.t.t.t.t.t.t.t.t.t.t.t.t.t.t.t.t.t.t.r o X X X X X X X X X X X           ",
"        X X X X X X X X X X X X X X X X X X X X X . , :.t.t.t.t.t.t.t.} j t r r d b R +.=.1.t.t.t.t.t.t.t.( - X X X X X X X X X X X X           ",
"        X X X X X X X X X X X X X X X X X X X X X X O w t.t.t.t.t.1.0 $ O O O O O + @ # * , 4 q d S R S e = o X X X X X X X X X X X X X         ",
"      X X X X X X X X X X X X X X X X X X X X X X X . & S t.t.t.t.' = . X X X X X X X X X X X X O $ & # o X X X X X X X X X X X X X X X         ",
"      X X X X X X X X X X X X X X X X X X X X X X X X X > ' t.t.t.4.6 o . X X X X X X X X X X X X . . . X X X X X X X X X X X X X X X X         ",
"      X X X X X X X X X X X X X X X X X X X X X X X X X o , ' t.t.t.+.2 O . X X X X X X X X X X X X X X X X X X X X X X X X X X X X X X X       ",
"    X X X X X X X X X X X X X X X X X X X X X X X X X X X o , ( t.t.t.=.7 @ . X X X X X X X X X X X X X X X X X X X X X X X X X X X X X X       ",
"    X X X X X X X X X X X X X X X X X X X X X X X X X X X X o : S t.t.t.4.e & . X X X X X X X X X X X X X X X X X X X X X X X X X X X X X       ",
"    X X X X X X X X X X X X X X X X X X X X X X X X X X X X X X & t 6.t.t.t.Z : o . X X X X X X X X X X X X X X X X X X X X X X X X X X X       ",
"    X X X X X X X X X X X X X X X X X X X X X X X X X X X X X X . @ 8 %.t.t.t.} 3 O . X X X X X X X X X X X X X X X X X X X X X X X X X X X     ",
"    X X X X X X X X X X X X X X X X X X X X . . . o O + + @ @ @ + O @ , v 4.t.t.:.q # . X X X X X X X X X X X X X X X X X X X X X X X X X X     ",
"    X X X X X X X X X X X X X X X X X X . . @ * < 7 e v S ( ( R B t 0 4 2 i 1.t.t.t.d = o X X X X X X X X X X X X X X X X X X X X X X X X X     ",
"    X X X X X X X X X X X X X X X X X o & 4 t } t.t.t.t.t.t.t.t.t.t.t.t.6.' =.t.t.t.t.R 1 o X X X X X X X X X X X X X X X X X X X X X X X X     ",
"    X X X X X X X X X X X X X X X . $ 8 R t.t.t.t.t.t.t.t.t.t.t.t.t.t.t.t.t.t.t.t.t.t.t.+.7 @ . X X X X X X X X X X X X X X X X X X X X X .     ",
"    X X X X X X X X X X X X X X . * j t.t.t.t.t.t.t.t.t.t.t.t.t.t.t.t.t.t.t.t.t.t.t.t.t.t.t.r * o X X X X X X X X X X X X X X X X X X X X X     ",
"    X X X X X X X X X X X X X . @ t t.t.t.t.t.t.t.t.t.t.t.t.t.t.t.t.+.R v a r e q 0 8 8 7 6 4 ; o X X X X X X X X X X X X X X X X X X X X X     ",
"    X X X X X X X X X X X X X . 1 1.t.t.t.t.t.t.t.t.t.t.t.t.%.j 7 > = & $ @ @ + O o X . . . . . X X X X X X X X X X X X X X X X X X X X X X     ",
"    X X X X X X X X X X X X X . 8 t.t.t.t.t.t.t.t.t.t.t...q = + o . . . . . . . . X X X X X X X X X X X X X X X X X X X X X X X X X X X X X     ",
"    X X X X X X X X X X X X X . 7 t.t.t.t.t.t.t.t.t.t.b : o . X X X X X X X X X X X X X X X X X X X X X X X X X X X X X X X X X X X X X X X     ",
"    X X X X X X X X X X X X X . , =.t.t.t.t.t.t.t.t.' = . X X X X X X X X X X X X X X X X X X X X X X X X X X X X X X X X X X X X X X X X       ",
"    X X X X X X X X X X X X X . @ t t.t.t.t.t.t.t.t.e O X X X X X X X X X X X X X X X X X X X X X X X X X X X X X X X X X X X X X X X X X       ",
"    X X X X X X X X X X X X X X X = Q t.t.t.t.t.t.t.j @ . X X X X X X X X X X X X X X X X X X X X X X X X X X X X X X X X X X X X X X X X       ",
"      X X X X X X X X X X X X X X X , Q t.t.t.t.t.t.t.q # . . X X X X X X X X X X X X X X X X X X X X X X X X X X X X X X X X X X X X X X       ",
"      X X X X X X X X X X X X X X X X : B t.t.t.t.t.t.t.d : O . X X X X X X X X X X X X X X X X X X X X X X X X X X X X X X X X X X X X         ",
"      o X X X X X X X X X X X X X X X X & q :.t.t.t.t.t.t.+.q > @ X X X X X X X X X X X X X X X X X X X X X X X X X X X X X X X X X X X         ",
"        X X X X X X X X X X X X X X X X . + 1 R t.t.t.t.t.t.t.+.j 4 * + o . . . X X X X X X X X X X X X X X X X X X X X X X X X X X X X         ",
"        X X X X X X X X X X X X X X X X X . o $ 8 ' t.t.t.t.t.t.t.t.+.v 7 > & @ X . . X X X X X X X X X X X X X X X X X X X X X X X X           ",
"        X X X X X X X X X X X X X X X X X X X . o = q o.t.t.t.t.t.t.t.t.t.4.R r 7 < * + X X X X X X X X X X X X X X X X X X X X X X X           ",
"          X X X X X X X X X X X X X X X X X X X X . O - 9 ( 1.t.t.t.t.t.t.t.t.t.t.:.Q j q 1 & O o . X X X X X X X X X X X X X X X X X           ",
"          X X X X X X X X X X X X X X X X X X X X X . . o # < q v R o.1.t.t.t.t.t.t.t.t.t.1.o.t 2 & o . X X X X X X X X X X X X X X             ",
"            X X X X X X X X X X X X X X X X X X X X X X X X X X + & : 1 7 q g ( 6.t.t.t.t.t.t.t.t.R 5 @ X X X X X X X X X X X X X X             ",
"            o X X X X X X X X X X X X X X X X . . . . . . . . . . . . . . o # * > 7 ' t.t.t.t.t.t.t.t.q O X X X X X X X X X X X X               ",
"              X X X X X X X X X X X X X X X o + $ $ $ $ $ & & * * = = = ; > < 2 7 e +.t.t.t.t.t.t.t.t.i @ . X X X X X X X X X X                 ",
"                X X X X X X X X X X X X X X o @ ; 2 9 r b R Q ' } +.=.1.t.t.t.t.t.t.t.t.t.t.t.t.t.( q = X X X X X X X X X X X X                 ",
"                X X X X X X X X X X X X X X X . X + $ * : < 3 7 q t j S R ' o.+.o.' Q S v t q 4 > & O . X X X X X X X X X X X                   ",
"                  X X X X X X X X X X X X X X X X . . . . . o o O O + + @ @ @ @ @ @ @ + + O O o . . . X X X X X X X X X X X                     ",
"                    X X X X X X X X X X X X X X X X X X X X X X X X X X X X X X X X X X X X X X X X X X X X X X X X X X X                       ",
"                      X X X X X X X X X X X X X X X X X X X X X X X X X X X X X X X X X X X X X X X X X X X X X X X X X                         ",
"                        X X X X X X X X X X X X X X X X X X X X X X X X X X X X X X X X X X X X X X X X X X X X X X X                           ",
"                          X X X X X X X X X X X X X X X X X X X X X X X X X X X X X X X X X X X X X X X X X X X X X                             ",
"                            X X X X X X X X X X X X X X X X X X X X X X X X X X X X X X X X X X X X X X X X X X X                               ",
"                                X X X X X X X X X X X X X X X X X X X X X X X X X X X X X X X X X X X X X X X X                                 ",
"                                  X X X X X X X X X X X X X X X X X X X X X X X X X X X X X X X X X X X X X                                     ",
"                                      X X X X X X X X X X X X X X X X X X X X X X X X X X X X X X X X X X                                       ",
"                                        X X X X X X X X X X X X X X X X X X X X X X X X X X X X X X X                                           ",
"                                              X X X X X X X X X X X X X X X X X X X X X X X X X X                                               ",
"                                                  X X X X X X X X X X X X X X X X X X X X X                                                     ",
"                                                          X X X X X X X X X X X X X X                                                           ",
"                                                                                                                                                ",
"                                                                                                                                                "
};
