/* XPM */
static char *steam[] = {
/* columns rows colors chars-per-pixel */
"48 48 167 2 ",
"   c None",
".  c #5693B5",
"X  c #5793B5",
"o  c #5794B5",
"O  c #5894B5",
"+  c #5894B6",
"@  c #5895B6",
"#  c #5995B6",
"$  c #5A96B7",
"%  c #5B96B7",
"&  c #5C97B7",
"*  c #5D98B8",
"=  c #5E98B8",
"-  c #5F99B9",
";  c #6099B9",
":  c #619ABA",
">  c #629ABA",
",  c #629BBA",
"<  c #639BBA",
"1  c #639CBA",
"2  c #659DBC",
"3  c #669DBC",
"4  c #669EBC",
"5  c #679EBC",
"6  c #689EBC",
"7  c #689FBD",
"8  c #699FBD",
"9  c #6AA0BD",
"0  c #6AA0BE",
"q  c #6BA0BE",
"w  c #6BA1BE",
"e  c #6CA1BF",
"r  c #6DA2BF",
"t  c #6FA3C0",
"y  c #70A3C0",
"u  c #70A4C0",
"i  c #71A4C0",
"p  c #71A4C1",
"a  c #76A8C3",
"s  c #79AAC4",
"d  c #7BAAC5",
"f  c #7BABC5",
"g  c #7DACC6",
"h  c #80AEC7",
"j  c #81AFC8",
"k  c #82AFC8",
"l  c #83B0C9",
"z  c #86B1CA",
"x  c #86B2CA",
"c  c #87B3CB",
"v  c #88B3CB",
"b  c #89B4CB",
"n  c #8AB4CC",
"m  c #8AB5CC",
"M  c #8BB5CC",
"N  c #8EB7CE",
"B  c #8FB7CE",
"V  c #90B8CE",
"C  c #91B9CF",
"Z  c #92BACF",
"A  c #93BACF",
"S  c #93BAD0",
"D  c #95BBD0",
"F  c #96BCD1",
"G  c #97BCD1",
"H  c #97BDD2",
"J  c #98BDD2",
"K  c #9FC2D5",
"L  c #A0C2D5",
"P  c #A0C3D6",
"I  c #A1C3D6",
"U  c #A3C4D6",
"Y  c #A3C4D7",
"T  c #A3C5D7",
"R  c #A4C5D7",
"E  c #A5C5D7",
"W  c #A5C6D8",
"Q  c #A6C6D8",
"!  c #A7C7D8",
"~  c #A7C7D9",
"^  c #A8C7D9",
"/  c #A8C8D9",
"(  c #ABC9DA",
")  c #ACCADA",
"_  c #ACCADB",
"`  c #AECBDC",
"'  c #AFCCDC",
"]  c #B0CCDC",
"[  c #B0CDDD",
"{  c #B1CDDD",
"}  c #B1CEDD",
"|  c #B2CEDD",
" . c #B2CEDE",
".. c #B3CFDE",
"X. c #B5D0DF",
"o. c #B6D0DF",
"O. c #BCD4E2",
"+. c #BDD5E2",
"@. c #C0D7E3",
"#. c #C3D8E5",
"$. c #C3D9E5",
"%. c #C4D9E5",
"&. c #C5DAE5",
"*. c #C6DBE6",
"=. c #C9DDE7",
"-. c #CADDE8",
";. c #CCDFE9",
":. c #CDDFE9",
">. c #CEE0EA",
",. c #CFE0EA",
"<. c #D1E2EB",
"1. c #D2E2EB",
"2. c #D4E4EC",
"3. c #D5E4ED",
"4. c #D6E5ED",
"5. c #D7E5EE",
"6. c #DAE7EF",
"7. c #DBE8EF",
"8. c #DCE9EF",
"9. c #DCE9F0",
"0. c #DDE9F0",
"q. c #DDEAF0",
"w. c #DFEAF1",
"e. c #DFEBF1",
"r. c #E0EBF1",
"t. c #E1EBF1",
"y. c #E1ECF2",
"u. c #E3EDF3",
"i. c #E5EEF3",
"p. c #E5EEF4",
"a. c #E5EFF4",
"s. c #E6EFF4",
"d. c #E7F0F4",
"f. c #E7F0F5",
"g. c #E8F0F5",
"h. c #E8F1F5",
"j. c #E9F1F5",
"k. c #EAF1F6",
"l. c #EAF2F6",
"z. c #EBF2F6",
"x. c #EDF4F7",
"c. c #EEF4F7",
"v. c #EEF4F8",
"b. c #EFF4F8",
"n. c #EFF5F8",
"m. c #F0F6F9",
"M. c #F1F6F9",
"N. c #F2F6F9",
"B. c #F2F7F9",
"V. c #F2F7FA",
"C. c #F3F7FA",
"Z. c #F4F8FA",
"A. c #F5F8FA",
"S. c #F5F8FB",
"D. c #F5F9FB",
"F. c #F6F9FB",
"G. c #F7FAFC",
"H. c #F8FAFC",
"J. c #FAFCFD",
"K. c #FBFCFD",
"L. c #FBFDFD",
"P. c #FCFDFE",
"I. c #FDFDFE",
"U. c #FDFEFE",
"Y. c #FEFEFE",
"T. c #FEFFFF",
"R. c white",
/* pixels */
"                                                                                                ",
"                                          # # # # # #                                           ",
"                                  # # # # # # # # # # # # # #                                   ",
"                            # # # # # # # # # # # # # # # # # # #                               ",
"                        # # # # # # # # # # # # # # # # # # # # # # #                           ",
"                      # # # # # # # # # # # # # # # # # # # # # # # # # #                       ",
"                  # # # # # # # # # # # # # # # # # # # # # # # # # # # # #                     ",
"                # # # # # # # # # # # # # # # # # # # # # # # # # # # # # # #                   ",
"              # # # # # # # # # # # # # # # # # # # # # # # # # # # # # # # # #                 ",
"            # # # # # # # # # # # # # # # # # # # # # # # # # # # # # # # # # # #               ",
"            # # # # # # # # # # # # # # # # # # # # # # # o * 5 0 5 * o # # # # # #             ",
"          # # # # # # # # # # # # # # # # # # # # # # # , C $.y.j.r.$.C , # # # # # #           ",
"        # # # # # # # # # # # # # # # # # # # # # # # t &.J.R.Z.n.Z.R.J.&.p # # # # #           ",
"        # # # # # # # # # # # # # # # # # # # # # # 0 ,.R.a.Q c h c Q a.R.,.0 # # # # #         ",
"      # # # # # # # # # # # # # # # # # # # # # # # ..R.8.c I 5.j.5.I c 9.R.' # # # # #         ",
"      # # # # # # # # # # # # # # # # # # # # # # p j.Z.N ..R.R.R.R.R...N Z.j.p # # # # #       ",
"    # # # # # # # # # # # # # # # # # # # # # # X S R.:.M C.R.R.R.R.R.C.M :.R.C X # # # #       ",
"    # # # # # # # # # # # # # # # # # # # # # # X ^ R...T R.R.R.R.R.R.R.T ..R.Q X # # # # #     ",
"    # # # # # # # # # # # # # # # # # # # # # # 5 <.R...T R.R.R.R.R.R.R.T ..R.Q X # # # # #     ",
"    # # # # # # # # # # # # # # # # # # # # # # Q R.R.:.M C.R.R.R.R.R.C.M :.R.C X # # # # #     ",
"  # # # # # # # # # # # # # # # # # # # # # o g j.R.R.Z.N ..R.R.R.R.R...N Z.j.p # # # # # #     ",
"  # # # # # # # # # # # # # # # # # # # # # 1 -.R.R.R.R.9.c I 5.j.5.I c 9.R.` # # # # # # #     ",
"  # # # # # 8 8 # o # # # # # # # # # # # # I J.R.R.R.R.R.a.Q v h v Q a.R.,.0 # # # # # # #     ",
"  # # # # X T 9._ s * o # # # # # # # # X s j.R.R.R.R.R.R.R.R.C.x.Z.R.J.&.y # # # # # # # #     ",
"  # # # # X ( R.R.n.=.F 0 # o # o & 5 8 r &.R.R.R.R.R.R.R.R.R.R.Z.y.$.C , # # # # # # # # #     ",
"  # # # # X R R.R.R.R.J.y...j 5 l +.9.j.f.J.R.R.R.R.R.R.R.R.R.5.c 5 * o # # # # # # # # # #     ",
"  # # # # X F J.R.R.R.R.R.R.C.7.C.R.Z.x.Z.R.R.R.R.R.R.R.R.Z.o.0 o # # # # # # # # # # # # #     ",
"  # # # # o j Z.R.R.R.R.R.R.R.R.R.R.6.I M o.Z.R.R.R.R.R.y.S * # # # # # # # # # # # # # # #     ",
"    # # # # r j.R.R.R.R.R.R.R.R.R.R.R.Z.<.M R J.R.R.J.&.a # # # # # # # # # # # # # # # # #     ",
"    # # # # * R i.J.R.R.R.R.R.R.R.R.R.R.R.a.l 5.R.n.R , o # # # # # # # # # # # # # # # # #     ",
"    # # # # # # r J -.C.R.R.R.R.R.R.R.R.R.R.I ..R...# # # # # # # # # # # # # # # # # # # #     ",
"    # # # # # # # o , s _ i.R.R.R.R.R.R.R.R.K ..R.R X # # # # # # # # # # # # # # # # # #       ",
"      # # # # # # # # o o D J.J.C.R.R.R.R.i.l 5.J.N o # # # # # # # # # # # # # # # # # #       ",
"      # # # # # # # # # # 0 r.R.@.( <.f.,.M Q R.9.0 # # # # # # # # # # # # # # # # # #         ",
"        # # # # # # # # # # F H.Z.o.M h b o.G.H.F # # # # # # # # # # # # # # # # # # #         ",
"        # # # # # # # # # # * T C.R.Z.n.Z.R.C.T * # # # # # # # # # # # # # # # # # #           ",
"          # # # # # # # # # # # j +.9.j.9.+.l # # # # # # # # # # # # # # # # # # # #           ",
"            # # # # # # # # # # o & 5 0 5 & o # # # # # # # # # # # # # # # # # # #             ",
"            # # # # # # # # # # # # # # # # # # # # # # # # # # # # # # # # # # #               ",
"              # # # # # # # # # # # # # # # # # # # # # # # # # # # # # # # # #                 ",
"                # # # # # # # # # # # # # # # # # # # # # # # # # # # # # # #                   ",
"                  # # # # # # # # # # # # # # # # # # # # # # # # # # # # #                     ",
"                      # # # # # # # # # # # # # # # # # # # # # # # # # #                       ",
"                        # # # # # # # # # # # # # # # # # # # # # # #                           ",
"                            # # # # # # # # # # # # # # # # # # #                               ",
"                                  # # # # # # # # # # # # # #                                   ",
"                                          # # # # # #                                           ",
"                                                                                                "
};
